<?xml version="1.0" encoding="UTF-8" standalone="no"?>
<!-- This is a Stata 15.1 generated SVG file (http://www.stata.com) -->

<svg version="1.1" width="8.00in" height="5.82in" viewBox="0 0 2574 1872" xmlns="http://www.w3.org/2000/svg" xmlns:xlink="http://www.w3.org/1999/xlink">
	<desc>Stata Graph - rsr1_both</desc>
	<rect x="0" y="0" width="2574" height="1872" style="fill:#F0F0F0;stroke:none"/>
	<rect x="0.00" y="0.00" width="2573.92" height="1872.00" style="fill:#F0F0F0"/>
	<rect x="1.87" y="1.87" width="2570.18" height="1868.26" style="fill:none;stroke:#F0F0F0;stroke-width:3.74"/>
	<rect x="278.96" y="65.56" width="2229.41" height="1539.46" style="fill:#FFFFFF"/>
	<rect x="280.83" y="67.43" width="2225.66" height="1535.72" style="fill:none;stroke:#FFFFFF;stroke-width:3.74"/>
	<line x1="278.96" y1="1563.83" x2="2508.36" y2="1563.83" style="stroke:#E8E8E8;stroke-width:5.62"/>
	<line x1="278.96" y1="1272.40" x2="2508.36" y2="1272.40" style="stroke:#E8E8E8;stroke-width:5.62"/>
	<line x1="278.96" y1="980.97" x2="2508.36" y2="980.97" style="stroke:#E8E8E8;stroke-width:5.62"/>
	<line x1="278.96" y1="689.53" x2="2508.36" y2="689.53" style="stroke:#E8E8E8;stroke-width:5.62"/>
	<line x1="278.96" y1="398.10" x2="2508.36" y2="398.10" style="stroke:#E8E8E8;stroke-width:5.62"/>
	<line x1="278.96" y1="106.74" x2="2508.36" y2="106.74" style="stroke:#E8E8E8;stroke-width:5.62"/>
	<line x1="320.06" y1="783.73" x2="381.43" y2="742.30" stroke-linecap="round" style="stroke:#0000FF;stroke-width:8.42"/>
	<line x1="381.43" y1="742.30" x2="442.73" y2="702.48" stroke-linecap="round" style="stroke:#0000FF;stroke-width:8.42"/>
	<line x1="442.73" y1="702.48" x2="504.10" y2="664.43" stroke-linecap="round" style="stroke:#0000FF;stroke-width:8.42"/>
	<line x1="504.10" y1="664.43" x2="565.48" y2="628.32" stroke-linecap="round" style="stroke:#0000FF;stroke-width:8.42"/>
	<line x1="565.48" y1="628.32" x2="626.77" y2="594.21" stroke-linecap="round" style="stroke:#0000FF;stroke-width:8.42"/>
	<line x1="626.77" y1="594.21" x2="688.14" y2="562.11" stroke-linecap="round" style="stroke:#0000FF;stroke-width:8.42"/>
	<line x1="688.14" y1="562.11" x2="749.52" y2="532.19" stroke-linecap="round" style="stroke:#0000FF;stroke-width:8.42"/>
	<line x1="749.52" y1="532.19" x2="810.81" y2="504.28" stroke-linecap="round" style="stroke:#0000FF;stroke-width:8.42"/>
	<line x1="810.81" y1="504.28" x2="872.18" y2="478.46" stroke-linecap="round" style="stroke:#0000FF;stroke-width:8.42"/>
	<line x1="872.18" y1="478.46" x2="933.56" y2="454.57" stroke-linecap="round" style="stroke:#0000FF;stroke-width:8.42"/>
	<line x1="933.56" y1="454.57" x2="994.85" y2="432.61" stroke-linecap="round" style="stroke:#0000FF;stroke-width:8.42"/>
	<line x1="994.85" y1="432.61" x2="1056.22" y2="412.42" stroke-linecap="round" style="stroke:#0000FF;stroke-width:8.42"/>
	<line x1="1056.22" y1="412.42" x2="1117.60" y2="394.08" stroke-linecap="round" style="stroke:#0000FF;stroke-width:8.42"/>
	<line x1="1117.60" y1="394.08" x2="1178.89" y2="377.34" stroke-linecap="round" style="stroke:#0000FF;stroke-width:8.42"/>
	<line x1="1178.89" y1="377.34" x2="1240.27" y2="362.14" stroke-linecap="round" style="stroke:#0000FF;stroke-width:8.42"/>
	<line x1="1240.27" y1="362.14" x2="1301.64" y2="348.39" stroke-linecap="round" style="stroke:#0000FF;stroke-width:8.42"/>
	<line x1="1301.64" y1="348.39" x2="1362.93" y2="336.08" stroke-linecap="round" style="stroke:#0000FF;stroke-width:8.42"/>
	<line x1="1362.93" y1="336.08" x2="1424.31" y2="325.06" stroke-linecap="round" style="stroke:#0000FF;stroke-width:8.42"/>
	<line x1="1424.31" y1="325.06" x2="1485.68" y2="315.32" stroke-linecap="round" style="stroke:#0000FF;stroke-width:8.42"/>
	<line x1="1485.68" y1="315.32" x2="1546.97" y2="306.64" stroke-linecap="round" style="stroke:#0000FF;stroke-width:8.42"/>
	<line x1="1546.97" y1="306.64" x2="1608.35" y2="299.00" stroke-linecap="round" style="stroke:#0000FF;stroke-width:8.42"/>
	<line x1="1608.35" y1="299.00" x2="1669.64" y2="292.32" stroke-linecap="round" style="stroke:#0000FF;stroke-width:8.42"/>
	<line x1="1669.64" y1="292.32" x2="1731.02" y2="286.29" stroke-linecap="round" style="stroke:#0000FF;stroke-width:8.42"/>
	<line x1="1731.02" y1="286.29" x2="1792.39" y2="281.06" stroke-linecap="round" style="stroke:#0000FF;stroke-width:8.42"/>
	<line x1="1792.39" y1="281.06" x2="1853.68" y2="276.31" stroke-linecap="round" style="stroke:#0000FF;stroke-width:8.42"/>
	<line x1="1853.68" y1="276.31" x2="1915.06" y2="272.13" stroke-linecap="round" style="stroke:#0000FF;stroke-width:8.42"/>
	<line x1="1915.06" y1="272.13" x2="1976.43" y2="268.43" stroke-linecap="round" style="stroke:#0000FF;stroke-width:8.42"/>
	<line x1="1976.43" y1="268.43" x2="2037.72" y2="265.05" stroke-linecap="round" style="stroke:#0000FF;stroke-width:8.42"/>
	<line x1="2037.72" y1="265.05" x2="2099.10" y2="262.07" stroke-linecap="round" style="stroke:#0000FF;stroke-width:8.42"/>
	<line x1="2099.10" y1="262.07" x2="2160.47" y2="259.26" stroke-linecap="round" style="stroke:#0000FF;stroke-width:8.42"/>
	<line x1="2160.47" y1="259.26" x2="2221.76" y2="256.76" stroke-linecap="round" style="stroke:#0000FF;stroke-width:8.42"/>
	<line x1="2221.76" y1="256.76" x2="2283.14" y2="254.43" stroke-linecap="round" style="stroke:#0000FF;stroke-width:8.42"/>
	<line x1="2283.14" y1="254.43" x2="2344.51" y2="252.26" stroke-linecap="round" style="stroke:#0000FF;stroke-width:8.42"/>
	<line x1="2344.51" y1="252.26" x2="2405.81" y2="250.09" stroke-linecap="round" style="stroke:#0000FF;stroke-width:8.42"/>
	<line x1="2405.81" y1="250.09" x2="2467.18" y2="248.08" stroke-linecap="round" style="stroke:#0000FF;stroke-width:8.42"/>
	<line x1="320.06" y1="634.83" x2="381.43" y2="633.63" style="stroke:#0000FF;stroke-width:8.42"/>
	<line x1="381.43" y1="633.63" x2="394.95" y2="633.38" style="stroke:#0000FF;stroke-width:8.42"/>
	<line x1="413.69" y1="632.98" x2="442.73" y2="632.34" style="stroke:#0000FF;stroke-width:8.42"/>
	<line x1="442.73" y1="632.34" x2="488.58" y2="631.29" style="stroke:#0000FF;stroke-width:8.42"/>
	<line x1="507.24" y1="630.81" x2="565.48" y2="629.12" style="stroke:#0000FF;stroke-width:8.42"/>
	<line x1="565.48" y1="629.12" x2="582.13" y2="628.56" style="stroke:#0000FF;stroke-width:8.42"/>
	<line x1="600.87" y1="627.91" x2="626.77" y2="627.03" style="stroke:#0000FF;stroke-width:8.42"/>
	<line x1="626.77" y1="627.03" x2="675.67" y2="624.94" style="stroke:#0000FF;stroke-width:8.42"/>
	<line x1="694.42" y1="624.13" x2="749.52" y2="621.32" style="stroke:#0000FF;stroke-width:8.42"/>
	<line x1="749.52" y1="621.32" x2="769.22" y2="620.11" style="stroke:#0000FF;stroke-width:8.42"/>
	<line x1="787.89" y1="618.91" x2="810.81" y2="617.54" style="stroke:#0000FF;stroke-width:8.42"/>
	<line x1="810.81" y1="617.54" x2="862.61" y2="613.76" style="stroke:#0000FF;stroke-width:8.42"/>
	<line x1="881.27" y1="612.23" x2="933.56" y2="607.80" style="stroke:#0000FF;stroke-width:8.42"/>
	<line x1="933.56" y1="607.80" x2="955.84" y2="605.55" style="stroke:#0000FF;stroke-width:8.42"/>
	<line x1="974.50" y1="603.62" x2="994.85" y2="601.61" style="stroke:#0000FF;stroke-width:8.42"/>
	<line x1="994.85" y1="601.61" x2="1048.91" y2="595.34" style="stroke:#0000FF;stroke-width:8.42"/>
	<line x1="1067.49" y1="593.00" x2="1117.60" y2="586.41" style="stroke:#0000FF;stroke-width:8.42"/>
	<line x1="1117.60" y1="586.41" x2="1141.65" y2="582.79" style="stroke:#0000FF;stroke-width:8.42"/>
	<line x1="1160.23" y1="580.05" x2="1178.89" y2="577.24" style="stroke:#0000FF;stroke-width:8.42"/>
	<line x1="1178.89" y1="577.24" x2="1234.15" y2="568.07" style="stroke:#0000FF;stroke-width:8.42"/>
	<line x1="1252.57" y1="564.77" x2="1301.64" y2="555.76" style="stroke:#0000FF;stroke-width:8.42"/>
	<line x1="1301.64" y1="555.76" x2="1326.09" y2="550.77" style="stroke:#0000FF;stroke-width:8.42"/>
	<line x1="1344.51" y1="547.07" x2="1362.93" y2="543.29" style="stroke:#0000FF;stroke-width:8.42"/>
	<line x1="1362.93" y1="543.29" x2="1417.71" y2="531.23" style="stroke:#0000FF;stroke-width:8.42"/>
	<line x1="1435.97" y1="527.04" x2="1485.68" y2="515.14" style="stroke:#0000FF;stroke-width:8.42"/>
	<line x1="1485.68" y1="515.14" x2="1508.69" y2="509.27" style="stroke:#0000FF;stroke-width:8.42"/>
	<line x1="1526.78" y1="504.60" x2="1546.97" y2="499.45" style="stroke:#0000FF;stroke-width:8.42"/>
	<line x1="1546.97" y1="499.45" x2="1599.18" y2="485.38" style="stroke:#0000FF;stroke-width:8.42"/>
	<line x1="1617.28" y1="480.47" x2="1669.64" y2="465.91" style="stroke:#0000FF;stroke-width:8.42"/>
	<line x1="1669.64" y1="465.91" x2="1689.35" y2="460.28" style="stroke:#0000FF;stroke-width:8.42"/>
	<line x1="1707.37" y1="455.21" x2="1731.02" y2="448.45" style="stroke:#0000FF;stroke-width:8.42"/>
	<line x1="1731.02" y1="448.45" x2="1779.36" y2="434.54" style="stroke:#0000FF;stroke-width:8.42"/>
	<line x1="1797.38" y1="429.31" x2="1853.68" y2="412.98" style="stroke:#0000FF;stroke-width:8.42"/>
	<line x1="1853.68" y1="412.98" x2="1869.29" y2="408.47" style="stroke:#0000FF;stroke-width:8.42"/>
	<line x1="1887.31" y1="403.33" x2="1915.06" y2="395.44" style="stroke:#0000FF;stroke-width:8.42"/>
	<line x1="1915.06" y1="395.44" x2="1959.38" y2="382.97" style="stroke:#0000FF;stroke-width:8.42"/>
	<line x1="1977.40" y1="377.91" x2="2037.72" y2="361.26" style="stroke:#0000FF;stroke-width:8.42"/>
	<line x1="2037.72" y1="361.26" x2="2049.63" y2="358.12" style="stroke:#0000FF;stroke-width:8.42"/>
	<line x1="2067.73" y1="353.29" x2="2099.10" y2="344.93" style="stroke:#0000FF;stroke-width:8.42"/>
	<line x1="2099.10" y1="344.93" x2="2140.20" y2="334.39" style="stroke:#0000FF;stroke-width:8.42"/>
	<line x1="2158.30" y1="329.72" x2="2160.47" y2="329.16" style="stroke:#0000FF;stroke-width:8.42"/>
	<line x1="2160.47" y1="329.16" x2="2221.76" y2="314.20" style="stroke:#0000FF;stroke-width:8.42"/>
	<line x1="2221.76" y1="314.20" x2="2231.09" y2="312.03" style="stroke:#0000FF;stroke-width:8.42"/>
	<line x1="2249.35" y1="307.76" x2="2283.14" y2="299.88" style="stroke:#0000FF;stroke-width:8.42"/>
	<line x1="2283.14" y1="299.88" x2="2322.39" y2="291.27" style="stroke:#0000FF;stroke-width:8.42"/>
	<line x1="2340.65" y1="287.17" x2="2344.51" y2="286.37" style="stroke:#0000FF;stroke-width:8.42"/>
	<line x1="2344.51" y1="286.37" x2="2405.81" y2="273.66" style="stroke:#0000FF;stroke-width:8.42"/>
	<line x1="2405.81" y1="273.66" x2="2414.01" y2="272.05" style="stroke:#0000FF;stroke-width:8.42"/>
	<line x1="2432.43" y1="268.43" x2="2467.18" y2="261.67" style="stroke:#0000FF;stroke-width:8.42"/>
	<line x1="320.06" y1="552.70" x2="381.43" y2="546.11" stroke-linecap="round" style="stroke:#FF0000;stroke-width:8.42"/>
	<line x1="381.43" y1="546.11" x2="442.73" y2="539.59" stroke-linecap="round" style="stroke:#FF0000;stroke-width:8.42"/>
	<line x1="442.73" y1="539.59" x2="504.10" y2="533.08" stroke-linecap="round" style="stroke:#FF0000;stroke-width:8.42"/>
	<line x1="504.10" y1="533.08" x2="565.48" y2="526.64" stroke-linecap="round" style="stroke:#FF0000;stroke-width:8.42"/>
	<line x1="565.48" y1="526.64" x2="626.77" y2="520.13" stroke-linecap="round" style="stroke:#FF0000;stroke-width:8.42"/>
	<line x1="626.77" y1="520.13" x2="688.14" y2="513.69" stroke-linecap="round" style="stroke:#FF0000;stroke-width:8.42"/>
	<line x1="688.14" y1="513.69" x2="749.52" y2="507.25" stroke-linecap="round" style="stroke:#FF0000;stroke-width:8.42"/>
	<line x1="749.52" y1="507.25" x2="810.81" y2="500.74" stroke-linecap="round" style="stroke:#FF0000;stroke-width:8.42"/>
	<line x1="810.81" y1="500.74" x2="872.18" y2="494.22" stroke-linecap="round" style="stroke:#FF0000;stroke-width:8.42"/>
	<line x1="872.18" y1="494.22" x2="933.56" y2="487.71" stroke-linecap="round" style="stroke:#FF0000;stroke-width:8.42"/>
	<line x1="933.56" y1="487.71" x2="994.85" y2="481.03" stroke-linecap="round" style="stroke:#FF0000;stroke-width:8.42"/>
	<line x1="994.85" y1="481.03" x2="1056.22" y2="474.44" stroke-linecap="round" style="stroke:#FF0000;stroke-width:8.42"/>
	<line x1="1056.22" y1="474.44" x2="1117.60" y2="467.68" stroke-linecap="round" style="stroke:#FF0000;stroke-width:8.42"/>
	<line x1="1117.60" y1="467.68" x2="1178.89" y2="460.84" stroke-linecap="round" style="stroke:#FF0000;stroke-width:8.42"/>
	<line x1="1178.89" y1="460.84" x2="1240.27" y2="454.00" stroke-linecap="round" style="stroke:#FF0000;stroke-width:8.42"/>
	<line x1="1240.27" y1="454.00" x2="1301.64" y2="447.01" stroke-linecap="round" style="stroke:#FF0000;stroke-width:8.42"/>
	<line x1="1301.64" y1="447.01" x2="1362.93" y2="439.93" stroke-linecap="round" style="stroke:#FF0000;stroke-width:8.42"/>
	<line x1="1362.93" y1="439.93" x2="1424.31" y2="432.77" stroke-linecap="round" style="stroke:#FF0000;stroke-width:8.42"/>
	<line x1="1424.31" y1="432.77" x2="1485.68" y2="425.53" stroke-linecap="round" style="stroke:#FF0000;stroke-width:8.42"/>
	<line x1="1485.68" y1="425.53" x2="1546.97" y2="418.21" stroke-linecap="round" style="stroke:#FF0000;stroke-width:8.42"/>
	<line x1="1546.97" y1="418.21" x2="1608.35" y2="410.73" stroke-linecap="round" style="stroke:#FF0000;stroke-width:8.42"/>
	<line x1="1608.35" y1="410.73" x2="1669.64" y2="403.25" stroke-linecap="round" style="stroke:#FF0000;stroke-width:8.42"/>
	<line x1="1669.64" y1="403.25" x2="1731.02" y2="395.68" stroke-linecap="round" style="stroke:#FF0000;stroke-width:8.42"/>
	<line x1="1731.02" y1="395.68" x2="1792.39" y2="388.04" stroke-linecap="round" style="stroke:#FF0000;stroke-width:8.42"/>
	<line x1="1792.39" y1="388.04" x2="1853.68" y2="380.48" stroke-linecap="round" style="stroke:#FF0000;stroke-width:8.42"/>
	<line x1="1853.68" y1="380.48" x2="1915.06" y2="372.84" stroke-linecap="round" style="stroke:#FF0000;stroke-width:8.42"/>
	<line x1="1915.06" y1="372.84" x2="1976.43" y2="365.36" stroke-linecap="round" style="stroke:#FF0000;stroke-width:8.42"/>
	<line x1="1976.43" y1="365.36" x2="2037.72" y2="357.88" stroke-linecap="round" style="stroke:#FF0000;stroke-width:8.42"/>
	<line x1="2037.72" y1="357.88" x2="2099.10" y2="350.48" stroke-linecap="round" style="stroke:#FF0000;stroke-width:8.42"/>
	<line x1="2099.10" y1="350.48" x2="2160.47" y2="343.16" stroke-linecap="round" style="stroke:#FF0000;stroke-width:8.42"/>
	<line x1="2160.47" y1="343.16" x2="2221.76" y2="336.08" stroke-linecap="round" style="stroke:#FF0000;stroke-width:8.42"/>
	<line x1="2221.76" y1="336.08" x2="2283.14" y2="329.08" stroke-linecap="round" style="stroke:#FF0000;stroke-width:8.42"/>
	<line x1="2283.14" y1="329.08" x2="2344.51" y2="322.16" stroke-linecap="round" style="stroke:#FF0000;stroke-width:8.42"/>
	<line x1="2344.51" y1="322.16" x2="2405.81" y2="315.49" stroke-linecap="round" style="stroke:#FF0000;stroke-width:8.42"/>
	<line x1="2405.81" y1="315.49" x2="2467.18" y2="308.97" stroke-linecap="round" style="stroke:#FF0000;stroke-width:8.42"/>
	<line x1="320.06" y1="788.71" x2="381.43" y2="779.06" style="stroke:#FF0000;stroke-width:8.42"/>
	<line x1="381.43" y1="779.06" x2="393.98" y2="777.05" style="stroke:#FF0000;stroke-width:8.42"/>
	<line x1="412.48" y1="774.15" x2="442.73" y2="769.49" style="stroke:#FF0000;stroke-width:8.42"/>
	<line x1="442.73" y1="769.49" x2="486.49" y2="762.57" style="stroke:#FF0000;stroke-width:8.42"/>
	<line x1="504.99" y1="759.68" x2="565.48" y2="750.18" style="stroke:#FF0000;stroke-width:8.42"/>
	<line x1="565.48" y1="750.18" x2="578.99" y2="748.01" style="stroke:#FF0000;stroke-width:8.42"/>
	<line x1="597.49" y1="745.12" x2="626.77" y2="740.45" style="stroke:#FF0000;stroke-width:8.42"/>
	<line x1="626.77" y1="740.45" x2="671.41" y2="733.29" style="stroke:#FF0000;stroke-width:8.42"/>
	<line x1="689.91" y1="730.31" x2="749.52" y2="720.50" style="stroke:#FF0000;stroke-width:8.42"/>
	<line x1="749.52" y1="720.50" x2="763.83" y2="718.17" style="stroke:#FF0000;stroke-width:8.42"/>
	<line x1="782.34" y1="715.03" x2="810.81" y2="710.29" style="stroke:#FF0000;stroke-width:8.42"/>
	<line x1="810.81" y1="710.29" x2="856.18" y2="702.56" style="stroke:#FF0000;stroke-width:8.42"/>
	<line x1="874.60" y1="699.43" x2="933.56" y2="689.05" style="stroke:#FF0000;stroke-width:8.42"/>
	<line x1="933.56" y1="689.05" x2="948.36" y2="686.39" style="stroke:#FF0000;stroke-width:8.42"/>
	<line x1="966.78" y1="683.10" x2="994.85" y2="678.11" style="stroke:#FF0000;stroke-width:8.42"/>
	<line x1="994.85" y1="678.11" x2="1040.46" y2="669.66" style="stroke:#FF0000;stroke-width:8.42"/>
	<line x1="1058.88" y1="666.28" x2="1117.60" y2="655.18" style="stroke:#FF0000;stroke-width:8.42"/>
	<line x1="1117.60" y1="655.18" x2="1132.48" y2="652.29" style="stroke:#FF0000;stroke-width:8.42"/>
	<line x1="1150.82" y1="648.67" x2="1178.89" y2="643.20" style="stroke:#FF0000;stroke-width:8.42"/>
	<line x1="1178.89" y1="643.20" x2="1224.34" y2="634.11" style="stroke:#FF0000;stroke-width:8.42"/>
	<line x1="1242.68" y1="630.41" x2="1301.64" y2="618.18" style="stroke:#FF0000;stroke-width:8.42"/>
	<line x1="1301.64" y1="618.18" x2="1315.96" y2="615.12" style="stroke:#FF0000;stroke-width:8.42"/>
	<line x1="1334.30" y1="611.26" x2="1362.93" y2="605.15" style="stroke:#FF0000;stroke-width:8.42"/>
	<line x1="1362.93" y1="605.15" x2="1407.50" y2="595.42" style="stroke:#FF0000;stroke-width:8.42"/>
	<line x1="1425.84" y1="591.39" x2="1485.68" y2="577.96" style="stroke:#FF0000;stroke-width:8.42"/>
	<line x1="1485.68" y1="577.96" x2="1498.79" y2="574.90" style="stroke:#FF0000;stroke-width:8.42"/>
	<line x1="1517.05" y1="570.72" x2="1546.97" y2="563.80" style="stroke:#FF0000;stroke-width:8.42"/>
	<line x1="1546.97" y1="563.80" x2="1590.01" y2="553.67" style="stroke:#FF0000;stroke-width:8.42"/>
	<line x1="1608.19" y1="549.32" x2="1608.35" y2="549.32" style="stroke:#FF0000;stroke-width:8.42"/>
	<line x1="1608.35" y1="549.32" x2="1669.64" y2="534.52" style="stroke:#FF0000;stroke-width:8.42"/>
	<line x1="1669.64" y1="534.52" x2="1680.98" y2="531.71" style="stroke:#FF0000;stroke-width:8.42"/>
	<line x1="1699.16" y1="527.28" x2="1731.02" y2="519.48" style="stroke:#FF0000;stroke-width:8.42"/>
	<line x1="1731.02" y1="519.48" x2="1771.88" y2="509.35" style="stroke:#FF0000;stroke-width:8.42"/>
	<line x1="1790.06" y1="504.84" x2="1792.39" y2="504.28" style="stroke:#FF0000;stroke-width:8.42"/>
	<line x1="1792.39" y1="504.28" x2="1853.68" y2="489.08" style="stroke:#FF0000;stroke-width:8.42"/>
	<line x1="1853.68" y1="489.08" x2="1862.77" y2="486.82" style="stroke:#FF0000;stroke-width:8.42"/>
	<line x1="1880.95" y1="482.32" x2="1915.06" y2="473.87" style="stroke:#FF0000;stroke-width:8.42"/>
	<line x1="1915.06" y1="473.87" x2="1953.67" y2="464.38" style="stroke:#FF0000;stroke-width:8.42"/>
	<line x1="1971.76" y1="459.96" x2="1976.43" y2="458.83" style="stroke:#FF0000;stroke-width:8.42"/>
	<line x1="1976.43" y1="458.83" x2="2037.72" y2="443.95" style="stroke:#FF0000;stroke-width:8.42"/>
	<line x1="2037.72" y1="443.95" x2="2044.56" y2="442.34" style="stroke:#FF0000;stroke-width:8.42"/>
	<line x1="2062.74" y1="438.00" x2="2099.10" y2="429.39" style="stroke:#FF0000;stroke-width:8.42"/>
	<line x1="2099.10" y1="429.39" x2="2135.70" y2="420.86" style="stroke:#FF0000;stroke-width:8.42"/>
	<line x1="2153.87" y1="416.60" x2="2160.47" y2="415.07" style="stroke:#FF0000;stroke-width:8.42"/>
	<line x1="2160.47" y1="415.07" x2="2221.76" y2="401.15" style="stroke:#FF0000;stroke-width:8.42"/>
	<line x1="2221.76" y1="401.15" x2="2226.91" y2="400.03" style="stroke:#FF0000;stroke-width:8.42"/>
	<line x1="2245.17" y1="396.01" x2="2283.14" y2="387.64" style="stroke:#FF0000;stroke-width:8.42"/>
	<line x1="2283.14" y1="387.64" x2="2318.37" y2="380.16" style="stroke:#FF0000;stroke-width:8.42"/>
	<line x1="2336.71" y1="376.30" x2="2344.51" y2="374.61" style="stroke:#FF0000;stroke-width:8.42"/>
	<line x1="2344.51" y1="374.61" x2="2405.81" y2="361.98" style="stroke:#FF0000;stroke-width:8.42"/>
	<line x1="2405.81" y1="361.98" x2="2409.99" y2="361.10" style="stroke:#FF0000;stroke-width:8.42"/>
	<line x1="2428.41" y1="357.56" x2="2467.18" y2="349.91" style="stroke:#FF0000;stroke-width:8.42"/>
	<line x1="278.96" y1="1605.02" x2="278.96" y2="65.56" style="stroke:#000000;stroke-width:3.74"/>
	<line x1="278.96" y1="1563.83" x2="252.90" y2="1563.83" style="stroke:#000000;stroke-width:3.74"/>
	<text x="239.95" y="1588.88" style="font-family:'Helvetica';font-size:71.51px;fill:#000000" text-anchor="end">0</text>
	<line x1="278.96" y1="1272.40" x2="252.90" y2="1272.40" style="stroke:#000000;stroke-width:3.74"/>
	<text x="239.95" y="1297.45" style="font-family:'Helvetica';font-size:71.51px;fill:#000000" text-anchor="end">.2</text>
	<line x1="278.96" y1="980.97" x2="252.90" y2="980.97" style="stroke:#000000;stroke-width:3.74"/>
	<text x="239.95" y="1006.01" style="font-family:'Helvetica';font-size:71.51px;fill:#000000" text-anchor="end">.4</text>
	<line x1="278.96" y1="689.53" x2="252.90" y2="689.53" style="stroke:#000000;stroke-width:3.74"/>
	<text x="239.95" y="714.58" style="font-family:'Helvetica';font-size:71.51px;fill:#000000" text-anchor="end">.6</text>
	<line x1="278.96" y1="398.10" x2="252.90" y2="398.10" style="stroke:#000000;stroke-width:3.74"/>
	<text x="239.95" y="423.15" style="font-family:'Helvetica';font-size:71.51px;fill:#000000" text-anchor="end">.8</text>
	<line x1="278.96" y1="106.74" x2="252.90" y2="106.74" style="stroke:#000000;stroke-width:3.74"/>
	<text x="239.95" y="131.79" style="font-family:'Helvetica';font-size:71.51px;fill:#000000" text-anchor="end">1</text>
	<text x="128.52" y="835.29" style="font-family:'Helvetica';font-size:71.51px;fill:#000000" transform="rotate(-90 128.52,835.29)" text-anchor="middle">1-year RSR</text>
	<line x1="278.96" y1="1605.02" x2="2508.36" y2="1605.02" style="stroke:#000000;stroke-width:3.74"/>
	<line x1="320.14" y1="1605.02" x2="320.14" y2="1631.00" style="stroke:#000000;stroke-width:3.74"/>
	<text x="320.14" y="1693.97" style="font-family:'Helvetica';font-size:71.51px;fill:#000000" text-anchor="middle">1980</text>
	<line x1="626.85" y1="1605.02" x2="626.85" y2="1631.00" style="stroke:#000000;stroke-width:3.74"/>
	<text x="626.85" y="1693.97" style="font-family:'Helvetica';font-size:71.51px;fill:#000000" text-anchor="middle">1985</text>
	<line x1="933.56" y1="1605.02" x2="933.56" y2="1631.00" style="stroke:#000000;stroke-width:3.74"/>
	<text x="933.56" y="1693.97" style="font-family:'Helvetica';font-size:71.51px;fill:#000000" text-anchor="middle">1990</text>
	<line x1="1240.27" y1="1605.02" x2="1240.27" y2="1631.00" style="stroke:#000000;stroke-width:3.74"/>
	<text x="1240.27" y="1693.97" style="font-family:'Helvetica';font-size:71.51px;fill:#000000" text-anchor="middle">1995</text>
	<line x1="1547.05" y1="1605.02" x2="1547.05" y2="1631.00" style="stroke:#000000;stroke-width:3.74"/>
	<text x="1547.05" y="1693.97" style="font-family:'Helvetica';font-size:71.51px;fill:#000000" text-anchor="middle">2000</text>
	<line x1="1853.76" y1="1605.02" x2="1853.76" y2="1631.00" style="stroke:#000000;stroke-width:3.74"/>
	<text x="1853.76" y="1693.97" style="font-family:'Helvetica';font-size:71.51px;fill:#000000" text-anchor="middle">2005</text>
	<line x1="2160.47" y1="1605.02" x2="2160.47" y2="1631.00" style="stroke:#000000;stroke-width:3.74"/>
	<text x="2160.47" y="1693.97" style="font-family:'Helvetica';font-size:71.51px;fill:#000000" text-anchor="middle">2010</text>
	<line x1="2467.18" y1="1605.02" x2="2467.18" y2="1631.00" style="stroke:#000000;stroke-width:3.74"/>
	<text x="2467.18" y="1693.97" style="font-family:'Helvetica';font-size:71.51px;fill:#000000" text-anchor="middle">2015</text>
	<text x="1393.66" y="1772.00" style="font-family:'Helvetica';font-size:71.51px;fill:#000000" text-anchor="middle">Year of diagnosis</text>
	<rect x="301.40" y="1188.34" width="730.94" height="394.16" style="fill:#FFFFFF"/>
	<rect x="303.27" y="1190.21" width="727.19" height="390.41" style="fill:none;stroke:#000000;stroke-width:3.74"/>
	<line x1="329.47" y1="1248.91" x2="572.80" y2="1248.91" style="stroke:#0000FF;stroke-width:8.42"/>
	<line x1="329.47" y1="1339.97" x2="404.36" y2="1339.97" style="stroke:#0000FF;stroke-width:8.42"/>
	<line x1="423.10" y1="1339.97" x2="497.99" y2="1339.97" style="stroke:#0000FF;stroke-width:8.42"/>
	<line x1="516.73" y1="1339.97" x2="572.80" y2="1339.97" style="stroke:#0000FF;stroke-width:8.42"/>
	<line x1="329.47" y1="1430.95" x2="572.80" y2="1430.95" style="stroke:#FF0000;stroke-width:8.42"/>
	<line x1="329.47" y1="1521.93" x2="404.36" y2="1521.93" style="stroke:#FF0000;stroke-width:8.42"/>
	<line x1="423.10" y1="1521.93" x2="497.99" y2="1521.93" style="stroke:#FF0000;stroke-width:8.42"/>
	<line x1="516.73" y1="1521.93" x2="572.80" y2="1521.93" style="stroke:#FF0000;stroke-width:8.42"/>
	<text x="611.81" y="1269.40" style="font-family:'Helvetica';font-size:58.48px;fill:#000000">18-29 Sweden</text>
	<text x="611.81" y="1360.46" style="font-family:'Helvetica';font-size:58.48px;fill:#000000">30-44 Sweden</text>
	<text x="611.81" y="1451.44" style="font-family:'Helvetica';font-size:58.48px;fill:#000000">18-29 SEER</text>
	<text x="611.81" y="1542.41" style="font-family:'Helvetica';font-size:58.48px;fill:#000000">30-44 SEER</text>
</svg>
