<?xml version="1.0" encoding="UTF-8" standalone="no"?>
<!-- This is a Stata 16.0 generated SVG file (http://www.stata.com) -->

<svg version="1.1" width="11.00in" height="8.00in" viewBox="0 0 7920 5760" xmlns="http://www.w3.org/2000/svg" xmlns:xlink="http://www.w3.org/1999/xlink">
	<desc>Stata Graph - surv1</desc>
	<rect x="0" y="0" width="7920" height="5760" style="fill:#F0F0F0;stroke:none"/>
	<rect x="0.00" y="0.00" width="7919.75" height="5760.00" style="fill:#F0F0F0"/>
	<rect x="5.76" y="5.76" width="7908.23" height="5748.48" style="fill:none;stroke:#F0F0F0;stroke-width:11.52"/>
	<rect x="814.77" y="201.72" width="6903.27" height="4776.65" style="fill:#FFFFFF"/>
	<rect x="820.53" y="207.48" width="6891.75" height="4765.13" style="fill:none;stroke:#FFFFFF;stroke-width:11.52"/>
	<line x1="814.77" y1="4851.65" x2="7718.04" y2="4851.65" style="stroke:#E8E8E8;stroke-width:17.28"/>
	<line x1="814.77" y1="3947.01" x2="7718.04" y2="3947.01" style="stroke:#E8E8E8;stroke-width:17.28"/>
	<line x1="814.77" y1="3042.37" x2="7718.04" y2="3042.37" style="stroke:#E8E8E8;stroke-width:17.28"/>
	<line x1="814.77" y1="2137.72" x2="7718.04" y2="2137.72" style="stroke:#E8E8E8;stroke-width:17.28"/>
	<line x1="814.77" y1="1233.08" x2="7718.04" y2="1233.08" style="stroke:#E8E8E8;stroke-width:17.28"/>
	<line x1="814.77" y1="328.44" x2="7718.04" y2="328.44" style="stroke:#E8E8E8;stroke-width:17.28"/>
	<line x1="941.49" y1="530.16" x2="987.52" y2="531.65" style="stroke:#000000;stroke-width:25.92"/>
	<line x1="1027.87" y1="532.88" x2="1073.90" y2="534.62" style="stroke:#000000;stroke-width:25.92"/>
	<line x1="1114.24" y1="536.10" x2="1160.28" y2="537.59" style="stroke:#000000;stroke-width:25.92"/>
	<line x1="1200.62" y1="539.07" x2="1207.55" y2="539.32" style="stroke:#000000;stroke-width:25.92"/>
	<line x1="1207.55" y1="539.32" x2="1246.66" y2="540.56" style="stroke:#000000;stroke-width:25.92"/>
	<line x1="1287.00" y1="542.04" x2="1333.04" y2="543.77" style="stroke:#000000;stroke-width:25.92"/>
	<line x1="1373.38" y1="545.01" x2="1419.41" y2="546.74" style="stroke:#000000;stroke-width:25.92"/>
	<line x1="1459.76" y1="547.98" x2="1473.37" y2="548.48" style="stroke:#000000;stroke-width:25.92"/>
	<line x1="1473.37" y1="548.48" x2="1505.79" y2="549.71" style="stroke:#000000;stroke-width:25.92"/>
	<line x1="1546.13" y1="551.20" x2="1592.17" y2="552.68" style="stroke:#000000;stroke-width:25.92"/>
	<line x1="1632.51" y1="554.17" x2="1678.79" y2="555.65" style="stroke:#000000;stroke-width:25.92"/>
	<line x1="1718.89" y1="557.14" x2="1739.43" y2="557.88" style="stroke:#000000;stroke-width:25.92"/>
	<line x1="1739.43" y1="557.88" x2="1765.17" y2="558.62" style="stroke:#000000;stroke-width:25.92"/>
	<line x1="1805.51" y1="560.11" x2="1851.55" y2="561.84" style="stroke:#000000;stroke-width:25.92"/>
	<line x1="1891.89" y1="563.33" x2="1937.92" y2="564.81" style="stroke:#000000;stroke-width:25.92"/>
	<line x1="1978.27" y1="566.30" x2="2005.49" y2="567.29" style="stroke:#000000;stroke-width:25.92"/>
	<line x1="2005.49" y1="567.29" x2="2024.30" y2="567.78" style="stroke:#000000;stroke-width:25.92"/>
	<line x1="2064.64" y1="569.27" x2="2110.68" y2="570.75" style="stroke:#000000;stroke-width:25.92"/>
	<line x1="2151.02" y1="572.24" x2="2197.06" y2="573.72" style="stroke:#000000;stroke-width:25.92"/>
	<line x1="2237.40" y1="574.96" x2="2271.55" y2="576.20" style="stroke:#000000;stroke-width:25.92"/>
	<line x1="2271.55" y1="576.20" x2="2283.43" y2="576.45" style="stroke:#000000;stroke-width:25.92"/>
	<line x1="2323.78" y1="577.93" x2="2369.81" y2="579.42" style="stroke:#000000;stroke-width:25.92"/>
	<line x1="2410.16" y1="580.41" x2="2456.19" y2="581.89" style="stroke:#000000;stroke-width:25.92"/>
	<line x1="2496.53" y1="583.38" x2="2537.37" y2="584.61" style="stroke:#000000;stroke-width:25.92"/>
	<line x1="2537.37" y1="584.61" x2="2542.57" y2="584.86" style="stroke:#000000;stroke-width:25.92"/>
	<line x1="2582.91" y1="586.10" x2="2628.95" y2="587.34" style="stroke:#000000;stroke-width:25.92"/>
	<line x1="2669.29" y1="588.57" x2="2670.53" y2="588.57" style="stroke:#000000;stroke-width:25.92"/>
	<line x1="2670.53" y1="588.57" x2="2715.32" y2="589.81" style="stroke:#000000;stroke-width:25.92"/>
	<line x1="2755.66" y1="591.05" x2="2801.70" y2="592.29" style="stroke:#000000;stroke-width:25.92"/>
	<line x1="2842.04" y1="593.28" x2="2888.08" y2="594.51" style="stroke:#000000;stroke-width:25.92"/>
	<line x1="2928.42" y1="595.50" x2="2936.34" y2="595.50" style="stroke:#000000;stroke-width:25.92"/>
	<line x1="2936.34" y1="595.50" x2="2974.45" y2="596.25" style="stroke:#000000;stroke-width:25.92"/>
	<line x1="3014.80" y1="597.24" x2="3060.83" y2="598.47" style="stroke:#000000;stroke-width:25.92"/>
	<line x1="3101.18" y1="599.22" x2="3147.21" y2="600.21" style="stroke:#000000;stroke-width:25.92"/>
	<line x1="3187.55" y1="600.95" x2="3202.40" y2="601.20" style="stroke:#000000;stroke-width:25.92"/>
	<line x1="3202.40" y1="601.20" x2="3233.59" y2="601.69" style="stroke:#000000;stroke-width:25.92"/>
	<line x1="3273.93" y1="602.19" x2="3319.97" y2="602.68" style="stroke:#000000;stroke-width:25.92"/>
	<line x1="3360.31" y1="602.93" x2="3406.34" y2="602.93" style="stroke:#000000;stroke-width:25.92"/>
	<line x1="3446.68" y1="602.68" x2="3468.47" y2="602.68" style="stroke:#000000;stroke-width:25.92"/>
	<line x1="3468.47" y1="602.68" x2="3492.72" y2="602.19" style="stroke:#000000;stroke-width:25.92"/>
	<line x1="3533.06" y1="601.44" x2="3579.34" y2="600.45" style="stroke:#000000;stroke-width:25.92"/>
	<line x1="3619.44" y1="599.22" x2="3665.72" y2="597.24" style="stroke:#000000;stroke-width:25.92"/>
	<line x1="3705.82" y1="595.50" x2="3734.53" y2="594.27" style="stroke:#000000;stroke-width:25.92"/>
	<line x1="3734.53" y1="594.27" x2="3751.85" y2="593.03" style="stroke:#000000;stroke-width:25.92"/>
	<line x1="3792.20" y1="590.31" x2="3837.98" y2="587.09" style="stroke:#000000;stroke-width:25.92"/>
	<line x1="3878.32" y1="583.87" x2="3924.11" y2="579.42" style="stroke:#000000;stroke-width:25.92"/>
	<line x1="3964.21" y1="575.21" x2="4000.34" y2="571.74" style="stroke:#000000;stroke-width:25.92"/>
	<line x1="4000.34" y1="571.74" x2="4009.99" y2="570.51" style="stroke:#000000;stroke-width:25.92"/>
	<line x1="4049.84" y1="565.56" x2="4095.63" y2="559.61" style="stroke:#000000;stroke-width:25.92"/>
	<line x1="4135.73" y1="554.66" x2="4181.27" y2="547.73" style="stroke:#000000;stroke-width:25.92"/>
	<line x1="4221.11" y1="541.55" x2="4266.40" y2="534.62" style="stroke:#000000;stroke-width:25.92"/>
	<line x1="4266.40" y1="534.62" x2="4266.65" y2="534.62" style="stroke:#000000;stroke-width:25.92"/>
	<line x1="4306.50" y1="527.69" x2="4351.79" y2="519.77" style="stroke:#000000;stroke-width:25.92"/>
	<line x1="4391.64" y1="512.84" x2="4399.31" y2="511.60" style="stroke:#000000;stroke-width:25.92"/>
	<line x1="4399.31" y1="511.60" x2="4436.93" y2="504.42" style="stroke:#000000;stroke-width:25.92"/>
	<line x1="4476.53" y1="497.00" x2="4521.82" y2="488.58" style="stroke:#000000;stroke-width:25.92"/>
	<line x1="4561.67" y1="480.91" x2="4606.72" y2="472.24" style="stroke:#000000;stroke-width:25.92"/>
	<line x1="4646.32" y1="464.82" x2="4665.38" y2="461.11" style="stroke:#000000;stroke-width:25.92"/>
	<line x1="4665.38" y1="461.11" x2="4691.61" y2="456.16" style="stroke:#000000;stroke-width:25.92"/>
	<line x1="4731.21" y1="448.73" x2="4776.26" y2="440.32" style="stroke:#000000;stroke-width:25.92"/>
	<line x1="4816.10" y1="433.14" x2="4861.40" y2="425.22" style="stroke:#000000;stroke-width:25.92"/>
	<line x1="4901.24" y1="418.29" x2="4931.44" y2="413.09" style="stroke:#000000;stroke-width:25.92"/>
	<line x1="4931.44" y1="413.09" x2="4946.53" y2="410.86" style="stroke:#000000;stroke-width:25.92"/>
	<line x1="4986.38" y1="404.92" x2="5031.92" y2="397.99" style="stroke:#000000;stroke-width:25.92"/>
	<line x1="5072.02" y1="392.30" x2="5117.56" y2="386.85" style="stroke:#000000;stroke-width:25.92"/>
	<line x1="5157.65" y1="381.90" x2="5197.50" y2="377.20" style="stroke:#000000;stroke-width:25.92"/>
	<line x1="5197.50" y1="377.20" x2="5203.44" y2="376.46" style="stroke:#000000;stroke-width:25.92"/>
	<line x1="5243.53" y1="372.75" x2="5289.32" y2="368.04" style="stroke:#000000;stroke-width:25.92"/>
	<line x1="5329.42" y1="364.33" x2="5330.41" y2="364.08" style="stroke:#000000;stroke-width:25.92"/>
	<line x1="5330.41" y1="364.08" x2="5375.45" y2="360.62" style="stroke:#000000;stroke-width:25.92"/>
	<line x1="5415.55" y1="357.65" x2="5461.58" y2="354.18" style="stroke:#000000;stroke-width:25.92"/>
	<line x1="5501.68" y1="351.96" x2="5547.71" y2="349.48" style="stroke:#000000;stroke-width:25.92"/>
	<line x1="5588.06" y1="347.25" x2="5596.47" y2="346.76" style="stroke:#000000;stroke-width:25.92"/>
	<line x1="5596.47" y1="346.76" x2="5634.09" y2="345.27" style="stroke:#000000;stroke-width:25.92"/>
	<line x1="5674.43" y1="343.54" x2="5720.47" y2="341.81" style="stroke:#000000;stroke-width:25.92"/>
	<line x1="5760.81" y1="340.57" x2="5806.85" y2="339.09" style="stroke:#000000;stroke-width:25.92"/>
	<line x1="5847.19" y1="338.10" x2="5862.28" y2="337.60" style="stroke:#000000;stroke-width:25.92"/>
	<line x1="5862.28" y1="337.60" x2="5893.22" y2="336.86" style="stroke:#000000;stroke-width:25.92"/>
	<line x1="5933.56" y1="336.12" x2="5979.60" y2="335.13" style="stroke:#000000;stroke-width:25.92"/>
	<line x1="6019.94" y1="334.63" x2="6065.98" y2="333.89" style="stroke:#000000;stroke-width:25.92"/>
	<line x1="6106.32" y1="333.15" x2="6128.35" y2="332.90" style="stroke:#000000;stroke-width:25.92"/>
	<line x1="6128.35" y1="332.90" x2="6152.35" y2="332.65" style="stroke:#000000;stroke-width:25.92"/>
	<line x1="6192.70" y1="332.16" x2="6238.73" y2="331.66" style="stroke:#000000;stroke-width:25.92"/>
	<line x1="6279.07" y1="331.41" x2="6325.11" y2="331.17" style="stroke:#000000;stroke-width:25.92"/>
	<line x1="6365.45" y1="330.92" x2="6394.41" y2="330.67" style="stroke:#000000;stroke-width:25.92"/>
	<line x1="6394.41" y1="330.67" x2="6411.49" y2="330.42" style="stroke:#000000;stroke-width:25.92"/>
	<line x1="6451.83" y1="330.18" x2="6497.86" y2="329.93" style="stroke:#000000;stroke-width:25.92"/>
	<line x1="6538.21" y1="329.93" x2="6584.24" y2="329.68" style="stroke:#000000;stroke-width:25.92"/>
	<line x1="6624.59" y1="329.43" x2="6660.23" y2="329.43" style="stroke:#000000;stroke-width:25.92"/>
	<line x1="6660.23" y1="329.43" x2="6670.62" y2="329.43" style="stroke:#000000;stroke-width:25.92"/>
	<line x1="6710.96" y1="329.19" x2="6757.00" y2="329.19" style="stroke:#000000;stroke-width:25.92"/>
	<line x1="6797.34" y1="329.19" x2="6843.38" y2="328.94" style="stroke:#000000;stroke-width:25.92"/>
	<line x1="6883.72" y1="328.94" x2="6926.29" y2="328.94" style="stroke:#000000;stroke-width:25.92"/>
	<line x1="6926.29" y1="328.94" x2="6930.00" y2="328.94" style="stroke:#000000;stroke-width:25.92"/>
	<line x1="6970.10" y1="328.69" x2="7016.38" y2="328.69" style="stroke:#000000;stroke-width:25.92"/>
	<line x1="7056.72" y1="328.69" x2="7059.44" y2="328.69" style="stroke:#000000;stroke-width:25.92"/>
	<line x1="7059.44" y1="328.69" x2="7102.76" y2="328.69" style="stroke:#000000;stroke-width:25.92"/>
	<line x1="7143.10" y1="328.69" x2="7189.13" y2="328.69" style="stroke:#000000;stroke-width:25.92"/>
	<line x1="7229.48" y1="328.69" x2="7275.51" y2="328.69" style="stroke:#000000;stroke-width:25.92"/>
	<line x1="7315.85" y1="328.69" x2="7325.26" y2="328.69" style="stroke:#000000;stroke-width:25.92"/>
	<path d="" stroke-linejoin="round" style="fill:none;stroke:#000000;stroke-width:25.92"/>
	<line x1="941.49" y1="562.59" x2="1056.58" y2="567.78" style="stroke:#000000;stroke-width:25.92"/>
	<line x1="1108.55" y1="570.01" x2="1114.24" y2="570.26" style="stroke:#000000;stroke-width:25.92"/>
	<line x1="1165.97" y1="572.49" x2="1207.55" y2="574.47" style="stroke:#000000;stroke-width:25.92"/>
	<line x1="1207.55" y1="574.47" x2="1281.06" y2="577.68" style="stroke:#000000;stroke-width:25.92"/>
	<line x1="1332.79" y1="580.16" x2="1338.48" y2="580.16" style="stroke:#000000;stroke-width:25.92"/>
	<line x1="1390.45" y1="582.63" x2="1473.37" y2="586.10" style="stroke:#000000;stroke-width:25.92"/>
	<line x1="1473.37" y1="586.10" x2="1505.54" y2="587.58" style="stroke:#000000;stroke-width:25.92"/>
	<line x1="1557.27" y1="589.56" x2="1562.96" y2="589.81" style="stroke:#000000;stroke-width:25.92"/>
	<line x1="1614.94" y1="592.04" x2="1730.03" y2="596.74" style="stroke:#000000;stroke-width:25.92"/>
	<line x1="1782.00" y1="598.72" x2="1787.69" y2="598.97" style="stroke:#000000;stroke-width:25.92"/>
	<line x1="1839.42" y1="600.70" x2="1872.59" y2="601.94" style="stroke:#000000;stroke-width:25.92"/>
	<line x1="1872.59" y1="601.94" x2="1954.51" y2="604.66" style="stroke:#000000;stroke-width:25.92"/>
	<line x1="2006.48" y1="606.39" x2="2012.17" y2="606.39" style="stroke:#000000;stroke-width:25.92"/>
	<line x1="2064.15" y1="607.88" x2="2138.40" y2="610.11" style="stroke:#000000;stroke-width:25.92"/>
	<line x1="2138.40" y1="610.11" x2="2179.24" y2="611.10" style="stroke:#000000;stroke-width:25.92"/>
	<line x1="2231.21" y1="612.09" x2="2236.91" y2="612.33" style="stroke:#000000;stroke-width:25.92"/>
	<line x1="2288.88" y1="613.32" x2="2403.97" y2="615.06" style="stroke:#000000;stroke-width:25.92"/>
	<line x1="2455.70" y1="615.55" x2="2461.64" y2="615.55" style="stroke:#000000;stroke-width:25.92"/>
	<line x1="2513.36" y1="616.05" x2="2537.37" y2="616.29" style="stroke:#000000;stroke-width:25.92"/>
	<line x1="2537.37" y1="616.29" x2="2628.70" y2="616.29" style="stroke:#000000;stroke-width:25.92"/>
	<line x1="2680.43" y1="616.29" x2="2686.12" y2="616.29" style="stroke:#000000;stroke-width:25.92"/>
	<line x1="2738.09" y1="615.80" x2="2803.43" y2="615.06" style="stroke:#000000;stroke-width:25.92"/>
	<line x1="2803.43" y1="615.06" x2="2853.18" y2="614.07" style="stroke:#000000;stroke-width:25.92"/>
	<line x1="2905.16" y1="613.08" x2="2910.85" y2="613.08" style="stroke:#000000;stroke-width:25.92"/>
	<line x1="2962.82" y1="611.84" x2="3069.49" y2="608.87" style="stroke:#000000;stroke-width:25.92"/>
	<line x1="3069.49" y1="608.87" x2="3077.91" y2="608.62" style="stroke:#000000;stroke-width:25.92"/>
	<line x1="3129.89" y1="606.39" x2="3135.58" y2="606.15" style="stroke:#000000;stroke-width:25.92"/>
	<line x1="3187.55" y1="604.17" x2="3202.40" y2="603.67" style="stroke:#000000;stroke-width:25.92"/>
	<line x1="3202.40" y1="603.67" x2="3302.64" y2="598.97" style="stroke:#000000;stroke-width:25.92"/>
	<line x1="3354.37" y1="596.49" x2="3360.06" y2="596.25" style="stroke:#000000;stroke-width:25.92"/>
	<line x1="3412.03" y1="593.52" x2="3468.47" y2="590.55" style="stroke:#000000;stroke-width:25.92"/>
	<line x1="3468.47" y1="590.55" x2="3526.88" y2="587.09" style="stroke:#000000;stroke-width:25.92"/>
	<line x1="3578.85" y1="584.12" x2="3584.54" y2="583.87" style="stroke:#000000;stroke-width:25.92"/>
	<line x1="3636.27" y1="580.65" x2="3734.53" y2="574.71" style="stroke:#000000;stroke-width:25.92"/>
	<line x1="3734.53" y1="574.71" x2="3751.36" y2="573.48" style="stroke:#000000;stroke-width:25.92"/>
	<line x1="3803.09" y1="570.26" x2="3808.78" y2="570.01" style="stroke:#000000;stroke-width:25.92"/>
	<line x1="3860.51" y1="566.55" x2="3867.43" y2="566.30" style="stroke:#000000;stroke-width:25.92"/>
	<line x1="3867.43" y1="566.30" x2="3975.59" y2="559.61" style="stroke:#000000;stroke-width:25.92"/>
	<line x1="4027.32" y1="556.40" x2="4033.01" y2="556.15" style="stroke:#000000;stroke-width:25.92"/>
	<line x1="4084.99" y1="552.93" x2="4133.50" y2="549.96" style="stroke:#000000;stroke-width:25.92"/>
	<line x1="4133.50" y1="549.96" x2="4199.83" y2="546.00" style="stroke:#000000;stroke-width:25.92"/>
	<line x1="4251.56" y1="542.78" x2="4257.25" y2="542.54" style="stroke:#000000;stroke-width:25.92"/>
	<line x1="4308.98" y1="539.57" x2="4399.31" y2="534.62" style="stroke:#000000;stroke-width:25.92"/>
	<line x1="4399.31" y1="534.62" x2="4424.06" y2="533.38" style="stroke:#000000;stroke-width:25.92"/>
	<line x1="4476.04" y1="530.66" x2="4481.73" y2="530.41" style="stroke:#000000;stroke-width:25.92"/>
	<line x1="4533.46" y1="527.93" x2="4648.55" y2="522.49" style="stroke:#000000;stroke-width:25.92"/>
	<line x1="4700.52" y1="520.01" x2="4706.21" y2="519.77" style="stroke:#000000;stroke-width:25.92"/>
	<line x1="4757.94" y1="517.79" x2="4798.28" y2="516.05" style="stroke:#000000;stroke-width:25.92"/>
	<line x1="4798.28" y1="516.05" x2="4873.03" y2="513.33" style="stroke:#000000;stroke-width:25.92"/>
	<line x1="4925.00" y1="511.35" x2="4930.69" y2="511.10" style="stroke:#000000;stroke-width:25.92"/>
	<line x1="4982.42" y1="509.37" x2="5064.35" y2="506.65" style="stroke:#000000;stroke-width:25.92"/>
	<line x1="5064.35" y1="506.65" x2="5097.76" y2="505.66" style="stroke:#000000;stroke-width:25.92"/>
	<line x1="5149.48" y1="503.93" x2="5155.43" y2="503.68" style="stroke:#000000;stroke-width:25.92"/>
	<line x1="5207.15" y1="502.19" x2="5322.24" y2="498.98" style="stroke:#000000;stroke-width:25.92"/>
	<line x1="5374.22" y1="497.74" x2="5379.91" y2="497.49" style="stroke:#000000;stroke-width:25.92"/>
	<line x1="5431.88" y1="496.25" x2="5463.31" y2="495.51" style="stroke:#000000;stroke-width:25.92"/>
	<line x1="5463.31" y1="495.51" x2="5546.97" y2="493.53" style="stroke:#000000;stroke-width:25.92"/>
	<line x1="5598.94" y1="492.29" x2="5604.64" y2="492.29" style="stroke:#000000;stroke-width:25.92"/>
	<line x1="5656.61" y1="491.06" x2="5729.38" y2="489.32" style="stroke:#000000;stroke-width:25.92"/>
	<line x1="5729.38" y1="489.32" x2="5771.70" y2="488.58" style="stroke:#000000;stroke-width:25.92"/>
	<line x1="5823.68" y1="487.34" x2="5829.37" y2="487.34" style="stroke:#000000;stroke-width:25.92"/>
	<line x1="5881.34" y1="486.11" x2="5995.44" y2="483.88" style="stroke:#000000;stroke-width:25.92"/>
	<line x1="5995.44" y1="483.88" x2="5996.43" y2="483.88" style="stroke:#000000;stroke-width:25.92"/>
	<line x1="6048.40" y1="482.89" x2="6054.10" y2="482.64" style="stroke:#000000;stroke-width:25.92"/>
	<line x1="6106.07" y1="481.65" x2="6128.35" y2="481.16" style="stroke:#000000;stroke-width:25.92"/>
	<line x1="6128.35" y1="481.16" x2="6221.16" y2="479.42" style="stroke:#000000;stroke-width:25.92"/>
	<line x1="6272.89" y1="478.43" x2="6278.83" y2="478.18" style="stroke:#000000;stroke-width:25.92"/>
	<line x1="6330.56" y1="477.19" x2="6394.41" y2="475.96" style="stroke:#000000;stroke-width:25.92"/>
	<line x1="6394.41" y1="475.96" x2="6445.89" y2="474.97" style="stroke:#000000;stroke-width:25.92"/>
	<line x1="6497.62" y1="473.98" x2="6503.31" y2="473.98" style="stroke:#000000;stroke-width:25.92"/>
	<line x1="6555.28" y1="472.99" x2="6660.23" y2="471.01" style="stroke:#000000;stroke-width:25.92"/>
	<line x1="6660.23" y1="471.01" x2="6670.37" y2="470.76" style="stroke:#000000;stroke-width:25.92"/>
	<line x1="6722.35" y1="469.77" x2="6728.04" y2="469.52" style="stroke:#000000;stroke-width:25.92"/>
	<line x1="6780.02" y1="468.78" x2="6793.38" y2="468.53" style="stroke:#000000;stroke-width:25.92"/>
	<line x1="6793.38" y1="468.53" x2="6895.10" y2="466.80" style="stroke:#000000;stroke-width:25.92"/>
	<line x1="6947.08" y1="465.81" x2="6952.77" y2="465.56" style="stroke:#000000;stroke-width:25.92"/>
	<line x1="7004.74" y1="464.82" x2="7059.44" y2="463.83" style="stroke:#000000;stroke-width:25.92"/>
	<line x1="7059.44" y1="463.83" x2="7119.83" y2="462.59" style="stroke:#000000;stroke-width:25.92"/>
	<line x1="7171.81" y1="461.60" x2="7177.50" y2="461.60" style="stroke:#000000;stroke-width:25.92"/>
	<line x1="7229.48" y1="460.86" x2="7325.26" y2="459.13" style="stroke:#000000;stroke-width:25.92"/>
	<path d="" stroke-linejoin="round" style="fill:none;stroke:#000000;stroke-width:25.92"/>
	<line x1="941.49" y1="700.20" x2="1074.40" y2="702.67" style="stroke:#000000;stroke-width:25.92"/>
	<line x1="1074.40" y1="702.67" x2="1171.91" y2="704.41" style="stroke:#000000;stroke-width:25.92"/>
	<line x1="1229.58" y1="705.64" x2="1340.46" y2="707.38" style="stroke:#000000;stroke-width:25.92"/>
	<line x1="1340.46" y1="707.38" x2="1460.00" y2="709.11" style="stroke:#000000;stroke-width:25.92"/>
	<line x1="1517.67" y1="709.60" x2="1606.52" y2="710.59" style="stroke:#000000;stroke-width:25.92"/>
	<line x1="1606.52" y1="710.59" x2="1739.43" y2="711.34" style="stroke:#000000;stroke-width:25.92"/>
	<line x1="1739.43" y1="711.34" x2="1748.09" y2="711.34" style="stroke:#000000;stroke-width:25.92"/>
	<line x1="1805.76" y1="711.34" x2="1872.59" y2="711.34" style="stroke:#000000;stroke-width:25.92"/>
	<line x1="1872.59" y1="711.34" x2="2005.49" y2="710.35" style="stroke:#000000;stroke-width:25.92"/>
	<line x1="2005.49" y1="710.35" x2="2035.93" y2="709.85" style="stroke:#000000;stroke-width:25.92"/>
	<line x1="2093.60" y1="708.86" x2="2138.40" y2="708.37" style="stroke:#000000;stroke-width:25.92"/>
	<line x1="2138.40" y1="708.37" x2="2271.55" y2="705.15" style="stroke:#000000;stroke-width:25.92"/>
	<line x1="2271.55" y1="705.15" x2="2324.03" y2="703.42" style="stroke:#000000;stroke-width:25.92"/>
	<line x1="2381.69" y1="701.68" x2="2404.46" y2="700.94" style="stroke:#000000;stroke-width:25.92"/>
	<line x1="2404.46" y1="700.94" x2="2537.37" y2="695.25" style="stroke:#000000;stroke-width:25.92"/>
	<line x1="2537.37" y1="695.25" x2="2611.87" y2="691.29" style="stroke:#000000;stroke-width:25.92"/>
	<line x1="2669.29" y1="688.07" x2="2670.53" y2="688.07" style="stroke:#000000;stroke-width:25.92"/>
	<line x1="2670.53" y1="688.07" x2="2803.43" y2="679.66" style="stroke:#000000;stroke-width:25.92"/>
	<line x1="2803.43" y1="679.66" x2="2899.22" y2="672.48" style="stroke:#000000;stroke-width:25.92"/>
	<line x1="2956.64" y1="668.02" x2="3069.49" y2="658.62" style="stroke:#000000;stroke-width:25.92"/>
	<line x1="3069.49" y1="658.62" x2="3186.32" y2="647.48" style="stroke:#000000;stroke-width:25.92"/>
	<line x1="3243.49" y1="641.79" x2="3335.31" y2="632.63" style="stroke:#000000;stroke-width:25.92"/>
	<line x1="3335.31" y1="632.63" x2="3468.47" y2="619.26" style="stroke:#000000;stroke-width:25.92"/>
	<line x1="3468.47" y1="619.26" x2="3472.67" y2="618.77" style="stroke:#000000;stroke-width:25.92"/>
	<line x1="3530.09" y1="613.08" x2="3601.37" y2="605.90" style="stroke:#000000;stroke-width:25.92"/>
	<line x1="3601.37" y1="605.90" x2="3734.53" y2="593.28" style="stroke:#000000;stroke-width:25.92"/>
	<line x1="3734.53" y1="593.28" x2="3759.53" y2="591.05" style="stroke:#000000;stroke-width:25.92"/>
	<line x1="3816.95" y1="586.35" x2="3867.43" y2="581.89" style="stroke:#000000;stroke-width:25.92"/>
	<line x1="3867.43" y1="581.89" x2="4000.34" y2="571.50" style="stroke:#000000;stroke-width:25.92"/>
	<line x1="4000.34" y1="571.50" x2="4046.63" y2="568.53" style="stroke:#000000;stroke-width:25.92"/>
	<line x1="4104.05" y1="564.57" x2="4133.50" y2="562.59" style="stroke:#000000;stroke-width:25.92"/>
	<line x1="4133.50" y1="562.59" x2="4266.40" y2="555.41" style="stroke:#000000;stroke-width:25.92"/>
	<line x1="4266.40" y1="555.41" x2="4333.97" y2="552.68" style="stroke:#000000;stroke-width:25.92"/>
	<line x1="4391.64" y1="550.46" x2="4399.31" y2="550.21" style="stroke:#000000;stroke-width:25.92"/>
	<line x1="4399.31" y1="550.21" x2="4532.47" y2="546.99" style="stroke:#000000;stroke-width:25.92"/>
	<line x1="4532.47" y1="546.99" x2="4622.06" y2="546.50" style="stroke:#000000;stroke-width:25.92"/>
	<line x1="4679.73" y1="546.50" x2="4798.28" y2="547.98" style="stroke:#000000;stroke-width:25.92"/>
	<line x1="4798.28" y1="547.98" x2="4910.15" y2="551.20" style="stroke:#000000;stroke-width:25.92"/>
	<line x1="4967.57" y1="553.67" x2="5064.35" y2="558.13" style="stroke:#000000;stroke-width:25.92"/>
	<line x1="5064.35" y1="558.13" x2="5197.50" y2="566.55" style="stroke:#000000;stroke-width:25.92"/>
	<line x1="5197.50" y1="566.55" x2="5197.75" y2="566.55" style="stroke:#000000;stroke-width:25.92"/>
	<line x1="5255.17" y1="571.25" x2="5330.41" y2="577.19" style="stroke:#000000;stroke-width:25.92"/>
	<line x1="5330.41" y1="577.19" x2="5463.31" y2="589.56" style="stroke:#000000;stroke-width:25.92"/>
	<line x1="5463.31" y1="589.56" x2="5484.60" y2="591.79" style="stroke:#000000;stroke-width:25.92"/>
	<line x1="5541.77" y1="597.98" x2="5596.47" y2="603.92" style="stroke:#000000;stroke-width:25.92"/>
	<line x1="5596.47" y1="603.92" x2="5729.38" y2="620.25" style="stroke:#000000;stroke-width:25.92"/>
	<line x1="5729.38" y1="620.25" x2="5770.46" y2="625.70" style="stroke:#000000;stroke-width:25.92"/>
	<line x1="5827.64" y1="633.37" x2="5862.28" y2="637.83" style="stroke:#000000;stroke-width:25.92"/>
	<line x1="5862.28" y1="637.83" x2="5995.44" y2="657.13" style="stroke:#000000;stroke-width:25.92"/>
	<line x1="5995.44" y1="657.13" x2="6055.58" y2="666.54" style="stroke:#000000;stroke-width:25.92"/>
	<line x1="6112.76" y1="675.20" x2="6128.35" y2="677.68" style="stroke:#000000;stroke-width:25.92"/>
	<line x1="6128.35" y1="677.68" x2="6261.26" y2="699.46" style="stroke:#000000;stroke-width:25.92"/>
	<line x1="6261.26" y1="699.46" x2="6339.96" y2="712.82" style="stroke:#000000;stroke-width:25.92"/>
	<line x1="6396.64" y1="722.72" x2="6527.32" y2="746.73" style="stroke:#000000;stroke-width:25.92"/>
	<line x1="6527.32" y1="746.73" x2="6623.10" y2="765.29" style="stroke:#000000;stroke-width:25.92"/>
	<line x1="6679.78" y1="776.43" x2="6793.38" y2="799.70" style="stroke:#000000;stroke-width:25.92"/>
	<line x1="6793.38" y1="799.70" x2="6905.25" y2="823.95" style="stroke:#000000;stroke-width:25.92"/>
	<line x1="6961.68" y1="836.33" x2="7059.44" y2="858.85" style="stroke:#000000;stroke-width:25.92"/>
	<line x1="7059.44" y1="858.85" x2="7185.91" y2="889.30" style="stroke:#000000;stroke-width:25.92"/>
	<line x1="7241.60" y1="903.65" x2="7325.26" y2="924.94" style="stroke:#000000;stroke-width:25.92"/>
	<path d="" stroke-linejoin="round" style="fill:none;stroke:#000000;stroke-width:25.92"/>
	<line x1="941.49" y1="1015.03" x2="1074.40" y2="990.77" style="stroke:#000000;stroke-width:25.92"/>
	<line x1="1074.40" y1="990.77" x2="1168.20" y2="974.19" style="stroke:#000000;stroke-width:25.92"/>
	<line x1="1225.13" y1="964.29" x2="1230.57" y2="963.30" style="stroke:#000000;stroke-width:25.92"/>
	<line x1="1287.49" y1="953.89" x2="1340.46" y2="944.98" style="stroke:#000000;stroke-width:25.92"/>
	<line x1="1340.46" y1="944.98" x2="1473.37" y2="923.95" style="stroke:#000000;stroke-width:25.92"/>
	<line x1="1473.37" y1="923.95" x2="1514.95" y2="917.76" style="stroke:#000000;stroke-width:25.92"/>
	<line x1="1571.87" y1="909.34" x2="1577.57" y2="908.35" style="stroke:#000000;stroke-width:25.92"/>
	<line x1="1634.74" y1="900.19" x2="1739.43" y2="885.83" style="stroke:#000000;stroke-width:25.92"/>
	<line x1="1739.43" y1="885.83" x2="1863.18" y2="870.48" style="stroke:#000000;stroke-width:25.92"/>
	<line x1="1920.35" y1="863.80" x2="1926.05" y2="863.06" style="stroke:#000000;stroke-width:25.92"/>
	<line x1="1983.22" y1="856.62" x2="2005.49" y2="853.90" style="stroke:#000000;stroke-width:25.92"/>
	<line x1="2005.49" y1="853.90" x2="2138.40" y2="840.29" style="stroke:#000000;stroke-width:25.92"/>
	<line x1="2138.40" y1="840.29" x2="2212.65" y2="833.61" style="stroke:#000000;stroke-width:25.92"/>
	<line x1="2270.07" y1="828.41" x2="2271.55" y2="828.41" style="stroke:#000000;stroke-width:25.92"/>
	<line x1="2271.55" y1="828.41" x2="2275.76" y2="827.91" style="stroke:#000000;stroke-width:25.92"/>
	<line x1="2333.18" y1="823.71" x2="2404.46" y2="818.26" style="stroke:#000000;stroke-width:25.92"/>
	<line x1="2404.46" y1="818.26" x2="2537.37" y2="809.85" style="stroke:#000000;stroke-width:25.92"/>
	<line x1="2537.37" y1="809.85" x2="2563.11" y2="808.61" style="stroke:#000000;stroke-width:25.92"/>
	<line x1="2620.78" y1="805.64" x2="2626.47" y2="805.39" style="stroke:#000000;stroke-width:25.92"/>
	<line x1="2684.14" y1="802.67" x2="2803.43" y2="798.46" style="stroke:#000000;stroke-width:25.92"/>
	<line x1="2803.43" y1="798.46" x2="2914.31" y2="796.23" style="stroke:#000000;stroke-width:25.92"/>
	<line x1="2971.98" y1="795.74" x2="2977.67" y2="795.74" style="stroke:#000000;stroke-width:25.92"/>
	<line x1="3035.34" y1="795.24" x2="3069.49" y2="795.24" style="stroke:#000000;stroke-width:25.92"/>
	<line x1="3069.49" y1="795.24" x2="3202.40" y2="796.97" style="stroke:#000000;stroke-width:25.92"/>
	<line x1="3202.40" y1="796.97" x2="3265.76" y2="798.46" style="stroke:#000000;stroke-width:25.92"/>
	<line x1="3323.43" y1="799.94" x2="3329.12" y2="800.19" style="stroke:#000000;stroke-width:25.92"/>
	<line x1="3386.79" y1="801.93" x2="3468.47" y2="804.65" style="stroke:#000000;stroke-width:25.92"/>
	<line x1="3468.47" y1="804.65" x2="3601.37" y2="809.60" style="stroke:#000000;stroke-width:25.92"/>
	<line x1="3601.37" y1="809.60" x2="3616.97" y2="810.09" style="stroke:#000000;stroke-width:25.92"/>
	<line x1="3674.63" y1="812.32" x2="3680.32" y2="812.57" style="stroke:#000000;stroke-width:25.92"/>
	<line x1="3737.99" y1="814.80" x2="3867.43" y2="819.00" style="stroke:#000000;stroke-width:25.92"/>
	<line x1="3867.43" y1="819.00" x2="3968.17" y2="821.48" style="stroke:#000000;stroke-width:25.92"/>
	<line x1="4025.84" y1="822.47" x2="4031.53" y2="822.72" style="stroke:#000000;stroke-width:25.92"/>
	<line x1="4089.20" y1="823.21" x2="4133.50" y2="823.71" style="stroke:#000000;stroke-width:25.92"/>
	<line x1="4133.50" y1="823.71" x2="4266.40" y2="822.47" style="stroke:#000000;stroke-width:25.92"/>
	<line x1="4266.40" y1="822.47" x2="4319.62" y2="820.98" style="stroke:#000000;stroke-width:25.92"/>
	<line x1="4377.28" y1="819.25" x2="4382.98" y2="819.00" style="stroke:#000000;stroke-width:25.92"/>
	<line x1="4440.65" y1="816.03" x2="4532.47" y2="810.84" style="stroke:#000000;stroke-width:25.92"/>
	<line x1="4532.47" y1="810.84" x2="4665.38" y2="799.20" style="stroke:#000000;stroke-width:25.92"/>
	<line x1="4665.38" y1="799.20" x2="4670.32" y2="798.71" style="stroke:#000000;stroke-width:25.92"/>
	<line x1="4727.74" y1="792.02" x2="4733.44" y2="791.28" style="stroke:#000000;stroke-width:25.92"/>
	<line x1="4790.61" y1="784.60" x2="4798.28" y2="783.61" style="stroke:#000000;stroke-width:25.92"/>
	<line x1="4798.28" y1="783.61" x2="4931.44" y2="764.55" style="stroke:#000000;stroke-width:25.92"/>
	<line x1="4931.44" y1="764.55" x2="5018.56" y2="750.44" style="stroke:#000000;stroke-width:25.92"/>
	<line x1="5075.48" y1="741.04" x2="5080.93" y2="740.05" style="stroke:#000000;stroke-width:25.92"/>
	<line x1="5137.85" y1="730.15" x2="5197.50" y2="719.50" style="stroke:#000000;stroke-width:25.92"/>
	<line x1="5197.50" y1="719.50" x2="5330.41" y2="695.25" style="stroke:#000000;stroke-width:25.92"/>
	<line x1="5330.41" y1="695.25" x2="5364.31" y2="689.06" style="stroke:#000000;stroke-width:25.92"/>
	<line x1="5420.99" y1="678.42" x2="5426.69" y2="677.43" style="stroke:#000000;stroke-width:25.92"/>
	<line x1="5483.36" y1="667.03" x2="5596.47" y2="646.49" style="stroke:#000000;stroke-width:25.92"/>
	<line x1="5596.47" y1="646.49" x2="5710.07" y2="626.69" style="stroke:#000000;stroke-width:25.92"/>
	<line x1="5767.00" y1="616.79" x2="5772.69" y2="615.80" style="stroke:#000000;stroke-width:25.92"/>
	<line x1="5829.37" y1="606.15" x2="5862.28" y2="600.70" style="stroke:#000000;stroke-width:25.92"/>
	<line x1="5862.28" y1="600.70" x2="5995.44" y2="579.91" style="stroke:#000000;stroke-width:25.92"/>
	<line x1="5995.44" y1="579.91" x2="6057.07" y2="570.75" style="stroke:#000000;stroke-width:25.92"/>
	<line x1="6114.24" y1="562.34" x2="6119.93" y2="561.60" style="stroke:#000000;stroke-width:25.92"/>
	<line x1="6176.86" y1="553.92" x2="6261.26" y2="542.54" style="stroke:#000000;stroke-width:25.92"/>
	<line x1="6261.26" y1="542.54" x2="6394.41" y2="525.71" style="stroke:#000000;stroke-width:25.92"/>
	<line x1="6394.41" y1="525.71" x2="6405.30" y2="524.47" style="stroke:#000000;stroke-width:25.92"/>
	<line x1="6462.72" y1="517.79" x2="6468.41" y2="517.29" style="stroke:#000000;stroke-width:25.92"/>
	<line x1="6525.59" y1="510.61" x2="6527.32" y2="510.36" style="stroke:#000000;stroke-width:25.92"/>
	<line x1="6527.32" y1="510.36" x2="6660.23" y2="496.25" style="stroke:#000000;stroke-width:25.92"/>
	<line x1="6660.23" y1="496.25" x2="6754.77" y2="486.85" style="stroke:#000000;stroke-width:25.92"/>
	<line x1="6811.94" y1="481.40" x2="6817.88" y2="480.91" style="stroke:#000000;stroke-width:25.92"/>
	<line x1="6875.06" y1="475.71" x2="6926.29" y2="471.01" style="stroke:#000000;stroke-width:25.92"/>
	<line x1="6926.29" y1="471.01" x2="7059.44" y2="459.87" style="stroke:#000000;stroke-width:25.92"/>
	<line x1="7059.44" y1="459.87" x2="7104.73" y2="456.40" style="stroke:#000000;stroke-width:25.92"/>
	<line x1="7162.15" y1="452.20" x2="7167.85" y2="451.70" style="stroke:#000000;stroke-width:25.92"/>
	<line x1="7225.27" y1="447.25" x2="7325.26" y2="440.07" style="stroke:#000000;stroke-width:25.92"/>
	<path d="" stroke-linejoin="round" style="fill:none;stroke:#000000;stroke-width:25.92"/>
	<path d=" M941.49 1887.25 L1074.40 1814.97 L1207.55 1745.92 L1340.46 1680.33 L1473.37 1618.45 L1606.52 1561.03 L1739.43 1507.82 L1872.59 1459.06 L2005.49 1415.00 L2138.40 1375.90 L2271.55 1341.49 L2404.46 1312.29 L2537.37 1287.78 L2670.53 1268.48 L2803.43 1254.37 L2936.34 1245.71 L3069.49 1242.49 L3202.40 1245.21 L3335.31 1252.88 L3468.47 1264.27 L3601.37 1278.38 L3734.53 1294.47 L3867.43 1311.05 L4000.34 1327.38 L4133.50 1341.74 L4266.40 1352.88 L4399.31 1359.81 L4532.47 1361.05 L4665.38 1355.35 L4798.28 1341.99 L4931.44 1321.44 L5064.35 1295.21 L5197.50 1264.27 L5330.41 1229.62 L5463.31 1192.74 L5596.47 1154.38 L5729.38 1115.76 L5862.28 1077.40 L5995.44 1040.03 L6128.35 1004.39 L6261.26 970.48 L6394.41 938.05 L6527.32 907.12 L6660.23 877.66 L6793.38 849.45 L6926.29 822.72 L7059.44 797.22 L7192.35 773.21 L7325.26 750.20" stroke-linejoin="round" style="fill:none;stroke:#000000;stroke-width:25.92"/>
	<path d=" M941.49 1107.35 L1074.40 1080.87 L1207.55 1055.62 L1340.46 1031.86 L1473.37 1009.09 L1606.52 988.05 L1739.43 968.50 L1872.59 950.43 L2005.49 933.85 L2138.40 919.00 L2271.55 905.38 L2404.46 893.50 L2537.37 883.11 L2670.53 874.20 L2803.43 867.02 L2936.34 861.33 L3069.49 857.37 L3202.40 855.39 L3335.31 854.89 L3468.47 855.39 L3601.37 856.87 L3734.53 858.60 L3867.43 860.58 L4000.34 861.82 L4133.50 862.07 L4266.40 861.08 L4399.31 858.36 L4532.47 853.16 L4665.38 845.24 L4798.28 834.84 L4931.44 822.22 L5064.35 807.87 L5197.50 792.27 L5330.41 776.43 L5463.31 760.34 L5596.47 744.50 L5729.38 729.41 L5862.28 715.30 L5995.44 702.43 L6128.35 690.79 L6261.26 680.15 L6394.41 670.99 L6527.32 662.83 L6660.23 655.65 L6793.38 649.71 L6926.29 644.76 L7059.44 640.80 L7192.35 637.83 L7325.26 636.09" stroke-linejoin="round" style="fill:none;stroke:#FF0000;stroke-width:25.92"/>
	<line x1="814.77" y1="4978.37" x2="814.77" y2="201.72" style="stroke:#000000;stroke-width:11.52"/>
	<line x1="814.77" y1="4851.65" x2="734.83" y2="4851.65" style="stroke:#000000;stroke-width:11.52"/>
	<text x="694.98" y="4921.70" style="font-family:'Helvetica';font-size:199.98px;fill:#000000" text-anchor="end">0</text>
	<line x1="814.77" y1="3947.01" x2="734.83" y2="3947.01" style="stroke:#000000;stroke-width:11.52"/>
	<text x="694.98" y="4017.06" style="font-family:'Helvetica';font-size:199.98px;fill:#000000" text-anchor="end">.2</text>
	<line x1="814.77" y1="3042.37" x2="734.83" y2="3042.37" style="stroke:#000000;stroke-width:11.52"/>
	<text x="694.98" y="3112.42" style="font-family:'Helvetica';font-size:199.98px;fill:#000000" text-anchor="end">.4</text>
	<line x1="814.77" y1="2137.72" x2="734.83" y2="2137.72" style="stroke:#000000;stroke-width:11.52"/>
	<text x="694.98" y="2207.78" style="font-family:'Helvetica';font-size:199.98px;fill:#000000" text-anchor="end">.6</text>
	<line x1="814.77" y1="1233.08" x2="734.83" y2="1233.08" style="stroke:#000000;stroke-width:11.52"/>
	<text x="694.98" y="1303.14" style="font-family:'Helvetica';font-size:199.98px;fill:#000000" text-anchor="end">.8</text>
	<line x1="814.77" y1="328.44" x2="734.83" y2="328.44" style="stroke:#000000;stroke-width:11.52"/>
	<text x="694.98" y="398.50" style="font-family:'Helvetica';font-size:199.98px;fill:#000000" text-anchor="end">1</text>
	<text x="381.42" y="2589.92" style="font-family:'Helvetica';font-size:199.98px;fill:#000000" transform="rotate(-90 381.42,2589.92)" text-anchor="middle">1-year survival proportion</text>
	<line x1="814.77" y1="4978.37" x2="7718.04" y2="4978.37" style="stroke:#000000;stroke-width:11.52"/>
	<line x1="941.49" y1="4978.37" x2="941.49" y2="5058.32" style="stroke:#000000;stroke-width:11.52"/>
	<text x="941.49" y="5238.28" style="font-family:'Helvetica';font-size:199.98px;fill:#000000" text-anchor="middle">1975</text>
	<line x1="2271.55" y1="4978.37" x2="2271.55" y2="5058.32" style="stroke:#000000;stroke-width:11.52"/>
	<text x="2271.55" y="5238.28" style="font-family:'Helvetica';font-size:199.98px;fill:#000000" text-anchor="middle">1980</text>
	<line x1="3601.62" y1="4978.37" x2="3601.62" y2="5058.32" style="stroke:#000000;stroke-width:11.52"/>
	<text x="3601.62" y="5238.28" style="font-family:'Helvetica';font-size:199.98px;fill:#000000" text-anchor="middle">1985</text>
	<line x1="4931.44" y1="4978.37" x2="4931.44" y2="5058.32" style="stroke:#000000;stroke-width:11.52"/>
	<text x="4931.44" y="5238.28" style="font-family:'Helvetica';font-size:199.98px;fill:#000000" text-anchor="middle">1990</text>
	<line x1="6261.50" y1="4978.37" x2="6261.50" y2="5058.32" style="stroke:#000000;stroke-width:11.52"/>
	<text x="6261.50" y="5238.28" style="font-family:'Helvetica';font-size:199.98px;fill:#000000" text-anchor="middle">1995</text>
	<line x1="7591.32" y1="4978.37" x2="7591.32" y2="5058.32" style="stroke:#000000;stroke-width:11.52"/>
	<text x="7591.32" y="5238.28" style="font-family:'Helvetica';font-size:199.98px;fill:#000000" text-anchor="middle">2000</text>
	<text x="4266.40" y="5458.31" style="font-family:'Helvetica';font-size:199.98px;fill:#000000" text-anchor="middle">Year of diagnosis</text>
	<rect x="2436.39" y="3976.46" width="3660.28" height="932.86" style="fill:#FFFFFF"/>
	<rect x="2442.15" y="3982.22" width="3648.76" height="921.34" style="fill:none;stroke:#000000;stroke-width:11.52"/>
	<line x1="2522.77" y1="4162.83" x2="2568.80" y2="4162.83" style="stroke:#000000;stroke-width:25.92"/>
	<line x1="2609.14" y1="4162.83" x2="2655.18" y2="4162.83" style="stroke:#000000;stroke-width:25.92"/>
	<line x1="2695.52" y1="4162.83" x2="2741.56" y2="4162.83" style="stroke:#000000;stroke-width:25.92"/>
	<line x1="2781.90" y1="4162.83" x2="2827.93" y2="4162.83" style="stroke:#000000;stroke-width:25.92"/>
	<line x1="2868.28" y1="4162.83" x2="2914.56" y2="4162.83" style="stroke:#000000;stroke-width:25.92"/>
	<line x1="2954.66" y1="4162.83" x2="3000.94" y2="4162.83" style="stroke:#000000;stroke-width:25.92"/>
	<line x1="3041.28" y1="4162.83" x2="3087.32" y2="4162.83" style="stroke:#000000;stroke-width:25.92"/>
	<line x1="3127.66" y1="4162.83" x2="3173.69" y2="4162.83" style="stroke:#000000;stroke-width:25.92"/>
	<line x1="3214.03" y1="4162.83" x2="3260.07" y2="4162.83" style="stroke:#000000;stroke-width:25.92"/>
	<line x1="4208.24" y1="4162.83" x2="4323.33" y2="4162.83" style="stroke:#000000;stroke-width:25.92"/>
	<line x1="4375.31" y1="4162.83" x2="4381.00" y2="4162.83" style="stroke:#000000;stroke-width:25.92"/>
	<line x1="4432.97" y1="4162.83" x2="4548.06" y2="4162.83" style="stroke:#000000;stroke-width:25.92"/>
	<line x1="4600.03" y1="4162.83" x2="4605.73" y2="4162.83" style="stroke:#000000;stroke-width:25.92"/>
	<line x1="4657.45" y1="4162.83" x2="4772.79" y2="4162.83" style="stroke:#000000;stroke-width:25.92"/>
	<line x1="4824.52" y1="4162.83" x2="4830.46" y2="4162.83" style="stroke:#000000;stroke-width:25.92"/>
	<line x1="4882.19" y1="4162.83" x2="4956.93" y2="4162.83" style="stroke:#000000;stroke-width:25.92"/>
	<line x1="2522.77" y1="4443.01" x2="2753.19" y2="4443.01" style="stroke:#000000;stroke-width:25.92"/>
	<line x1="2810.86" y1="4443.01" x2="3041.28" y2="4443.01" style="stroke:#000000;stroke-width:25.92"/>
	<line x1="3098.95" y1="4443.01" x2="3271.45" y2="4443.01" style="stroke:#000000;stroke-width:25.92"/>
	<line x1="4208.24" y1="4443.01" x2="4438.66" y2="4443.01" style="stroke:#000000;stroke-width:25.92"/>
	<line x1="4496.33" y1="4443.01" x2="4502.02" y2="4443.01" style="stroke:#000000;stroke-width:25.92"/>
	<line x1="4559.69" y1="4443.01" x2="4790.11" y2="4443.01" style="stroke:#000000;stroke-width:25.92"/>
	<line x1="4847.53" y1="4443.01" x2="4853.48" y2="4443.01" style="stroke:#000000;stroke-width:25.92"/>
	<line x1="4910.90" y1="4443.01" x2="4956.93" y2="4443.01" style="stroke:#000000;stroke-width:25.92"/>
	<line x1="2522.77" y1="4722.94" x2="3271.45" y2="4722.94" style="stroke:#000000;stroke-width:25.92"/>
	<line x1="4208.24" y1="4722.94" x2="4956.93" y2="4722.94" style="stroke:#FF0000;stroke-width:25.92"/>
	<text x="3391.49" y="4232.89" style="font-family:'Helvetica';font-size:199.98px;fill:#000000">18-44</text>
	<text x="5076.97" y="4232.89" style="font-family:'Helvetica';font-size:199.98px;fill:#000000">45-59</text>
	<text x="3391.49" y="4513.07" style="font-family:'Helvetica';font-size:199.98px;fill:#000000">55-64</text>
	<text x="5076.97" y="4513.07" style="font-family:'Helvetica';font-size:199.98px;fill:#000000">65-74</text>
	<text x="3391.49" y="4793.00" style="font-family:'Helvetica';font-size:199.98px;fill:#000000">75+</text>
	<text x="5076.97" y="4793.00" style="font-family:'Helvetica';font-size:199.98px;fill:#000000">Age stand</text>
</svg>
