<?xml version="1.0" encoding="UTF-8" standalone="no"?>
<!-- This is a Stata 16.0 generated SVG file (http://www.stata.com) -->

<svg version="1.1" width="11.00in" height="8.00in" viewBox="0 0 7920 5760" xmlns="http://www.w3.org/2000/svg" xmlns:xlink="http://www.w3.org/1999/xlink">
	<desc>Stata Graph - surv5</desc>
	<rect x="0" y="0" width="7920" height="5760" style="fill:#F0F0F0;stroke:none"/>
	<rect x="0.00" y="0.00" width="7919.75" height="5760.00" style="fill:#F0F0F0"/>
	<rect x="5.76" y="5.76" width="7908.23" height="5748.48" style="fill:none;stroke:#F0F0F0;stroke-width:11.52"/>
	<rect x="814.77" y="201.72" width="6903.27" height="4776.65" style="fill:#FFFFFF"/>
	<rect x="820.53" y="207.48" width="6891.75" height="4765.13" style="fill:none;stroke:#FFFFFF;stroke-width:11.52"/>
	<line x1="814.77" y1="4851.65" x2="7718.04" y2="4851.65" style="stroke:#E8E8E8;stroke-width:17.28"/>
	<line x1="814.77" y1="3947.01" x2="7718.04" y2="3947.01" style="stroke:#E8E8E8;stroke-width:17.28"/>
	<line x1="814.77" y1="3042.37" x2="7718.04" y2="3042.37" style="stroke:#E8E8E8;stroke-width:17.28"/>
	<line x1="814.77" y1="2137.72" x2="7718.04" y2="2137.72" style="stroke:#E8E8E8;stroke-width:17.28"/>
	<line x1="814.77" y1="1233.08" x2="7718.04" y2="1233.08" style="stroke:#E8E8E8;stroke-width:17.28"/>
	<line x1="814.77" y1="328.44" x2="7718.04" y2="328.44" style="stroke:#E8E8E8;stroke-width:17.28"/>
	<line x1="941.49" y1="1543.46" x2="986.53" y2="1534.05" style="stroke:#000000;stroke-width:25.92"/>
	<line x1="1026.13" y1="1525.89" x2="1071.18" y2="1516.48" style="stroke:#000000;stroke-width:25.92"/>
	<line x1="1110.53" y1="1508.56" x2="1155.83" y2="1499.40" style="stroke:#000000;stroke-width:25.92"/>
	<line x1="1195.42" y1="1491.73" x2="1207.55" y2="1489.25" style="stroke:#000000;stroke-width:25.92"/>
	<line x1="1207.55" y1="1489.25" x2="1240.72" y2="1483.07" style="stroke:#000000;stroke-width:25.92"/>
	<line x1="1280.32" y1="1475.39" x2="1325.36" y2="1466.98" style="stroke:#000000;stroke-width:25.92"/>
	<line x1="1365.21" y1="1459.80" x2="1410.50" y2="1451.88" style="stroke:#000000;stroke-width:25.92"/>
	<line x1="1450.35" y1="1444.95" x2="1473.37" y2="1440.99" style="stroke:#000000;stroke-width:25.92"/>
	<line x1="1473.37" y1="1440.99" x2="1495.89" y2="1437.52" style="stroke:#000000;stroke-width:25.92"/>
	<line x1="1535.74" y1="1431.34" x2="1581.28" y2="1424.16" style="stroke:#000000;stroke-width:25.92"/>
	<line x1="1621.13" y1="1418.22" x2="1666.66" y2="1412.03" style="stroke:#000000;stroke-width:25.92"/>
	<line x1="1706.76" y1="1406.59" x2="1739.43" y2="1402.13" style="stroke:#000000;stroke-width:25.92"/>
	<line x1="1739.43" y1="1402.13" x2="1752.30" y2="1400.65" style="stroke:#000000;stroke-width:25.92"/>
	<line x1="1792.39" y1="1396.19" x2="1838.18" y2="1390.99" style="stroke:#000000;stroke-width:25.92"/>
	<line x1="1878.28" y1="1386.54" x2="1924.31" y2="1382.58" style="stroke:#000000;stroke-width:25.92"/>
	<line x1="1964.41" y1="1379.11" x2="2005.49" y2="1375.65" style="stroke:#000000;stroke-width:25.92"/>
	<line x1="2005.49" y1="1375.65" x2="2010.44" y2="1375.40" style="stroke:#000000;stroke-width:25.92"/>
	<line x1="2050.78" y1="1372.93" x2="2096.57" y2="1370.45" style="stroke:#000000;stroke-width:25.92"/>
	<line x1="2136.91" y1="1368.22" x2="2138.40" y2="1368.22" style="stroke:#000000;stroke-width:25.92"/>
	<line x1="2138.40" y1="1368.22" x2="2182.95" y2="1366.99" style="stroke:#000000;stroke-width:25.92"/>
	<line x1="2223.29" y1="1366.00" x2="2269.33" y2="1364.76" style="stroke:#000000;stroke-width:25.92"/>
	<line x1="2309.67" y1="1365.01" x2="2355.70" y2="1365.50" style="stroke:#000000;stroke-width:25.92"/>
	<line x1="2396.05" y1="1366.00" x2="2404.46" y2="1366.24" style="stroke:#000000;stroke-width:25.92"/>
	<line x1="2404.46" y1="1366.24" x2="2442.08" y2="1368.22" style="stroke:#000000;stroke-width:25.92"/>
	<line x1="2482.43" y1="1370.20" x2="2528.21" y2="1372.43" style="stroke:#000000;stroke-width:25.92"/>
	<line x1="2568.55" y1="1375.90" x2="2614.34" y2="1380.10" style="stroke:#000000;stroke-width:25.92"/>
	<line x1="2654.44" y1="1383.82" x2="2670.53" y2="1385.30" style="stroke:#000000;stroke-width:25.92"/>
	<line x1="2670.53" y1="1385.30" x2="2700.22" y2="1389.51" style="stroke:#000000;stroke-width:25.92"/>
	<line x1="2740.32" y1="1395.20" x2="2785.86" y2="1401.64" style="stroke:#000000;stroke-width:25.92"/>
	<line x1="2825.46" y1="1408.32" x2="2870.75" y2="1417.23" style="stroke:#000000;stroke-width:25.92"/>
	<line x1="2910.35" y1="1424.90" x2="2936.34" y2="1430.10" style="stroke:#000000;stroke-width:25.92"/>
	<line x1="2936.34" y1="1430.10" x2="2955.15" y2="1435.05" style="stroke:#000000;stroke-width:25.92"/>
	<line x1="2994.26" y1="1444.95" x2="3039.05" y2="1456.34" style="stroke:#000000;stroke-width:25.92"/>
	<line x1="3077.91" y1="1466.73" x2="3121.72" y2="1480.84" style="stroke:#000000;stroke-width:25.92"/>
	<line x1="3160.08" y1="1492.97" x2="3202.40" y2="1506.58" style="stroke:#000000;stroke-width:25.92"/>
	<line x1="3202.40" y1="1506.58" x2="3204.14" y2="1507.07" style="stroke:#000000;stroke-width:25.92"/>
	<line x1="3242.00" y1="1520.94" x2="3285.32" y2="1536.53" style="stroke:#000000;stroke-width:25.92"/>
	<line x1="3323.18" y1="1550.14" x2="3335.31" y2="1554.60" style="stroke:#000000;stroke-width:25.92"/>
	<line x1="3335.31" y1="1554.60" x2="3366.25" y2="1566.23" style="stroke:#000000;stroke-width:25.92"/>
	<line x1="3404.11" y1="1580.34" x2="3447.18" y2="1596.42" style="stroke:#000000;stroke-width:25.92"/>
	<line x1="3485.05" y1="1610.04" x2="3528.61" y2="1625.38" style="stroke:#000000;stroke-width:25.92"/>
	<line x1="3566.72" y1="1638.50" x2="3601.37" y2="1650.63" style="stroke:#000000;stroke-width:25.92"/>
	<line x1="3601.37" y1="1650.63" x2="3610.53" y2="1653.10" style="stroke:#000000;stroke-width:25.92"/>
	<line x1="3649.14" y1="1664.49" x2="3693.44" y2="1677.11" style="stroke:#000000;stroke-width:25.92"/>
	<line x1="3732.05" y1="1688.25" x2="3734.53" y2="1688.99" style="stroke:#000000;stroke-width:25.92"/>
	<line x1="3734.53" y1="1688.99" x2="3777.34" y2="1696.91" style="stroke:#000000;stroke-width:25.92"/>
	<line x1="3817.19" y1="1704.34" x2="3862.49" y2="1712.51" style="stroke:#000000;stroke-width:25.92"/>
	<line x1="3902.58" y1="1714.73" x2="3948.61" y2="1716.71" style="stroke:#000000;stroke-width:25.92"/>
	<line x1="3988.96" y1="1718.20" x2="4000.34" y2="1718.69" style="stroke:#000000;stroke-width:25.92"/>
	<line x1="4000.34" y1="1718.69" x2="4034.74" y2="1713.99" style="stroke:#000000;stroke-width:25.92"/>
	<line x1="4074.59" y1="1708.30" x2="4120.13" y2="1701.86" style="stroke:#000000;stroke-width:25.92"/>
	<line x1="4158.74" y1="1691.22" x2="4202.30" y2="1675.87" style="stroke:#000000;stroke-width:25.92"/>
	<line x1="4240.42" y1="1662.51" x2="4266.40" y2="1653.35" style="stroke:#000000;stroke-width:25.92"/>
	<line x1="4266.40" y1="1653.35" x2="4282.49" y2="1643.95" style="stroke:#000000;stroke-width:25.92"/>
	<line x1="4317.39" y1="1623.90" x2="4357.24" y2="1600.88" style="stroke:#000000;stroke-width:25.92"/>
	<line x1="4392.14" y1="1580.58" x2="4399.31" y2="1576.62" style="stroke:#000000;stroke-width:25.92"/>
	<line x1="4399.31" y1="1576.62" x2="4428.77" y2="1553.11" style="stroke:#000000;stroke-width:25.92"/>
	<line x1="4460.20" y1="1527.87" x2="4496.33" y2="1498.91" style="stroke:#000000;stroke-width:25.92"/>
	<line x1="4527.77" y1="1473.66" x2="4532.47" y2="1469.95" style="stroke:#000000;stroke-width:25.92"/>
	<line x1="4532.47" y1="1469.95" x2="4560.68" y2="1441.73" style="stroke:#000000;stroke-width:25.92"/>
	<line x1="4589.15" y1="1413.02" x2="4621.81" y2="1380.60" style="stroke:#000000;stroke-width:25.92"/>
	<line x1="4650.28" y1="1352.13" x2="4665.38" y2="1337.04" style="stroke:#000000;stroke-width:25.92"/>
	<line x1="4665.38" y1="1337.04" x2="4681.71" y2="1318.47" style="stroke:#000000;stroke-width:25.92"/>
	<line x1="4708.44" y1="1288.03" x2="4738.88" y2="1253.38" style="stroke:#000000;stroke-width:25.92"/>
	<line x1="4765.36" y1="1223.18" x2="4795.81" y2="1188.53" style="stroke:#000000;stroke-width:25.92"/>
	<line x1="4822.29" y1="1157.84" x2="4852.24" y2="1122.94" style="stroke:#000000;stroke-width:25.92"/>
	<line x1="4878.47" y1="1092.25" x2="4908.42" y2="1057.35" style="stroke:#000000;stroke-width:25.92"/>
	<line x1="4934.65" y1="1026.66" x2="4965.59" y2="992.51" style="stroke:#000000;stroke-width:25.92"/>
	<line x1="4992.57" y1="962.56" x2="5023.26" y2="928.40" style="stroke:#000000;stroke-width:25.92"/>
	<line x1="5050.48" y1="898.21" x2="5064.35" y2="882.86" style="stroke:#000000;stroke-width:25.92"/>
	<line x1="5064.35" y1="882.86" x2="5082.41" y2="865.29" style="stroke:#000000;stroke-width:25.92"/>
	<line x1="5111.12" y1="837.07" x2="5144.29" y2="804.90" style="stroke:#000000;stroke-width:25.92"/>
	<line x1="5173.00" y1="776.68" x2="5197.50" y2="752.92" style="stroke:#000000;stroke-width:25.92"/>
	<line x1="5197.50" y1="752.92" x2="5206.90" y2="745.25" style="stroke:#000000;stroke-width:25.92"/>
	<line x1="5238.09" y1="719.75" x2="5273.73" y2="690.79" style="stroke:#000000;stroke-width:25.92"/>
	<line x1="5304.91" y1="665.05" x2="5330.41" y2="644.26" style="stroke:#000000;stroke-width:25.92"/>
	<line x1="5330.41" y1="644.26" x2="5341.55" y2="637.08" style="stroke:#000000;stroke-width:25.92"/>
	<line x1="5375.20" y1="615.06" x2="5413.81" y2="590.06" style="stroke:#000000;stroke-width:25.92"/>
	<line x1="5447.72" y1="568.03" x2="5463.31" y2="557.88" style="stroke:#000000;stroke-width:25.92"/>
	<line x1="5463.31" y1="557.88" x2="5488.06" y2="545.75" style="stroke:#000000;stroke-width:25.92"/>
	<line x1="5524.20" y1="527.69" x2="5565.53" y2="507.39" style="stroke:#000000;stroke-width:25.92"/>
	<line x1="5601.91" y1="490.07" x2="5645.23" y2="474.22" style="stroke:#000000;stroke-width:25.92"/>
	<line x1="5683.10" y1="460.36" x2="5726.16" y2="444.52" style="stroke:#000000;stroke-width:25.92"/>
	<line x1="5765.27" y1="433.88" x2="5809.81" y2="422.25" style="stroke:#000000;stroke-width:25.92"/>
	<line x1="5848.67" y1="411.85" x2="5862.28" y2="408.39" style="stroke:#000000;stroke-width:25.92"/>
	<line x1="5862.28" y1="408.39" x2="5893.72" y2="402.45" style="stroke:#000000;stroke-width:25.92"/>
	<line x1="5933.56" y1="395.02" x2="5978.86" y2="386.61" style="stroke:#000000;stroke-width:25.92"/>
	<line x1="6018.70" y1="380.67" x2="6064.24" y2="374.73" style="stroke:#000000;stroke-width:25.92"/>
	<line x1="6104.34" y1="369.78" x2="6128.35" y2="366.56" style="stroke:#000000;stroke-width:25.92"/>
	<line x1="6128.35" y1="366.56" x2="6150.13" y2="364.58" style="stroke:#000000;stroke-width:25.92"/>
	<line x1="6190.22" y1="361.11" x2="6236.26" y2="356.91" style="stroke:#000000;stroke-width:25.92"/>
	<line x1="6276.35" y1="353.69" x2="6322.39" y2="350.97" style="stroke:#000000;stroke-width:25.92"/>
	<line x1="6362.48" y1="348.49" x2="6394.41" y2="346.51" style="stroke:#000000;stroke-width:25.92"/>
	<line x1="6394.41" y1="346.51" x2="6408.52" y2="345.77" style="stroke:#000000;stroke-width:25.92"/>
	<line x1="6448.86" y1="344.28" x2="6494.90" y2="342.55" style="stroke:#000000;stroke-width:25.92"/>
	<line x1="6535.24" y1="340.82" x2="6581.27" y2="339.58" style="stroke:#000000;stroke-width:25.92"/>
	<line x1="6621.61" y1="338.34" x2="6660.23" y2="337.11" style="stroke:#000000;stroke-width:25.92"/>
	<line x1="6660.23" y1="337.11" x2="6667.65" y2="336.86" style="stroke:#000000;stroke-width:25.92"/>
	<line x1="6707.99" y1="336.12" x2="6754.03" y2="335.13" style="stroke:#000000;stroke-width:25.92"/>
	<line x1="6794.37" y1="334.38" x2="6840.40" y2="333.89" style="stroke:#000000;stroke-width:25.92"/>
	<line x1="6880.75" y1="333.39" x2="6926.29" y2="332.65" style="stroke:#000000;stroke-width:25.92"/>
	<line x1="6926.29" y1="332.65" x2="6926.78" y2="332.65" style="stroke:#000000;stroke-width:25.92"/>
	<line x1="6967.13" y1="332.16" x2="7013.16" y2="331.66" style="stroke:#000000;stroke-width:25.92"/>
	<line x1="7053.50" y1="331.41" x2="7059.44" y2="331.17" style="stroke:#000000;stroke-width:25.92"/>
	<line x1="7059.44" y1="331.17" x2="7099.54" y2="330.92" style="stroke:#000000;stroke-width:25.92"/>
	<line x1="7139.88" y1="330.67" x2="7185.91" y2="330.42" style="stroke:#000000;stroke-width:25.92"/>
	<line x1="7226.26" y1="330.18" x2="7272.29" y2="329.93" style="stroke:#000000;stroke-width:25.92"/>
	<line x1="7312.64" y1="329.68" x2="7325.26" y2="329.68" style="stroke:#000000;stroke-width:25.92"/>
	<path d="" stroke-linejoin="round" style="fill:none;stroke:#000000;stroke-width:25.92"/>
	<line x1="941.49" y1="1719.68" x2="1055.34" y2="1702.61" style="stroke:#000000;stroke-width:25.92"/>
	<line x1="1106.82" y1="1695.18" x2="1112.27" y2="1694.19" style="stroke:#000000;stroke-width:25.92"/>
	<line x1="1163.74" y1="1686.77" x2="1207.55" y2="1680.33" style="stroke:#000000;stroke-width:25.92"/>
	<line x1="1207.55" y1="1680.33" x2="1277.60" y2="1669.93" style="stroke:#000000;stroke-width:25.92"/>
	<line x1="1329.08" y1="1662.51" x2="1334.77" y2="1661.52" style="stroke:#000000;stroke-width:25.92"/>
	<line x1="1386.00" y1="1654.09" x2="1473.37" y2="1641.22" style="stroke:#000000;stroke-width:25.92"/>
	<line x1="1473.37" y1="1641.22" x2="1499.85" y2="1637.51" style="stroke:#000000;stroke-width:25.92"/>
	<line x1="1551.33" y1="1630.09" x2="1557.02" y2="1629.10" style="stroke:#000000;stroke-width:25.92"/>
	<line x1="1608.26" y1="1621.67" x2="1722.35" y2="1604.84" style="stroke:#000000;stroke-width:25.92"/>
	<line x1="1773.59" y1="1597.41" x2="1779.28" y2="1596.42" style="stroke:#000000;stroke-width:25.92"/>
	<line x1="1830.51" y1="1589.00" x2="1872.59" y2="1582.81" style="stroke:#000000;stroke-width:25.92"/>
	<line x1="1872.59" y1="1582.81" x2="1944.61" y2="1572.17" style="stroke:#000000;stroke-width:25.92"/>
	<line x1="1995.84" y1="1564.74" x2="2001.53" y2="1563.75" style="stroke:#000000;stroke-width:25.92"/>
	<line x1="2053.01" y1="1556.08" x2="2138.40" y2="1543.46" style="stroke:#000000;stroke-width:25.92"/>
	<line x1="2138.40" y1="1543.46" x2="2166.86" y2="1539.25" style="stroke:#000000;stroke-width:25.92"/>
	<line x1="2218.09" y1="1531.33" x2="2223.79" y2="1530.59" style="stroke:#000000;stroke-width:25.92"/>
	<line x1="2275.02" y1="1522.92" x2="2388.87" y2="1505.84" style="stroke:#000000;stroke-width:25.92"/>
	<line x1="2440.10" y1="1497.92" x2="2445.80" y2="1496.93" style="stroke:#000000;stroke-width:25.92"/>
	<line x1="2497.03" y1="1489.01" x2="2537.37" y2="1482.82" style="stroke:#000000;stroke-width:25.92"/>
	<line x1="2537.37" y1="1482.82" x2="2610.88" y2="1471.43" style="stroke:#000000;stroke-width:25.92"/>
	<line x1="2662.11" y1="1463.27" x2="2667.80" y2="1462.52" style="stroke:#000000;stroke-width:25.92"/>
	<line x1="2719.03" y1="1454.36" x2="2803.43" y2="1441.24" style="stroke:#000000;stroke-width:25.92"/>
	<line x1="2803.43" y1="1441.24" x2="2832.89" y2="1436.53" style="stroke:#000000;stroke-width:25.92"/>
	<line x1="2884.12" y1="1428.37" x2="2889.81" y2="1427.62" style="stroke:#000000;stroke-width:25.92"/>
	<line x1="2941.04" y1="1419.21" x2="3054.64" y2="1400.65" style="stroke:#000000;stroke-width:25.92"/>
	<line x1="3105.88" y1="1392.23" x2="3111.57" y2="1391.24" style="stroke:#000000;stroke-width:25.92"/>
	<line x1="3162.55" y1="1382.83" x2="3202.40" y2="1376.39" style="stroke:#000000;stroke-width:25.92"/>
	<line x1="3202.40" y1="1376.39" x2="3276.41" y2="1364.26" style="stroke:#000000;stroke-width:25.92"/>
	<line x1="3327.64" y1="1355.85" x2="3333.33" y2="1355.10" style="stroke:#000000;stroke-width:25.92"/>
	<line x1="3384.56" y1="1346.94" x2="3468.47" y2="1333.82" style="stroke:#000000;stroke-width:25.92"/>
	<line x1="3468.47" y1="1333.82" x2="3498.41" y2="1329.36" style="stroke:#000000;stroke-width:25.92"/>
	<line x1="3549.64" y1="1321.94" x2="3555.34" y2="1320.95" style="stroke:#000000;stroke-width:25.92"/>
	<line x1="3606.82" y1="1313.52" x2="3720.91" y2="1298.18" style="stroke:#000000;stroke-width:25.92"/>
	<line x1="3772.39" y1="1291.99" x2="3778.09" y2="1291.25" style="stroke:#000000;stroke-width:25.92"/>
	<line x1="3829.82" y1="1285.06" x2="3867.43" y2="1280.85" style="stroke:#000000;stroke-width:25.92"/>
	<line x1="3867.43" y1="1280.85" x2="3944.16" y2="1273.43" style="stroke:#000000;stroke-width:25.92"/>
	<line x1="3995.89" y1="1268.48" x2="4000.34" y2="1267.98" style="stroke:#000000;stroke-width:25.92"/>
	<line x1="4000.34" y1="1267.98" x2="4001.58" y2="1267.98" style="stroke:#000000;stroke-width:25.92"/>
	<line x1="4053.55" y1="1264.02" x2="4133.50" y2="1257.83" style="stroke:#000000;stroke-width:25.92"/>
	<line x1="4133.50" y1="1257.83" x2="4168.40" y2="1256.10" style="stroke:#000000;stroke-width:25.92"/>
	<line x1="4220.12" y1="1253.63" x2="4225.81" y2="1253.38" style="stroke:#000000;stroke-width:25.92"/>
	<line x1="4277.79" y1="1251.15" x2="4392.88" y2="1248.92" style="stroke:#000000;stroke-width:25.92"/>
	<line x1="4444.85" y1="1249.42" x2="4450.55" y2="1249.67" style="stroke:#000000;stroke-width:25.92"/>
	<line x1="4502.52" y1="1250.41" x2="4532.47" y2="1250.66" style="stroke:#000000;stroke-width:25.92"/>
	<line x1="4532.47" y1="1250.66" x2="4617.36" y2="1254.86" style="stroke:#000000;stroke-width:25.92"/>
	<line x1="4669.34" y1="1257.59" x2="4675.03" y2="1258.08" style="stroke:#000000;stroke-width:25.92"/>
	<line x1="4726.76" y1="1262.78" x2="4798.28" y2="1269.22" style="stroke:#000000;stroke-width:25.92"/>
	<line x1="4798.28" y1="1269.22" x2="4841.35" y2="1274.66" style="stroke:#000000;stroke-width:25.92"/>
	<line x1="4892.83" y1="1281.35" x2="4898.52" y2="1282.09" style="stroke:#000000;stroke-width:25.92"/>
	<line x1="4950.00" y1="1289.27" x2="5063.60" y2="1308.08" style="stroke:#000000;stroke-width:25.92"/>
	<line x1="5114.59" y1="1317.98" x2="5120.03" y2="1319.22" style="stroke:#000000;stroke-width:25.92"/>
	<line x1="5171.02" y1="1329.36" x2="5197.50" y2="1334.56" style="stroke:#000000;stroke-width:25.92"/>
	<line x1="5197.50" y1="1334.56" x2="5283.38" y2="1354.36" style="stroke:#000000;stroke-width:25.92"/>
	<line x1="5334.12" y1="1366.00" x2="5339.56" y2="1367.48" style="stroke:#000000;stroke-width:25.92"/>
	<line x1="5390.06" y1="1380.35" x2="5463.31" y2="1399.16" style="stroke:#000000;stroke-width:25.92"/>
	<line x1="5463.31" y1="1399.16" x2="5501.43" y2="1410.05" style="stroke:#000000;stroke-width:25.92"/>
	<line x1="5551.43" y1="1424.16" x2="5556.87" y2="1425.64" style="stroke:#000000;stroke-width:25.92"/>
	<line x1="5606.62" y1="1440.25" x2="5716.76" y2="1473.91" style="stroke:#000000;stroke-width:25.92"/>
	<line x1="5766.01" y1="1490.00" x2="5771.70" y2="1491.73" style="stroke:#000000;stroke-width:25.92"/>
	<line x1="5820.95" y1="1507.82" x2="5862.28" y2="1521.18" style="stroke:#000000;stroke-width:25.92"/>
	<line x1="5862.28" y1="1521.18" x2="5930.10" y2="1544.45" style="stroke:#000000;stroke-width:25.92"/>
	<line x1="5979.35" y1="1561.03" x2="5984.80" y2="1562.76" style="stroke:#000000;stroke-width:25.92"/>
	<line x1="6033.80" y1="1580.09" x2="6128.35" y2="1613.50" style="stroke:#000000;stroke-width:25.92"/>
	<line x1="6128.35" y1="1613.50" x2="6142.21" y2="1618.45" style="stroke:#000000;stroke-width:25.92"/>
	<line x1="6190.97" y1="1636.27" x2="6196.41" y2="1638.25" style="stroke:#000000;stroke-width:25.92"/>
	<line x1="6245.17" y1="1656.07" x2="6261.26" y2="1661.77" style="stroke:#000000;stroke-width:25.92"/>
	<line x1="6261.26" y1="1661.77" x2="6353.08" y2="1695.92" style="stroke:#000000;stroke-width:25.92"/>
	<line x1="6401.84" y1="1713.99" x2="6407.28" y2="1716.22" style="stroke:#000000;stroke-width:25.92"/>
	<line x1="6455.54" y1="1734.78" x2="6527.32" y2="1762.26" style="stroke:#000000;stroke-width:25.92"/>
	<line x1="6527.32" y1="1762.26" x2="6562.96" y2="1776.36" style="stroke:#000000;stroke-width:25.92"/>
	<line x1="6611.22" y1="1795.42" x2="6616.66" y2="1797.40" style="stroke:#000000;stroke-width:25.92"/>
	<line x1="6664.93" y1="1816.46" x2="6771.60" y2="1859.77" style="stroke:#000000;stroke-width:25.92"/>
	<line x1="6819.37" y1="1879.57" x2="6824.81" y2="1881.80" style="stroke:#000000;stroke-width:25.92"/>
	<line x1="6872.58" y1="1901.60" x2="6926.29" y2="1923.88" style="stroke:#000000;stroke-width:25.92"/>
	<line x1="6926.29" y1="1923.88" x2="6978.76" y2="1946.15" style="stroke:#000000;stroke-width:25.92"/>
	<line x1="7026.52" y1="1966.45" x2="7031.97" y2="1968.68" style="stroke:#000000;stroke-width:25.92"/>
	<line x1="7079.49" y1="1989.47" x2="7184.93" y2="2035.50" style="stroke:#000000;stroke-width:25.92"/>
	<line x1="7232.44" y1="2056.54" x2="7237.89" y2="2059.02" style="stroke:#000000;stroke-width:25.92"/>
	<line x1="7285.16" y1="2080.06" x2="7325.26" y2="2097.88" style="stroke:#000000;stroke-width:25.92"/>
	<path d="" stroke-linejoin="round" style="fill:none;stroke:#000000;stroke-width:25.92"/>
	<line x1="941.49" y1="1726.12" x2="1074.40" y2="1706.57" style="stroke:#000000;stroke-width:25.92"/>
	<line x1="1074.40" y1="1706.57" x2="1169.44" y2="1692.71" style="stroke:#000000;stroke-width:25.92"/>
	<line x1="1226.61" y1="1684.54" x2="1340.46" y2="1668.45" style="stroke:#000000;stroke-width:25.92"/>
	<line x1="1340.46" y1="1668.45" x2="1454.81" y2="1652.36" style="stroke:#000000;stroke-width:25.92"/>
	<line x1="1511.73" y1="1644.19" x2="1606.52" y2="1630.83" style="stroke:#000000;stroke-width:25.92"/>
	<line x1="1606.52" y1="1630.83" x2="1739.43" y2="1612.27" style="stroke:#000000;stroke-width:25.92"/>
	<line x1="1739.43" y1="1612.27" x2="1739.92" y2="1612.27" style="stroke:#000000;stroke-width:25.92"/>
	<line x1="1797.10" y1="1604.35" x2="1872.59" y2="1593.95" style="stroke:#000000;stroke-width:25.92"/>
	<line x1="1872.59" y1="1593.95" x2="2005.49" y2="1575.88" style="stroke:#000000;stroke-width:25.92"/>
	<line x1="2005.49" y1="1575.88" x2="2025.29" y2="1573.16" style="stroke:#000000;stroke-width:25.92"/>
	<line x1="2082.47" y1="1565.49" x2="2138.40" y2="1557.81" style="stroke:#000000;stroke-width:25.92"/>
	<line x1="2138.40" y1="1557.81" x2="2271.55" y2="1539.99" style="stroke:#000000;stroke-width:25.92"/>
	<line x1="2271.55" y1="1539.99" x2="2310.66" y2="1534.80" style="stroke:#000000;stroke-width:25.92"/>
	<line x1="2367.83" y1="1527.37" x2="2404.46" y2="1522.42" style="stroke:#000000;stroke-width:25.92"/>
	<line x1="2404.46" y1="1522.42" x2="2537.37" y2="1504.85" style="stroke:#000000;stroke-width:25.92"/>
	<line x1="2537.37" y1="1504.85" x2="2596.28" y2="1497.17" style="stroke:#000000;stroke-width:25.92"/>
	<line x1="2653.45" y1="1489.50" x2="2670.53" y2="1487.27" style="stroke:#000000;stroke-width:25.92"/>
	<line x1="2670.53" y1="1487.27" x2="2803.43" y2="1469.95" style="stroke:#000000;stroke-width:25.92"/>
	<line x1="2803.43" y1="1469.95" x2="2882.14" y2="1459.80" style="stroke:#000000;stroke-width:25.92"/>
	<line x1="2939.06" y1="1452.38" x2="3069.49" y2="1435.79" style="stroke:#000000;stroke-width:25.92"/>
	<line x1="3069.49" y1="1435.79" x2="3167.75" y2="1423.42" style="stroke:#000000;stroke-width:25.92"/>
	<line x1="3224.93" y1="1416.24" x2="3335.31" y2="1402.38" style="stroke:#000000;stroke-width:25.92"/>
	<line x1="3335.31" y1="1402.38" x2="3453.61" y2="1388.77" style="stroke:#000000;stroke-width:25.92"/>
	<line x1="3511.03" y1="1382.33" x2="3601.37" y2="1372.68" style="stroke:#000000;stroke-width:25.92"/>
	<line x1="3601.37" y1="1372.68" x2="3734.53" y2="1359.81" style="stroke:#000000;stroke-width:25.92"/>
	<line x1="3734.53" y1="1359.81" x2="3740.22" y2="1359.31" style="stroke:#000000;stroke-width:25.92"/>
	<line x1="3797.89" y1="1354.61" x2="3867.43" y2="1348.92" style="stroke:#000000;stroke-width:25.92"/>
	<line x1="3867.43" y1="1348.92" x2="4000.34" y2="1340.01" style="stroke:#000000;stroke-width:25.92"/>
	<line x1="4000.34" y1="1340.01" x2="4027.82" y2="1338.77" style="stroke:#000000;stroke-width:25.92"/>
	<line x1="4085.24" y1="1336.05" x2="4133.50" y2="1333.82" style="stroke:#000000;stroke-width:25.92"/>
	<line x1="4133.50" y1="1333.82" x2="4266.40" y2="1330.35" style="stroke:#000000;stroke-width:25.92"/>
	<line x1="4266.40" y1="1330.35" x2="4315.66" y2="1330.35" style="stroke:#000000;stroke-width:25.92"/>
	<line x1="4373.32" y1="1330.11" x2="4399.31" y2="1329.86" style="stroke:#000000;stroke-width:25.92"/>
	<line x1="4399.31" y1="1329.86" x2="4532.47" y2="1333.08" style="stroke:#000000;stroke-width:25.92"/>
	<line x1="4532.47" y1="1333.08" x2="4603.50" y2="1336.79" style="stroke:#000000;stroke-width:25.92"/>
	<line x1="4661.17" y1="1339.76" x2="4665.38" y2="1340.01" style="stroke:#000000;stroke-width:25.92"/>
	<line x1="4665.38" y1="1340.01" x2="4798.28" y2="1351.14" style="stroke:#000000;stroke-width:25.92"/>
	<line x1="4798.28" y1="1351.14" x2="4890.35" y2="1361.54" style="stroke:#000000;stroke-width:25.92"/>
	<line x1="4947.77" y1="1368.47" x2="5064.35" y2="1385.05" style="stroke:#000000;stroke-width:25.92"/>
	<line x1="5064.35" y1="1385.05" x2="5175.23" y2="1403.62" style="stroke:#000000;stroke-width:25.92"/>
	<line x1="5232.15" y1="1413.76" x2="5330.41" y2="1432.57" style="stroke:#000000;stroke-width:25.92"/>
	<line x1="5330.41" y1="1432.57" x2="5457.87" y2="1459.55" style="stroke:#000000;stroke-width:25.92"/>
	<line x1="5514.05" y1="1472.42" x2="5596.47" y2="1491.48" style="stroke:#000000;stroke-width:25.92"/>
	<line x1="5596.47" y1="1491.48" x2="5729.38" y2="1524.40" style="stroke:#000000;stroke-width:25.92"/>
	<line x1="5729.38" y1="1524.40" x2="5738.04" y2="1526.63" style="stroke:#000000;stroke-width:25.92"/>
	<line x1="5793.73" y1="1540.98" x2="5862.28" y2="1558.80" style="stroke:#000000;stroke-width:25.92"/>
	<line x1="5862.28" y1="1558.80" x2="5995.44" y2="1594.69" style="stroke:#000000;stroke-width:25.92"/>
	<line x1="5995.44" y1="1594.69" x2="6016.48" y2="1600.39" style="stroke:#000000;stroke-width:25.92"/>
	<line x1="6071.92" y1="1615.73" x2="6128.35" y2="1631.32" style="stroke:#000000;stroke-width:25.92"/>
	<line x1="6128.35" y1="1631.32" x2="6261.26" y2="1668.94" style="stroke:#000000;stroke-width:25.92"/>
	<line x1="6261.26" y1="1668.94" x2="6293.68" y2="1678.35" style="stroke:#000000;stroke-width:25.92"/>
	<line x1="6349.12" y1="1694.19" x2="6394.41" y2="1707.31" style="stroke:#000000;stroke-width:25.92"/>
	<line x1="6394.41" y1="1707.31" x2="6527.32" y2="1746.66" style="stroke:#000000;stroke-width:25.92"/>
	<line x1="6527.32" y1="1746.66" x2="6569.89" y2="1759.53" style="stroke:#000000;stroke-width:25.92"/>
	<line x1="6625.08" y1="1776.12" x2="6660.23" y2="1786.76" style="stroke:#000000;stroke-width:25.92"/>
	<line x1="6660.23" y1="1786.76" x2="6793.38" y2="1827.60" style="stroke:#000000;stroke-width:25.92"/>
	<line x1="6793.38" y1="1827.60" x2="6845.35" y2="1843.93" style="stroke:#000000;stroke-width:25.92"/>
	<line x1="6900.30" y1="1861.26" x2="6926.29" y2="1869.43" style="stroke:#000000;stroke-width:25.92"/>
	<line x1="6926.29" y1="1869.43" x2="7059.44" y2="1912.00" style="stroke:#000000;stroke-width:25.92"/>
	<line x1="7059.44" y1="1912.00" x2="7119.83" y2="1931.80" style="stroke:#000000;stroke-width:25.92"/>
	<line x1="7174.53" y1="1949.87" x2="7192.35" y2="1955.56" style="stroke:#000000;stroke-width:25.92"/>
	<line x1="7192.35" y1="1955.56" x2="7325.26" y2="1999.86" style="stroke:#000000;stroke-width:25.92"/>
	<path d="" stroke-linejoin="round" style="fill:none;stroke:#000000;stroke-width:25.92"/>
	<line x1="941.49" y1="2356.77" x2="1074.40" y2="2337.46" style="stroke:#000000;stroke-width:25.92"/>
	<line x1="1074.40" y1="2337.46" x2="1169.44" y2="2323.60" style="stroke:#000000;stroke-width:25.92"/>
	<line x1="1226.61" y1="2315.43" x2="1232.30" y2="2314.69" style="stroke:#000000;stroke-width:25.92"/>
	<line x1="1289.23" y1="2306.52" x2="1340.46" y2="2299.10" style="stroke:#000000;stroke-width:25.92"/>
	<line x1="1340.46" y1="2299.10" x2="1473.37" y2="2280.29" style="stroke:#000000;stroke-width:25.92"/>
	<line x1="1473.37" y1="2280.29" x2="1517.42" y2="2274.10" style="stroke:#000000;stroke-width:25.92"/>
	<line x1="1574.60" y1="2266.18" x2="1580.04" y2="2265.44" style="stroke:#000000;stroke-width:25.92"/>
	<line x1="1637.21" y1="2257.52" x2="1739.43" y2="2243.41" style="stroke:#000000;stroke-width:25.92"/>
	<line x1="1739.43" y1="2243.41" x2="1865.65" y2="2226.33" style="stroke:#000000;stroke-width:25.92"/>
	<line x1="1922.58" y1="2218.66" x2="1928.27" y2="2217.92" style="stroke:#000000;stroke-width:25.92"/>
	<line x1="1985.44" y1="2210.24" x2="2005.49" y2="2207.52" style="stroke:#000000;stroke-width:25.92"/>
	<line x1="2005.49" y1="2207.52" x2="2138.40" y2="2190.20" style="stroke:#000000;stroke-width:25.92"/>
	<line x1="2138.40" y1="2190.20" x2="2214.14" y2="2180.30" style="stroke:#000000;stroke-width:25.92"/>
	<line x1="2271.31" y1="2173.12" x2="2271.55" y2="2173.12" style="stroke:#000000;stroke-width:25.92"/>
	<line x1="2271.55" y1="2173.12" x2="2277.00" y2="2172.38" style="stroke:#000000;stroke-width:25.92"/>
	<line x1="2334.17" y1="2165.20" x2="2404.46" y2="2156.53" style="stroke:#000000;stroke-width:25.92"/>
	<line x1="2404.46" y1="2156.53" x2="2537.37" y2="2140.45" style="stroke:#000000;stroke-width:25.92"/>
	<line x1="2537.37" y1="2140.45" x2="2562.86" y2="2137.48" style="stroke:#000000;stroke-width:25.92"/>
	<line x1="2620.28" y1="2130.79" x2="2625.97" y2="2130.05" style="stroke:#000000;stroke-width:25.92"/>
	<line x1="2683.15" y1="2123.37" x2="2803.43" y2="2109.51" style="stroke:#000000;stroke-width:25.92"/>
	<line x1="2803.43" y1="2109.51" x2="2911.84" y2="2097.63" style="stroke:#000000;stroke-width:25.92"/>
	<line x1="2969.26" y1="2091.44" x2="2974.95" y2="2090.70" style="stroke:#000000;stroke-width:25.92"/>
	<line x1="3032.37" y1="2084.51" x2="3069.49" y2="2080.55" style="stroke:#000000;stroke-width:25.92"/>
	<line x1="3069.49" y1="2080.55" x2="3202.40" y2="2066.94" style="stroke:#000000;stroke-width:25.92"/>
	<line x1="3202.40" y1="2066.94" x2="3261.31" y2="2061.00" style="stroke:#000000;stroke-width:25.92"/>
	<line x1="3318.73" y1="2055.30" x2="3324.42" y2="2054.56" style="stroke:#000000;stroke-width:25.92"/>
	<line x1="3381.84" y1="2048.87" x2="3468.47" y2="2040.45" style="stroke:#000000;stroke-width:25.92"/>
	<line x1="3468.47" y1="2040.45" x2="3601.37" y2="2027.09" style="stroke:#000000;stroke-width:25.92"/>
	<line x1="3601.37" y1="2027.09" x2="3611.27" y2="2026.10" style="stroke:#000000;stroke-width:25.92"/>
	<line x1="3668.45" y1="2020.16" x2="3674.39" y2="2019.66" style="stroke:#000000;stroke-width:25.92"/>
	<line x1="3731.56" y1="2013.72" x2="3734.53" y2="2013.23" style="stroke:#000000;stroke-width:25.92"/>
	<line x1="3734.53" y1="2013.23" x2="3867.43" y2="1999.12" style="stroke:#000000;stroke-width:25.92"/>
	<line x1="3867.43" y1="1999.12" x2="3960.49" y2="1988.48" style="stroke:#000000;stroke-width:25.92"/>
	<line x1="4017.91" y1="1982.04" x2="4023.61" y2="1981.30" style="stroke:#000000;stroke-width:25.92"/>
	<line x1="4080.78" y1="1974.37" x2="4133.50" y2="1968.18" style="stroke:#000000;stroke-width:25.92"/>
	<line x1="4133.50" y1="1968.18" x2="4266.40" y2="1951.10" style="stroke:#000000;stroke-width:25.92"/>
	<line x1="4266.40" y1="1951.10" x2="4309.47" y2="1945.16" style="stroke:#000000;stroke-width:25.92"/>
	<line x1="4366.64" y1="1937.24" x2="4372.09" y2="1936.50" style="stroke:#000000;stroke-width:25.92"/>
	<line x1="4429.26" y1="1928.33" x2="4532.47" y2="1912.74" style="stroke:#000000;stroke-width:25.92"/>
	<line x1="4532.47" y1="1912.74" x2="4656.96" y2="1892.69" style="stroke:#000000;stroke-width:25.92"/>
	<line x1="4713.64" y1="1882.79" x2="4719.33" y2="1881.80" style="stroke:#000000;stroke-width:25.92"/>
	<line x1="4776.01" y1="1872.15" x2="4798.28" y2="1868.19" style="stroke:#000000;stroke-width:25.92"/>
	<line x1="4798.28" y1="1868.19" x2="4931.44" y2="1843.19" style="stroke:#000000;stroke-width:25.92"/>
	<line x1="4931.44" y1="1843.19" x2="5002.47" y2="1829.33" style="stroke:#000000;stroke-width:25.92"/>
	<line x1="5058.90" y1="1818.19" x2="5064.35" y2="1817.20" style="stroke:#000000;stroke-width:25.92"/>
	<line x1="5064.35" y1="1817.20" x2="5064.59" y2="1817.20" style="stroke:#000000;stroke-width:25.92"/>
	<line x1="5121.02" y1="1805.82" x2="5197.50" y2="1790.22" style="stroke:#000000;stroke-width:25.92"/>
	<line x1="5197.50" y1="1790.22" x2="5330.41" y2="1762.26" style="stroke:#000000;stroke-width:25.92"/>
	<line x1="5330.41" y1="1762.26" x2="5346.49" y2="1758.79" style="stroke:#000000;stroke-width:25.92"/>
	<line x1="5402.93" y1="1746.91" x2="5408.62" y2="1745.67" style="stroke:#000000;stroke-width:25.92"/>
	<line x1="5465.05" y1="1733.79" x2="5596.47" y2="1705.33" style="stroke:#000000;stroke-width:25.92"/>
	<line x1="5596.47" y1="1705.33" x2="5690.27" y2="1684.79" style="stroke:#000000;stroke-width:25.92"/>
	<line x1="5746.45" y1="1672.66" x2="5752.15" y2="1671.42" style="stroke:#000000;stroke-width:25.92"/>
	<line x1="5808.58" y1="1659.29" x2="5862.28" y2="1647.91" style="stroke:#000000;stroke-width:25.92"/>
	<line x1="5862.28" y1="1647.91" x2="5995.44" y2="1619.44" style="stroke:#000000;stroke-width:25.92"/>
	<line x1="5995.44" y1="1619.44" x2="6033.80" y2="1611.28" style="stroke:#000000;stroke-width:25.92"/>
	<line x1="6090.23" y1="1599.64" x2="6095.93" y2="1598.40" style="stroke:#000000;stroke-width:25.92"/>
	<line x1="6152.35" y1="1586.52" x2="6261.26" y2="1564.00" style="stroke:#000000;stroke-width:25.92"/>
	<line x1="6261.26" y1="1564.00" x2="6378.07" y2="1540.24" style="stroke:#000000;stroke-width:25.92"/>
	<line x1="6434.51" y1="1529.10" x2="6439.95" y2="1527.87" style="stroke:#000000;stroke-width:25.92"/>
	<line x1="6496.63" y1="1516.48" x2="6527.32" y2="1510.54" style="stroke:#000000;stroke-width:25.92"/>
	<line x1="6527.32" y1="1510.54" x2="6660.23" y2="1484.55" style="stroke:#000000;stroke-width:25.92"/>
	<line x1="6660.23" y1="1484.55" x2="6722.84" y2="1472.67" style="stroke:#000000;stroke-width:25.92"/>
	<line x1="6779.27" y1="1461.78" x2="6784.97" y2="1460.54" style="stroke:#000000;stroke-width:25.92"/>
	<line x1="6841.64" y1="1450.15" x2="6926.29" y2="1434.06" style="stroke:#000000;stroke-width:25.92"/>
	<line x1="6926.29" y1="1434.06" x2="7059.44" y2="1409.56" style="stroke:#000000;stroke-width:25.92"/>
	<line x1="7059.44" y1="1409.56" x2="7068.10" y2="1408.07" style="stroke:#000000;stroke-width:25.92"/>
	<line x1="7124.78" y1="1397.68" x2="7130.48" y2="1396.69" style="stroke:#000000;stroke-width:25.92"/>
	<line x1="7187.15" y1="1386.29" x2="7192.35" y2="1385.30" style="stroke:#000000;stroke-width:25.92"/>
	<line x1="7192.35" y1="1385.30" x2="7325.26" y2="1361.54" style="stroke:#000000;stroke-width:25.92"/>
	<path d="" stroke-linejoin="round" style="fill:none;stroke:#000000;stroke-width:25.92"/>
	<path d=" M941.49 3391.60 L1074.40 3325.51 L1207.55 3259.43 L1340.46 3194.58 L1473.37 3131.22 L1606.52 3070.09 L1739.43 3011.92 L1872.59 2957.22 L2005.49 2906.48 L2138.40 2860.20 L2271.55 2818.87 L2404.46 2782.98 L2537.37 2753.28 L2670.53 2729.76 L2803.43 2713.43 L2936.34 2704.02 L3069.49 2702.78 L3202.40 2709.47 L3335.31 2722.83 L3468.47 2741.64 L3601.37 2763.67 L3734.53 2787.93 L3867.43 2812.43 L4000.34 2835.70 L4133.50 2855.74 L4266.40 2871.34 L4399.31 2880.74 L4532.47 2881.98 L4665.38 2873.32 L4798.28 2854.26 L4931.44 2824.81 L5064.35 2786.44 L5197.50 2740.65 L5330.41 2688.43 L5463.31 2631.25 L5596.47 2570.37 L5729.38 2507.01 L5862.28 2442.41 L5995.44 2377.56 L6128.35 2313.95 L6261.26 2251.33 L6394.41 2189.95 L6527.32 2129.80 L6660.23 2070.90 L6793.38 2013.23 L6926.29 1957.04 L7059.44 1902.10 L7192.35 1848.39 L7325.26 1796.16" stroke-linejoin="round" style="fill:none;stroke:#000000;stroke-width:25.92"/>
	<path d=" M941.49 2378.30 L1074.40 2344.89 L1207.55 2311.47 L1340.46 2278.56 L1473.37 2246.63 L1606.52 2215.44 L1739.43 2185.25 L1872.59 2156.53 L2005.49 2129.31 L2138.40 2103.82 L2271.55 2080.30 L2404.46 2058.77 L2537.37 2039.22 L2670.53 2022.39 L2803.43 2008.03 L2936.34 1996.40 L3069.49 1987.73 L3202.40 1982.04 L3335.31 1979.07 L3468.47 1978.08 L3601.37 1978.33 L3734.53 1978.82 L3867.43 1979.07 L4000.34 1978.33 L4133.50 1975.61 L4266.40 1970.41 L4399.31 1961.99 L4532.47 1950.11 L4665.38 1934.52 L4798.28 1915.46 L4931.44 1894.42 L5064.35 1872.40 L5197.50 1850.37 L5330.41 1829.08 L5463.31 1808.79 L5596.47 1789.73 L5729.38 1772.16 L5862.28 1755.82 L5995.44 1740.72 L6128.35 1727.11 L6261.26 1714.49 L6394.41 1703.10 L6527.32 1692.71 L6660.23 1683.55 L6793.38 1675.13 L6926.29 1667.46 L7059.44 1661.02 L7192.35 1655.33 L7325.26 1650.63" stroke-linejoin="round" style="fill:none;stroke:#FF0000;stroke-width:25.92"/>
	<line x1="814.77" y1="4978.37" x2="814.77" y2="201.72" style="stroke:#000000;stroke-width:11.52"/>
	<line x1="814.77" y1="4851.65" x2="734.83" y2="4851.65" style="stroke:#000000;stroke-width:11.52"/>
	<text x="694.98" y="4921.70" style="font-family:'Helvetica';font-size:199.98px;fill:#000000" text-anchor="end">0</text>
	<line x1="814.77" y1="3947.01" x2="734.83" y2="3947.01" style="stroke:#000000;stroke-width:11.52"/>
	<text x="694.98" y="4017.06" style="font-family:'Helvetica';font-size:199.98px;fill:#000000" text-anchor="end">.2</text>
	<line x1="814.77" y1="3042.37" x2="734.83" y2="3042.37" style="stroke:#000000;stroke-width:11.52"/>
	<text x="694.98" y="3112.42" style="font-family:'Helvetica';font-size:199.98px;fill:#000000" text-anchor="end">.4</text>
	<line x1="814.77" y1="2137.72" x2="734.83" y2="2137.72" style="stroke:#000000;stroke-width:11.52"/>
	<text x="694.98" y="2207.78" style="font-family:'Helvetica';font-size:199.98px;fill:#000000" text-anchor="end">.6</text>
	<line x1="814.77" y1="1233.08" x2="734.83" y2="1233.08" style="stroke:#000000;stroke-width:11.52"/>
	<text x="694.98" y="1303.14" style="font-family:'Helvetica';font-size:199.98px;fill:#000000" text-anchor="end">.8</text>
	<line x1="814.77" y1="328.44" x2="734.83" y2="328.44" style="stroke:#000000;stroke-width:11.52"/>
	<text x="694.98" y="398.50" style="font-family:'Helvetica';font-size:199.98px;fill:#000000" text-anchor="end">1</text>
	<text x="381.42" y="2589.92" style="font-family:'Helvetica';font-size:199.98px;fill:#000000" transform="rotate(-90 381.42,2589.92)" text-anchor="middle">5-year survival proportion</text>
	<line x1="814.77" y1="4978.37" x2="7718.04" y2="4978.37" style="stroke:#000000;stroke-width:11.52"/>
	<line x1="941.49" y1="4978.37" x2="941.49" y2="5058.32" style="stroke:#000000;stroke-width:11.52"/>
	<text x="941.49" y="5238.28" style="font-family:'Helvetica';font-size:199.98px;fill:#000000" text-anchor="middle">1975</text>
	<line x1="2271.55" y1="4978.37" x2="2271.55" y2="5058.32" style="stroke:#000000;stroke-width:11.52"/>
	<text x="2271.55" y="5238.28" style="font-family:'Helvetica';font-size:199.98px;fill:#000000" text-anchor="middle">1980</text>
	<line x1="3601.62" y1="4978.37" x2="3601.62" y2="5058.32" style="stroke:#000000;stroke-width:11.52"/>
	<text x="3601.62" y="5238.28" style="font-family:'Helvetica';font-size:199.98px;fill:#000000" text-anchor="middle">1985</text>
	<line x1="4931.44" y1="4978.37" x2="4931.44" y2="5058.32" style="stroke:#000000;stroke-width:11.52"/>
	<text x="4931.44" y="5238.28" style="font-family:'Helvetica';font-size:199.98px;fill:#000000" text-anchor="middle">1990</text>
	<line x1="6261.50" y1="4978.37" x2="6261.50" y2="5058.32" style="stroke:#000000;stroke-width:11.52"/>
	<text x="6261.50" y="5238.28" style="font-family:'Helvetica';font-size:199.98px;fill:#000000" text-anchor="middle">1995</text>
	<line x1="7591.32" y1="4978.37" x2="7591.32" y2="5058.32" style="stroke:#000000;stroke-width:11.52"/>
	<text x="7591.32" y="5238.28" style="font-family:'Helvetica';font-size:199.98px;fill:#000000" text-anchor="middle">2000</text>
	<text x="4266.40" y="5458.31" style="font-family:'Helvetica';font-size:199.98px;fill:#000000" text-anchor="middle">Year of diagnosis</text>
	<rect x="2436.39" y="3976.46" width="3660.28" height="932.86" style="fill:#FFFFFF"/>
	<rect x="2442.15" y="3982.22" width="3648.76" height="921.34" style="fill:none;stroke:#000000;stroke-width:11.52"/>
	<line x1="2522.77" y1="4162.83" x2="2568.80" y2="4162.83" style="stroke:#000000;stroke-width:25.92"/>
	<line x1="2609.14" y1="4162.83" x2="2655.18" y2="4162.83" style="stroke:#000000;stroke-width:25.92"/>
	<line x1="2695.52" y1="4162.83" x2="2741.56" y2="4162.83" style="stroke:#000000;stroke-width:25.92"/>
	<line x1="2781.90" y1="4162.83" x2="2827.93" y2="4162.83" style="stroke:#000000;stroke-width:25.92"/>
	<line x1="2868.28" y1="4162.83" x2="2914.56" y2="4162.83" style="stroke:#000000;stroke-width:25.92"/>
	<line x1="2954.66" y1="4162.83" x2="3000.94" y2="4162.83" style="stroke:#000000;stroke-width:25.92"/>
	<line x1="3041.28" y1="4162.83" x2="3087.32" y2="4162.83" style="stroke:#000000;stroke-width:25.92"/>
	<line x1="3127.66" y1="4162.83" x2="3173.69" y2="4162.83" style="stroke:#000000;stroke-width:25.92"/>
	<line x1="3214.03" y1="4162.83" x2="3260.07" y2="4162.83" style="stroke:#000000;stroke-width:25.92"/>
	<line x1="4208.24" y1="4162.83" x2="4323.33" y2="4162.83" style="stroke:#000000;stroke-width:25.92"/>
	<line x1="4375.31" y1="4162.83" x2="4381.00" y2="4162.83" style="stroke:#000000;stroke-width:25.92"/>
	<line x1="4432.97" y1="4162.83" x2="4548.06" y2="4162.83" style="stroke:#000000;stroke-width:25.92"/>
	<line x1="4600.03" y1="4162.83" x2="4605.73" y2="4162.83" style="stroke:#000000;stroke-width:25.92"/>
	<line x1="4657.45" y1="4162.83" x2="4772.79" y2="4162.83" style="stroke:#000000;stroke-width:25.92"/>
	<line x1="4824.52" y1="4162.83" x2="4830.46" y2="4162.83" style="stroke:#000000;stroke-width:25.92"/>
	<line x1="4882.19" y1="4162.83" x2="4956.93" y2="4162.83" style="stroke:#000000;stroke-width:25.92"/>
	<line x1="2522.77" y1="4443.01" x2="2753.19" y2="4443.01" style="stroke:#000000;stroke-width:25.92"/>
	<line x1="2810.86" y1="4443.01" x2="3041.28" y2="4443.01" style="stroke:#000000;stroke-width:25.92"/>
	<line x1="3098.95" y1="4443.01" x2="3271.45" y2="4443.01" style="stroke:#000000;stroke-width:25.92"/>
	<line x1="4208.24" y1="4443.01" x2="4438.66" y2="4443.01" style="stroke:#000000;stroke-width:25.92"/>
	<line x1="4496.33" y1="4443.01" x2="4502.02" y2="4443.01" style="stroke:#000000;stroke-width:25.92"/>
	<line x1="4559.69" y1="4443.01" x2="4790.11" y2="4443.01" style="stroke:#000000;stroke-width:25.92"/>
	<line x1="4847.53" y1="4443.01" x2="4853.48" y2="4443.01" style="stroke:#000000;stroke-width:25.92"/>
	<line x1="4910.90" y1="4443.01" x2="4956.93" y2="4443.01" style="stroke:#000000;stroke-width:25.92"/>
	<line x1="2522.77" y1="4722.94" x2="3271.45" y2="4722.94" style="stroke:#000000;stroke-width:25.92"/>
	<line x1="4208.24" y1="4722.94" x2="4956.93" y2="4722.94" style="stroke:#FF0000;stroke-width:25.92"/>
	<text x="3391.49" y="4232.89" style="font-family:'Helvetica';font-size:199.98px;fill:#000000">18-44</text>
	<text x="5076.97" y="4232.89" style="font-family:'Helvetica';font-size:199.98px;fill:#000000">45-59</text>
	<text x="3391.49" y="4513.07" style="font-family:'Helvetica';font-size:199.98px;fill:#000000">55-64</text>
	<text x="5076.97" y="4513.07" style="font-family:'Helvetica';font-size:199.98px;fill:#000000">65-74</text>
	<text x="3391.49" y="4793.00" style="font-family:'Helvetica';font-size:199.98px;fill:#000000">75+</text>
	<text x="5076.97" y="4793.00" style="font-family:'Helvetica';font-size:199.98px;fill:#000000">Age stand</text>
</svg>
