<?xml version="1.0" encoding="UTF-8" standalone="no"?>
<!-- This is a Stata 16.1 generated SVG file (http://www.stata.com) -->

<svg version="1.1" width="11.00in" height="8.00in" viewBox="0 0 7920 5760" xmlns="http://www.w3.org/2000/svg" xmlns:xlink="http://www.w3.org/1999/xlink">
	<desc>Stata Graph - agestanddiff</desc>
	<rect x="0" y="0" width="7920" height="5760" style="fill:#EAF2F3;stroke:none"/>
	<rect x="0.00" y="0.00" width="7919.75" height="5760.00" style="fill:#EAF2F3"/>
	<rect x="5.76" y="5.76" width="7908.23" height="5748.48" style="fill:none;stroke:#EAF2F3;stroke-width:11.52"/>
	<rect x="1118.20" y="839.79" width="6599.84" height="4138.58" style="fill:#FFFFFF"/>
	<rect x="1123.96" y="845.55" width="6588.32" height="4127.06" style="fill:none;stroke:#FFFFFF;stroke-width:11.52"/>
	<line x1="1118.20" y1="4851.65" x2="7718.04" y2="4851.65" style="stroke:#EAF2F3;stroke-width:17.28"/>
	<line x1="1118.20" y1="4112.09" x2="7718.04" y2="4112.09" style="stroke:#EAF2F3;stroke-width:17.28"/>
	<line x1="1118.20" y1="3372.29" x2="7718.04" y2="3372.29" style="stroke:#EAF2F3;stroke-width:17.28"/>
	<line x1="1118.20" y1="2632.49" x2="7718.04" y2="2632.49" style="stroke:#EAF2F3;stroke-width:17.28"/>
	<line x1="1118.20" y1="1892.94" x2="7718.04" y2="1892.94" style="stroke:#EAF2F3;stroke-width:17.28"/>
	<line x1="1118.20" y1="1153.14" x2="7718.04" y2="1153.14" style="stroke:#EAF2F3;stroke-width:17.28"/>
	<defs>
		<path id="path_lNSKbGQO" d="M1244.92 4544.24 L1244.92 4544.24 L1562.22 4032.15 L1879.52 3591.09 L2196.81 3251.51 L2514.35 3022.56 L2831.65 2873.56 L3148.94 2759.71 L3466.24 2652.29 L3783.53 2542.15 L4100.83 2441.91 L4418.12 2386.22 L4735.42 2396.12 L5052.96 2452.55 L5370.26 2514.18 L5687.55 2548.09 L6004.85 2551.31 L6322.14 2587.94 L6639.44 2743.87 L6956.73 3030.73 L7274.02 3403.73 L7274.02 966.52 L6956.73 1269.47 L6639.44 1487.03 L6322.14 1575.14 L6004.85 1546.92 L5687.55 1488.26 L5370.26 1465.25 L5052.96 1480.59 L4735.42 1508.56 L4418.12 1516.73 L4100.83 1496.18 L3783.53 1480.84 L3466.24 1516.97 L3148.94 1617.46 L2831.65 1769.93 L2514.35 1941.95 L2196.81 2083.27 L1879.52 2156.29 L1562.22 2161.73 L1244.92 2119.90 L1244.92 4544.24 Z" stroke-linejoin="round"/>
	</defs>
	<defs>
		<clipPath id="clipPath_OAJkwcjk">
			<use xlink:href="#path_lNSKbGQO"/>
		</clipPath>
	</defs>
	<use xlink:href="#path_lNSKbGQO" style="stroke:none;fill:#3333FF;fill-opacity:0.25"/>
	<use xlink:href="#path_lNSKbGQO" style="fill:none;stroke:#0000FF;stroke-opacity:0.25;stroke-width:34.56" clip-path="url(#clipPath_OAJkwcjk)"/>
	<line x1="1244.92" y1="3332.20" x2="1337.49" y2="3263.64" style="stroke:#0000FF;stroke-width:17.28"/>
	<line x1="1379.07" y1="3232.70" x2="1383.77" y2="3229.23" style="stroke:#0000FF;stroke-width:17.28"/>
	<line x1="1425.35" y1="3198.29" x2="1517.92" y2="3129.98" style="stroke:#0000FF;stroke-width:17.28"/>
	<line x1="1559.74" y1="3098.80" x2="1562.22" y2="3097.06" style="stroke:#0000FF;stroke-width:17.28"/>
	<line x1="1562.22" y1="3097.06" x2="1564.20" y2="3095.58" style="stroke:#0000FF;stroke-width:17.28"/>
	<line x1="1606.77" y1="3065.88" x2="1700.82" y2="2999.55" style="stroke:#0000FF;stroke-width:17.28"/>
	<line x1="1743.39" y1="2969.60" x2="1748.09" y2="2966.38" style="stroke:#0000FF;stroke-width:17.28"/>
	<line x1="1790.41" y1="2936.43" x2="1879.52" y2="2873.81" style="stroke:#0000FF;stroke-width:17.28"/>
	<line x1="1879.52" y1="2873.81" x2="1884.71" y2="2870.35" style="stroke:#0000FF;stroke-width:17.28"/>
	<line x1="1928.27" y1="2842.13" x2="1932.97" y2="2838.91" style="stroke:#0000FF;stroke-width:17.28"/>
	<line x1="1976.54" y1="2810.70" x2="2073.06" y2="2748.08" style="stroke:#0000FF;stroke-width:17.28"/>
	<line x1="2116.37" y1="2719.61" x2="2121.32" y2="2716.64" style="stroke:#0000FF;stroke-width:17.28"/>
	<line x1="2164.64" y1="2688.18" x2="2196.81" y2="2667.39" style="stroke:#0000FF;stroke-width:17.28"/>
	<line x1="2196.81" y1="2667.39" x2="2263.14" y2="2628.78" style="stroke:#0000FF;stroke-width:17.28"/>
	<line x1="2307.94" y1="2602.54" x2="2312.89" y2="2599.57" style="stroke:#0000FF;stroke-width:17.28"/>
	<line x1="2357.93" y1="2573.34" x2="2457.18" y2="2515.42" style="stroke:#0000FF;stroke-width:17.28"/>
	<line x1="2502.22" y1="2489.19" x2="2507.18" y2="2486.22" style="stroke:#0000FF;stroke-width:17.28"/>
	<line x1="2553.21" y1="2462.45" x2="2655.92" y2="2410.48" style="stroke:#0000FF;stroke-width:17.28"/>
	<line x1="2702.20" y1="2387.21" x2="2707.40" y2="2384.74" style="stroke:#0000FF;stroke-width:17.28"/>
	<line x1="2753.68" y1="2361.22" x2="2831.40" y2="2321.87" style="stroke:#0000FF;stroke-width:17.28"/>
	<line x1="2831.40" y1="2321.87" x2="2857.14" y2="2310.98" style="stroke:#0000FF;stroke-width:17.28"/>
	<line x1="2905.16" y1="2290.93" x2="2910.35" y2="2288.70" style="stroke:#0000FF;stroke-width:17.28"/>
	<line x1="2958.12" y1="2268.66" x2="3064.30" y2="2224.10" style="stroke:#0000FF;stroke-width:17.28"/>
	<line x1="3112.31" y1="2203.81" x2="3117.51" y2="2201.83" style="stroke:#0000FF;stroke-width:17.28"/>
	<line x1="3166.02" y1="2183.02" x2="3275.41" y2="2147.38" style="stroke:#0000FF;stroke-width:17.28"/>
	<line x1="3324.67" y1="2131.04" x2="3330.11" y2="2129.31" style="stroke:#0000FF;stroke-width:17.28"/>
	<line x1="3379.61" y1="2112.97" x2="3465.99" y2="2084.76" style="stroke:#0000FF;stroke-width:17.28"/>
	<line x1="3465.99" y1="2084.76" x2="3489.50" y2="2079.31" style="stroke:#0000FF;stroke-width:17.28"/>
	<line x1="3540.24" y1="2067.68" x2="3545.68" y2="2066.19" style="stroke:#0000FF;stroke-width:17.28"/>
	<line x1="3596.18" y1="2054.56" x2="3708.54" y2="2028.82" style="stroke:#0000FF;stroke-width:17.28"/>
	<line x1="3759.03" y1="2017.19" x2="3764.72" y2="2015.95" style="stroke:#0000FF;stroke-width:17.28"/>
	<line x1="3815.95" y1="2007.29" x2="3930.05" y2="1991.94" style="stroke:#0000FF;stroke-width:17.28"/>
	<line x1="3981.53" y1="1985.01" x2="3987.22" y2="1984.27" style="stroke:#0000FF;stroke-width:17.28"/>
	<line x1="4038.70" y1="1977.34" x2="4100.83" y2="1969.17" style="stroke:#0000FF;stroke-width:17.28"/>
	<line x1="4100.83" y1="1969.17" x2="4153.05" y2="1966.20" style="stroke:#0000FF;stroke-width:17.28"/>
	<line x1="4204.78" y1="1963.48" x2="4210.47" y2="1962.98" style="stroke:#0000FF;stroke-width:17.28"/>
	<line x1="4262.20" y1="1960.26" x2="4377.28" y2="1953.83" style="stroke:#0000FF;stroke-width:17.28"/>
	<line x1="4429.01" y1="1951.60" x2="4434.95" y2="1951.60" style="stroke:#0000FF;stroke-width:17.28"/>
	<line x1="4486.68" y1="1951.60" x2="4601.77" y2="1951.85" style="stroke:#0000FF;stroke-width:17.28"/>
	<line x1="4653.74" y1="1952.09" x2="4659.44" y2="1952.09" style="stroke:#0000FF;stroke-width:17.28"/>
	<line x1="4711.41" y1="1952.09" x2="4735.42" y2="1952.34" style="stroke:#0000FF;stroke-width:17.28"/>
	<line x1="4735.42" y1="1952.34" x2="4826.50" y2="1956.55" style="stroke:#0000FF;stroke-width:17.28"/>
	<line x1="4878.47" y1="1958.78" x2="4884.16" y2="1959.02" style="stroke:#0000FF;stroke-width:17.28"/>
	<line x1="4935.89" y1="1961.25" x2="5050.98" y2="1966.45" style="stroke:#0000FF;stroke-width:17.28"/>
	<line x1="5102.71" y1="1970.41" x2="5108.40" y2="1970.66" style="stroke:#0000FF;stroke-width:17.28"/>
	<line x1="5160.38" y1="1974.37" x2="5274.97" y2="1982.78" style="stroke:#0000FF;stroke-width:17.28"/>
	<line x1="5326.94" y1="1986.50" x2="5332.64" y2="1986.99" style="stroke:#0000FF;stroke-width:17.28"/>
	<line x1="5384.36" y1="1990.95" x2="5498.95" y2="2001.35" style="stroke:#0000FF;stroke-width:17.28"/>
	<line x1="5550.68" y1="2006.05" x2="5556.38" y2="2006.55" style="stroke:#0000FF;stroke-width:17.28"/>
	<line x1="5608.10" y1="2011.25" x2="5687.30" y2="2018.43" style="stroke:#0000FF;stroke-width:17.28"/>
	<line x1="5687.30" y1="2018.43" x2="5722.69" y2="2021.89" style="stroke:#0000FF;stroke-width:17.28"/>
	<line x1="5774.42" y1="2026.84" x2="5780.11" y2="2027.58" style="stroke:#0000FF;stroke-width:17.28"/>
	<line x1="5831.84" y1="2032.53" x2="5946.44" y2="2043.42" style="stroke:#0000FF;stroke-width:17.28"/>
	<line x1="5997.91" y1="2048.37" x2="6003.61" y2="2048.87" style="stroke:#0000FF;stroke-width:17.28"/>
	<line x1="6055.34" y1="2054.31" x2="6169.93" y2="2066.19" style="stroke:#0000FF;stroke-width:17.28"/>
	<line x1="6221.65" y1="2071.39" x2="6227.35" y2="2072.13" style="stroke:#0000FF;stroke-width:17.28"/>
	<line x1="6279.07" y1="2077.33" x2="6321.89" y2="2081.79" style="stroke:#0000FF;stroke-width:17.28"/>
	<line x1="6321.89" y1="2081.79" x2="6393.42" y2="2089.46" style="stroke:#0000FF;stroke-width:17.28"/>
	<line x1="6445.15" y1="2094.91" x2="6450.84" y2="2095.40" style="stroke:#0000FF;stroke-width:17.28"/>
	<line x1="6502.57" y1="2100.85" x2="6617.16" y2="2113.22" style="stroke:#0000FF;stroke-width:17.28"/>
	<line x1="6668.64" y1="2118.67" x2="6674.58" y2="2119.16" style="stroke:#0000FF;stroke-width:17.28"/>
	<line x1="6726.06" y1="2124.85" x2="6840.65" y2="2137.48" style="stroke:#0000FF;stroke-width:17.28"/>
	<line x1="6892.13" y1="2143.17" x2="6897.82" y2="2143.91" style="stroke:#0000FF;stroke-width:17.28"/>
	<line x1="6949.31" y1="2149.36" x2="6956.73" y2="2150.35" style="stroke:#0000FF;stroke-width:17.28"/>
	<line x1="6956.73" y1="2150.35" x2="7063.90" y2="2162.23" style="stroke:#0000FF;stroke-width:17.28"/>
	<line x1="7115.63" y1="2167.92" x2="7121.32" y2="2168.42" style="stroke:#0000FF;stroke-width:17.28"/>
	<line x1="7172.80" y1="2174.11" x2="7274.02" y2="2185.25" style="stroke:#0000FF;stroke-width:17.28"/>
	<path d="" stroke-linejoin="round" style="fill:none;stroke:#0000FF;stroke-width:17.28"/>
	<line x1="1118.20" y1="4978.37" x2="1118.20" y2="839.79" style="stroke:#000000;stroke-width:11.52"/>
	<line x1="1118.20" y1="4851.65" x2="1038.26" y2="4851.65" style="stroke:#000000;stroke-width:11.52"/>
	<text x="998.17" y="4921.70" style="font-family:'Helvetica';font-size:199.98px;fill:#000000" text-anchor="end">-0.30</text>
	<line x1="1118.20" y1="4112.09" x2="1038.26" y2="4112.09" style="stroke:#000000;stroke-width:11.52"/>
	<text x="998.17" y="4182.15" style="font-family:'Helvetica';font-size:199.98px;fill:#000000" text-anchor="end">-0.25</text>
	<line x1="1118.20" y1="3372.29" x2="1038.26" y2="3372.29" style="stroke:#000000;stroke-width:11.52"/>
	<text x="998.17" y="3442.35" style="font-family:'Helvetica';font-size:199.98px;fill:#000000" text-anchor="end">-0.20</text>
	<line x1="1118.20" y1="2632.49" x2="1038.26" y2="2632.49" style="stroke:#000000;stroke-width:11.52"/>
	<text x="998.17" y="2702.55" style="font-family:'Helvetica';font-size:199.98px;fill:#000000" text-anchor="end">-0.15</text>
	<line x1="1118.20" y1="1892.94" x2="1038.26" y2="1892.94" style="stroke:#000000;stroke-width:11.52"/>
	<text x="998.17" y="1963.00" style="font-family:'Helvetica';font-size:199.98px;fill:#000000" text-anchor="end">-0.10</text>
	<line x1="1118.20" y1="1153.14" x2="1038.26" y2="1153.14" style="stroke:#000000;stroke-width:11.52"/>
	<text x="998.17" y="1223.20" style="font-family:'Helvetica';font-size:199.98px;fill:#000000" text-anchor="end">-0.05</text>
	<text x="381.42" y="2909.21" style="font-family:'Helvetica';font-size:199.98px;fill:#000000" transform="rotate(-90 381.42,2909.21)" text-anchor="middle">Difference in 5-year survival (age-standardised)</text>
	<line x1="1118.20" y1="4978.37" x2="7718.04" y2="4978.37" style="stroke:#000000;stroke-width:11.52"/>
	<line x1="1244.92" y1="4978.37" x2="1244.92" y2="5058.32" style="stroke:#000000;stroke-width:11.52"/>
	<text x="1244.92" y="5238.28" style="font-family:'Helvetica';font-size:199.98px;fill:#000000" text-anchor="middle">1975</text>
	<line x1="2831.65" y1="4978.37" x2="2831.65" y2="5058.32" style="stroke:#000000;stroke-width:11.52"/>
	<text x="2831.65" y="5238.28" style="font-family:'Helvetica';font-size:199.98px;fill:#000000" text-anchor="middle">1980</text>
	<line x1="4418.12" y1="4978.37" x2="4418.12" y2="5058.32" style="stroke:#000000;stroke-width:11.52"/>
	<text x="4418.12" y="5238.28" style="font-family:'Helvetica';font-size:199.98px;fill:#000000" text-anchor="middle">1985</text>
	<line x1="6004.85" y1="4978.37" x2="6004.85" y2="5058.32" style="stroke:#000000;stroke-width:11.52"/>
	<text x="6004.85" y="5238.28" style="font-family:'Helvetica';font-size:199.98px;fill:#000000" text-anchor="middle">1990</text>
	<line x1="7591.32" y1="4978.37" x2="7591.32" y2="5058.32" style="stroke:#000000;stroke-width:11.52"/>
	<text x="7591.32" y="5238.28" style="font-family:'Helvetica';font-size:199.98px;fill:#000000" text-anchor="middle">1995</text>
	<text x="4418.12" y="5458.31" style="font-family:'Helvetica';font-size:199.98px;fill:#000000" text-anchor="middle">Year of diagnosis</text>
	<text x="4418.12" y="739.26" style="font-family:'Helvetica';font-size:220.03px;fill:#000000" text-anchor="middle">(men - women) with 95% confidence interval</text>
	<text x="4418.12" y="431.95" style="font-family:'Helvetica';font-size:279.92px;fill:#1E2D53" text-anchor="middle">Difference in age-standardised 5-year survival</text>
</svg>
