<?xml version="1.0" encoding="UTF-8" standalone="no"?>
<!-- This is a Stata 15.1 generated SVG file (http://www.stata.com) -->

<svg version="1.1" width="11.00in" height="8.00in" viewBox="0 0 7920 5760" xmlns="http://www.w3.org/2000/svg" xmlns:xlink="http://www.w3.org/1999/xlink">
	<desc>Stata Graph - stack</desc>
	<rect x="0" y="0" width="7920" height="5760" style="fill:#EAF2F3;stroke:none"/>
	<rect x="0.00" y="0.00" width="7919.75" height="5760.00" style="fill:#EAF2F3"/>
	<rect x="5.76" y="5.76" width="7908.23" height="5748.48" style="fill:none;stroke:#EAF2F3;stroke-width:11.52"/>
	<rect x="126.72" y="126.72" width="3833.28" height="5506.55" style="fill:#EAF2F3"/>
	<rect x="131.04" y="131.04" width="3824.64" height="5497.91" style="fill:none;stroke:#EAF2F3;stroke-width:8.64"/>
	<rect x="825.41" y="539.81" width="2983.37" height="4123.97" style="fill:#FFFFFF"/>
	<rect x="829.73" y="544.13" width="2974.73" height="4115.33" style="fill:none;stroke:#FFFFFF;stroke-width:8.64"/>
	<line x1="825.41" y1="4663.79" x2="3808.78" y2="4663.79" style="stroke:#EAF2F3;stroke-width:12.96"/>
	<line x1="825.41" y1="3839.09" x2="3808.78" y2="3839.09" style="stroke:#EAF2F3;stroke-width:12.96"/>
	<line x1="825.41" y1="3014.15" x2="3808.78" y2="3014.15" style="stroke:#EAF2F3;stroke-width:12.96"/>
	<line x1="825.41" y1="2189.45" x2="3808.78" y2="2189.45" style="stroke:#EAF2F3;stroke-width:12.96"/>
	<line x1="825.41" y1="1364.51" x2="3808.78" y2="1364.51" style="stroke:#EAF2F3;stroke-width:12.96"/>
	<line x1="825.41" y1="539.81" x2="3808.78" y2="539.81" style="stroke:#EAF2F3;stroke-width:12.96"/>
	<defs>
		<path id="path_KaEYJMnG" d="M828.13 4663.05 L828.13 4663.05 L831.11 4662.06 L834.32 4659.83 L837.29 4656.12 L840.26 4651.41 L843.23 4645.23 L846.20 4637.55 L849.17 4628.89 L852.14 4618.99 L855.11 4607.85 L858.08 4595.72 L861.05 4582.85 L864.02 4569.24 L866.99 4555.13 L869.96 4540.28 L872.93 4525.18 L875.90 4509.84 L878.87 4494.25 L881.84 4478.40 L884.81 4462.81 L888.03 4446.97 L891.00 4431.38 L893.97 4415.79 L896.94 4400.44 L899.91 4385.09 L902.88 4370.00 L905.85 4355.15 L908.82 4340.54 L911.79 4325.94 L914.76 4311.58 L917.73 4297.48 L920.70 4283.62 L923.67 4270.00 L926.64 4256.39 L929.61 4243.03 L932.58 4229.91 L935.55 4217.04 L938.52 4204.17 L941.49 4191.54 L944.71 4179.17 L947.68 4166.79 L950.65 4154.66 L953.62 4142.78 L956.59 4130.90 L959.56 4119.27 L962.53 4107.89 L965.50 4096.50 L968.47 4085.36 L971.44 4074.22 L974.41 4063.09 L977.38 4052.44 L980.35 4041.55 L983.32 4031.16 L986.29 4020.52 L989.26 4010.12 L992.23 3999.97 L995.20 3989.82 L998.17 3979.68 L1001.38 3969.78 L1004.36 3959.88 L1007.33 3950.22 L1010.29 3940.32 L1013.26 3930.92 L1016.24 3921.27 L1019.21 3911.86 L1022.17 3902.45 L1025.14 3893.30 L1028.12 3883.89 L1031.09 3874.73 L1034.06 3865.82 L1037.03 3856.67 L1039.99 3847.76 L1042.96 3838.84 L1045.93 3830.18 L1048.90 3821.27 L1051.88 3812.61 L1055.09 3803.95 L1058.06 3795.28 L1061.03 3786.87 L1064.00 3778.45 L1066.97 3770.04 L1069.94 3761.62 L1072.91 3753.45 L1075.88 3745.29 L1078.85 3737.12 L1081.82 3729.20 L1084.79 3721.03 L1087.76 3713.11 L1090.73 3705.19 L1093.70 3697.52 L1096.67 3689.60 L1099.64 3681.93 L1102.61 3674.25 L1105.58 3666.58 L1108.55 3659.15 L1111.77 3651.73 L1114.74 3644.30 L1117.71 3636.88 L1120.68 3629.70 L1123.65 3622.28 L1126.62 3615.10 L1129.59 3607.92 L1132.56 3600.99 L1135.53 3593.81 L1138.50 3586.88 L1141.47 3579.95 L1144.44 3573.27 L1147.41 3566.34 L1150.38 3559.66 L1153.35 3552.97 L1156.32 3546.29 L1159.29 3539.61 L1162.26 3533.17 L1165.48 3526.49 L1168.45 3520.06 L1171.42 3513.87 L1174.39 3507.43 L1177.36 3501.24 L1180.33 3494.81 L1183.30 3488.62 L1186.27 3482.68 L1189.24 3476.49 L1192.21 3470.55 L1195.18 3464.37 L1198.15 3458.43 L1201.12 3452.73 L1204.09 3446.79 L1207.06 3440.85 L1210.03 3435.16 L1213.00 3429.47 L1215.97 3423.77 L1218.94 3418.08 L1222.15 3412.64 L1225.13 3407.19 L1228.10 3401.50 L1231.07 3396.05 L1234.04 3390.61 L1237.01 3385.41 L1239.97 3379.97 L1242.94 3374.77 L1245.91 3369.57 L1248.88 3364.37 L1251.86 3359.17 L1254.83 3354.22 L1257.80 3349.03 L1260.77 3344.08 L1263.73 3339.13 L1266.70 3334.18 L1269.67 3329.23 L1272.64 3324.28 L1275.62 3319.57 L1278.83 3314.62 L1281.80 3309.92 L1284.77 3305.22 L1287.74 3300.52 L1290.71 3295.81 L1293.68 3291.36 L1296.65 3286.66 L1299.62 3282.20 L1302.59 3277.74 L1305.56 3273.29 L1308.53 3268.83 L1311.50 3264.63 L1314.47 3260.17 L1317.44 3255.96 L1320.41 3251.51 L1323.38 3247.30 L1326.35 3243.09 L1329.32 3238.89 L1332.54 3234.93 L1335.51 3230.72 L1338.48 3226.51 L1341.45 3222.55 L1344.42 3218.59 L1347.39 3214.63 L1350.36 3210.67 L1353.33 3206.71 L1356.30 3202.75 L1359.27 3199.04 L1362.24 3195.08 L1365.21 3191.36 L1368.18 3187.65 L1371.15 3183.94 L1374.12 3180.23 L1377.09 3176.51 L1380.06 3172.80 L1383.03 3169.09 L1386.00 3165.62 L1389.22 3162.16 L1392.19 3158.45 L1395.16 3154.98 L1398.13 3151.52 L1401.10 3148.05 L1404.07 3144.59 L1407.04 3141.12 L1410.01 3137.90 L1412.98 3134.44 L1415.95 3130.97 L1418.92 3127.76 L1421.89 3124.54 L1424.86 3121.32 L1427.83 3117.85 L1430.80 3114.64 L1433.77 3111.67 L1436.74 3108.45 L1439.71 3105.23 L1442.92 3102.01 L1445.89 3099.04 L1448.87 3095.83 L1451.84 3092.86 L1454.81 3089.89 L1457.78 3086.67 L1460.74 3083.70 L1463.71 3080.73 L1466.68 3077.76 L1469.65 3074.79 L1472.63 3072.07 L1475.60 3069.10 L1478.57 3066.13 L1481.54 3063.40 L1484.51 3060.43 L1487.47 3057.71 L1490.44 3054.74 L1493.41 3052.02 L1496.38 3049.30 L1499.60 3046.57 L1502.57 3043.85 L1505.54 3041.13 L1508.51 3038.40 L1511.48 3035.68 L1514.45 3032.96 L1517.42 3030.48 L1520.39 3027.76 L1523.36 3025.04 L1526.33 3022.56 L1529.30 3020.09 L1532.27 3017.37 L1535.24 3014.89 L1538.21 3012.42 L1541.18 3009.69 L1544.15 3007.22 L1547.12 3004.74 L1550.09 3002.27 L1553.06 2999.79 L1556.28 2997.57 L1559.25 2995.09 L1562.22 2992.62 L1565.19 2990.14 L1568.16 2987.91 L1571.13 2985.44 L1574.10 2983.21 L1577.07 2980.74 L1580.04 2978.51 L1583.01 2976.28 L1585.98 2973.81 L1588.95 2971.58 L1591.92 2969.35 L1594.89 2967.12 L1597.86 2964.90 L1600.83 2962.67 L1603.80 2960.44 L1606.77 2958.21 L1609.99 2955.98 L1612.96 2953.76 L1615.93 2951.53 L1618.90 2949.55 L1621.87 2947.32 L1624.84 2945.09 L1627.81 2943.11 L1630.78 2940.89 L1633.75 2938.91 L1636.72 2936.68 L1639.69 2934.70 L1642.66 2932.72 L1645.63 2930.49 L1648.60 2928.51 L1651.57 2926.53 L1654.54 2924.55 L1657.51 2922.57 L1660.48 2920.59 L1663.45 2918.61 L1666.66 2916.63 L1669.63 2914.65 L1672.61 2912.67 L1675.58 2910.69 L1678.55 2908.71 L1681.52 2906.98 L1684.48 2905.00 L1687.45 2903.02 L1690.42 2901.04 L1693.39 2899.31 L1696.37 2897.33 L1699.34 2895.59 L1702.31 2893.61 L1705.28 2891.88 L1708.24 2889.90 L1711.21 2888.17 L1714.18 2886.44 L1717.15 2884.46 L1720.13 2882.72 L1723.34 2880.99 L1726.31 2879.26 L1729.28 2877.52 L1732.25 2875.54 L1735.22 2873.81 L1738.19 2872.08 L1741.16 2870.35 L1744.13 2868.61 L1747.10 2866.88 L1750.07 2865.15 L1753.04 2863.66 L1756.01 2861.93 L1758.98 2860.20 L1761.95 2858.47 L1764.92 2856.73 L1767.89 2855.25 L1770.86 2853.52 L1773.83 2851.78 L1777.05 2850.30 L1780.02 2848.57 L1782.99 2847.08 L1785.96 2845.35 L1788.93 2843.62 L1791.90 2842.13 L1794.87 2840.65 L1797.84 2838.91 L1800.81 2837.43 L1803.78 2835.70 L1806.75 2834.21 L1809.72 2832.73 L1812.69 2831.24 L1815.66 2829.51 L1818.63 2828.02 L1821.60 2826.54 L1824.57 2825.05 L1827.54 2823.57 L1830.51 2821.84 L1833.73 2820.35 L1836.70 2818.87 L1839.67 2817.38 L1842.64 2815.90 L1845.61 2814.41 L1848.58 2812.93 L1851.55 2811.44 L1854.52 2810.20 L1857.49 2808.72 L1860.46 2807.23 L1863.43 2805.75 L1866.40 2804.26 L1869.37 2802.78 L1872.34 2801.54 L1875.31 2800.06 L1878.28 2798.57 L1881.25 2797.33 L1884.22 2795.85 L1887.43 2794.36 L1890.40 2793.12 L1893.38 2791.64 L1896.35 2790.15 L1899.32 2788.92 L1902.29 2787.43 L1905.26 2786.19 L1908.22 2784.71 L1911.19 2783.47 L1914.16 2782.23 L1917.13 2780.75 L1920.11 2779.51 L1923.08 2778.03 L1926.05 2776.79 L1929.02 2775.55 L1931.98 2774.07 L1934.95 2772.83 L1937.92 2771.59 L1940.89 2770.35 L1944.11 2768.87 L1947.08 2767.63 L1950.05 2766.39 L1953.02 2765.16 L1955.99 2763.92 L1958.96 2762.43 L1961.93 2761.20 L1964.90 2759.96 L1967.87 2758.72 L1970.84 2757.48 L1973.81 2756.25 L1976.78 2755.01 L1979.75 2753.77 L1982.72 2752.53 L1985.69 2751.30 L1988.66 2750.06 L1991.63 2748.82 L1994.60 2747.58 L1997.57 2746.35 L2000.79 2745.36 L2003.76 2744.12 L2006.73 2742.88 L2009.70 2741.64 L2012.67 2740.41 L2015.64 2739.17 L2018.61 2738.18 L2021.58 2736.94 L2024.55 2735.70 L2027.52 2734.47 L2030.49 2733.48 L2033.46 2732.24 L2036.43 2731.00 L2039.40 2730.01 L2042.37 2728.77 L2045.34 2727.54 L2048.31 2726.55 L2051.28 2725.31 L2054.50 2724.32 L2057.47 2723.08 L2060.44 2721.84 L2063.41 2720.85 L2066.38 2719.61 L2069.35 2718.62 L2072.32 2717.39 L2075.29 2716.40 L2078.26 2715.16 L2081.23 2714.17 L2084.20 2713.18 L2087.17 2711.94 L2090.14 2710.95 L2093.11 2709.71 L2096.08 2708.72 L2099.05 2707.73 L2102.02 2706.50 L2104.99 2705.51 L2107.96 2704.27 L2111.18 2703.28 L2114.14 2702.29 L2117.11 2701.30 L2120.09 2700.06 L2123.05 2699.07 L2126.03 2698.08 L2128.99 2697.09 L2131.97 2695.85 L2134.93 2694.86 L2137.91 2693.87 L2140.88 2692.88 L2143.84 2691.89 L2146.82 2690.66 L2149.78 2689.67 L2152.76 2688.68 L2155.72 2687.69 L2158.70 2686.70 L2161.66 2685.71 L2164.88 2684.72 L2167.85 2683.73 L2170.82 2682.74 L2173.79 2681.50 L2176.76 2680.51 L2179.73 2679.52 L2182.70 2678.53 L2185.67 2677.54 L2188.64 2676.55 L2191.61 2675.56 L2194.58 2674.57 L2197.55 2673.58 L2200.52 2672.84 L2203.49 2671.85 L2206.46 2670.86 L2209.43 2669.87 L2212.40 2668.88 L2215.37 2667.89 L2218.34 2666.90 L2221.56 2665.91 L2224.53 2664.92 L2227.50 2663.93 L2230.47 2663.18 L2233.44 2662.19 L2236.41 2661.20 L2239.38 2660.21 L2242.35 2659.22 L2245.32 2658.48 L2248.29 2657.49 L2251.26 2656.50 L2254.23 2655.51 L2257.20 2654.52 L2260.17 2653.78 L2263.14 2652.79 L2266.11 2651.80 L2269.08 2650.81 L2272.05 2650.07 L2275.02 2649.08 L2278.24 2648.09 L2281.21 2647.34 L2284.18 2646.35 L2287.15 2645.36 L2290.12 2644.62 L2293.09 2643.63 L2296.06 2642.64 L2299.03 2641.90 L2302.00 2640.91 L2304.97 2640.17 L2307.94 2639.17 L2310.91 2638.18 L2313.88 2637.44 L2316.85 2636.45 L2319.82 2635.71 L2322.79 2634.72 L2325.76 2633.98 L2328.73 2632.99 L2331.95 2632.24 L2334.91 2631.25 L2337.89 2630.26 L2340.86 2629.52 L2343.82 2628.53 L2346.80 2627.79 L2349.76 2627.05 L2352.74 2626.06 L2355.70 2625.31 L2358.68 2624.32 L2361.64 2623.58 L2364.61 2622.59 L2367.59 2621.85 L2370.55 2620.86 L2373.53 2620.12 L2376.49 2619.37 L2379.47 2618.38 L2382.43 2617.64 L2385.41 2616.65 L2388.62 2615.91 L2391.59 2615.17 L2394.56 2614.18 L2397.53 2613.43 L2400.50 2612.69 L2403.47 2611.70 L2406.44 2610.96 L2409.41 2610.22 L2412.38 2609.23 L2415.35 2608.48 L2418.32 2607.74 L2421.29 2606.75 L2424.26 2606.01 L2427.23 2605.27 L2430.20 2604.28 L2433.17 2603.53 L2436.14 2602.79 L2439.11 2602.05 L2442.33 2601.06 L2445.30 2600.32 L2448.27 2599.57 L2451.24 2598.83 L2454.21 2597.84 L2457.18 2597.10 L2460.15 2596.36 L2463.12 2595.61 L2466.09 2594.87 L2469.06 2593.88 L2472.03 2593.14 L2475.00 2592.40 L2477.97 2591.65 L2480.94 2590.91 L2483.91 2589.92 L2486.88 2589.18 L2489.85 2588.44 L2492.82 2587.69 L2495.79 2586.95 L2499.01 2586.21 L2501.98 2585.47 L2504.95 2584.72 L2507.92 2583.73 L2510.89 2582.99 L2513.86 2582.25 L2516.83 2581.51 L2519.80 2580.76 L2522.77 2580.02 L2525.74 2579.28 L2528.71 2578.54 L2531.68 2577.79 L2534.65 2577.05 L2537.62 2576.31 L2540.59 2575.57 L2543.56 2574.58 L2546.53 2573.83 L2549.50 2573.09 L2552.47 2572.35 L2555.68 2571.61 L2558.66 2570.86 L2561.63 2570.12 L2564.59 2569.38 L2567.57 2568.64 L2570.53 2567.89 L2573.51 2567.15 L2576.47 2566.41 L2579.45 2565.67 L2582.41 2564.92 L2585.39 2564.18 L2588.36 2563.44 L2591.32 2562.70 L2594.30 2562.20 L2597.26 2561.46 L2600.24 2560.72 L2603.20 2559.97 L2606.18 2559.23 L2609.39 2558.49 L2612.36 2557.74 L2615.33 2557.00 L2618.30 2556.26 L2621.27 2555.52 L2624.24 2554.77 L2627.21 2554.03 L2630.18 2553.29 L2633.15 2552.79 L2636.12 2552.05 L2639.09 2551.31 L2642.06 2550.57 L2645.03 2549.82 L2648.00 2549.08 L2650.97 2548.34 L2653.94 2547.60 L2656.91 2547.10 L2659.88 2546.36 L2662.85 2545.62 L2666.07 2544.87 L2669.04 2544.13 L2672.01 2543.39 L2674.98 2542.89 L2677.95 2542.15 L2680.92 2541.41 L2683.89 2540.67 L2686.86 2539.92 L2689.83 2539.18 L2692.80 2538.69 L2695.77 2537.94 L2698.74 2537.20 L2701.71 2536.46 L2704.68 2535.72 L2707.65 2535.22 L2710.62 2534.48 L2713.59 2533.74 L2716.56 2532.99 L2719.53 2532.50 L2722.75 2531.76 L2725.72 2531.01 L2728.69 2530.27 L2731.66 2529.78 L2734.63 2529.03 L2737.60 2528.29 L2740.57 2527.55 L2743.54 2527.05 L2746.51 2526.31 L2749.48 2525.57 L2752.45 2524.83 L2755.42 2524.33 L2758.39 2523.59 L2761.36 2522.85 L2764.33 2522.35 L2767.30 2521.61 L2770.27 2520.87 L2773.24 2520.12 L2776.45 2519.63 L2779.43 2518.89 L2782.39 2518.14 L2785.36 2517.65 L2788.34 2516.91 L2791.30 2516.16 L2794.28 2515.67 L2797.24 2514.93 L2800.22 2514.18 L2803.18 2513.69 L2806.16 2512.95 L2809.13 2512.20 L2812.09 2511.71 L2815.07 2510.97 L2818.03 2510.22 L2821.01 2509.73 L2823.97 2508.99 L2826.95 2508.49 L2829.91 2507.75 L2833.13 2507.01 L2836.10 2506.51 L2839.07 2505.77 L2842.04 2505.03 L2845.01 2504.53 L2847.98 2503.79 L2850.95 2503.29 L2853.92 2502.55 L2856.89 2501.81 L2859.86 2501.31 L2862.83 2500.57 L2865.80 2500.08 L2868.77 2499.33 L2871.74 2498.59 L2874.71 2498.10 L2877.68 2497.35 L2880.65 2496.86 L2883.62 2496.12 L2886.84 2495.37 L2889.81 2494.88 L2892.78 2494.14 L2895.75 2493.64 L2898.72 2492.90 L2901.69 2492.40 L2904.66 2491.66 L2907.63 2491.17 L2910.60 2490.42 L2913.57 2489.93 L2916.54 2489.19 L2919.51 2488.44 L2922.48 2487.95 L2925.45 2487.21 L2928.42 2486.71 L2931.39 2485.97 L2934.36 2485.47 L2937.33 2484.73 L2940.30 2484.24 L2943.52 2483.49 L2946.49 2483.00 L2949.46 2482.26 L2952.43 2481.76 L2955.40 2481.02 L2958.37 2480.52 L2961.34 2479.78 L2964.31 2479.28 L2967.28 2478.54 L2970.25 2478.05 L2973.22 2477.30 L2976.19 2476.81 L2979.16 2476.07 L2982.13 2475.57 L2985.10 2474.83 L2988.07 2474.33 L2991.04 2473.59 L2994.01 2473.10 L2996.98 2472.35 L3000.20 2471.86 L3003.16 2471.12 L3006.14 2470.62 L3009.11 2470.13 L3012.07 2469.38 L3015.05 2468.89 L3018.01 2468.15 L3020.99 2467.65 L3023.95 2466.91 L3026.93 2466.41 L3029.89 2465.67 L3032.86 2465.18 L3035.84 2464.68 L3038.80 2463.94 L3041.78 2463.44 L3044.74 2462.70 L3047.72 2462.21 L3050.68 2461.46 L3053.90 2460.97 L3056.87 2460.47 L3059.84 2459.73 L3062.81 2459.24 L3065.78 2458.49 L3068.75 2458.00 L3071.72 2457.50 L3074.69 2456.76 L3077.66 2456.27 L3080.63 2455.52 L3083.60 2455.03 L3086.57 2454.53 L3089.54 2453.79 L3092.51 2453.30 L3095.48 2452.55 L3098.45 2452.06 L3101.42 2451.56 L3104.39 2450.82 L3107.36 2450.33 L3110.58 2449.58 L3113.55 2449.09 L3116.52 2448.59 L3119.49 2447.85 L3122.46 2447.36 L3125.43 2446.86 L3128.40 2446.12 L3131.37 2445.62 L3134.34 2444.88 L3137.31 2444.39 L3140.28 2443.89 L3143.25 2443.15 L3146.22 2442.65 L3149.19 2442.16 L3152.16 2441.42 L3155.13 2440.92 L3158.10 2440.43 L3161.07 2439.68 L3164.29 2439.19 L3167.26 2438.69 L3170.23 2437.95 L3173.20 2437.46 L3176.17 2436.96 L3179.14 2436.22 L3182.11 2435.72 L3185.08 2435.23 L3188.05 2434.49 L3191.02 2433.99 L3193.99 2433.50 L3196.96 2432.75 L3199.93 2432.26 L3202.90 2431.76 L3205.87 2431.02 L3208.84 2430.53 L3211.81 2430.03 L3214.78 2429.29 L3217.75 2428.79 L3220.97 2428.30 L3223.93 2427.56 L3226.91 2427.06 L3229.88 2426.57 L3232.84 2426.07 L3235.82 2425.33 L3238.78 2424.83 L3241.76 2424.34 L3244.72 2423.60 L3247.70 2423.10 L3250.66 2422.61 L3253.64 2422.11 L3256.61 2421.37 L3259.57 2420.87 L3262.55 2420.38 L3265.51 2419.64 L3268.49 2419.14 L3271.45 2418.65 L3274.43 2418.15 L3277.64 2417.41 L3280.61 2416.91 L3283.58 2416.42 L3286.55 2415.68 L3289.52 2415.18 L3292.49 2414.69 L3295.46 2414.19 L3298.43 2413.45 L3301.40 2412.95 L3304.37 2412.46 L3307.34 2411.96 L3310.31 2411.22 L3313.28 2410.73 L3316.25 2410.23 L3319.22 2409.74 L3322.19 2408.99 L3325.16 2408.50 L3328.13 2408.00 L3331.35 2407.51 L3334.32 2406.77 L3337.29 2406.27 L3340.26 2405.78 L3343.23 2405.28 L3346.20 2404.54 L3349.17 2404.04 L3352.14 2403.55 L3355.11 2403.05 L3358.08 2402.31 L3361.05 2401.82 L3364.02 2401.32 L3366.99 2400.83 L3369.96 2400.33 L3372.93 2399.59 L3375.90 2399.09 L3378.87 2398.60 L3381.84 2398.10 L3384.81 2397.36 L3388.03 2396.86 L3391.00 2396.37 L3393.97 2395.87 L3396.94 2395.38 L3399.91 2394.64 L3402.88 2394.14 L3405.85 2393.65 L3408.82 2393.15 L3411.79 2392.66 L3414.76 2391.91 L3417.73 2391.42 L3420.70 2390.92 L3423.67 2390.43 L3426.64 2389.93 L3429.61 2389.19 L3432.58 2388.70 L3435.55 2388.20 L3438.52 2387.71 L3441.74 2387.21 L3444.70 2386.47 L3447.68 2385.97 L3450.64 2385.48 L3453.61 2384.98 L3456.59 2384.49 L3459.55 2383.75 L3462.53 2383.25 L3465.49 2382.76 L3468.47 2382.26 L3471.43 2381.77 L3474.41 2381.02 L3477.38 2380.53 L3480.34 2380.03 L3483.32 2379.54 L3486.28 2379.04 L3489.26 2378.55 L3492.22 2377.81 L3495.20 2377.31 L3498.41 2376.82 L3501.38 2376.32 L3504.35 2375.83 L3507.32 2375.33 L3510.29 2374.59 L3513.26 2374.09 L3516.23 2373.60 L3519.20 2373.10 L3522.17 2372.61 L3525.14 2372.11 L3528.11 2371.37 L3531.08 2370.88 L3534.05 2370.38 L3537.02 2369.89 L3539.99 2369.39 L3542.96 2368.90 L3545.93 2368.40 L3548.90 2367.66 L3551.87 2367.16 L3555.09 2366.67 L3558.06 2366.17 L3561.03 2365.68 L3564.00 2365.18 L3566.97 2364.69 L3569.94 2363.95 L3572.91 2363.45 L3575.88 2362.96 L3578.85 2362.46 L3581.82 2361.97 L3584.79 2361.47 L3587.76 2360.98 L3590.73 2360.23 L3593.70 2359.74 L3596.67 2359.24 L3599.64 2358.75 L3602.61 2358.25 L3605.58 2357.76 L3608.80 2357.26 L3611.77 2356.77 L3614.74 2356.03 L3617.71 2355.53 L3620.68 2355.04 L3623.65 2354.54 L3626.62 2354.05 L3629.59 2353.55 L3632.56 2353.06 L3635.53 2352.56 L3638.50 2351.82 L3641.47 2351.32 L3644.44 2350.83 L3647.41 2350.33 L3650.38 2349.84 L3653.35 2349.34 L3656.32 2348.85 L3659.29 2348.35 L3662.26 2347.86 L3665.47 2347.12 L3668.45 2346.62 L3671.41 2346.13 L3674.39 2345.63 L3677.36 2345.14 L3680.32 2344.64 L3683.30 2344.15 L3686.26 2343.65 L3689.24 2343.16 L3692.20 2342.66 L3695.18 2341.92 L3698.14 2341.42 L3701.11 2340.93 L3704.09 2340.43 L3707.05 2339.94 L3710.03 2339.44 L3712.99 2338.95 L3715.97 2338.45 L3718.93 2337.96 L3722.15 2337.46 L3725.12 2336.72 L3728.09 2336.23 L3731.06 2335.73 L3734.03 2335.24 L3737.00 2334.74 L3739.97 2334.25 L3742.94 2333.75 L3745.91 2333.26 L3748.88 2332.76 L3751.85 2332.27 L3754.82 2331.77 L3757.79 2331.28 L3760.76 2330.53 L3763.73 2330.04 L3766.70 2329.54 L3769.67 2329.05 L3772.64 2328.55 L3775.86 2328.06 L3778.83 2327.56 L3781.80 2327.07 L3784.77 2326.57 L3787.74 2326.08 L3790.71 2325.58 L3793.68 2325.09 L3796.65 2324.59 L3799.62 2324.10 L3802.59 2323.36 L3805.56 2322.86 L3808.53 2322.37 L3808.53 4664.04 L828.13 4664.04 L828.13 4663.05 Z" stroke-linecap="round"/>
	</defs>
	<defs>
		<clipPath id="clipPath_udnVVfMl">
			<use xlink:href="#path_KaEYJMnG"/>
		</clipPath>
	</defs>
	<use xlink:href="#path_KaEYJMnG" style="stroke:none;fill:#537593"/>
	<use xlink:href="#path_KaEYJMnG" style="fill:none;stroke:#1A476F;stroke-width:25.92" clip-path="url(#clipPath_udnVVfMl)"/>
	<defs>
		<path id="path_JjIXIgkj" d="M828.13 4663.29 L828.13 4663.29 L831.11 4662.55 L834.32 4660.57 L837.29 4657.35 L840.26 4652.90 L843.23 4646.96 L846.20 4639.53 L849.17 4631.12 L852.14 4621.46 L855.11 4610.57 L858.08 4598.69 L861.05 4586.07 L864.02 4572.71 L866.99 4558.84 L869.96 4544.24 L872.93 4529.39 L875.90 4514.05 L878.87 4498.70 L881.84 4483.11 L884.81 4467.51 L888.03 4452.17 L891.00 4436.58 L893.97 4421.23 L896.94 4406.13 L899.91 4391.03 L902.88 4376.18 L905.85 4361.58 L908.82 4346.98 L911.79 4332.62 L914.76 4318.51 L917.73 4304.65 L920.70 4290.79 L923.67 4277.43 L926.64 4264.06 L929.61 4250.95 L932.58 4237.83 L935.55 4224.96 L938.52 4212.33 L941.49 4199.96 L944.71 4187.83 L947.68 4175.70 L950.65 4163.58 L953.62 4151.94 L956.59 4140.31 L959.56 4128.92 L962.53 4117.54 L965.50 4106.40 L968.47 4095.26 L971.44 4084.37 L974.41 4073.48 L977.38 4062.84 L980.35 4052.20 L983.32 4041.80 L986.29 4031.41 L989.26 4021.26 L992.23 4011.11 L995.20 4001.21 L998.17 3991.31 L1001.38 3981.41 L1004.36 3971.76 L1007.33 3962.10 L1010.29 3952.70 L1013.26 3943.05 L1016.24 3933.89 L1019.21 3924.48 L1022.17 3915.32 L1025.14 3906.17 L1028.12 3897.01 L1031.09 3888.10 L1034.06 3879.19 L1037.03 3870.28 L1039.99 3861.37 L1042.96 3852.71 L1045.93 3844.04 L1048.90 3835.38 L1051.88 3826.72 L1055.09 3818.30 L1058.06 3809.89 L1061.03 3801.47 L1064.00 3793.30 L1066.97 3784.89 L1069.94 3776.72 L1072.91 3768.55 L1075.88 3760.63 L1078.85 3752.71 L1081.82 3744.79 L1084.79 3736.87 L1087.76 3728.95 L1090.73 3721.28 L1093.70 3713.61 L1096.67 3705.93 L1099.64 3698.26 L1102.61 3690.84 L1105.58 3683.41 L1108.55 3675.98 L1111.77 3668.56 L1114.74 3661.38 L1117.71 3653.96 L1120.68 3646.78 L1123.65 3639.85 L1126.62 3632.67 L1129.59 3625.74 L1132.56 3618.81 L1135.53 3611.88 L1138.50 3604.95 L1141.47 3598.27 L1144.44 3591.58 L1147.41 3584.90 L1150.38 3578.22 L1153.35 3571.54 L1156.32 3565.10 L1159.29 3558.67 L1162.26 3552.23 L1165.48 3545.80 L1168.45 3539.61 L1171.42 3533.17 L1174.39 3526.99 L1177.36 3520.80 L1180.33 3514.86 L1183.30 3508.67 L1186.27 3502.73 L1189.24 3496.79 L1192.21 3490.85 L1195.18 3484.91 L1198.15 3478.97 L1201.12 3473.28 L1204.09 3467.58 L1207.06 3461.89 L1210.03 3456.20 L1213.00 3450.51 L1215.97 3445.06 L1218.94 3439.61 L1222.15 3434.17 L1225.13 3428.72 L1228.10 3423.28 L1231.07 3418.08 L1234.04 3412.64 L1237.01 3407.44 L1239.97 3402.24 L1242.94 3397.04 L1245.91 3391.85 L1248.88 3386.90 L1251.86 3381.95 L1254.83 3376.75 L1257.80 3371.80 L1260.77 3367.10 L1263.73 3362.15 L1266.70 3357.19 L1269.67 3352.49 L1272.64 3347.79 L1275.62 3343.09 L1278.83 3338.38 L1281.80 3333.68 L1284.77 3328.98 L1287.74 3324.52 L1290.71 3320.07 L1293.68 3315.61 L1296.65 3311.16 L1299.62 3306.70 L1302.59 3302.25 L1305.56 3298.04 L1308.53 3293.59 L1311.50 3289.38 L1314.47 3285.17 L1317.44 3280.96 L1320.41 3276.75 L1323.38 3272.55 L1326.35 3268.59 L1329.32 3264.38 L1332.54 3260.42 L1335.51 3256.46 L1338.48 3252.50 L1341.45 3248.54 L1344.42 3244.58 L1347.39 3240.62 L1350.36 3236.91 L1353.33 3233.19 L1356.30 3229.23 L1359.27 3225.52 L1362.24 3221.81 L1365.21 3218.10 L1368.18 3214.38 L1371.15 3210.92 L1374.12 3207.21 L1377.09 3203.74 L1380.06 3200.28 L1383.03 3196.56 L1386.00 3193.10 L1389.22 3189.63 L1392.19 3186.17 L1395.16 3182.95 L1398.13 3179.48 L1401.10 3176.02 L1404.07 3172.80 L1407.04 3169.58 L1410.01 3166.12 L1412.98 3162.90 L1415.95 3159.68 L1418.92 3156.47 L1421.89 3153.25 L1424.86 3150.03 L1427.83 3147.06 L1430.80 3143.84 L1433.77 3140.87 L1436.74 3137.66 L1439.71 3134.69 L1442.92 3131.72 L1445.89 3128.75 L1448.87 3125.78 L1451.84 3122.81 L1454.81 3119.83 L1457.78 3116.86 L1460.74 3113.89 L1463.71 3111.17 L1466.68 3108.20 L1469.65 3105.48 L1472.63 3102.51 L1475.60 3099.79 L1478.57 3097.06 L1481.54 3094.34 L1484.51 3091.62 L1487.47 3088.90 L1490.44 3086.17 L1493.41 3083.45 L1496.38 3080.73 L1499.60 3078.01 L1502.57 3075.53 L1505.54 3072.81 L1508.51 3070.33 L1511.48 3067.61 L1514.45 3065.14 L1517.42 3062.66 L1520.39 3060.19 L1523.36 3057.71 L1526.33 3054.99 L1529.30 3052.51 L1532.27 3050.29 L1535.24 3047.81 L1538.21 3045.34 L1541.18 3042.86 L1544.15 3040.63 L1547.12 3038.16 L1550.09 3035.68 L1553.06 3033.45 L1556.28 3031.23 L1559.25 3028.75 L1562.22 3026.52 L1565.19 3024.30 L1568.16 3021.82 L1571.13 3019.59 L1574.10 3017.37 L1577.07 3015.14 L1580.04 3012.91 L1583.01 3010.68 L1585.98 3008.70 L1588.95 3006.48 L1591.92 3004.25 L1594.89 3002.02 L1597.86 3000.04 L1600.83 2997.81 L1603.80 2995.83 L1606.77 2993.61 L1609.99 2991.63 L1612.96 2989.40 L1615.93 2987.42 L1618.90 2985.44 L1621.87 2983.46 L1624.84 2981.48 L1627.81 2979.25 L1630.78 2977.27 L1633.75 2975.29 L1636.72 2973.31 L1639.69 2971.33 L1642.66 2969.60 L1645.63 2967.62 L1648.60 2965.64 L1651.57 2963.66 L1654.54 2961.93 L1657.51 2959.94 L1660.48 2957.96 L1663.45 2956.23 L1666.66 2954.25 L1669.63 2952.52 L1672.61 2950.54 L1675.58 2948.81 L1678.55 2947.07 L1681.52 2945.09 L1684.48 2943.36 L1687.45 2941.63 L1690.42 2939.90 L1693.39 2938.16 L1696.37 2936.18 L1699.34 2934.45 L1702.31 2932.72 L1705.28 2930.99 L1708.24 2929.25 L1711.21 2927.77 L1714.18 2926.04 L1717.15 2924.30 L1720.13 2922.57 L1723.34 2920.84 L1726.31 2919.35 L1729.28 2917.62 L1732.25 2915.89 L1735.22 2914.40 L1738.19 2912.67 L1741.16 2911.19 L1744.13 2909.45 L1747.10 2907.97 L1750.07 2906.24 L1753.04 2904.75 L1756.01 2903.02 L1758.98 2901.53 L1761.95 2900.05 L1764.92 2898.32 L1767.89 2896.83 L1770.86 2895.35 L1773.83 2893.86 L1777.05 2892.38 L1780.02 2890.89 L1782.99 2889.41 L1785.96 2887.67 L1788.93 2886.19 L1791.90 2884.70 L1794.87 2883.47 L1797.84 2881.98 L1800.81 2880.50 L1803.78 2879.01 L1806.75 2877.52 L1809.72 2876.04 L1812.69 2874.55 L1815.66 2873.32 L1818.63 2871.83 L1821.60 2870.35 L1824.57 2869.11 L1827.54 2867.62 L1830.51 2866.14 L1833.73 2864.90 L1836.70 2863.42 L1839.67 2862.18 L1842.64 2860.69 L1845.61 2859.46 L1848.58 2857.97 L1851.55 2856.73 L1854.52 2855.50 L1857.49 2854.01 L1860.46 2852.77 L1863.43 2851.54 L1866.40 2850.05 L1869.37 2848.81 L1872.34 2847.58 L1875.31 2846.34 L1878.28 2844.85 L1881.25 2843.62 L1884.22 2842.38 L1887.43 2841.14 L1890.40 2839.90 L1893.38 2838.67 L1896.35 2837.43 L1899.32 2836.19 L1902.29 2834.95 L1905.26 2833.72 L1908.22 2832.48 L1911.19 2831.24 L1914.16 2830.00 L1917.13 2828.77 L1920.11 2827.53 L1923.08 2826.29 L1926.05 2825.30 L1929.02 2824.06 L1931.98 2822.83 L1934.95 2821.59 L1937.92 2820.35 L1940.89 2819.36 L1944.11 2818.12 L1947.08 2816.89 L1950.05 2815.90 L1953.02 2814.66 L1955.99 2813.42 L1958.96 2812.43 L1961.93 2811.19 L1964.90 2810.20 L1967.87 2808.97 L1970.84 2807.98 L1973.81 2806.74 L1976.78 2805.75 L1979.75 2804.51 L1982.72 2803.52 L1985.69 2802.28 L1988.66 2801.29 L1991.63 2800.30 L1994.60 2799.06 L1997.57 2798.07 L2000.79 2797.08 L2003.76 2795.85 L2006.73 2794.86 L2009.70 2793.87 L2012.67 2792.88 L2015.64 2791.64 L2018.61 2790.65 L2021.58 2789.66 L2024.55 2788.67 L2027.52 2787.68 L2030.49 2786.44 L2033.46 2785.45 L2036.43 2784.46 L2039.40 2783.47 L2042.37 2782.48 L2045.34 2781.49 L2048.31 2780.50 L2051.28 2779.51 L2054.50 2778.52 L2057.47 2777.53 L2060.44 2776.54 L2063.41 2775.55 L2066.38 2774.56 L2069.35 2773.57 L2072.32 2772.58 L2075.29 2771.59 L2078.26 2770.60 L2081.23 2769.86 L2084.20 2768.87 L2087.17 2767.88 L2090.14 2766.89 L2093.11 2765.90 L2096.08 2764.91 L2099.05 2764.17 L2102.02 2763.18 L2104.99 2762.19 L2107.96 2761.20 L2111.18 2760.45 L2114.14 2759.46 L2117.11 2758.47 L2120.09 2757.73 L2123.05 2756.74 L2126.03 2755.75 L2128.99 2755.01 L2131.97 2754.02 L2134.93 2753.03 L2137.91 2752.29 L2140.88 2751.30 L2143.84 2750.55 L2146.82 2749.56 L2149.78 2748.82 L2152.76 2747.83 L2155.72 2747.09 L2158.70 2746.10 L2161.66 2745.36 L2164.88 2744.37 L2167.85 2743.62 L2170.82 2742.63 L2173.79 2741.89 L2176.76 2740.90 L2179.73 2740.16 L2182.70 2739.42 L2185.67 2738.43 L2188.64 2737.68 L2191.61 2736.69 L2194.58 2735.95 L2197.55 2735.21 L2200.52 2734.22 L2203.49 2733.48 L2206.46 2732.73 L2209.43 2731.74 L2212.40 2731.00 L2215.37 2730.26 L2218.34 2729.52 L2221.56 2728.53 L2224.53 2727.78 L2227.50 2727.04 L2230.47 2726.30 L2233.44 2725.56 L2236.41 2724.57 L2239.38 2723.82 L2242.35 2723.08 L2245.32 2722.34 L2248.29 2721.60 L2251.26 2720.85 L2254.23 2719.86 L2257.20 2719.12 L2260.17 2718.38 L2263.14 2717.63 L2266.11 2716.89 L2269.08 2716.15 L2272.05 2715.41 L2275.02 2714.66 L2278.24 2713.92 L2281.21 2713.18 L2284.18 2712.44 L2287.15 2711.69 L2290.12 2710.95 L2293.09 2710.21 L2296.06 2709.47 L2299.03 2708.72 L2302.00 2707.98 L2304.97 2707.24 L2307.94 2706.50 L2310.91 2705.75 L2313.88 2705.01 L2316.85 2704.27 L2319.82 2703.53 L2322.79 2702.78 L2325.76 2702.04 L2328.73 2701.55 L2331.95 2700.80 L2334.91 2700.06 L2337.89 2699.32 L2340.86 2698.58 L2343.82 2697.83 L2346.80 2697.09 L2349.76 2696.60 L2352.74 2695.85 L2355.70 2695.11 L2358.68 2694.37 L2361.64 2693.87 L2364.61 2693.13 L2367.59 2692.39 L2370.55 2691.65 L2373.53 2690.90 L2376.49 2690.41 L2379.47 2689.67 L2382.43 2688.92 L2385.41 2688.43 L2388.62 2687.69 L2391.59 2686.94 L2394.56 2686.45 L2397.53 2685.71 L2400.50 2684.96 L2403.47 2684.47 L2406.44 2683.73 L2409.41 2682.98 L2412.38 2682.49 L2415.35 2681.75 L2418.32 2681.00 L2421.29 2680.51 L2424.26 2679.77 L2427.23 2679.27 L2430.20 2678.53 L2433.17 2677.79 L2436.14 2677.29 L2439.11 2676.55 L2442.33 2676.05 L2445.30 2675.31 L2448.27 2674.82 L2451.24 2674.07 L2454.21 2673.33 L2457.18 2672.84 L2460.15 2672.09 L2463.12 2671.60 L2466.09 2670.86 L2469.06 2670.36 L2472.03 2669.62 L2475.00 2669.12 L2477.97 2668.38 L2480.94 2667.89 L2483.91 2667.39 L2486.88 2666.65 L2489.85 2666.15 L2492.82 2665.41 L2495.79 2664.92 L2499.01 2664.17 L2501.98 2663.68 L2504.95 2663.18 L2507.92 2662.44 L2510.89 2661.95 L2513.86 2661.20 L2516.83 2660.71 L2519.80 2660.21 L2522.77 2659.47 L2525.74 2658.98 L2528.71 2658.48 L2531.68 2657.74 L2534.65 2657.24 L2537.62 2656.50 L2540.59 2656.01 L2543.56 2655.51 L2546.53 2654.77 L2549.50 2654.27 L2552.47 2653.78 L2555.68 2653.28 L2558.66 2652.54 L2561.63 2652.05 L2564.59 2651.55 L2567.57 2650.81 L2570.53 2650.31 L2573.51 2649.82 L2576.47 2649.32 L2579.45 2648.58 L2582.41 2648.09 L2585.39 2647.59 L2588.36 2647.10 L2591.32 2646.35 L2594.30 2645.86 L2597.26 2645.36 L2600.24 2644.87 L2603.20 2644.37 L2606.18 2643.63 L2609.39 2643.14 L2612.36 2642.64 L2615.33 2642.15 L2618.30 2641.65 L2621.27 2640.91 L2624.24 2640.41 L2627.21 2639.92 L2630.18 2639.42 L2633.15 2638.93 L2636.12 2638.43 L2639.09 2637.94 L2642.06 2637.19 L2645.03 2636.70 L2648.00 2636.20 L2650.97 2635.71 L2653.94 2635.21 L2656.91 2634.72 L2659.88 2634.22 L2662.85 2633.73 L2666.07 2633.23 L2669.04 2632.49 L2672.01 2632.00 L2674.98 2631.50 L2677.95 2631.01 L2680.92 2630.51 L2683.89 2630.02 L2686.86 2629.52 L2689.83 2629.03 L2692.80 2628.53 L2695.77 2628.04 L2698.74 2627.54 L2701.71 2627.05 L2704.68 2626.55 L2707.65 2626.06 L2710.62 2625.56 L2713.59 2625.07 L2716.56 2624.57 L2719.53 2624.08 L2722.75 2623.58 L2725.72 2623.09 L2728.69 2622.59 L2731.66 2622.10 L2734.63 2621.60 L2737.60 2621.11 L2740.57 2620.61 L2743.54 2620.12 L2746.51 2619.62 L2749.48 2619.13 L2752.45 2618.63 L2755.42 2618.14 L2758.39 2617.64 L2761.36 2617.15 L2764.33 2616.65 L2767.30 2616.16 L2770.27 2615.66 L2773.24 2615.17 L2776.45 2614.92 L2779.43 2614.42 L2782.39 2613.93 L2785.36 2613.43 L2788.34 2612.94 L2791.30 2612.44 L2794.28 2611.95 L2797.24 2611.45 L2800.22 2610.96 L2803.18 2610.71 L2806.16 2610.22 L2809.13 2609.72 L2812.09 2609.23 L2815.07 2608.73 L2818.03 2608.24 L2821.01 2607.74 L2823.97 2607.25 L2826.95 2607.00 L2829.91 2606.50 L2833.13 2606.01 L2836.10 2605.51 L2839.07 2605.02 L2842.04 2604.52 L2845.01 2604.28 L2847.98 2603.78 L2850.95 2603.29 L2853.92 2602.79 L2856.89 2602.30 L2859.86 2602.05 L2862.83 2601.55 L2865.80 2601.06 L2868.77 2600.56 L2871.74 2600.07 L2874.71 2599.82 L2877.68 2599.33 L2880.65 2598.83 L2883.62 2598.34 L2886.84 2598.09 L2889.81 2597.59 L2892.78 2597.10 L2895.75 2596.60 L2898.72 2596.36 L2901.69 2595.86 L2904.66 2595.37 L2907.63 2594.87 L2910.60 2594.62 L2913.57 2594.13 L2916.54 2593.63 L2919.51 2593.14 L2922.48 2592.89 L2925.45 2592.40 L2928.42 2591.90 L2931.39 2591.41 L2934.36 2591.16 L2937.33 2590.66 L2940.30 2590.17 L2943.52 2589.92 L2946.49 2589.43 L2949.46 2588.93 L2952.43 2588.68 L2955.40 2588.19 L2958.37 2587.69 L2961.34 2587.45 L2964.31 2586.95 L2967.28 2586.46 L2970.25 2585.96 L2973.22 2585.71 L2976.19 2585.22 L2979.16 2584.72 L2982.13 2584.48 L2985.10 2583.98 L2988.07 2583.73 L2991.04 2583.24 L2994.01 2582.74 L2996.98 2582.50 L3000.20 2582.00 L3003.16 2581.51 L3006.14 2581.26 L3009.11 2580.76 L3012.07 2580.27 L3015.05 2580.02 L3018.01 2579.53 L3020.99 2579.28 L3023.95 2578.78 L3026.93 2578.29 L3029.89 2578.04 L3032.86 2577.55 L3035.84 2577.30 L3038.80 2576.80 L3041.78 2576.31 L3044.74 2576.06 L3047.72 2575.57 L3050.68 2575.32 L3053.90 2574.82 L3056.87 2574.33 L3059.84 2574.08 L3062.81 2573.59 L3065.78 2573.34 L3068.75 2572.84 L3071.72 2572.60 L3074.69 2572.10 L3077.66 2571.61 L3080.63 2571.36 L3083.60 2570.86 L3086.57 2570.62 L3089.54 2570.12 L3092.51 2569.87 L3095.48 2569.38 L3098.45 2569.13 L3101.42 2568.64 L3104.39 2568.14 L3107.36 2567.89 L3110.58 2567.40 L3113.55 2567.15 L3116.52 2566.66 L3119.49 2566.41 L3122.46 2565.91 L3125.43 2565.67 L3128.40 2565.17 L3131.37 2564.92 L3134.34 2564.43 L3137.31 2564.18 L3140.28 2563.69 L3143.25 2563.44 L3146.22 2562.94 L3149.19 2562.70 L3152.16 2562.20 L3155.13 2561.95 L3158.10 2561.46 L3161.07 2561.21 L3164.29 2560.72 L3167.26 2560.47 L3170.23 2559.97 L3173.20 2559.72 L3176.17 2559.23 L3179.14 2558.98 L3182.11 2558.49 L3185.08 2558.24 L3188.05 2557.74 L3191.02 2557.50 L3193.99 2557.25 L3196.96 2556.75 L3199.93 2556.51 L3202.90 2556.01 L3205.87 2555.76 L3208.84 2555.27 L3211.81 2555.02 L3214.78 2554.53 L3217.75 2554.28 L3220.97 2554.03 L3223.93 2553.54 L3226.91 2553.29 L3229.88 2552.79 L3232.84 2552.55 L3235.82 2552.05 L3238.78 2551.80 L3241.76 2551.56 L3244.72 2551.06 L3247.70 2550.81 L3250.66 2550.32 L3253.64 2550.07 L3256.61 2549.58 L3259.57 2549.33 L3262.55 2549.08 L3265.51 2548.59 L3268.49 2548.34 L3271.45 2547.84 L3274.43 2547.60 L3277.64 2547.35 L3280.61 2546.85 L3283.58 2546.61 L3286.55 2546.11 L3289.52 2545.86 L3292.49 2545.62 L3295.46 2545.12 L3298.43 2544.87 L3301.40 2544.63 L3304.37 2544.13 L3307.34 2543.88 L3310.31 2543.39 L3313.28 2543.14 L3316.25 2542.89 L3319.22 2542.40 L3322.19 2542.15 L3325.16 2541.90 L3328.13 2541.41 L3331.35 2541.16 L3334.32 2540.91 L3337.29 2540.42 L3340.26 2540.17 L3343.23 2539.68 L3346.20 2539.43 L3349.17 2539.18 L3352.14 2538.69 L3355.11 2538.44 L3358.08 2538.19 L3361.05 2537.70 L3364.02 2537.45 L3366.99 2537.20 L3369.96 2536.71 L3372.93 2536.46 L3375.90 2536.21 L3378.87 2535.72 L3381.84 2535.47 L3384.81 2535.22 L3388.03 2534.73 L3391.00 2534.48 L3393.97 2534.23 L3396.94 2533.98 L3399.91 2533.49 L3402.88 2533.24 L3405.85 2532.99 L3408.82 2532.50 L3411.79 2532.25 L3414.76 2532.00 L3417.73 2531.51 L3420.70 2531.26 L3423.67 2531.01 L3426.64 2530.52 L3429.61 2530.27 L3432.58 2530.02 L3435.55 2529.78 L3438.52 2529.28 L3441.74 2529.03 L3444.70 2528.79 L3447.68 2528.29 L3450.64 2528.04 L3453.61 2527.80 L3456.59 2527.55 L3459.55 2527.05 L3462.53 2526.81 L3465.49 2526.56 L3468.47 2526.31 L3471.43 2525.82 L3474.41 2525.57 L3477.38 2525.32 L3480.34 2524.83 L3483.32 2524.58 L3486.28 2524.33 L3489.26 2524.08 L3492.22 2523.59 L3495.20 2523.34 L3498.41 2523.09 L3501.38 2522.85 L3504.35 2522.35 L3507.32 2522.10 L3510.29 2521.86 L3513.26 2521.61 L3516.23 2521.11 L3519.20 2520.87 L3522.17 2520.62 L3525.14 2520.37 L3528.11 2519.88 L3531.08 2519.63 L3534.05 2519.38 L3537.02 2519.13 L3539.99 2518.89 L3542.96 2518.39 L3545.93 2518.14 L3548.90 2517.90 L3551.87 2517.65 L3555.09 2517.15 L3558.06 2516.91 L3561.03 2516.66 L3564.00 2516.41 L3566.97 2516.16 L3569.94 2515.67 L3572.91 2515.42 L3575.88 2515.17 L3578.85 2514.93 L3581.82 2514.43 L3584.79 2514.18 L3587.76 2513.94 L3590.73 2513.69 L3593.70 2513.44 L3596.67 2512.95 L3599.64 2512.70 L3602.61 2512.45 L3605.58 2512.20 L3608.80 2511.96 L3611.77 2511.46 L3614.74 2511.21 L3617.71 2510.97 L3620.68 2510.72 L3623.65 2510.47 L3626.62 2510.22 L3629.59 2509.73 L3632.56 2509.48 L3635.53 2509.23 L3638.50 2508.99 L3641.47 2508.74 L3644.44 2508.24 L3647.41 2508.00 L3650.38 2507.75 L3653.35 2507.50 L3656.32 2507.25 L3659.29 2507.01 L3662.26 2506.51 L3665.47 2506.26 L3668.45 2506.02 L3671.41 2505.77 L3674.39 2505.52 L3677.36 2505.27 L3680.32 2504.78 L3683.30 2504.53 L3686.26 2504.28 L3689.24 2504.04 L3692.20 2503.79 L3695.18 2503.54 L3698.14 2503.05 L3701.11 2502.80 L3704.09 2502.55 L3707.05 2502.30 L3710.03 2502.06 L3712.99 2501.81 L3715.97 2501.56 L3718.93 2501.07 L3722.15 2500.82 L3725.12 2500.57 L3728.09 2500.32 L3731.06 2500.08 L3734.03 2499.83 L3737.00 2499.58 L3739.97 2499.09 L3742.94 2498.84 L3745.91 2498.59 L3748.88 2498.34 L3751.85 2498.10 L3754.82 2497.85 L3757.79 2497.60 L3760.76 2497.35 L3763.73 2496.86 L3766.70 2496.61 L3769.67 2496.36 L3772.64 2496.12 L3775.86 2495.87 L3778.83 2495.62 L3781.80 2495.37 L3784.77 2495.13 L3787.74 2494.63 L3790.71 2494.38 L3793.68 2494.14 L3796.65 2493.89 L3799.62 2493.64 L3802.59 2493.39 L3805.56 2493.15 L3808.53 2492.90 L3808.53 4664.04 L828.13 4664.04 L828.13 4663.29 Z" stroke-linecap="round"/>
	</defs>
	<defs>
		<clipPath id="clipPath_eBFrufgr">
			<use xlink:href="#path_JjIXIgkj"/>
		</clipPath>
	</defs>
	<use xlink:href="#path_JjIXIgkj" style="stroke:none;fill:#AC686C"/>
	<use xlink:href="#path_JjIXIgkj" style="fill:none;stroke:#90353B;stroke-width:25.92" clip-path="url(#clipPath_eBFrufgr)"/>
	<line x1="825.41" y1="4663.79" x2="825.41" y2="539.81" style="stroke:#000000;stroke-width:8.64"/>
	<line x1="825.41" y1="4663.79" x2="765.27" y2="4663.79" style="stroke:#000000;stroke-width:8.64"/>
	<text x="735.32" y="4716.35" style="font-family:'Helvetica';font-size:149.99px;fill:#000000" text-anchor="end">0.0</text>
	<line x1="825.41" y1="3839.09" x2="765.27" y2="3839.09" style="stroke:#000000;stroke-width:8.64"/>
	<text x="735.32" y="3891.65" style="font-family:'Helvetica';font-size:149.99px;fill:#000000" text-anchor="end">0.2</text>
	<line x1="825.41" y1="3014.15" x2="765.27" y2="3014.15" style="stroke:#000000;stroke-width:8.64"/>
	<text x="735.32" y="3066.71" style="font-family:'Helvetica';font-size:149.99px;fill:#000000" text-anchor="end">0.4</text>
	<line x1="825.41" y1="2189.45" x2="765.27" y2="2189.45" style="stroke:#000000;stroke-width:8.64"/>
	<text x="735.32" y="2242.01" style="font-family:'Helvetica';font-size:149.99px;fill:#000000" text-anchor="end">0.6</text>
	<line x1="825.41" y1="1364.51" x2="765.27" y2="1364.51" style="stroke:#000000;stroke-width:8.64"/>
	<text x="735.32" y="1417.07" style="font-family:'Helvetica';font-size:149.99px;fill:#000000" text-anchor="end">0.8</text>
	<line x1="825.41" y1="539.81" x2="765.27" y2="539.81" style="stroke:#000000;stroke-width:8.64"/>
	<text x="735.32" y="592.37" style="font-family:'Helvetica';font-size:149.99px;fill:#000000" text-anchor="end">1.0</text>
	<text x="412.76" y="2601.80" style="font-family:'Helvetica';font-size:149.99px;fill:#000000" transform="rotate(-90 412.76,2601.80)" text-anchor="middle">Probability of Death</text>
	<line x1="825.41" y1="4663.79" x2="3808.78" y2="4663.79" style="stroke:#000000;stroke-width:8.64"/>
	<line x1="825.41" y1="4663.79" x2="825.41" y2="4723.69" style="stroke:#000000;stroke-width:8.64"/>
	<text x="825.41" y="4858.75" style="font-family:'Helvetica';font-size:149.99px;fill:#000000" text-anchor="middle">0</text>
	<line x1="1419.66" y1="4663.79" x2="1419.66" y2="4723.69" style="stroke:#000000;stroke-width:8.64"/>
	<text x="1419.66" y="4858.75" style="font-family:'Helvetica';font-size:149.99px;fill:#000000" text-anchor="middle">2</text>
	<line x1="2013.66" y1="4663.79" x2="2013.66" y2="4723.69" style="stroke:#000000;stroke-width:8.64"/>
	<text x="2013.66" y="4858.75" style="font-family:'Helvetica';font-size:149.99px;fill:#000000" text-anchor="middle">4</text>
	<line x1="2607.91" y1="4663.79" x2="2607.91" y2="4723.69" style="stroke:#000000;stroke-width:8.64"/>
	<text x="2607.91" y="4858.75" style="font-family:'Helvetica';font-size:149.99px;fill:#000000" text-anchor="middle">6</text>
	<line x1="3202.16" y1="4663.79" x2="3202.16" y2="4723.69" style="stroke:#000000;stroke-width:8.64"/>
	<text x="3202.16" y="4858.75" style="font-family:'Helvetica';font-size:149.99px;fill:#000000" text-anchor="middle">8</text>
	<line x1="3796.40" y1="4663.79" x2="3796.40" y2="4723.69" style="stroke:#000000;stroke-width:8.64"/>
	<text x="3796.40" y="4858.75" style="font-family:'Helvetica';font-size:149.99px;fill:#000000" text-anchor="middle">10</text>
	<text x="2317.09" y="5023.59" style="font-family:'Helvetica';font-size:149.99px;fill:#000000" text-anchor="middle">Time Since Diagnosis (Years)</text>
	<rect x="1073.65" y="5150.64" width="2486.63" height="279.68" style="fill:#FFFFFF"/>
	<rect x="1077.97" y="5154.96" width="2477.99" height="271.04" style="fill:none;stroke:#000000;stroke-width:8.64"/>
	<rect x="1138.50" y="5215.48" width="561.58" height="149.99" style="fill:#AC686C"/>
	<rect x="1144.98" y="5221.96" width="548.62" height="137.03" style="fill:none;stroke:#90353B;stroke-width:12.96"/>
	<rect x="2502.47" y="5215.48" width="561.58" height="149.99" style="fill:#537593"/>
	<rect x="2508.95" y="5221.96" width="548.62" height="137.03" style="fill:none;stroke:#1A476F;stroke-width:12.96"/>
	<text x="1820.12" y="5332.55" style="font-family:'Helvetica';font-size:120.04px;fill:#000000">Cancer</text>
	<text x="3184.09" y="5332.55" style="font-family:'Helvetica';font-size:120.04px;fill:#000000">Other</text>
	<text x="2317.09" y="450.74" style="font-family:'Helvetica';font-size:209.88px;fill:#1E2D53" text-anchor="middle">Males, 0-45 years</text>
	<rect x="3960.00" y="126.72" width="3833.03" height="5506.55" style="fill:#EAF2F3"/>
	<rect x="3964.32" y="131.04" width="3824.39" height="5497.91" style="fill:none;stroke:#EAF2F3;stroke-width:8.64"/>
	<rect x="4658.44" y="539.81" width="2983.37" height="4123.97" style="fill:#FFFFFF"/>
	<rect x="4662.76" y="544.13" width="2974.73" height="4115.33" style="fill:none;stroke:#FFFFFF;stroke-width:8.64"/>
	<line x1="4658.44" y1="4663.79" x2="7641.81" y2="4663.79" style="stroke:#EAF2F3;stroke-width:12.96"/>
	<line x1="4658.44" y1="3839.09" x2="7641.81" y2="3839.09" style="stroke:#EAF2F3;stroke-width:12.96"/>
	<line x1="4658.44" y1="3014.15" x2="7641.81" y2="3014.15" style="stroke:#EAF2F3;stroke-width:12.96"/>
	<line x1="4658.44" y1="2189.45" x2="7641.81" y2="2189.45" style="stroke:#EAF2F3;stroke-width:12.96"/>
	<line x1="4658.44" y1="1364.51" x2="7641.81" y2="1364.51" style="stroke:#EAF2F3;stroke-width:12.96"/>
	<line x1="4658.44" y1="539.81" x2="7641.81" y2="539.81" style="stroke:#EAF2F3;stroke-width:12.96"/>
	<defs>
		<path id="path_pZCiPnLM" d="M4661.41 4635.08 L4661.41 4635.08 L4664.39 4617.26 L4667.35 4578.65 L4670.32 4535.33 L4673.30 4488.31 L4676.27 4438.80 L4679.23 4387.57 L4682.20 4335.84 L4685.18 4284.11 L4688.15 4233.12 L4691.11 4183.13 L4694.33 4134.37 L4697.30 4087.10 L4700.27 4041.80 L4703.24 3998.24 L4706.21 3956.41 L4709.18 3916.81 L4712.15 3878.94 L4715.12 3843.05 L4718.09 3808.90 L4721.06 3776.72 L4724.03 3746.52 L4727.00 3717.57 L4729.97 3690.34 L4732.94 3664.35 L4735.91 3639.85 L4738.88 3616.34 L4741.85 3593.81 L4744.82 3572.53 L4748.04 3551.74 L4751.01 3532.18 L4753.98 3513.12 L4756.95 3494.81 L4759.92 3477.24 L4762.89 3460.16 L4765.86 3443.58 L4768.83 3427.73 L4771.80 3412.14 L4774.77 3397.04 L4777.74 3382.44 L4780.71 3368.09 L4783.68 3354.22 L4786.65 3340.61 L4789.62 3327.49 L4792.59 3314.38 L4795.56 3301.75 L4798.53 3289.38 L4801.50 3277.00 L4804.72 3265.12 L4807.69 3253.24 L4810.66 3241.86 L4813.63 3230.47 L4816.60 3219.09 L4819.57 3208.20 L4822.54 3197.30 L4825.51 3186.66 L4828.48 3176.02 L4831.45 3165.62 L4834.42 3155.23 L4837.39 3145.08 L4840.36 3134.93 L4843.33 3125.03 L4846.30 3115.13 L4849.27 3105.48 L4852.24 3095.83 L4855.21 3086.17 L4858.18 3076.52 L4861.40 3067.12 L4864.36 3057.96 L4867.34 3048.55 L4870.31 3039.39 L4873.27 3030.24 L4876.24 3021.33 L4879.22 3012.17 L4882.19 3003.26 L4885.15 2994.35 L4888.13 2985.69 L4891.10 2977.02 L4894.06 2968.36 L4897.03 2959.70 L4900.01 2951.03 L4902.98 2942.62 L4905.94 2934.20 L4908.91 2925.79 L4911.89 2917.62 L4915.10 2909.45 L4918.07 2901.29 L4921.04 2893.12 L4924.01 2885.20 L4926.98 2877.28 L4929.95 2869.36 L4932.92 2861.44 L4935.89 2853.52 L4938.86 2845.84 L4941.83 2838.17 L4944.80 2830.50 L4947.77 2823.07 L4950.74 2815.65 L4953.71 2807.98 L4956.68 2800.80 L4959.65 2793.37 L4962.62 2786.19 L4965.59 2778.77 L4968.56 2771.59 L4971.78 2764.66 L4974.75 2757.48 L4977.72 2750.55 L4980.69 2743.62 L4983.66 2736.69 L4986.63 2729.76 L4989.60 2723.08 L4992.57 2716.15 L4995.54 2709.47 L4998.51 2703.03 L5001.48 2696.35 L5004.45 2689.67 L5007.42 2683.23 L5010.39 2676.80 L5013.36 2670.36 L5016.33 2663.93 L5019.30 2657.74 L5022.27 2651.55 L5025.49 2645.12 L5028.46 2638.93 L5031.43 2632.99 L5034.40 2626.80 L5037.37 2620.86 L5040.34 2614.67 L5043.31 2608.73 L5046.28 2602.79 L5049.25 2597.10 L5052.22 2591.16 L5055.19 2585.47 L5058.16 2579.77 L5061.13 2574.08 L5064.10 2568.39 L5067.07 2562.70 L5070.04 2557.00 L5073.01 2551.56 L5075.98 2546.11 L5078.95 2540.67 L5082.16 2535.22 L5085.14 2529.78 L5088.10 2524.33 L5091.07 2519.13 L5094.05 2513.94 L5097.02 2508.49 L5099.98 2503.29 L5102.95 2498.34 L5105.93 2493.15 L5108.90 2487.95 L5111.86 2483.00 L5114.84 2478.05 L5117.81 2473.10 L5120.77 2468.15 L5123.74 2463.20 L5126.72 2458.25 L5129.69 2453.30 L5132.65 2448.59 L5135.63 2443.89 L5138.84 2439.19 L5141.81 2434.24 L5144.78 2429.78 L5147.75 2425.08 L5150.72 2420.38 L5153.69 2415.92 L5156.66 2411.22 L5159.63 2406.77 L5162.60 2402.31 L5165.57 2397.85 L5168.54 2393.40 L5171.51 2388.94 L5174.48 2384.49 L5177.45 2380.28 L5180.42 2375.83 L5183.39 2371.62 L5186.36 2367.41 L5189.33 2363.20 L5192.55 2359.00 L5195.52 2354.79 L5198.49 2350.58 L5201.46 2346.37 L5204.43 2342.41 L5207.40 2338.21 L5210.37 2334.25 L5213.34 2330.29 L5216.31 2326.08 L5219.28 2322.12 L5222.25 2318.16 L5225.22 2314.20 L5228.19 2310.24 L5231.16 2306.52 L5234.13 2302.56 L5237.10 2298.85 L5240.07 2294.89 L5243.04 2291.18 L5246.01 2287.22 L5249.23 2283.51 L5252.20 2279.79 L5255.17 2276.08 L5258.14 2272.37 L5261.11 2268.66 L5264.08 2264.94 L5267.05 2261.48 L5270.02 2257.77 L5272.99 2254.05 L5275.96 2250.59 L5278.93 2246.88 L5281.90 2243.41 L5284.87 2239.94 L5287.84 2236.48 L5290.81 2232.77 L5293.78 2229.30 L5296.75 2225.84 L5299.72 2222.37 L5302.94 2218.91 L5305.90 2215.69 L5308.88 2212.22 L5311.85 2208.76 L5314.81 2205.54 L5317.78 2202.08 L5320.76 2198.86 L5323.73 2195.39 L5326.69 2192.18 L5329.66 2188.71 L5332.64 2185.49 L5335.60 2182.28 L5338.57 2179.06 L5341.55 2175.84 L5344.52 2172.62 L5347.48 2169.41 L5350.45 2166.19 L5353.43 2162.97 L5356.40 2159.75 L5359.61 2156.53 L5362.58 2153.56 L5365.55 2150.35 L5368.52 2147.38 L5371.49 2144.16 L5374.46 2141.19 L5377.43 2137.97 L5380.40 2135.00 L5383.37 2131.78 L5386.34 2128.81 L5389.31 2125.84 L5392.28 2122.87 L5395.25 2119.66 L5398.22 2116.69 L5401.19 2113.72 L5404.16 2110.75 L5407.13 2107.78 L5410.10 2104.81 L5413.07 2101.84 L5416.29 2099.11 L5419.26 2096.14 L5422.23 2093.17 L5425.20 2090.20 L5428.17 2087.48 L5431.14 2084.51 L5434.11 2081.54 L5437.08 2078.82 L5440.05 2075.85 L5443.02 2073.12 L5445.99 2070.15 L5448.96 2067.43 L5451.93 2064.71 L5454.90 2061.74 L5457.87 2059.02 L5460.84 2056.29 L5463.81 2053.32 L5466.78 2050.60 L5470.00 2047.88 L5472.97 2045.16 L5475.94 2042.43 L5478.91 2039.71 L5481.88 2036.99 L5484.85 2034.27 L5487.82 2031.54 L5490.79 2028.82 L5493.76 2026.10 L5496.73 2023.38 L5499.70 2020.90 L5502.67 2018.18 L5505.64 2015.46 L5508.61 2012.73 L5511.58 2010.26 L5514.55 2007.54 L5517.52 2004.81 L5520.49 2002.34 L5523.46 1999.61 L5526.68 1997.14 L5529.65 1994.42 L5532.61 1991.94 L5535.59 1989.22 L5538.56 1986.74 L5541.52 1984.02 L5544.49 1981.55 L5547.47 1979.07 L5550.44 1976.35 L5553.40 1973.87 L5556.38 1971.40 L5559.35 1968.92 L5562.31 1966.20 L5565.28 1963.73 L5568.26 1961.25 L5571.23 1958.78 L5574.19 1956.30 L5577.16 1953.83 L5580.14 1951.35 L5583.35 1948.88 L5586.32 1946.40 L5589.29 1943.93 L5592.26 1941.45 L5595.23 1938.98 L5598.20 1936.50 L5601.17 1934.03 L5604.14 1931.55 L5607.11 1929.08 L5610.08 1926.60 L5613.05 1924.13 L5616.02 1921.90 L5618.99 1919.42 L5621.96 1916.95 L5624.93 1914.47 L5627.90 1912.24 L5630.87 1909.77 L5633.84 1907.29 L5637.06 1905.07 L5640.03 1902.59 L5643.00 1900.12 L5645.97 1897.89 L5648.94 1895.41 L5651.91 1893.19 L5654.88 1890.71 L5657.85 1888.48 L5660.82 1886.01 L5663.79 1883.78 L5666.76 1881.31 L5669.73 1879.08 L5672.70 1876.85 L5675.67 1874.38 L5678.64 1872.15 L5681.61 1869.67 L5684.58 1867.45 L5687.55 1865.22 L5690.52 1862.74 L5693.74 1860.52 L5696.71 1858.29 L5699.68 1856.06 L5702.65 1853.59 L5705.62 1851.36 L5708.59 1849.13 L5711.56 1846.90 L5714.53 1844.68 L5717.50 1842.20 L5720.47 1839.97 L5723.44 1837.74 L5726.41 1835.52 L5729.38 1833.29 L5732.35 1831.06 L5735.32 1828.83 L5738.29 1826.61 L5741.26 1824.38 L5744.23 1822.15 L5747.44 1819.92 L5750.41 1817.70 L5753.39 1815.47 L5756.35 1813.24 L5759.32 1811.01 L5762.30 1808.79 L5765.27 1806.56 L5768.23 1804.33 L5771.20 1802.10 L5774.18 1799.88 L5777.15 1797.65 L5780.11 1795.42 L5783.09 1793.44 L5786.06 1791.21 L5789.02 1788.99 L5791.99 1786.76 L5794.97 1784.53 L5797.94 1782.55 L5800.90 1780.32 L5804.12 1778.10 L5807.09 1775.87 L5810.06 1773.89 L5813.03 1771.66 L5816.00 1769.43 L5818.97 1767.21 L5821.94 1765.23 L5824.91 1763.00 L5827.88 1760.77 L5830.85 1758.79 L5833.82 1756.56 L5836.79 1754.33 L5839.76 1752.35 L5842.73 1750.13 L5845.70 1748.15 L5848.67 1745.92 L5851.64 1743.94 L5854.61 1741.71 L5857.58 1739.48 L5860.80 1737.50 L5863.77 1735.28 L5866.74 1733.30 L5869.71 1731.07 L5872.68 1729.09 L5875.65 1726.86 L5878.62 1724.88 L5881.59 1722.90 L5884.56 1720.67 L5887.53 1718.69 L5890.50 1716.47 L5893.47 1714.49 L5896.44 1712.26 L5899.41 1710.28 L5902.38 1708.30 L5905.35 1706.07 L5908.32 1704.09 L5911.29 1702.11 L5914.51 1699.88 L5917.48 1697.90 L5920.45 1695.92 L5923.42 1693.70 L5926.39 1691.72 L5929.36 1689.74 L5932.33 1687.76 L5935.30 1685.53 L5938.27 1683.55 L5941.24 1681.57 L5944.21 1679.59 L5947.18 1677.36 L5950.15 1675.38 L5953.12 1673.40 L5956.09 1671.42 L5959.06 1669.44 L5962.03 1667.21 L5965.00 1665.23 L5967.97 1663.25 L5971.19 1661.27 L5974.15 1659.29 L5977.13 1657.31 L5980.10 1655.33 L5983.06 1653.35 L5986.03 1651.37 L5989.01 1649.39 L5991.98 1647.16 L5994.94 1645.18 L5997.91 1643.20 L6000.89 1641.22 L6003.85 1639.24 L6006.82 1637.26 L6009.80 1635.28 L6012.77 1633.30 L6015.73 1631.32 L6018.70 1629.34 L6021.68 1627.36 L6024.89 1625.38 L6027.86 1623.65 L6030.83 1621.67 L6033.80 1619.69 L6036.77 1617.71 L6039.74 1615.73 L6042.71 1613.75 L6045.68 1611.77 L6048.65 1609.79 L6051.62 1607.81 L6054.59 1606.08 L6057.56 1604.10 L6060.53 1602.12 L6063.50 1600.14 L6066.47 1598.16 L6069.44 1596.18 L6072.41 1594.44 L6075.38 1592.46 L6078.35 1590.48 L6081.57 1588.50 L6084.54 1586.77 L6087.51 1584.79 L6090.48 1582.81 L6093.45 1580.83 L6096.42 1579.10 L6099.39 1577.12 L6102.36 1575.14 L6105.33 1573.41 L6108.30 1571.43 L6111.27 1569.45 L6114.24 1567.71 L6117.21 1565.73 L6120.18 1563.75 L6123.15 1562.02 L6126.12 1560.04 L6129.09 1558.06 L6132.06 1556.33 L6135.03 1554.35 L6138.25 1552.62 L6141.22 1550.64 L6144.19 1548.66 L6147.16 1546.92 L6150.13 1544.94 L6153.10 1543.21 L6156.07 1541.23 L6159.04 1539.50 L6162.01 1537.52 L6164.98 1535.79 L6167.95 1533.81 L6170.92 1532.07 L6173.89 1530.09 L6176.86 1528.36 L6179.83 1526.38 L6182.80 1524.65 L6185.77 1522.67 L6188.74 1520.94 L6191.95 1519.20 L6194.93 1517.22 L6197.90 1515.49 L6200.86 1513.51 L6203.84 1511.78 L6206.81 1510.04 L6209.77 1508.06 L6212.74 1506.33 L6215.72 1504.60 L6218.69 1502.62 L6221.65 1500.89 L6224.63 1499.15 L6227.60 1497.17 L6230.56 1495.44 L6233.53 1493.71 L6236.51 1491.73 L6239.48 1490.00 L6242.44 1488.26 L6245.41 1486.53 L6248.63 1484.55 L6251.60 1482.82 L6254.57 1481.09 L6257.54 1479.35 L6260.51 1477.37 L6263.48 1475.64 L6266.45 1473.91 L6269.42 1472.18 L6272.39 1470.44 L6275.36 1468.71 L6278.33 1466.73 L6281.30 1465.00 L6284.27 1463.27 L6287.24 1461.53 L6290.21 1459.80 L6293.18 1458.07 L6296.15 1456.34 L6299.12 1454.36 L6302.34 1452.62 L6305.31 1450.89 L6308.28 1449.16 L6311.25 1447.43 L6314.22 1445.69 L6317.19 1443.96 L6320.16 1442.23 L6323.13 1440.50 L6326.10 1438.76 L6329.07 1437.03 L6332.04 1435.30 L6335.01 1433.56 L6337.98 1431.83 L6340.95 1430.10 L6343.92 1428.37 L6346.89 1426.63 L6349.86 1424.90 L6352.83 1423.17 L6355.80 1421.44 L6359.02 1419.70 L6361.99 1417.97 L6364.96 1416.49 L6367.93 1414.75 L6370.90 1413.02 L6373.87 1411.29 L6376.84 1409.56 L6379.81 1407.82 L6382.78 1406.09 L6385.75 1404.36 L6388.72 1402.87 L6391.69 1401.14 L6394.66 1399.41 L6397.63 1397.68 L6400.60 1395.94 L6403.57 1394.46 L6406.54 1392.73 L6409.51 1390.99 L6412.48 1389.26 L6415.69 1387.53 L6418.66 1386.04 L6421.64 1384.31 L6424.60 1382.58 L6427.57 1380.85 L6430.55 1379.36 L6433.52 1377.63 L6436.48 1375.90 L6439.45 1374.41 L6442.43 1372.68 L6445.40 1370.95 L6448.36 1369.46 L6451.34 1367.73 L6454.31 1366.00 L6457.27 1364.51 L6460.24 1362.78 L6463.22 1361.29 L6466.19 1359.56 L6469.40 1357.83 L6472.37 1356.34 L6475.34 1354.61 L6478.31 1353.12 L6481.28 1351.39 L6484.25 1349.66 L6487.22 1348.17 L6490.19 1346.44 L6493.16 1344.96 L6496.13 1343.22 L6499.10 1341.74 L6502.07 1340.01 L6505.04 1338.52 L6508.01 1336.79 L6510.98 1335.30 L6513.95 1333.57 L6516.92 1332.09 L6519.89 1330.35 L6522.86 1328.87 L6526.08 1327.38 L6529.05 1325.65 L6532.02 1324.17 L6534.99 1322.43 L6537.96 1320.95 L6540.93 1319.22 L6543.90 1317.73 L6546.87 1316.25 L6549.84 1314.51 L6552.81 1313.03 L6555.78 1311.54 L6558.75 1309.81 L6561.72 1308.33 L6564.69 1306.84 L6567.66 1305.11 L6570.63 1303.62 L6573.60 1302.14 L6576.57 1300.41 L6579.54 1298.92 L6582.76 1297.44 L6585.73 1295.95 L6588.70 1294.22 L6591.67 1292.73 L6594.64 1291.25 L6597.61 1289.76 L6600.58 1288.03 L6603.55 1286.55 L6606.52 1285.06 L6609.49 1283.58 L6612.46 1282.09 L6615.43 1280.36 L6618.40 1278.87 L6621.37 1277.39 L6624.34 1275.90 L6627.31 1274.42 L6630.28 1272.93 L6633.25 1271.45 L6636.47 1269.71 L6639.44 1268.23 L6642.40 1266.74 L6645.38 1265.26 L6648.35 1263.77 L6651.31 1262.29 L6654.28 1260.80 L6657.26 1259.32 L6660.23 1257.83 L6663.19 1256.35 L6666.16 1254.86 L6669.14 1253.38 L6672.10 1251.89 L6675.07 1250.41 L6678.05 1248.92 L6681.02 1247.44 L6683.98 1245.95 L6686.95 1244.47 L6689.93 1242.98 L6693.14 1241.50 L6696.11 1240.01 L6699.08 1238.53 L6702.05 1237.04 L6705.02 1235.56 L6707.99 1234.07 L6710.96 1232.59 L6713.93 1231.10 L6716.90 1229.87 L6719.87 1228.38 L6722.84 1226.90 L6725.81 1225.41 L6728.78 1223.93 L6731.75 1222.44 L6734.72 1220.96 L6737.69 1219.72 L6740.66 1218.23 L6743.63 1216.75 L6746.85 1215.26 L6749.82 1213.78 L6752.79 1212.54 L6755.76 1211.06 L6758.73 1209.57 L6761.70 1208.09 L6764.67 1206.85 L6767.64 1205.36 L6770.61 1203.88 L6773.58 1202.39 L6776.55 1201.16 L6779.52 1199.67 L6782.49 1198.18 L6785.46 1196.95 L6788.43 1195.46 L6791.40 1193.98 L6794.37 1192.74 L6797.34 1191.25 L6800.31 1189.77 L6803.53 1188.53 L6806.50 1187.05 L6809.47 1185.56 L6812.44 1184.32 L6815.41 1182.84 L6818.38 1181.60 L6821.35 1180.12 L6824.32 1178.63 L6827.29 1177.39 L6830.26 1175.91 L6833.23 1174.67 L6836.20 1173.19 L6839.17 1171.95 L6842.14 1170.46 L6845.11 1169.23 L6848.08 1167.74 L6851.05 1166.50 L6854.02 1165.02 L6856.99 1163.78 L6860.20 1162.30 L6863.18 1161.06 L6866.15 1159.57 L6869.11 1158.34 L6872.09 1156.85 L6875.06 1155.61 L6878.02 1154.13 L6880.99 1152.89 L6883.97 1151.65 L6886.94 1150.17 L6889.90 1148.93 L6892.88 1147.45 L6895.85 1146.21 L6898.81 1144.97 L6901.78 1143.49 L6904.76 1142.25 L6907.73 1141.01 L6910.69 1139.53 L6913.91 1138.29 L6916.88 1137.05 L6919.85 1135.57 L6922.82 1134.33 L6925.79 1133.09 L6928.76 1131.85 L6931.73 1130.37 L6934.70 1129.13 L6937.67 1127.89 L6940.64 1126.41 L6943.61 1125.17 L6946.58 1123.93 L6949.55 1122.70 L6952.52 1121.46 L6955.49 1119.97 L6958.46 1118.73 L6961.43 1117.50 L6964.40 1116.26 L6967.37 1115.02 L6970.59 1113.54 L6973.56 1112.30 L6976.53 1111.06 L6979.50 1109.82 L6982.47 1108.59 L6985.44 1107.35 L6988.41 1106.11 L6991.38 1104.87 L6994.35 1103.39 L6997.32 1102.15 L7000.29 1100.91 L7003.26 1099.68 L7006.23 1098.44 L7009.20 1097.20 L7012.17 1095.96 L7015.14 1094.73 L7018.11 1093.49 L7021.08 1092.25 L7024.30 1091.01 L7027.27 1089.78 L7030.24 1088.54 L7033.21 1087.30 L7036.18 1086.06 L7039.15 1084.83 L7042.12 1083.59 L7045.09 1082.35 L7048.06 1081.11 L7051.03 1079.88 L7054.00 1078.64 L7056.97 1077.40 L7059.94 1076.16 L7062.91 1074.93 L7065.88 1073.94 L7068.85 1072.70 L7071.82 1071.46 L7074.79 1070.22 L7077.76 1068.99 L7080.98 1067.75 L7083.94 1066.51 L7086.91 1065.27 L7089.89 1064.28 L7092.85 1063.05 L7095.82 1061.81 L7098.80 1060.57 L7101.77 1059.33 L7104.73 1058.34 L7107.70 1057.11 L7110.68 1055.87 L7113.65 1054.63 L7116.61 1053.39 L7119.59 1052.40 L7122.56 1051.17 L7125.52 1049.93 L7128.49 1048.94 L7131.47 1047.70 L7134.44 1046.46 L7137.65 1045.23 L7140.62 1044.24 L7143.59 1043.00 L7146.56 1041.76 L7149.53 1040.77 L7152.50 1039.53 L7155.47 1038.29 L7158.44 1037.30 L7161.41 1036.07 L7164.38 1034.83 L7167.35 1033.84 L7170.32 1032.60 L7173.29 1031.61 L7176.26 1030.37 L7179.23 1029.14 L7182.20 1028.15 L7185.17 1026.91 L7188.14 1025.92 L7191.36 1024.68 L7194.33 1023.69 L7197.30 1022.45 L7200.27 1021.22 L7203.24 1020.23 L7206.21 1018.99 L7209.18 1018.00 L7212.15 1016.76 L7215.12 1015.77 L7218.09 1014.53 L7221.06 1013.54 L7224.03 1012.31 L7227.00 1011.32 L7229.97 1010.33 L7232.94 1009.09 L7235.91 1008.10 L7238.88 1006.86 L7241.85 1005.87 L7244.82 1004.63 L7248.04 1003.64 L7251.01 1002.65 L7253.98 1001.42 L7256.95 1000.43 L7259.92 999.19 L7262.89 998.20 L7265.86 997.21 L7268.83 995.97 L7271.80 994.98 L7274.77 993.99 L7277.74 992.75 L7280.71 991.76 L7283.68 990.77 L7286.65 989.54 L7289.62 988.55 L7292.59 987.56 L7295.56 986.57 L7298.53 985.33 L7301.74 984.34 L7304.72 983.35 L7307.69 982.36 L7310.65 981.12 L7313.63 980.13 L7316.60 979.14 L7319.56 978.15 L7322.53 976.91 L7325.51 975.92 L7328.48 974.93 L7331.44 973.94 L7334.41 972.95 L7337.39 971.72 L7340.35 970.73 L7343.32 969.74 L7346.30 968.75 L7349.27 967.76 L7352.23 966.77 L7355.20 965.78 L7358.42 964.79 L7361.39 963.55 L7364.36 962.56 L7367.33 961.57 L7370.30 960.58 L7373.27 959.59 L7376.24 958.60 L7379.21 957.61 L7382.18 956.62 L7385.15 955.63 L7388.12 954.64 L7391.09 953.65 L7394.06 952.66 L7397.03 951.67 L7400.00 950.68 L7402.97 949.69 L7405.94 948.70 L7408.91 947.71 L7411.88 946.72 L7415.10 945.73 L7418.07 944.74 L7421.04 943.75 L7424.01 942.76 L7426.98 941.77 L7429.95 940.78 L7432.92 939.79 L7435.89 938.80 L7438.86 937.81 L7441.83 936.82 L7444.80 935.83 L7447.77 935.08 L7450.74 934.09 L7453.71 933.10 L7456.68 932.11 L7459.65 931.12 L7462.62 930.13 L7465.59 929.14 L7468.81 928.40 L7471.78 927.41 L7474.75 926.42 L7477.72 925.43 L7480.69 924.44 L7483.66 923.70 L7486.63 922.71 L7489.60 921.72 L7492.57 920.73 L7495.54 919.74 L7498.51 919.00 L7501.48 918.01 L7504.45 917.02 L7507.42 916.03 L7510.39 915.28 L7513.36 914.29 L7516.33 913.30 L7519.30 912.56 L7522.27 911.57 L7525.48 910.58 L7528.45 909.59 L7531.43 908.85 L7534.40 907.86 L7537.36 906.87 L7540.34 906.13 L7543.31 905.14 L7546.27 904.39 L7549.24 903.40 L7552.22 902.41 L7555.19 901.67 L7558.15 900.68 L7561.13 899.69 L7564.10 898.95 L7567.06 897.96 L7570.03 897.22 L7573.01 896.23 L7575.98 895.48 L7578.94 894.49 L7582.16 893.50 L7585.13 892.76 L7588.10 891.77 L7591.07 891.03 L7594.04 890.04 L7597.01 889.30 L7599.98 888.31 L7602.95 887.56 L7605.92 886.57 L7608.89 885.83 L7611.86 884.84 L7614.83 884.10 L7617.80 883.11 L7620.77 882.37 L7623.74 881.38 L7626.71 880.63 L7629.68 879.64 L7632.65 878.90 L7635.87 878.16 L7638.84 877.17 L7641.81 876.42 L7641.81 4664.04 L4661.41 4664.04 L4661.41 4635.08 Z" stroke-linecap="round"/>
	</defs>
	<defs>
		<clipPath id="clipPath_imVMmqfM">
			<use xlink:href="#path_pZCiPnLM"/>
		</clipPath>
	</defs>
	<use xlink:href="#path_pZCiPnLM" style="stroke:none;fill:#537593"/>
	<use xlink:href="#path_pZCiPnLM" style="fill:none;stroke:#1A476F;stroke-width:25.92" clip-path="url(#clipPath_imVMmqfM)"/>
	<defs>
		<path id="path_mHWmpIkq" d="M4661.41 4641.51 L4661.41 4641.51 L4664.39 4626.41 L4667.35 4593.25 L4670.32 4554.88 L4673.30 4512.81 L4676.27 4467.51 L4679.23 4420.74 L4682.20 4372.97 L4685.18 4325.20 L4688.15 4277.92 L4691.11 4231.64 L4694.33 4186.35 L4697.30 4142.78 L4700.27 4100.71 L4703.24 4060.36 L4706.21 4022.00 L4709.18 3985.37 L4712.15 3950.72 L4715.12 3917.80 L4718.09 3886.86 L4721.06 3857.41 L4724.03 3829.93 L4727.00 3803.95 L4729.97 3779.44 L4732.94 3756.42 L4735.91 3734.40 L4738.88 3713.61 L4741.85 3693.81 L4744.82 3674.99 L4748.04 3656.93 L4751.01 3639.60 L4753.98 3623.27 L4756.95 3607.43 L4759.92 3592.33 L4762.89 3577.48 L4765.86 3563.62 L4768.83 3550.00 L4771.80 3536.64 L4774.77 3524.02 L4777.74 3511.64 L4780.71 3499.76 L4783.68 3488.13 L4786.65 3476.74 L4789.62 3465.60 L4792.59 3454.96 L4795.56 3444.32 L4798.53 3434.17 L4801.50 3424.02 L4804.72 3414.12 L4807.69 3404.47 L4810.66 3395.06 L4813.63 3385.91 L4816.60 3376.75 L4819.57 3367.84 L4822.54 3358.93 L4825.51 3350.26 L4828.48 3341.85 L4831.45 3333.43 L4834.42 3325.02 L4837.39 3316.85 L4840.36 3308.93 L4843.33 3300.76 L4846.30 3292.84 L4849.27 3285.17 L4852.24 3277.50 L4855.21 3269.82 L4858.18 3262.15 L4861.40 3254.73 L4864.36 3247.30 L4867.34 3239.88 L4870.31 3232.45 L4873.27 3225.27 L4876.24 3218.10 L4879.22 3210.92 L4882.19 3203.74 L4885.15 3196.81 L4888.13 3189.88 L4891.10 3182.95 L4894.06 3176.02 L4897.03 3169.09 L4900.01 3162.41 L4902.98 3155.72 L4905.94 3149.04 L4908.91 3142.61 L4911.89 3135.92 L4915.10 3129.49 L4918.07 3123.05 L4921.04 3116.62 L4924.01 3110.43 L4926.98 3103.99 L4929.95 3097.81 L4932.92 3091.62 L4935.89 3085.68 L4938.86 3079.49 L4941.83 3073.55 L4944.80 3067.61 L4947.77 3061.67 L4950.74 3055.73 L4953.71 3050.04 L4956.68 3044.35 L4959.65 3038.65 L4962.62 3032.96 L4965.59 3027.27 L4968.56 3021.57 L4971.78 3016.13 L4974.75 3010.68 L4977.72 3005.24 L4980.69 2999.79 L4983.66 2994.60 L4986.63 2989.15 L4989.60 2983.95 L4992.57 2978.76 L4995.54 2973.56 L4998.51 2968.61 L5001.48 2963.41 L5004.45 2958.46 L5007.42 2953.51 L5010.39 2948.56 L5013.36 2943.61 L5016.33 2938.66 L5019.30 2933.96 L5022.27 2929.01 L5025.49 2924.30 L5028.46 2919.60 L5031.43 2914.90 L5034.40 2910.44 L5037.37 2905.74 L5040.34 2901.29 L5043.31 2896.83 L5046.28 2892.38 L5049.25 2887.92 L5052.22 2883.47 L5055.19 2879.01 L5058.16 2874.80 L5061.13 2870.35 L5064.10 2866.14 L5067.07 2861.93 L5070.04 2857.72 L5073.01 2853.76 L5075.98 2849.56 L5078.95 2845.35 L5082.16 2841.39 L5085.14 2837.43 L5088.10 2833.47 L5091.07 2829.51 L5094.05 2825.55 L5097.02 2821.59 L5099.98 2817.88 L5102.95 2814.16 L5105.93 2810.20 L5108.90 2806.49 L5111.86 2802.78 L5114.84 2799.06 L5117.81 2795.35 L5120.77 2791.89 L5123.74 2788.17 L5126.72 2784.71 L5129.69 2781.24 L5132.65 2777.78 L5135.63 2774.31 L5138.84 2770.85 L5141.81 2767.38 L5144.78 2763.92 L5147.75 2760.70 L5150.72 2757.24 L5153.69 2754.02 L5156.66 2750.80 L5159.63 2747.58 L5162.60 2744.37 L5165.57 2741.15 L5168.54 2737.93 L5171.51 2734.71 L5174.48 2731.74 L5177.45 2728.53 L5180.42 2725.56 L5183.39 2722.59 L5186.36 2719.61 L5189.33 2716.64 L5192.55 2713.67 L5195.52 2710.70 L5198.49 2707.73 L5201.46 2705.01 L5204.43 2702.04 L5207.40 2699.32 L5210.37 2696.35 L5213.34 2693.63 L5216.31 2690.90 L5219.28 2688.18 L5222.25 2685.46 L5225.22 2682.74 L5228.19 2680.01 L5231.16 2677.29 L5234.13 2674.82 L5237.10 2672.09 L5240.07 2669.62 L5243.04 2666.90 L5246.01 2664.42 L5249.23 2661.95 L5252.20 2659.22 L5255.17 2656.75 L5258.14 2654.27 L5261.11 2651.80 L5264.08 2649.57 L5267.05 2647.10 L5270.02 2644.62 L5272.99 2642.15 L5275.96 2639.92 L5278.93 2637.44 L5281.90 2635.21 L5284.87 2632.74 L5287.84 2630.51 L5290.81 2628.28 L5293.78 2626.06 L5296.75 2623.83 L5299.72 2621.60 L5302.94 2619.37 L5305.90 2617.15 L5308.88 2614.92 L5311.85 2612.69 L5314.81 2610.46 L5317.78 2608.48 L5320.76 2606.26 L5323.73 2604.03 L5326.69 2602.05 L5329.66 2600.07 L5332.64 2597.84 L5335.60 2595.86 L5338.57 2593.88 L5341.55 2591.65 L5344.52 2589.67 L5347.48 2587.69 L5350.45 2585.71 L5353.43 2583.73 L5356.40 2581.75 L5359.61 2579.77 L5362.58 2577.79 L5365.55 2576.06 L5368.52 2574.08 L5371.49 2572.10 L5374.46 2570.37 L5377.43 2568.39 L5380.40 2566.66 L5383.37 2564.68 L5386.34 2562.94 L5389.31 2560.96 L5392.28 2559.23 L5395.25 2557.50 L5398.22 2555.52 L5401.19 2553.78 L5404.16 2552.05 L5407.13 2550.32 L5410.10 2548.59 L5413.07 2546.85 L5416.29 2545.12 L5419.26 2543.39 L5422.23 2541.66 L5425.20 2539.92 L5428.17 2538.19 L5431.14 2536.71 L5434.11 2534.97 L5437.08 2533.24 L5440.05 2531.76 L5443.02 2530.02 L5445.99 2528.29 L5448.96 2526.81 L5451.93 2525.07 L5454.90 2523.59 L5457.87 2522.10 L5460.84 2520.37 L5463.81 2518.89 L5466.78 2517.40 L5470.00 2515.67 L5472.97 2514.18 L5475.94 2512.70 L5478.91 2511.21 L5481.88 2509.73 L5484.85 2508.24 L5487.82 2506.76 L5490.79 2505.27 L5493.76 2503.79 L5496.73 2502.30 L5499.70 2500.82 L5502.67 2499.33 L5505.64 2497.85 L5508.61 2496.36 L5511.58 2494.88 L5514.55 2493.64 L5517.52 2492.16 L5520.49 2490.67 L5523.46 2489.43 L5526.68 2487.95 L5529.65 2486.71 L5532.61 2485.23 L5535.59 2483.74 L5538.56 2482.50 L5541.52 2481.27 L5544.49 2479.78 L5547.47 2478.54 L5550.44 2477.06 L5553.40 2475.82 L5556.38 2474.58 L5559.35 2473.10 L5562.31 2471.86 L5565.28 2470.62 L5568.26 2469.38 L5571.23 2468.15 L5574.19 2466.66 L5577.16 2465.42 L5580.14 2464.19 L5583.35 2462.95 L5586.32 2461.71 L5589.29 2460.47 L5592.26 2459.24 L5595.23 2458.00 L5598.20 2456.76 L5601.17 2455.52 L5604.14 2454.53 L5607.11 2453.30 L5610.08 2452.06 L5613.05 2450.82 L5616.02 2449.58 L5618.99 2448.59 L5621.96 2447.36 L5624.93 2446.12 L5627.90 2445.13 L5630.87 2443.89 L5633.84 2442.65 L5637.06 2441.66 L5640.03 2440.43 L5643.00 2439.19 L5645.97 2438.20 L5648.94 2436.96 L5651.91 2435.97 L5654.88 2434.73 L5657.85 2433.74 L5660.82 2432.75 L5663.79 2431.52 L5666.76 2430.53 L5669.73 2429.54 L5672.70 2428.30 L5675.67 2427.31 L5678.64 2426.32 L5681.61 2425.08 L5684.58 2424.09 L5687.55 2423.10 L5690.52 2422.11 L5693.74 2420.87 L5696.71 2419.88 L5699.68 2418.89 L5702.65 2417.90 L5705.62 2416.91 L5708.59 2415.92 L5711.56 2414.93 L5714.53 2413.94 L5717.50 2412.95 L5720.47 2411.96 L5723.44 2410.97 L5726.41 2409.98 L5729.38 2408.99 L5732.35 2408.00 L5735.32 2407.01 L5738.29 2406.02 L5741.26 2405.03 L5744.23 2404.04 L5747.44 2403.05 L5750.41 2402.31 L5753.39 2401.32 L5756.35 2400.33 L5759.32 2399.34 L5762.30 2398.60 L5765.27 2397.61 L5768.23 2396.62 L5771.20 2395.63 L5774.18 2394.88 L5777.15 2393.89 L5780.11 2392.90 L5783.09 2392.16 L5786.06 2391.17 L5789.02 2390.43 L5791.99 2389.44 L5794.97 2388.45 L5797.94 2387.71 L5800.90 2386.72 L5804.12 2385.97 L5807.09 2384.98 L5810.06 2384.24 L5813.03 2383.25 L5816.00 2382.51 L5818.97 2381.77 L5821.94 2380.78 L5824.91 2380.03 L5827.88 2379.04 L5830.85 2378.30 L5833.82 2377.56 L5836.79 2376.57 L5839.76 2375.83 L5842.73 2375.08 L5845.70 2374.09 L5848.67 2373.35 L5851.64 2372.61 L5854.61 2371.87 L5857.58 2370.88 L5860.80 2370.13 L5863.77 2369.39 L5866.74 2368.65 L5869.71 2367.91 L5872.68 2366.92 L5875.65 2366.17 L5878.62 2365.43 L5881.59 2364.69 L5884.56 2363.95 L5887.53 2363.20 L5890.50 2362.46 L5893.47 2361.72 L5896.44 2360.98 L5899.41 2359.99 L5902.38 2359.24 L5905.35 2358.50 L5908.32 2357.76 L5911.29 2357.02 L5914.51 2356.27 L5917.48 2355.53 L5920.45 2355.04 L5923.42 2354.29 L5926.39 2353.55 L5929.36 2352.81 L5932.33 2352.07 L5935.30 2351.32 L5938.27 2350.58 L5941.24 2349.84 L5944.21 2349.10 L5947.18 2348.60 L5950.15 2347.86 L5953.12 2347.12 L5956.09 2346.37 L5959.06 2345.63 L5962.03 2344.89 L5965.00 2344.39 L5967.97 2343.65 L5971.19 2342.91 L5974.15 2342.17 L5977.13 2341.67 L5980.10 2340.93 L5983.06 2340.19 L5986.03 2339.69 L5989.01 2338.95 L5991.98 2338.21 L5994.94 2337.71 L5997.91 2336.97 L6000.89 2336.23 L6003.85 2335.73 L6006.82 2334.99 L6009.80 2334.49 L6012.77 2333.75 L6015.73 2333.01 L6018.70 2332.51 L6021.68 2331.77 L6024.89 2331.28 L6027.86 2330.53 L6030.83 2330.04 L6033.80 2329.30 L6036.77 2328.80 L6039.74 2328.06 L6042.71 2327.56 L6045.68 2326.82 L6048.65 2326.33 L6051.62 2325.58 L6054.59 2325.09 L6057.56 2324.35 L6060.53 2323.85 L6063.50 2323.11 L6066.47 2322.61 L6069.44 2322.12 L6072.41 2321.38 L6075.38 2320.88 L6078.35 2320.39 L6081.57 2319.64 L6084.54 2319.15 L6087.51 2318.65 L6090.48 2317.91 L6093.45 2317.41 L6096.42 2316.92 L6099.39 2316.18 L6102.36 2315.68 L6105.33 2315.19 L6108.30 2314.44 L6111.27 2313.95 L6114.24 2313.45 L6117.21 2312.96 L6120.18 2312.22 L6123.15 2311.72 L6126.12 2311.23 L6129.09 2310.73 L6132.06 2310.24 L6135.03 2309.49 L6138.25 2309.00 L6141.22 2308.50 L6144.19 2308.01 L6147.16 2307.51 L6150.13 2306.77 L6153.10 2306.28 L6156.07 2305.78 L6159.04 2305.29 L6162.01 2304.79 L6164.98 2304.30 L6167.95 2303.80 L6170.92 2303.31 L6173.89 2302.81 L6176.86 2302.07 L6179.83 2301.57 L6182.80 2301.08 L6185.77 2300.58 L6188.74 2300.09 L6191.95 2299.59 L6194.93 2299.10 L6197.90 2298.60 L6200.86 2298.11 L6203.84 2297.61 L6206.81 2297.12 L6209.77 2296.62 L6212.74 2296.13 L6215.72 2295.63 L6218.69 2295.14 L6221.65 2294.64 L6224.63 2294.15 L6227.60 2293.65 L6230.56 2293.16 L6233.53 2292.91 L6236.51 2292.42 L6239.48 2291.92 L6242.44 2291.43 L6245.41 2290.93 L6248.63 2290.44 L6251.60 2289.94 L6254.57 2289.45 L6257.54 2288.95 L6260.51 2288.46 L6263.48 2288.21 L6266.45 2287.71 L6269.42 2287.22 L6272.39 2286.72 L6275.36 2286.23 L6278.33 2285.73 L6281.30 2285.49 L6284.27 2284.99 L6287.24 2284.50 L6290.21 2284.00 L6293.18 2283.51 L6296.15 2283.26 L6299.12 2282.76 L6302.34 2282.27 L6305.31 2281.77 L6308.28 2281.53 L6311.25 2281.03 L6314.22 2280.54 L6317.19 2280.04 L6320.16 2279.79 L6323.13 2279.30 L6326.10 2278.80 L6329.07 2278.31 L6332.04 2278.06 L6335.01 2277.57 L6337.98 2277.07 L6340.95 2276.82 L6343.92 2276.33 L6346.89 2275.83 L6349.86 2275.59 L6352.83 2275.09 L6355.80 2274.60 L6359.02 2274.35 L6361.99 2273.85 L6364.96 2273.36 L6367.93 2273.11 L6370.90 2272.62 L6373.87 2272.37 L6376.84 2271.87 L6379.81 2271.38 L6382.78 2271.13 L6385.75 2270.64 L6388.72 2270.39 L6391.69 2269.89 L6394.66 2269.40 L6397.63 2269.15 L6400.60 2268.66 L6403.57 2268.41 L6406.54 2267.91 L6409.51 2267.67 L6412.48 2267.17 L6415.69 2266.92 L6418.66 2266.43 L6421.64 2265.93 L6424.60 2265.69 L6427.57 2265.19 L6430.55 2264.94 L6433.52 2264.45 L6436.48 2264.20 L6439.45 2263.71 L6442.43 2263.46 L6445.40 2262.96 L6448.36 2262.72 L6451.34 2262.47 L6454.31 2261.97 L6457.27 2261.73 L6460.24 2261.23 L6463.22 2260.98 L6466.19 2260.49 L6469.40 2260.24 L6472.37 2259.75 L6475.34 2259.50 L6478.31 2259.25 L6481.28 2258.76 L6484.25 2258.51 L6487.22 2258.01 L6490.19 2257.77 L6493.16 2257.27 L6496.13 2257.02 L6499.10 2256.78 L6502.07 2256.28 L6505.04 2256.03 L6508.01 2255.79 L6510.98 2255.29 L6513.95 2255.04 L6516.92 2254.55 L6519.89 2254.30 L6522.86 2254.05 L6526.08 2253.56 L6529.05 2253.31 L6532.02 2253.06 L6534.99 2252.57 L6537.96 2252.32 L6540.93 2252.07 L6543.90 2251.58 L6546.87 2251.33 L6549.84 2251.08 L6552.81 2250.84 L6555.78 2250.34 L6558.75 2250.09 L6561.72 2249.85 L6564.69 2249.35 L6567.66 2249.10 L6570.63 2248.86 L6573.60 2248.61 L6576.57 2248.11 L6579.54 2247.87 L6582.76 2247.62 L6585.73 2247.37 L6588.70 2246.88 L6591.67 2246.63 L6594.64 2246.38 L6597.61 2246.13 L6600.58 2245.64 L6603.55 2245.39 L6606.52 2245.14 L6609.49 2244.90 L6612.46 2244.40 L6615.43 2244.15 L6618.40 2243.91 L6621.37 2243.66 L6624.34 2243.41 L6627.31 2242.92 L6630.28 2242.67 L6633.25 2242.42 L6636.47 2242.17 L6639.44 2241.93 L6642.40 2241.68 L6645.38 2241.18 L6648.35 2240.94 L6651.31 2240.69 L6654.28 2240.44 L6657.26 2240.19 L6660.23 2239.94 L6663.19 2239.45 L6666.16 2239.20 L6669.14 2238.95 L6672.10 2238.71 L6675.07 2238.46 L6678.05 2238.21 L6681.02 2237.96 L6683.98 2237.72 L6686.95 2237.22 L6689.93 2236.97 L6693.14 2236.73 L6696.11 2236.48 L6699.08 2236.23 L6702.05 2235.98 L6705.02 2235.74 L6707.99 2235.49 L6710.96 2235.24 L6713.93 2234.99 L6716.90 2234.75 L6719.87 2234.50 L6722.84 2234.00 L6725.81 2233.76 L6728.78 2233.51 L6731.75 2233.26 L6734.72 2233.01 L6737.69 2232.77 L6740.66 2232.52 L6743.63 2232.27 L6746.85 2232.02 L6749.82 2231.78 L6752.79 2231.53 L6755.76 2231.28 L6758.73 2231.03 L6761.70 2230.79 L6764.67 2230.54 L6767.64 2230.29 L6770.61 2230.04 L6773.58 2229.80 L6776.55 2229.55 L6779.52 2229.30 L6782.49 2229.05 L6785.46 2228.81 L6788.43 2228.56 L6791.40 2228.31 L6794.37 2228.06 L6797.34 2227.82 L6800.31 2227.57 L6803.53 2227.32 L6806.50 2227.07 L6809.47 2226.83 L6812.44 2226.58 L6815.41 2226.33 L6818.38 2226.08 L6821.35 2225.84 L6824.32 2225.59 L6827.29 2225.34 L6830.26 2225.09 L6833.23 2225.09 L6836.20 2224.85 L6839.17 2224.60 L6842.14 2224.35 L6845.11 2224.10 L6848.08 2223.86 L6851.05 2223.61 L6854.02 2223.36 L6856.99 2223.11 L6860.20 2222.87 L6863.18 2222.62 L6866.15 2222.37 L6869.11 2222.37 L6872.09 2222.12 L6875.06 2221.88 L6878.02 2221.63 L6880.99 2221.38 L6883.97 2221.13 L6886.94 2220.89 L6889.90 2220.64 L6892.88 2220.39 L6895.85 2220.39 L6898.81 2220.14 L6901.78 2219.90 L6904.76 2219.65 L6907.73 2219.40 L6910.69 2219.15 L6913.91 2218.91 L6916.88 2218.91 L6919.85 2218.66 L6922.82 2218.41 L6925.79 2218.16 L6928.76 2217.92 L6931.73 2217.67 L6934.70 2217.42 L6937.67 2217.42 L6940.64 2217.17 L6943.61 2216.93 L6946.58 2216.68 L6949.55 2216.43 L6952.52 2216.43 L6955.49 2216.18 L6958.46 2215.94 L6961.43 2215.69 L6964.40 2215.44 L6967.37 2215.19 L6970.59 2215.19 L6973.56 2214.95 L6976.53 2214.70 L6979.50 2214.45 L6982.47 2214.45 L6985.44 2214.20 L6988.41 2213.96 L6991.38 2213.71 L6994.35 2213.46 L6997.32 2213.46 L7000.29 2213.21 L7003.26 2212.97 L7006.23 2212.72 L7009.20 2212.72 L7012.17 2212.47 L7015.14 2212.22 L7018.11 2211.98 L7021.08 2211.73 L7024.30 2211.73 L7027.27 2211.48 L7030.24 2211.23 L7033.21 2210.99 L7036.18 2210.99 L7039.15 2210.74 L7042.12 2210.49 L7045.09 2210.49 L7048.06 2210.24 L7051.03 2210.00 L7054.00 2209.75 L7056.97 2209.75 L7059.94 2209.50 L7062.91 2209.25 L7065.88 2209.01 L7068.85 2209.01 L7071.82 2208.76 L7074.79 2208.51 L7077.76 2208.51 L7080.98 2208.26 L7083.94 2208.02 L7086.91 2207.77 L7089.89 2207.77 L7092.85 2207.52 L7095.82 2207.27 L7098.80 2207.27 L7101.77 2207.03 L7104.73 2206.78 L7107.70 2206.78 L7110.68 2206.53 L7113.65 2206.28 L7116.61 2206.28 L7119.59 2206.04 L7122.56 2205.79 L7125.52 2205.79 L7128.49 2205.54 L7131.47 2205.29 L7134.44 2205.29 L7137.65 2205.05 L7140.62 2204.80 L7143.59 2204.80 L7146.56 2204.55 L7149.53 2204.30 L7152.50 2204.30 L7155.47 2204.06 L7158.44 2203.81 L7161.41 2203.81 L7164.38 2203.56 L7167.35 2203.31 L7170.32 2203.31 L7173.29 2203.07 L7176.26 2202.82 L7179.23 2202.82 L7182.20 2202.57 L7185.17 2202.57 L7188.14 2202.32 L7191.36 2202.08 L7194.33 2202.08 L7197.30 2201.83 L7200.27 2201.58 L7203.24 2201.58 L7206.21 2201.33 L7209.18 2201.33 L7212.15 2201.09 L7215.12 2200.84 L7218.09 2200.84 L7221.06 2200.59 L7224.03 2200.59 L7227.00 2200.34 L7229.97 2200.10 L7232.94 2200.10 L7235.91 2199.85 L7238.88 2199.85 L7241.85 2199.60 L7244.82 2199.35 L7248.04 2199.35 L7251.01 2199.11 L7253.98 2199.11 L7256.95 2198.86 L7259.92 2198.61 L7262.89 2198.61 L7265.86 2198.36 L7268.83 2198.36 L7271.80 2198.12 L7274.77 2198.12 L7277.74 2197.87 L7280.71 2197.87 L7283.68 2197.62 L7286.65 2197.37 L7289.62 2197.37 L7292.59 2197.13 L7295.56 2197.13 L7298.53 2196.88 L7301.74 2196.88 L7304.72 2196.63 L7307.69 2196.63 L7310.65 2196.38 L7313.63 2196.14 L7316.60 2196.14 L7319.56 2195.89 L7322.53 2195.89 L7325.51 2195.64 L7328.48 2195.64 L7331.44 2195.39 L7334.41 2195.39 L7337.39 2195.15 L7340.35 2195.15 L7343.32 2194.90 L7346.30 2194.90 L7349.27 2194.65 L7352.23 2194.65 L7355.20 2194.40 L7358.42 2194.16 L7361.39 2194.16 L7364.36 2193.91 L7367.33 2193.91 L7370.30 2193.66 L7373.27 2193.66 L7376.24 2193.41 L7379.21 2193.41 L7382.18 2193.17 L7385.15 2193.17 L7388.12 2192.92 L7391.09 2192.92 L7394.06 2192.67 L7397.03 2192.67 L7400.00 2192.42 L7402.97 2192.42 L7405.94 2192.18 L7408.91 2192.18 L7411.88 2191.93 L7415.10 2191.93 L7418.07 2191.68 L7421.04 2191.68 L7424.01 2191.43 L7426.98 2191.43 L7429.95 2191.43 L7432.92 2191.19 L7435.89 2191.19 L7438.86 2190.94 L7441.83 2190.94 L7444.80 2190.69 L7447.77 2190.69 L7450.74 2190.44 L7453.71 2190.44 L7456.68 2190.20 L7459.65 2190.20 L7462.62 2189.95 L7465.59 2189.95 L7468.81 2189.70 L7471.78 2189.70 L7474.75 2189.70 L7477.72 2189.45 L7480.69 2189.45 L7483.66 2189.21 L7486.63 2189.21 L7489.60 2188.96 L7492.57 2188.96 L7495.54 2188.71 L7498.51 2188.71 L7501.48 2188.71 L7504.45 2188.46 L7507.42 2188.46 L7510.39 2188.22 L7513.36 2188.22 L7516.33 2187.97 L7519.30 2187.97 L7522.27 2187.72 L7525.48 2187.72 L7528.45 2187.72 L7531.43 2187.47 L7534.40 2187.47 L7537.36 2187.23 L7540.34 2187.23 L7543.31 2187.23 L7546.27 2186.98 L7549.24 2186.98 L7552.22 2186.73 L7555.19 2186.73 L7558.15 2186.48 L7561.13 2186.48 L7564.10 2186.48 L7567.06 2186.24 L7570.03 2186.24 L7573.01 2185.99 L7575.98 2185.99 L7578.94 2185.99 L7582.16 2185.74 L7585.13 2185.74 L7588.10 2185.49 L7591.07 2185.49 L7594.04 2185.49 L7597.01 2185.25 L7599.98 2185.25 L7602.95 2185.00 L7605.92 2185.00 L7608.89 2185.00 L7611.86 2184.75 L7614.83 2184.75 L7617.80 2184.50 L7620.77 2184.50 L7623.74 2184.50 L7626.71 2184.26 L7629.68 2184.26 L7632.65 2184.26 L7635.87 2184.01 L7638.84 2184.01 L7641.81 2183.76 L7641.81 4664.04 L4661.41 4664.04 L4661.41 4641.51 Z" stroke-linecap="round"/>
	</defs>
	<defs>
		<clipPath id="clipPath_FkrdmXcU">
			<use xlink:href="#path_mHWmpIkq"/>
		</clipPath>
	</defs>
	<use xlink:href="#path_mHWmpIkq" style="stroke:none;fill:#AC686C"/>
	<use xlink:href="#path_mHWmpIkq" style="fill:none;stroke:#90353B;stroke-width:25.92" clip-path="url(#clipPath_FkrdmXcU)"/>
	<line x1="4658.44" y1="4663.79" x2="4658.44" y2="539.81" style="stroke:#000000;stroke-width:8.64"/>
	<line x1="4658.44" y1="4663.79" x2="4598.55" y2="4663.79" style="stroke:#000000;stroke-width:8.64"/>
	<text x="4568.60" y="4716.35" style="font-family:'Helvetica';font-size:149.99px;fill:#000000" text-anchor="end">0.0</text>
	<line x1="4658.44" y1="3839.09" x2="4598.55" y2="3839.09" style="stroke:#000000;stroke-width:8.64"/>
	<text x="4568.60" y="3891.65" style="font-family:'Helvetica';font-size:149.99px;fill:#000000" text-anchor="end">0.2</text>
	<line x1="4658.44" y1="3014.15" x2="4598.55" y2="3014.15" style="stroke:#000000;stroke-width:8.64"/>
	<text x="4568.60" y="3066.71" style="font-family:'Helvetica';font-size:149.99px;fill:#000000" text-anchor="end">0.4</text>
	<line x1="4658.44" y1="2189.45" x2="4598.55" y2="2189.45" style="stroke:#000000;stroke-width:8.64"/>
	<text x="4568.60" y="2242.01" style="font-family:'Helvetica';font-size:149.99px;fill:#000000" text-anchor="end">0.6</text>
	<line x1="4658.44" y1="1364.51" x2="4598.55" y2="1364.51" style="stroke:#000000;stroke-width:8.64"/>
	<text x="4568.60" y="1417.07" style="font-family:'Helvetica';font-size:149.99px;fill:#000000" text-anchor="end">0.8</text>
	<line x1="4658.44" y1="539.81" x2="4598.55" y2="539.81" style="stroke:#000000;stroke-width:8.64"/>
	<text x="4568.60" y="592.37" style="font-family:'Helvetica';font-size:149.99px;fill:#000000" text-anchor="end">1.0</text>
	<text x="4246.04" y="2601.80" style="font-family:'Helvetica';font-size:149.99px;fill:#000000" transform="rotate(-90 4246.04,2601.80)" text-anchor="middle">Probability of Death</text>
	<line x1="4658.44" y1="4663.79" x2="7641.81" y2="4663.79" style="stroke:#000000;stroke-width:8.64"/>
	<line x1="4658.44" y1="4663.79" x2="4658.44" y2="4723.69" style="stroke:#000000;stroke-width:8.64"/>
	<text x="4658.44" y="4858.75" style="font-family:'Helvetica';font-size:149.99px;fill:#000000" text-anchor="middle">0</text>
	<line x1="5252.69" y1="4663.79" x2="5252.69" y2="4723.69" style="stroke:#000000;stroke-width:8.64"/>
	<text x="5252.69" y="4858.75" style="font-family:'Helvetica';font-size:149.99px;fill:#000000" text-anchor="middle">2</text>
	<line x1="5846.94" y1="4663.79" x2="5846.94" y2="4723.69" style="stroke:#000000;stroke-width:8.64"/>
	<text x="5846.94" y="4858.75" style="font-family:'Helvetica';font-size:149.99px;fill:#000000" text-anchor="middle">4</text>
	<line x1="6441.19" y1="4663.79" x2="6441.19" y2="4723.69" style="stroke:#000000;stroke-width:8.64"/>
	<text x="6441.19" y="4858.75" style="font-family:'Helvetica';font-size:149.99px;fill:#000000" text-anchor="middle">6</text>
	<line x1="7035.19" y1="4663.79" x2="7035.19" y2="4723.69" style="stroke:#000000;stroke-width:8.64"/>
	<text x="7035.19" y="4858.75" style="font-family:'Helvetica';font-size:149.99px;fill:#000000" text-anchor="middle">8</text>
	<line x1="7629.44" y1="4663.79" x2="7629.44" y2="4723.69" style="stroke:#000000;stroke-width:8.64"/>
	<text x="7629.44" y="4858.75" style="font-family:'Helvetica';font-size:149.99px;fill:#000000" text-anchor="middle">10</text>
	<text x="6150.13" y="5023.59" style="font-family:'Helvetica';font-size:149.99px;fill:#000000" text-anchor="middle">Time Since Diagnosis (Years)</text>
	<rect x="4906.94" y="5150.64" width="2486.63" height="279.68" style="fill:#FFFFFF"/>
	<rect x="4911.25" y="5154.96" width="2477.99" height="271.04" style="fill:none;stroke:#000000;stroke-width:8.64"/>
	<rect x="4971.78" y="5215.48" width="561.58" height="149.99" style="fill:#AC686C"/>
	<rect x="4978.26" y="5221.96" width="548.62" height="137.03" style="fill:none;stroke:#90353B;stroke-width:12.96"/>
	<rect x="6335.75" y="5215.48" width="561.58" height="149.99" style="fill:#537593"/>
	<rect x="6342.23" y="5221.96" width="548.62" height="137.03" style="fill:none;stroke:#1A476F;stroke-width:12.96"/>
	<text x="5653.40" y="5332.55" style="font-family:'Helvetica';font-size:120.04px;fill:#000000">Cancer</text>
	<text x="7017.37" y="5332.55" style="font-family:'Helvetica';font-size:120.04px;fill:#000000">Other</text>
	<text x="6150.13" y="450.74" style="font-family:'Helvetica';font-size:209.88px;fill:#1E2D53" text-anchor="middle">Males, 75+ years</text>
</svg>
