<?xml version="1.0" encoding="UTF-8" standalone="no"?>
<!-- This is a Stata 15.1 generated SVG file (http://www.stata.com) -->

<svg version="1.1" width="11.00in" height="8.00in" viewBox="0 0 7920 5760" xmlns="http://www.w3.org/2000/svg" xmlns:xlink="http://www.w3.org/1999/xlink">
	<desc>Stata Graph - surv1</desc>
	<rect x="0" y="0" width="7920" height="5760" style="fill:#F0F0F0;stroke:none"/>
	<rect x="0.00" y="0.00" width="7919.75" height="5760.00" style="fill:#F0F0F0"/>
	<rect x="5.76" y="5.76" width="7908.23" height="5748.48" style="fill:none;stroke:#F0F0F0;stroke-width:11.52"/>
	<rect x="814.77" y="201.72" width="6903.27" height="4776.65" style="fill:#FFFFFF"/>
	<rect x="820.53" y="207.48" width="6891.75" height="4765.13" style="fill:none;stroke:#FFFFFF;stroke-width:11.52"/>
	<line x1="814.77" y1="4851.65" x2="7718.04" y2="4851.65" style="stroke:#E8E8E8;stroke-width:17.28"/>
	<line x1="814.77" y1="3947.01" x2="7718.04" y2="3947.01" style="stroke:#E8E8E8;stroke-width:17.28"/>
	<line x1="814.77" y1="3042.37" x2="7718.04" y2="3042.37" style="stroke:#E8E8E8;stroke-width:17.28"/>
	<line x1="814.77" y1="2137.72" x2="7718.04" y2="2137.72" style="stroke:#E8E8E8;stroke-width:17.28"/>
	<line x1="814.77" y1="1233.08" x2="7718.04" y2="1233.08" style="stroke:#E8E8E8;stroke-width:17.28"/>
	<line x1="814.77" y1="328.44" x2="7718.04" y2="328.44" style="stroke:#E8E8E8;stroke-width:17.28"/>
	<line x1="941.49" y1="328.44" x2="966.49" y2="367.05" style="stroke:#000000;stroke-width:25.92"/>
	<line x1="988.27" y1="400.96" x2="1008.07" y2="431.65" style="stroke:#000000;stroke-width:25.92"/>
	<line x1="1008.07" y1="431.65" x2="1014.75" y2="438.34" style="stroke:#000000;stroke-width:25.92"/>
	<line x1="1042.96" y1="467.29" x2="1074.40" y2="499.47" style="stroke:#000000;stroke-width:25.92"/>
	<line x1="1074.40" y1="499.47" x2="1075.14" y2="500.21" style="stroke:#000000;stroke-width:25.92"/>
	<line x1="1105.58" y1="526.70" x2="1140.23" y2="556.89" style="stroke:#000000;stroke-width:25.92"/>
	<line x1="1171.67" y1="582.14" x2="1207.55" y2="610.35" style="stroke:#000000;stroke-width:25.92"/>
	<line x1="1207.55" y1="610.35" x2="1207.80" y2="610.60" style="stroke:#000000;stroke-width:25.92"/>
	<line x1="1240.22" y1="634.61" x2="1273.88" y2="659.11" style="stroke:#000000;stroke-width:25.92"/>
	<line x1="1273.88" y1="659.11" x2="1277.60" y2="661.59" style="stroke:#000000;stroke-width:25.92"/>
	<line x1="1310.76" y1="684.36" x2="1340.46" y2="704.65" style="stroke:#000000;stroke-width:25.92"/>
	<line x1="1340.46" y1="704.65" x2="1348.88" y2="710.10" style="stroke:#000000;stroke-width:25.92"/>
	<line x1="1382.78" y1="732.13" x2="1407.04" y2="747.97" style="stroke:#000000;stroke-width:25.92"/>
	<line x1="1407.04" y1="747.97" x2="1421.39" y2="756.88" style="stroke:#000000;stroke-width:25.92"/>
	<line x1="1455.80" y1="778.16" x2="1473.37" y2="789.05" style="stroke:#000000;stroke-width:25.92"/>
	<line x1="1473.37" y1="789.05" x2="1495.15" y2="801.93" style="stroke:#000000;stroke-width:25.92"/>
	<line x1="1529.80" y1="822.47" x2="1539.94" y2="828.41" style="stroke:#000000;stroke-width:25.92"/>
	<line x1="1539.94" y1="828.41" x2="1569.89" y2="845.24" style="stroke:#000000;stroke-width:25.92"/>
	<line x1="1605.04" y1="865.29" x2="1606.52" y2="866.03" style="stroke:#000000;stroke-width:25.92"/>
	<line x1="1606.52" y1="866.03" x2="1645.13" y2="887.56" style="stroke:#000000;stroke-width:25.92"/>
	<line x1="1680.53" y1="906.87" x2="1721.36" y2="928.40" style="stroke:#000000;stroke-width:25.92"/>
	<line x1="1757.25" y1="946.72" x2="1798.09" y2="968.00" style="stroke:#000000;stroke-width:25.92"/>
	<line x1="1834.22" y1="985.82" x2="1872.59" y2="1005.13" style="stroke:#000000;stroke-width:25.92"/>
	<line x1="1872.59" y1="1005.13" x2="1875.31" y2="1006.61" style="stroke:#000000;stroke-width:25.92"/>
	<line x1="1911.44" y1="1024.19" x2="1938.92" y2="1037.55" style="stroke:#000000;stroke-width:25.92"/>
	<line x1="1938.92" y1="1037.55" x2="1953.02" y2="1044.24" style="stroke:#000000;stroke-width:25.92"/>
	<line x1="1989.41" y1="1061.81" x2="2005.49" y2="1069.23" style="stroke:#000000;stroke-width:25.92"/>
	<line x1="2005.49" y1="1069.23" x2="2031.23" y2="1081.11" style="stroke:#000000;stroke-width:25.92"/>
	<line x1="2067.86" y1="1098.19" x2="2072.07" y2="1100.17" style="stroke:#000000;stroke-width:25.92"/>
	<line x1="2072.07" y1="1100.17" x2="2109.69" y2="1117.74" style="stroke:#000000;stroke-width:25.92"/>
	<line x1="2146.32" y1="1134.58" x2="2188.40" y2="1153.39" style="stroke:#000000;stroke-width:25.92"/>
	<line x1="2225.27" y1="1169.72" x2="2267.35" y2="1188.53" style="stroke:#000000;stroke-width:25.92"/>
	<line x1="2304.22" y1="1204.62" x2="2337.89" y2="1219.22" style="stroke:#000000;stroke-width:25.92"/>
	<line x1="2337.89" y1="1219.22" x2="2346.55" y2="1222.94" style="stroke:#000000;stroke-width:25.92"/>
	<line x1="2383.67" y1="1238.78" x2="2404.46" y2="1247.93" style="stroke:#000000;stroke-width:25.92"/>
	<line x1="2404.46" y1="1247.93" x2="2425.99" y2="1257.09" style="stroke:#000000;stroke-width:25.92"/>
	<line x1="2463.12" y1="1272.93" x2="2471.04" y2="1276.40" style="stroke:#000000;stroke-width:25.92"/>
	<line x1="2471.04" y1="1276.40" x2="2505.44" y2="1291.00" style="stroke:#000000;stroke-width:25.92"/>
	<line x1="2542.57" y1="1306.59" x2="2585.14" y2="1324.17" style="stroke:#000000;stroke-width:25.92"/>
	<line x1="2622.26" y1="1339.76" x2="2665.08" y2="1357.08" style="stroke:#000000;stroke-width:25.92"/>
	<line x1="2702.45" y1="1372.43" x2="2736.86" y2="1386.54" style="stroke:#000000;stroke-width:25.92"/>
	<line x1="2736.86" y1="1386.54" x2="2745.02" y2="1389.76" style="stroke:#000000;stroke-width:25.92"/>
	<line x1="2782.40" y1="1404.85" x2="2803.43" y2="1413.52" style="stroke:#000000;stroke-width:25.92"/>
	<line x1="2803.43" y1="1413.52" x2="2825.21" y2="1422.18" style="stroke:#000000;stroke-width:25.92"/>
	<line x1="2862.59" y1="1437.03" x2="2870.01" y2="1440.00" style="stroke:#000000;stroke-width:25.92"/>
	<line x1="2870.01" y1="1440.00" x2="2905.40" y2="1454.11" style="stroke:#000000;stroke-width:25.92"/>
	<line x1="2943.02" y1="1468.96" x2="2985.84" y2="1485.79" style="stroke:#000000;stroke-width:25.92"/>
	<line x1="3023.46" y1="1500.39" x2="3066.28" y2="1517.22" style="stroke:#000000;stroke-width:25.92"/>
	<line x1="3103.90" y1="1531.83" x2="3135.82" y2="1544.20" style="stroke:#000000;stroke-width:25.92"/>
	<line x1="3135.82" y1="1544.20" x2="3146.96" y2="1548.41" style="stroke:#000000;stroke-width:25.92"/>
	<line x1="3184.58" y1="1562.76" x2="3202.40" y2="1569.45" style="stroke:#000000;stroke-width:25.92"/>
	<line x1="3202.40" y1="1569.45" x2="3227.65" y2="1579.10" style="stroke:#000000;stroke-width:25.92"/>
	<line x1="3265.51" y1="1593.45" x2="3268.98" y2="1594.69" style="stroke:#000000;stroke-width:25.92"/>
	<line x1="3268.98" y1="1594.69" x2="3308.58" y2="1609.54" style="stroke:#000000;stroke-width:25.92"/>
	<line x1="3346.45" y1="1623.65" x2="3389.76" y2="1639.74" style="stroke:#000000;stroke-width:25.92"/>
	<line x1="3427.38" y1="1653.60" x2="3468.47" y2="1668.70" style="stroke:#000000;stroke-width:25.92"/>
	<line x1="3468.47" y1="1668.70" x2="3470.69" y2="1669.44" style="stroke:#000000;stroke-width:25.92"/>
	<line x1="3508.56" y1="1683.30" x2="3535.04" y2="1692.95" style="stroke:#000000;stroke-width:25.92"/>
	<line x1="3535.04" y1="1692.95" x2="3551.87" y2="1698.89" style="stroke:#000000;stroke-width:25.92"/>
	<line x1="3589.74" y1="1712.75" x2="3601.37" y2="1716.96" style="stroke:#000000;stroke-width:25.92"/>
	<line x1="3601.37" y1="1716.96" x2="3633.05" y2="1728.35" style="stroke:#000000;stroke-width:25.92"/>
	<line x1="3671.17" y1="1741.46" x2="3714.48" y2="1756.81" style="stroke:#000000;stroke-width:25.92"/>
	<line x1="3752.59" y1="1770.18" x2="3795.91" y2="1785.52" style="stroke:#000000;stroke-width:25.92"/>
	<line x1="3834.02" y1="1798.64" x2="3867.43" y2="1810.27" style="stroke:#000000;stroke-width:25.92"/>
	<line x1="3867.43" y1="1810.27" x2="3877.58" y2="1813.74" style="stroke:#000000;stroke-width:25.92"/>
	<line x1="3915.70" y1="1826.61" x2="3934.01" y2="1833.04" style="stroke:#000000;stroke-width:25.92"/>
	<line x1="3934.01" y1="1833.04" x2="3959.26" y2="1841.46" style="stroke:#000000;stroke-width:25.92"/>
	<line x1="3997.62" y1="1854.33" x2="4000.34" y2="1855.32" style="stroke:#000000;stroke-width:25.92"/>
	<line x1="4000.34" y1="1855.32" x2="4041.18" y2="1868.93" style="stroke:#000000;stroke-width:25.92"/>
	<line x1="4079.54" y1="1881.80" x2="4123.35" y2="1896.16" style="stroke:#000000;stroke-width:25.92"/>
	<line x1="4161.47" y1="1908.78" x2="4199.83" y2="1921.40" style="stroke:#000000;stroke-width:25.92"/>
	<line x1="4199.83" y1="1921.40" x2="4205.52" y2="1923.14" style="stroke:#000000;stroke-width:25.92"/>
	<line x1="4243.88" y1="1935.51" x2="4266.40" y2="1942.94" style="stroke:#000000;stroke-width:25.92"/>
	<line x1="4266.40" y1="1942.94" x2="4287.69" y2="1949.87" style="stroke:#000000;stroke-width:25.92"/>
	<line x1="4326.05" y1="1961.99" x2="4332.98" y2="1964.22" style="stroke:#000000;stroke-width:25.92"/>
	<line x1="4332.98" y1="1964.22" x2="4369.86" y2="1975.85" style="stroke:#000000;stroke-width:25.92"/>
	<line x1="4408.22" y1="1988.23" x2="4452.03" y2="2002.09" style="stroke:#000000;stroke-width:25.92"/>
	<line x1="4490.64" y1="2013.97" x2="4532.47" y2="2026.84" style="stroke:#000000;stroke-width:25.92"/>
	<line x1="4532.47" y1="2026.84" x2="4534.69" y2="2027.58" style="stroke:#000000;stroke-width:25.92"/>
	<line x1="4573.31" y1="2039.46" x2="4598.80" y2="2047.38" style="stroke:#000000;stroke-width:25.92"/>
	<line x1="4598.80" y1="2047.38" x2="4617.36" y2="2053.08" style="stroke:#000000;stroke-width:25.92"/>
	<line x1="4655.97" y1="2064.46" x2="4665.38" y2="2067.43" style="stroke:#000000;stroke-width:25.92"/>
	<line x1="4665.38" y1="2067.43" x2="4700.02" y2="2077.83" style="stroke:#000000;stroke-width:25.92"/>
	<line x1="4738.64" y1="2089.46" x2="4782.69" y2="2102.33" style="stroke:#000000;stroke-width:25.92"/>
	<line x1="4821.30" y1="2113.72" x2="4864.86" y2="2126.59" style="stroke:#000000;stroke-width:25.92"/>
	<line x1="4864.86" y1="2126.59" x2="4865.60" y2="2126.83" style="stroke:#000000;stroke-width:25.92"/>
	<line x1="4904.21" y1="2137.97" x2="4931.44" y2="2145.89" style="stroke:#000000;stroke-width:25.92"/>
	<line x1="4931.44" y1="2145.89" x2="4948.52" y2="2150.84" style="stroke:#000000;stroke-width:25.92"/>
	<line x1="4987.37" y1="2162.23" x2="4997.77" y2="2165.20" style="stroke:#000000;stroke-width:25.92"/>
	<line x1="4997.77" y1="2165.20" x2="5031.43" y2="2174.60" style="stroke:#000000;stroke-width:25.92"/>
	<line x1="5070.28" y1="2185.74" x2="5114.59" y2="2198.12" style="stroke:#000000;stroke-width:25.92"/>
	<line x1="5153.44" y1="2208.76" x2="5197.50" y2="2221.13" style="stroke:#000000;stroke-width:25.92"/>
	<line x1="5197.50" y1="2221.13" x2="5197.75" y2="2221.13" style="stroke:#000000;stroke-width:25.92"/>
	<line x1="5236.60" y1="2232.02" x2="5263.83" y2="2239.45" style="stroke:#000000;stroke-width:25.92"/>
	<line x1="5263.83" y1="2239.45" x2="5281.15" y2="2244.15" style="stroke:#000000;stroke-width:25.92"/>
	<line x1="5320.01" y1="2254.80" x2="5330.41" y2="2257.52" style="stroke:#000000;stroke-width:25.92"/>
	<line x1="5330.41" y1="2257.52" x2="5364.56" y2="2266.68" style="stroke:#000000;stroke-width:25.92"/>
	<line x1="5403.42" y1="2277.07" x2="5447.97" y2="2288.95" style="stroke:#000000;stroke-width:25.92"/>
	<line x1="5486.83" y1="2299.35" x2="5529.89" y2="2310.73" style="stroke:#000000;stroke-width:25.92"/>
	<line x1="5529.89" y1="2310.73" x2="5531.38" y2="2310.98" style="stroke:#000000;stroke-width:25.92"/>
	<line x1="5570.48" y1="2321.38" x2="5596.47" y2="2328.06" style="stroke:#000000;stroke-width:25.92"/>
	<line x1="5596.47" y1="2328.06" x2="5615.03" y2="2332.76" style="stroke:#000000;stroke-width:25.92"/>
	<line x1="5654.14" y1="2342.91" x2="5662.80" y2="2345.14" style="stroke:#000000;stroke-width:25.92"/>
	<line x1="5662.80" y1="2345.14" x2="5698.69" y2="2354.29" style="stroke:#000000;stroke-width:25.92"/>
	<line x1="5737.79" y1="2364.19" x2="5782.34" y2="2375.58" style="stroke:#000000;stroke-width:25.92"/>
	<line x1="5821.45" y1="2385.48" x2="5862.28" y2="2395.63" style="stroke:#000000;stroke-width:25.92"/>
	<line x1="5862.28" y1="2395.63" x2="5866.24" y2="2396.62" style="stroke:#000000;stroke-width:25.92"/>
	<line x1="5905.35" y1="2406.27" x2="5928.86" y2="2412.21" style="stroke:#000000;stroke-width:25.92"/>
	<line x1="5928.86" y1="2412.21" x2="5949.90" y2="2417.41" style="stroke:#000000;stroke-width:25.92"/>
	<line x1="5989.25" y1="2426.81" x2="5995.44" y2="2428.55" style="stroke:#000000;stroke-width:25.92"/>
	<line x1="5995.44" y1="2428.55" x2="6034.05" y2="2437.95" style="stroke:#000000;stroke-width:25.92"/>
	<line x1="6073.15" y1="2447.36" x2="6117.70" y2="2457.75" style="stroke:#000000;stroke-width:25.92"/>
	<line x1="6157.06" y1="2467.16" x2="6194.93" y2="2476.31" style="stroke:#000000;stroke-width:25.92"/>
	<line x1="6194.93" y1="2476.31" x2="6201.85" y2="2478.05" style="stroke:#000000;stroke-width:25.92"/>
	<line x1="6240.96" y1="2487.21" x2="6261.26" y2="2492.16" style="stroke:#000000;stroke-width:25.92"/>
	<line x1="6261.26" y1="2492.16" x2="6286.01" y2="2497.85" style="stroke:#000000;stroke-width:25.92"/>
	<line x1="6325.36" y1="2506.76" x2="6327.83" y2="2507.50" style="stroke:#000000;stroke-width:25.92"/>
	<line x1="6327.83" y1="2507.50" x2="6370.15" y2="2517.15" style="stroke:#000000;stroke-width:25.92"/>
	<line x1="6409.51" y1="2526.31" x2="6454.31" y2="2536.71" style="stroke:#000000;stroke-width:25.92"/>
	<line x1="6493.66" y1="2545.62" x2="6527.32" y2="2553.29" style="stroke:#000000;stroke-width:25.92"/>
	<line x1="6527.32" y1="2553.29" x2="6538.70" y2="2555.76" style="stroke:#000000;stroke-width:25.92"/>
	<line x1="6578.06" y1="2564.68" x2="6593.90" y2="2568.14" style="stroke:#000000;stroke-width:25.92"/>
	<line x1="6593.90" y1="2568.14" x2="6622.85" y2="2574.58" style="stroke:#000000;stroke-width:25.92"/>
	<line x1="6662.45" y1="2583.24" x2="6707.50" y2="2593.14" style="stroke:#000000;stroke-width:25.92"/>
	<line x1="6746.85" y1="2601.80" x2="6791.65" y2="2611.70" style="stroke:#000000;stroke-width:25.92"/>
	<line x1="6831.25" y1="2620.12" x2="6859.96" y2="2626.30" style="stroke:#000000;stroke-width:25.92"/>
	<line x1="6859.96" y1="2626.30" x2="6876.29" y2="2629.77" style="stroke:#000000;stroke-width:25.92"/>
	<line x1="6915.65" y1="2638.18" x2="6926.29" y2="2640.41" style="stroke:#000000;stroke-width:25.92"/>
	<line x1="6926.29" y1="2640.41" x2="6960.94" y2="2647.59" style="stroke:#000000;stroke-width:25.92"/>
	<line x1="7000.29" y1="2656.01" x2="7045.34" y2="2665.41" style="stroke:#000000;stroke-width:25.92"/>
	<line x1="7084.94" y1="2673.58" x2="7125.77" y2="2682.24" style="stroke:#000000;stroke-width:25.92"/>
	<line x1="7125.77" y1="2682.24" x2="7129.98" y2="2682.98" style="stroke:#000000;stroke-width:25.92"/>
	<line x1="7169.33" y1="2691.15" x2="7192.35" y2="2695.85" style="stroke:#000000;stroke-width:25.92"/>
	<line x1="7192.35" y1="2695.85" x2="7214.63" y2="2700.31" style="stroke:#000000;stroke-width:25.92"/>
	<line x1="7253.98" y1="2708.48" x2="7258.93" y2="2709.47" style="stroke:#000000;stroke-width:25.92"/>
	<line x1="7258.93" y1="2709.47" x2="7299.02" y2="2717.63" style="stroke:#000000;stroke-width:25.92"/>
	<line x1="7338.62" y1="2725.56" x2="7383.67" y2="2734.47" style="stroke:#000000;stroke-width:25.92"/>
	<line x1="7423.27" y1="2742.39" x2="7458.41" y2="2749.32" style="stroke:#000000;stroke-width:25.92"/>
	<line x1="7458.41" y1="2749.32" x2="7468.56" y2="2751.30" style="stroke:#000000;stroke-width:25.92"/>
	<line x1="7508.16" y1="2759.22" x2="7524.74" y2="2762.43" style="stroke:#000000;stroke-width:25.92"/>
	<line x1="7524.74" y1="2762.43" x2="7553.20" y2="2767.88" style="stroke:#000000;stroke-width:25.92"/>
	<line x1="941.49" y1="328.44" x2="1008.07" y2="441.06" stroke-linecap="round" style="stroke:#000000;stroke-width:25.92"/>
	<line x1="1008.07" y1="441.06" x2="1074.40" y2="515.31" stroke-linecap="round" style="stroke:#000000;stroke-width:25.92"/>
	<line x1="1074.40" y1="515.31" x2="1140.97" y2="579.17" stroke-linecap="round" style="stroke:#000000;stroke-width:25.92"/>
	<line x1="1140.97" y1="579.17" x2="1207.55" y2="636.84" stroke-linecap="round" style="stroke:#000000;stroke-width:25.92"/>
	<line x1="1207.55" y1="636.84" x2="1273.88" y2="690.30" stroke-linecap="round" style="stroke:#000000;stroke-width:25.92"/>
	<line x1="1273.88" y1="690.30" x2="1340.46" y2="740.30" stroke-linecap="round" style="stroke:#000000;stroke-width:25.92"/>
	<line x1="1340.46" y1="740.30" x2="1407.04" y2="787.57" stroke-linecap="round" style="stroke:#000000;stroke-width:25.92"/>
	<line x1="1407.04" y1="787.57" x2="1473.37" y2="832.37" stroke-linecap="round" style="stroke:#000000;stroke-width:25.92"/>
	<line x1="1473.37" y1="832.37" x2="1539.94" y2="875.43" stroke-linecap="round" style="stroke:#000000;stroke-width:25.92"/>
	<line x1="1539.94" y1="875.43" x2="1606.52" y2="916.77" stroke-linecap="round" style="stroke:#000000;stroke-width:25.92"/>
	<line x1="1606.52" y1="916.77" x2="1672.85" y2="956.62" stroke-linecap="round" style="stroke:#000000;stroke-width:25.92"/>
	<line x1="1672.85" y1="956.62" x2="1739.43" y2="994.98" stroke-linecap="round" style="stroke:#000000;stroke-width:25.92"/>
	<line x1="1739.43" y1="994.98" x2="1806.01" y2="1032.11" stroke-linecap="round" style="stroke:#000000;stroke-width:25.92"/>
	<line x1="1806.01" y1="1032.11" x2="1872.59" y2="1068.49" stroke-linecap="round" style="stroke:#000000;stroke-width:25.92"/>
	<line x1="1872.59" y1="1068.49" x2="1938.92" y2="1103.64" stroke-linecap="round" style="stroke:#000000;stroke-width:25.92"/>
	<line x1="1938.92" y1="1103.64" x2="2005.49" y2="1138.29" stroke-linecap="round" style="stroke:#000000;stroke-width:25.92"/>
	<line x1="2005.49" y1="1138.29" x2="2072.07" y2="1172.20" stroke-linecap="round" style="stroke:#000000;stroke-width:25.92"/>
	<line x1="2072.07" y1="1172.20" x2="2138.40" y2="1205.36" stroke-linecap="round" style="stroke:#000000;stroke-width:25.92"/>
	<line x1="2138.40" y1="1205.36" x2="2204.98" y2="1237.79" stroke-linecap="round" style="stroke:#000000;stroke-width:25.92"/>
	<line x1="2204.98" y1="1237.79" x2="2271.55" y2="1269.96" stroke-linecap="round" style="stroke:#000000;stroke-width:25.92"/>
	<line x1="2271.55" y1="1269.96" x2="2337.89" y2="1301.40" stroke-linecap="round" style="stroke:#000000;stroke-width:25.92"/>
	<line x1="2337.89" y1="1301.40" x2="2404.46" y2="1332.58" stroke-linecap="round" style="stroke:#000000;stroke-width:25.92"/>
	<line x1="2404.46" y1="1332.58" x2="2471.04" y2="1363.27" stroke-linecap="round" style="stroke:#000000;stroke-width:25.92"/>
	<line x1="2471.04" y1="1363.27" x2="2537.37" y2="1393.72" stroke-linecap="round" style="stroke:#000000;stroke-width:25.92"/>
	<line x1="2537.37" y1="1393.72" x2="2603.95" y2="1423.66" stroke-linecap="round" style="stroke:#000000;stroke-width:25.92"/>
	<line x1="2603.95" y1="1423.66" x2="2670.53" y2="1453.37" stroke-linecap="round" style="stroke:#000000;stroke-width:25.92"/>
	<line x1="2670.53" y1="1453.37" x2="2736.86" y2="1482.57" stroke-linecap="round" style="stroke:#000000;stroke-width:25.92"/>
	<line x1="2736.86" y1="1482.57" x2="2803.43" y2="1511.78" stroke-linecap="round" style="stroke:#000000;stroke-width:25.92"/>
	<line x1="2803.43" y1="1511.78" x2="2870.01" y2="1540.49" stroke-linecap="round" style="stroke:#000000;stroke-width:25.92"/>
	<line x1="2870.01" y1="1540.49" x2="2936.34" y2="1568.95" stroke-linecap="round" style="stroke:#000000;stroke-width:25.92"/>
	<line x1="2936.34" y1="1568.95" x2="3002.92" y2="1597.17" stroke-linecap="round" style="stroke:#000000;stroke-width:25.92"/>
	<line x1="3002.92" y1="1597.17" x2="3069.49" y2="1625.14" stroke-linecap="round" style="stroke:#000000;stroke-width:25.92"/>
	<line x1="3069.49" y1="1625.14" x2="3135.82" y2="1652.86" stroke-linecap="round" style="stroke:#000000;stroke-width:25.92"/>
	<line x1="3135.82" y1="1652.86" x2="3202.40" y2="1680.08" stroke-linecap="round" style="stroke:#000000;stroke-width:25.92"/>
	<line x1="3202.40" y1="1680.08" x2="3268.98" y2="1707.31" stroke-linecap="round" style="stroke:#000000;stroke-width:25.92"/>
	<line x1="3268.98" y1="1707.31" x2="3335.31" y2="1734.04" stroke-linecap="round" style="stroke:#000000;stroke-width:25.92"/>
	<line x1="3335.31" y1="1734.04" x2="3401.89" y2="1760.52" stroke-linecap="round" style="stroke:#000000;stroke-width:25.92"/>
	<line x1="3401.89" y1="1760.52" x2="3468.47" y2="1786.76" stroke-linecap="round" style="stroke:#000000;stroke-width:25.92"/>
	<line x1="3468.47" y1="1786.76" x2="3535.04" y2="1812.75" stroke-linecap="round" style="stroke:#000000;stroke-width:25.92"/>
	<line x1="3535.04" y1="1812.75" x2="3601.37" y2="1838.49" stroke-linecap="round" style="stroke:#000000;stroke-width:25.92"/>
	<line x1="3601.37" y1="1838.49" x2="3667.95" y2="1863.98" stroke-linecap="round" style="stroke:#000000;stroke-width:25.92"/>
	<line x1="3667.95" y1="1863.98" x2="3734.53" y2="1888.98" stroke-linecap="round" style="stroke:#000000;stroke-width:25.92"/>
	<line x1="3734.53" y1="1888.98" x2="3800.86" y2="1913.98" stroke-linecap="round" style="stroke:#000000;stroke-width:25.92"/>
	<line x1="3800.86" y1="1913.98" x2="3867.43" y2="1938.48" stroke-linecap="round" style="stroke:#000000;stroke-width:25.92"/>
	<line x1="3867.43" y1="1938.48" x2="3934.01" y2="1962.74" stroke-linecap="round" style="stroke:#000000;stroke-width:25.92"/>
	<line x1="3934.01" y1="1962.74" x2="4000.34" y2="1986.74" stroke-linecap="round" style="stroke:#000000;stroke-width:25.92"/>
	<line x1="4000.34" y1="1986.74" x2="4066.92" y2="2010.51" stroke-linecap="round" style="stroke:#000000;stroke-width:25.92"/>
	<line x1="4066.92" y1="2010.51" x2="4133.50" y2="2034.02" stroke-linecap="round" style="stroke:#000000;stroke-width:25.92"/>
	<line x1="4133.50" y1="2034.02" x2="4199.83" y2="2057.28" stroke-linecap="round" style="stroke:#000000;stroke-width:25.92"/>
	<line x1="4199.83" y1="2057.28" x2="4266.40" y2="2080.30" stroke-linecap="round" style="stroke:#000000;stroke-width:25.92"/>
	<line x1="4266.40" y1="2080.30" x2="4332.98" y2="2102.83" stroke-linecap="round" style="stroke:#000000;stroke-width:25.92"/>
	<line x1="4332.98" y1="2102.83" x2="4399.31" y2="2125.35" stroke-linecap="round" style="stroke:#000000;stroke-width:25.92"/>
	<line x1="4399.31" y1="2125.35" x2="4465.89" y2="2147.62" stroke-linecap="round" style="stroke:#000000;stroke-width:25.92"/>
	<line x1="4465.89" y1="2147.62" x2="4532.47" y2="2169.41" stroke-linecap="round" style="stroke:#000000;stroke-width:25.92"/>
	<line x1="4532.47" y1="2169.41" x2="4598.80" y2="2191.19" stroke-linecap="round" style="stroke:#000000;stroke-width:25.92"/>
	<line x1="4598.80" y1="2191.19" x2="4665.38" y2="2212.47" stroke-linecap="round" style="stroke:#000000;stroke-width:25.92"/>
	<line x1="4665.38" y1="2212.47" x2="4731.95" y2="2233.76" stroke-linecap="round" style="stroke:#000000;stroke-width:25.92"/>
	<line x1="4731.95" y1="2233.76" x2="4798.28" y2="2254.80" stroke-linecap="round" style="stroke:#000000;stroke-width:25.92"/>
	<line x1="4798.28" y1="2254.80" x2="4864.86" y2="2275.34" stroke-linecap="round" style="stroke:#000000;stroke-width:25.92"/>
	<line x1="4864.86" y1="2275.34" x2="4931.44" y2="2295.88" stroke-linecap="round" style="stroke:#000000;stroke-width:25.92"/>
	<line x1="4931.44" y1="2295.88" x2="4997.77" y2="2315.93" stroke-linecap="round" style="stroke:#000000;stroke-width:25.92"/>
	<line x1="4997.77" y1="2315.93" x2="5064.35" y2="2335.98" stroke-linecap="round" style="stroke:#000000;stroke-width:25.92"/>
	<line x1="5064.35" y1="2335.98" x2="5130.92" y2="2355.78" stroke-linecap="round" style="stroke:#000000;stroke-width:25.92"/>
	<line x1="5130.92" y1="2355.78" x2="5197.50" y2="2375.33" stroke-linecap="round" style="stroke:#000000;stroke-width:25.92"/>
	<line x1="5197.50" y1="2375.33" x2="5263.83" y2="2394.64" stroke-linecap="round" style="stroke:#000000;stroke-width:25.92"/>
	<line x1="5263.83" y1="2394.64" x2="5330.41" y2="2413.70" stroke-linecap="round" style="stroke:#000000;stroke-width:25.92"/>
	<line x1="5330.41" y1="2413.70" x2="5396.98" y2="2432.51" stroke-linecap="round" style="stroke:#000000;stroke-width:25.92"/>
	<line x1="5396.98" y1="2432.51" x2="5463.31" y2="2451.07" stroke-linecap="round" style="stroke:#000000;stroke-width:25.92"/>
	<line x1="5463.31" y1="2451.07" x2="5529.89" y2="2469.63" stroke-linecap="round" style="stroke:#000000;stroke-width:25.92"/>
	<line x1="5529.89" y1="2469.63" x2="5596.47" y2="2487.95" stroke-linecap="round" style="stroke:#000000;stroke-width:25.92"/>
	<line x1="5596.47" y1="2487.95" x2="5662.80" y2="2506.02" stroke-linecap="round" style="stroke:#000000;stroke-width:25.92"/>
	<line x1="5662.80" y1="2506.02" x2="5729.38" y2="2523.84" stroke-linecap="round" style="stroke:#000000;stroke-width:25.92"/>
	<line x1="5729.38" y1="2523.84" x2="5795.95" y2="2541.41" stroke-linecap="round" style="stroke:#000000;stroke-width:25.92"/>
	<line x1="5795.95" y1="2541.41" x2="5862.28" y2="2558.98" stroke-linecap="round" style="stroke:#000000;stroke-width:25.92"/>
	<line x1="5862.28" y1="2558.98" x2="5928.86" y2="2576.06" stroke-linecap="round" style="stroke:#000000;stroke-width:25.92"/>
	<line x1="5928.86" y1="2576.06" x2="5995.44" y2="2593.14" stroke-linecap="round" style="stroke:#000000;stroke-width:25.92"/>
	<line x1="5995.44" y1="2593.14" x2="6061.77" y2="2610.22" stroke-linecap="round" style="stroke:#000000;stroke-width:25.92"/>
	<line x1="6061.77" y1="2610.22" x2="6128.35" y2="2626.80" stroke-linecap="round" style="stroke:#000000;stroke-width:25.92"/>
	<line x1="6128.35" y1="2626.80" x2="6194.93" y2="2643.38" stroke-linecap="round" style="stroke:#000000;stroke-width:25.92"/>
	<line x1="6194.93" y1="2643.38" x2="6261.26" y2="2659.72" stroke-linecap="round" style="stroke:#000000;stroke-width:25.92"/>
	<line x1="6261.26" y1="2659.72" x2="6327.83" y2="2675.81" stroke-linecap="round" style="stroke:#000000;stroke-width:25.92"/>
	<line x1="6327.83" y1="2675.81" x2="6394.41" y2="2691.89" stroke-linecap="round" style="stroke:#000000;stroke-width:25.92"/>
	<line x1="6394.41" y1="2691.89" x2="6460.74" y2="2707.73" stroke-linecap="round" style="stroke:#000000;stroke-width:25.92"/>
	<line x1="6460.74" y1="2707.73" x2="6527.32" y2="2723.58" stroke-linecap="round" style="stroke:#000000;stroke-width:25.92"/>
	<line x1="6527.32" y1="2723.58" x2="6593.90" y2="2738.92" stroke-linecap="round" style="stroke:#000000;stroke-width:25.92"/>
	<line x1="6593.90" y1="2738.92" x2="6660.23" y2="2754.27" stroke-linecap="round" style="stroke:#000000;stroke-width:25.92"/>
	<line x1="6660.23" y1="2754.27" x2="6726.80" y2="2769.61" stroke-linecap="round" style="stroke:#000000;stroke-width:25.92"/>
	<line x1="6726.80" y1="2769.61" x2="6793.38" y2="2784.46" stroke-linecap="round" style="stroke:#000000;stroke-width:25.92"/>
	<line x1="6793.38" y1="2784.46" x2="6859.96" y2="2799.56" stroke-linecap="round" style="stroke:#000000;stroke-width:25.92"/>
	<line x1="6859.96" y1="2799.56" x2="6926.29" y2="2814.16" stroke-linecap="round" style="stroke:#000000;stroke-width:25.92"/>
	<line x1="6926.29" y1="2814.16" x2="6992.86" y2="2828.77" stroke-linecap="round" style="stroke:#000000;stroke-width:25.92"/>
	<line x1="6992.86" y1="2828.77" x2="7059.44" y2="2843.12" stroke-linecap="round" style="stroke:#000000;stroke-width:25.92"/>
	<line x1="7059.44" y1="2843.12" x2="7125.77" y2="2857.48" stroke-linecap="round" style="stroke:#000000;stroke-width:25.92"/>
	<line x1="7125.77" y1="2857.48" x2="7192.35" y2="2871.58" stroke-linecap="round" style="stroke:#000000;stroke-width:25.92"/>
	<line x1="7192.35" y1="2871.58" x2="7258.93" y2="2885.69" stroke-linecap="round" style="stroke:#000000;stroke-width:25.92"/>
	<line x1="7258.93" y1="2885.69" x2="7325.26" y2="2899.55" stroke-linecap="round" style="stroke:#000000;stroke-width:25.92"/>
	<line x1="7325.26" y1="2899.55" x2="7391.84" y2="2913.17" stroke-linecap="round" style="stroke:#000000;stroke-width:25.92"/>
	<line x1="7391.84" y1="2913.17" x2="7458.41" y2="2926.78" stroke-linecap="round" style="stroke:#000000;stroke-width:25.92"/>
	<line x1="7458.41" y1="2926.78" x2="7524.74" y2="2940.39" stroke-linecap="round" style="stroke:#000000;stroke-width:25.92"/>
	<line x1="7524.74" y1="2940.39" x2="7591.32" y2="2953.51" stroke-linecap="round" style="stroke:#000000;stroke-width:25.92"/>
	<line x1="814.77" y1="4978.37" x2="814.77" y2="201.72" style="stroke:#000000;stroke-width:11.52"/>
	<line x1="814.77" y1="4851.65" x2="734.83" y2="4851.65" style="stroke:#000000;stroke-width:11.52"/>
	<text x="694.98" y="4921.70" style="font-family:'Helvetica';font-size:199.98px;fill:#000000" text-anchor="end">0</text>
	<line x1="814.77" y1="3947.01" x2="734.83" y2="3947.01" style="stroke:#000000;stroke-width:11.52"/>
	<text x="694.98" y="4017.06" style="font-family:'Helvetica';font-size:199.98px;fill:#000000" text-anchor="end">.2</text>
	<line x1="814.77" y1="3042.37" x2="734.83" y2="3042.37" style="stroke:#000000;stroke-width:11.52"/>
	<text x="694.98" y="3112.42" style="font-family:'Helvetica';font-size:199.98px;fill:#000000" text-anchor="end">.4</text>
	<line x1="814.77" y1="2137.72" x2="734.83" y2="2137.72" style="stroke:#000000;stroke-width:11.52"/>
	<text x="694.98" y="2207.78" style="font-family:'Helvetica';font-size:199.98px;fill:#000000" text-anchor="end">.6</text>
	<line x1="814.77" y1="1233.08" x2="734.83" y2="1233.08" style="stroke:#000000;stroke-width:11.52"/>
	<text x="694.98" y="1303.14" style="font-family:'Helvetica';font-size:199.98px;fill:#000000" text-anchor="end">.8</text>
	<line x1="814.77" y1="328.44" x2="734.83" y2="328.44" style="stroke:#000000;stroke-width:11.52"/>
	<text x="694.98" y="398.50" style="font-family:'Helvetica';font-size:199.98px;fill:#000000" text-anchor="end">1</text>
	<text x="381.42" y="2589.92" style="font-family:'Helvetica';font-size:199.98px;fill:#000000" transform="rotate(-90 381.42,2589.92)" text-anchor="middle">All-cause survival</text>
	<line x1="814.77" y1="4978.37" x2="7718.04" y2="4978.37" style="stroke:#000000;stroke-width:11.52"/>
	<line x1="941.49" y1="4978.37" x2="941.49" y2="5058.32" style="stroke:#000000;stroke-width:11.52"/>
	<text x="941.49" y="5238.28" style="font-family:'Helvetica';font-size:199.98px;fill:#000000" text-anchor="middle">0</text>
	<line x1="2271.55" y1="4978.37" x2="2271.55" y2="5058.32" style="stroke:#000000;stroke-width:11.52"/>
	<text x="2271.55" y="5238.28" style="font-family:'Helvetica';font-size:199.98px;fill:#000000" text-anchor="middle">2</text>
	<line x1="3601.62" y1="4978.37" x2="3601.62" y2="5058.32" style="stroke:#000000;stroke-width:11.52"/>
	<text x="3601.62" y="5238.28" style="font-family:'Helvetica';font-size:199.98px;fill:#000000" text-anchor="middle">4</text>
	<line x1="4931.44" y1="4978.37" x2="4931.44" y2="5058.32" style="stroke:#000000;stroke-width:11.52"/>
	<text x="4931.44" y="5238.28" style="font-family:'Helvetica';font-size:199.98px;fill:#000000" text-anchor="middle">6</text>
	<line x1="6261.50" y1="4978.37" x2="6261.50" y2="5058.32" style="stroke:#000000;stroke-width:11.52"/>
	<text x="6261.50" y="5238.28" style="font-family:'Helvetica';font-size:199.98px;fill:#000000" text-anchor="middle">8</text>
	<line x1="7591.32" y1="4978.37" x2="7591.32" y2="5058.32" style="stroke:#000000;stroke-width:11.52"/>
	<text x="7591.32" y="5238.28" style="font-family:'Helvetica';font-size:199.98px;fill:#000000" text-anchor="middle">10</text>
	<text x="4266.40" y="5458.31" style="font-family:'Helvetica';font-size:199.98px;fill:#000000" text-anchor="middle">Years since diagnosis</text>
	<rect x="884.07" y="4256.39" width="4173.84" height="652.93" style="fill:#FFFFFF"/>
	<rect x="889.83" y="4262.15" width="4162.32" height="641.41" style="fill:none;stroke:#000000;stroke-width:11.52"/>
	<line x1="970.45" y1="4443.01" x2="1016.48" y2="4443.01" style="stroke:#000000;stroke-width:25.92"/>
	<line x1="1056.83" y1="4443.01" x2="1102.86" y2="4443.01" style="stroke:#000000;stroke-width:25.92"/>
	<line x1="1143.20" y1="4443.01" x2="1189.24" y2="4443.01" style="stroke:#000000;stroke-width:25.92"/>
	<line x1="1229.58" y1="4443.01" x2="1275.62" y2="4443.01" style="stroke:#000000;stroke-width:25.92"/>
	<line x1="1315.96" y1="4443.01" x2="1362.24" y2="4443.01" style="stroke:#000000;stroke-width:25.92"/>
	<line x1="1402.34" y1="4443.01" x2="1448.62" y2="4443.01" style="stroke:#000000;stroke-width:25.92"/>
	<line x1="1488.96" y1="4443.01" x2="1534.99" y2="4443.01" style="stroke:#000000;stroke-width:25.92"/>
	<line x1="1575.34" y1="4443.01" x2="1621.37" y2="4443.01" style="stroke:#000000;stroke-width:25.92"/>
	<line x1="1661.71" y1="4443.01" x2="1707.75" y2="4443.01" style="stroke:#000000;stroke-width:25.92"/>
	<line x1="970.45" y1="4722.94" x2="1719.14" y2="4722.94" style="stroke:#000000;stroke-width:25.92"/>
	<text x="1839.17" y="4513.07" style="font-family:'Helvetica';font-size:199.98px;fill:#000000">Marginal survival (standardised)</text>
	<text x="1839.17" y="4793.00" style="font-family:'Helvetica';font-size:199.98px;fill:#000000">Marginal survival (unstandardised)</text>
</svg>
