<?xml version="1.0" encoding="UTF-8" standalone="no"?>
<!-- This is a Stata 16.1 generated SVG file (http://www.stata.com) -->

<svg version="1.1" width="11.00in" height="8.00in" viewBox="0 0 7920 5760" xmlns="http://www.w3.org/2000/svg" xmlns:xlink="http://www.w3.org/1999/xlink">
	<desc>Stata Graph - surv5_ci</desc>
	<rect x="0" y="0" width="7920" height="5760" style="fill:#F0F0F0;stroke:none"/>
	<rect x="0.00" y="0.00" width="7919.75" height="5760.00" style="fill:#F0F0F0"/>
	<rect x="5.76" y="5.76" width="7908.23" height="5748.48" style="fill:none;stroke:#F0F0F0;stroke-width:11.52"/>
	<rect x="814.77" y="201.72" width="6903.27" height="4776.65" style="fill:#FFFFFF"/>
	<rect x="820.53" y="207.48" width="6891.75" height="4765.13" style="fill:none;stroke:#FFFFFF;stroke-width:11.52"/>
	<line x1="814.77" y1="4851.65" x2="7718.04" y2="4851.65" style="stroke:#E8E8E8;stroke-width:17.28"/>
	<line x1="814.77" y1="3947.01" x2="7718.04" y2="3947.01" style="stroke:#E8E8E8;stroke-width:17.28"/>
	<line x1="814.77" y1="3042.37" x2="7718.04" y2="3042.37" style="stroke:#E8E8E8;stroke-width:17.28"/>
	<line x1="814.77" y1="2137.72" x2="7718.04" y2="2137.72" style="stroke:#E8E8E8;stroke-width:17.28"/>
	<line x1="814.77" y1="1233.08" x2="7718.04" y2="1233.08" style="stroke:#E8E8E8;stroke-width:17.28"/>
	<line x1="814.77" y1="328.44" x2="7718.04" y2="328.44" style="stroke:#E8E8E8;stroke-width:17.28"/>
	<defs>
		<path id="path_Acbpmodn" d="M941.49 2336.97 L941.49 2336.97 L1074.64 2199.11 L1207.55 2075.60 L1340.71 1968.68 L1473.62 1881.06 L1606.52 1814.23 L1739.68 1768.44 L1872.59 1742.21 L2005.49 1732.55 L2138.65 1735.52 L2271.55 1747.16 L2404.46 1764.48 L2537.62 1785.27 L2670.53 1807.80 L2803.68 1831.56 L2936.59 1856.80 L3069.49 1885.02 L3202.65 1919.67 L3335.56 1962.74 L3468.47 2015.46 L3601.62 2076.09 L3734.53 2138.96 L3867.43 2192.92 L4000.59 2225.84 L4133.50 2224.85 L4266.40 2181.04 L4399.56 2092.18 L4532.47 1964.96 L4665.62 1815.96 L4798.53 1669.19 L4931.44 1543.95 L5064.59 1443.22 L5197.50 1360.55 L5330.41 1290.51 L5463.56 1229.12 L5596.47 1173.68 L5729.38 1123.19 L5862.53 1076.91 L5995.44 1033.84 L6128.60 994.24 L6261.50 957.61 L6394.41 922.96 L6527.56 890.78 L6660.47 860.34 L6793.38 831.63 L6926.53 804.65 L7059.44 779.15 L7192.35 754.90 L7325.51 732.13 L7325.51 328.44 L7192.35 328.44 L7059.44 328.44 L6926.53 328.44 L6793.38 328.44 L6660.47 328.44 L6527.56 328.69 L6394.41 328.94 L6261.50 329.43 L6128.60 330.42 L5995.44 332.40 L5862.53 336.36 L5729.38 343.79 L5596.47 357.90 L5463.56 383.14 L5330.41 426.21 L5197.50 494.77 L5064.59 593.77 L4931.44 720.99 L4798.53 862.32 L4665.62 995.72 L4532.47 1104.87 L4399.56 1188.53 L4266.40 1250.41 L4133.50 1294.22 L4000.59 1321.94 L3867.43 1334.07 L3734.53 1330.11 L3601.62 1310.55 L3468.47 1276.64 L3335.56 1232.59 L3202.65 1185.07 L3069.49 1141.26 L2936.59 1106.85 L2803.68 1082.85 L2670.53 1068.74 L2537.62 1063.05 L2404.46 1065.03 L2271.55 1072.95 L2138.65 1084.83 L2005.49 1098.19 L1872.59 1109.82 L1739.68 1116.75 L1606.52 1116.75 L1473.62 1109.08 L1340.71 1094.23 L1207.55 1073.94 L1074.64 1049.68 L941.49 1022.70 L941.49 2336.97 Z" stroke-linejoin="round"/>
	</defs>
	<defs>
		<clipPath id="clipPath_zfYVGRWf">
			<use xlink:href="#path_Acbpmodn"/>
		</clipPath>
	</defs>
	<use xlink:href="#path_Acbpmodn" style="stroke:none;fill:#FF3333;fill-opacity:0.25"/>
	<use xlink:href="#path_Acbpmodn" style="fill:none;stroke:#FF0000;stroke-opacity:0.25;stroke-width:34.56" clip-path="url(#clipPath_zfYVGRWf)"/>
	<line x1="941.49" y1="1543.46" x2="986.53" y2="1534.05" style="stroke:#000000;stroke-width:25.92"/>
	<line x1="1026.13" y1="1525.89" x2="1071.18" y2="1516.48" style="stroke:#000000;stroke-width:25.92"/>
	<line x1="1110.53" y1="1508.56" x2="1155.83" y2="1499.40" style="stroke:#000000;stroke-width:25.92"/>
	<line x1="1195.42" y1="1491.73" x2="1207.55" y2="1489.25" style="stroke:#000000;stroke-width:25.92"/>
	<line x1="1207.55" y1="1489.25" x2="1240.72" y2="1483.07" style="stroke:#000000;stroke-width:25.92"/>
	<line x1="1280.32" y1="1475.39" x2="1325.36" y2="1466.98" style="stroke:#000000;stroke-width:25.92"/>
	<line x1="1365.21" y1="1459.80" x2="1410.50" y2="1451.88" style="stroke:#000000;stroke-width:25.92"/>
	<line x1="1450.35" y1="1444.95" x2="1473.37" y2="1440.99" style="stroke:#000000;stroke-width:25.92"/>
	<line x1="1473.37" y1="1440.99" x2="1495.89" y2="1437.52" style="stroke:#000000;stroke-width:25.92"/>
	<line x1="1535.74" y1="1431.34" x2="1581.28" y2="1424.16" style="stroke:#000000;stroke-width:25.92"/>
	<line x1="1621.13" y1="1418.22" x2="1666.66" y2="1412.03" style="stroke:#000000;stroke-width:25.92"/>
	<line x1="1706.76" y1="1406.59" x2="1739.43" y2="1402.13" style="stroke:#000000;stroke-width:25.92"/>
	<line x1="1739.43" y1="1402.13" x2="1752.30" y2="1400.65" style="stroke:#000000;stroke-width:25.92"/>
	<line x1="1792.39" y1="1396.19" x2="1838.18" y2="1390.99" style="stroke:#000000;stroke-width:25.92"/>
	<line x1="1878.28" y1="1386.54" x2="1924.31" y2="1382.58" style="stroke:#000000;stroke-width:25.92"/>
	<line x1="1964.41" y1="1379.11" x2="2005.49" y2="1375.65" style="stroke:#000000;stroke-width:25.92"/>
	<line x1="2005.49" y1="1375.65" x2="2010.44" y2="1375.40" style="stroke:#000000;stroke-width:25.92"/>
	<line x1="2050.78" y1="1372.93" x2="2096.57" y2="1370.45" style="stroke:#000000;stroke-width:25.92"/>
	<line x1="2136.91" y1="1368.22" x2="2138.40" y2="1368.22" style="stroke:#000000;stroke-width:25.92"/>
	<line x1="2138.40" y1="1368.22" x2="2182.95" y2="1366.99" style="stroke:#000000;stroke-width:25.92"/>
	<line x1="2223.29" y1="1366.00" x2="2269.33" y2="1364.76" style="stroke:#000000;stroke-width:25.92"/>
	<line x1="2309.67" y1="1365.01" x2="2355.70" y2="1365.50" style="stroke:#000000;stroke-width:25.92"/>
	<line x1="2396.05" y1="1366.00" x2="2404.46" y2="1366.24" style="stroke:#000000;stroke-width:25.92"/>
	<line x1="2404.46" y1="1366.24" x2="2442.08" y2="1368.22" style="stroke:#000000;stroke-width:25.92"/>
	<line x1="2482.43" y1="1370.20" x2="2528.21" y2="1372.43" style="stroke:#000000;stroke-width:25.92"/>
	<line x1="2568.55" y1="1375.90" x2="2614.34" y2="1380.10" style="stroke:#000000;stroke-width:25.92"/>
	<line x1="2654.44" y1="1383.82" x2="2670.53" y2="1385.30" style="stroke:#000000;stroke-width:25.92"/>
	<line x1="2670.53" y1="1385.30" x2="2700.22" y2="1389.51" style="stroke:#000000;stroke-width:25.92"/>
	<line x1="2740.32" y1="1395.20" x2="2785.86" y2="1401.64" style="stroke:#000000;stroke-width:25.92"/>
	<line x1="2825.46" y1="1408.32" x2="2870.75" y2="1417.23" style="stroke:#000000;stroke-width:25.92"/>
	<line x1="2910.35" y1="1424.90" x2="2936.34" y2="1430.10" style="stroke:#000000;stroke-width:25.92"/>
	<line x1="2936.34" y1="1430.10" x2="2955.15" y2="1435.05" style="stroke:#000000;stroke-width:25.92"/>
	<line x1="2994.26" y1="1444.95" x2="3039.05" y2="1456.34" style="stroke:#000000;stroke-width:25.92"/>
	<line x1="3077.91" y1="1466.73" x2="3121.72" y2="1480.84" style="stroke:#000000;stroke-width:25.92"/>
	<line x1="3160.08" y1="1492.97" x2="3202.40" y2="1506.58" style="stroke:#000000;stroke-width:25.92"/>
	<line x1="3202.40" y1="1506.58" x2="3204.14" y2="1507.07" style="stroke:#000000;stroke-width:25.92"/>
	<line x1="3242.00" y1="1520.94" x2="3285.32" y2="1536.53" style="stroke:#000000;stroke-width:25.92"/>
	<line x1="3323.18" y1="1550.14" x2="3335.31" y2="1554.60" style="stroke:#000000;stroke-width:25.92"/>
	<line x1="3335.31" y1="1554.60" x2="3366.25" y2="1566.23" style="stroke:#000000;stroke-width:25.92"/>
	<line x1="3404.11" y1="1580.34" x2="3447.18" y2="1596.42" style="stroke:#000000;stroke-width:25.92"/>
	<line x1="3485.05" y1="1610.04" x2="3528.61" y2="1625.38" style="stroke:#000000;stroke-width:25.92"/>
	<line x1="3566.72" y1="1638.50" x2="3601.37" y2="1650.63" style="stroke:#000000;stroke-width:25.92"/>
	<line x1="3601.37" y1="1650.63" x2="3610.53" y2="1653.10" style="stroke:#000000;stroke-width:25.92"/>
	<line x1="3649.14" y1="1664.49" x2="3693.44" y2="1677.11" style="stroke:#000000;stroke-width:25.92"/>
	<line x1="3732.05" y1="1688.25" x2="3734.53" y2="1688.99" style="stroke:#000000;stroke-width:25.92"/>
	<line x1="3734.53" y1="1688.99" x2="3777.34" y2="1696.91" style="stroke:#000000;stroke-width:25.92"/>
	<line x1="3817.19" y1="1704.34" x2="3862.49" y2="1712.51" style="stroke:#000000;stroke-width:25.92"/>
	<line x1="3902.58" y1="1714.73" x2="3948.61" y2="1716.71" style="stroke:#000000;stroke-width:25.92"/>
	<line x1="3988.96" y1="1718.20" x2="4000.34" y2="1718.69" style="stroke:#000000;stroke-width:25.92"/>
	<line x1="4000.34" y1="1718.69" x2="4034.74" y2="1713.99" style="stroke:#000000;stroke-width:25.92"/>
	<line x1="4074.59" y1="1708.30" x2="4120.13" y2="1701.86" style="stroke:#000000;stroke-width:25.92"/>
	<line x1="4158.74" y1="1691.22" x2="4202.30" y2="1675.87" style="stroke:#000000;stroke-width:25.92"/>
	<line x1="4240.42" y1="1662.51" x2="4266.40" y2="1653.35" style="stroke:#000000;stroke-width:25.92"/>
	<line x1="4266.40" y1="1653.35" x2="4282.49" y2="1643.95" style="stroke:#000000;stroke-width:25.92"/>
	<line x1="4317.39" y1="1623.90" x2="4357.24" y2="1600.88" style="stroke:#000000;stroke-width:25.92"/>
	<line x1="4392.14" y1="1580.58" x2="4399.31" y2="1576.62" style="stroke:#000000;stroke-width:25.92"/>
	<line x1="4399.31" y1="1576.62" x2="4428.77" y2="1553.11" style="stroke:#000000;stroke-width:25.92"/>
	<line x1="4460.20" y1="1527.87" x2="4496.33" y2="1498.91" style="stroke:#000000;stroke-width:25.92"/>
	<line x1="4527.77" y1="1473.66" x2="4532.47" y2="1469.95" style="stroke:#000000;stroke-width:25.92"/>
	<line x1="4532.47" y1="1469.95" x2="4560.68" y2="1441.73" style="stroke:#000000;stroke-width:25.92"/>
	<line x1="4589.15" y1="1413.02" x2="4621.81" y2="1380.60" style="stroke:#000000;stroke-width:25.92"/>
	<line x1="4650.28" y1="1352.13" x2="4665.38" y2="1337.04" style="stroke:#000000;stroke-width:25.92"/>
	<line x1="4665.38" y1="1337.04" x2="4681.71" y2="1318.47" style="stroke:#000000;stroke-width:25.92"/>
	<line x1="4708.44" y1="1288.03" x2="4738.88" y2="1253.38" style="stroke:#000000;stroke-width:25.92"/>
	<line x1="4765.36" y1="1223.18" x2="4795.81" y2="1188.53" style="stroke:#000000;stroke-width:25.92"/>
	<line x1="4822.29" y1="1157.84" x2="4852.24" y2="1122.94" style="stroke:#000000;stroke-width:25.92"/>
	<line x1="4878.47" y1="1092.25" x2="4908.42" y2="1057.35" style="stroke:#000000;stroke-width:25.92"/>
	<line x1="4934.65" y1="1026.66" x2="4965.59" y2="992.51" style="stroke:#000000;stroke-width:25.92"/>
	<line x1="4992.57" y1="962.56" x2="5023.26" y2="928.40" style="stroke:#000000;stroke-width:25.92"/>
	<line x1="5050.48" y1="898.21" x2="5064.35" y2="882.86" style="stroke:#000000;stroke-width:25.92"/>
	<line x1="5064.35" y1="882.86" x2="5082.41" y2="865.29" style="stroke:#000000;stroke-width:25.92"/>
	<line x1="5111.12" y1="837.07" x2="5144.29" y2="804.90" style="stroke:#000000;stroke-width:25.92"/>
	<line x1="5173.00" y1="776.68" x2="5197.50" y2="752.92" style="stroke:#000000;stroke-width:25.92"/>
	<line x1="5197.50" y1="752.92" x2="5206.90" y2="745.25" style="stroke:#000000;stroke-width:25.92"/>
	<line x1="5238.09" y1="719.75" x2="5273.73" y2="690.79" style="stroke:#000000;stroke-width:25.92"/>
	<line x1="5304.91" y1="665.05" x2="5330.41" y2="644.26" style="stroke:#000000;stroke-width:25.92"/>
	<line x1="5330.41" y1="644.26" x2="5341.55" y2="637.08" style="stroke:#000000;stroke-width:25.92"/>
	<line x1="5375.20" y1="615.06" x2="5413.81" y2="590.06" style="stroke:#000000;stroke-width:25.92"/>
	<line x1="5447.72" y1="568.03" x2="5463.31" y2="557.88" style="stroke:#000000;stroke-width:25.92"/>
	<line x1="5463.31" y1="557.88" x2="5488.06" y2="545.75" style="stroke:#000000;stroke-width:25.92"/>
	<line x1="5524.20" y1="527.69" x2="5565.53" y2="507.39" style="stroke:#000000;stroke-width:25.92"/>
	<line x1="5601.91" y1="490.07" x2="5645.23" y2="474.22" style="stroke:#000000;stroke-width:25.92"/>
	<line x1="5683.10" y1="460.36" x2="5726.16" y2="444.52" style="stroke:#000000;stroke-width:25.92"/>
	<line x1="5765.27" y1="433.88" x2="5809.81" y2="422.25" style="stroke:#000000;stroke-width:25.92"/>
	<line x1="5848.67" y1="411.85" x2="5862.28" y2="408.39" style="stroke:#000000;stroke-width:25.92"/>
	<line x1="5862.28" y1="408.39" x2="5893.72" y2="402.45" style="stroke:#000000;stroke-width:25.92"/>
	<line x1="5933.56" y1="395.02" x2="5978.86" y2="386.61" style="stroke:#000000;stroke-width:25.92"/>
	<line x1="6018.70" y1="380.67" x2="6064.24" y2="374.73" style="stroke:#000000;stroke-width:25.92"/>
	<line x1="6104.34" y1="369.78" x2="6128.35" y2="366.56" style="stroke:#000000;stroke-width:25.92"/>
	<line x1="6128.35" y1="366.56" x2="6150.13" y2="364.58" style="stroke:#000000;stroke-width:25.92"/>
	<line x1="6190.22" y1="361.11" x2="6236.26" y2="356.91" style="stroke:#000000;stroke-width:25.92"/>
	<line x1="6276.35" y1="353.69" x2="6322.39" y2="350.97" style="stroke:#000000;stroke-width:25.92"/>
	<line x1="6362.48" y1="348.49" x2="6394.41" y2="346.51" style="stroke:#000000;stroke-width:25.92"/>
	<line x1="6394.41" y1="346.51" x2="6408.52" y2="345.77" style="stroke:#000000;stroke-width:25.92"/>
	<line x1="6448.86" y1="344.28" x2="6494.90" y2="342.55" style="stroke:#000000;stroke-width:25.92"/>
	<line x1="6535.24" y1="340.82" x2="6581.27" y2="339.58" style="stroke:#000000;stroke-width:25.92"/>
	<line x1="6621.61" y1="338.34" x2="6660.23" y2="337.11" style="stroke:#000000;stroke-width:25.92"/>
	<line x1="6660.23" y1="337.11" x2="6667.65" y2="336.86" style="stroke:#000000;stroke-width:25.92"/>
	<line x1="6707.99" y1="336.12" x2="6754.03" y2="335.13" style="stroke:#000000;stroke-width:25.92"/>
	<line x1="6794.37" y1="334.38" x2="6840.40" y2="333.89" style="stroke:#000000;stroke-width:25.92"/>
	<line x1="6880.75" y1="333.39" x2="6926.29" y2="332.65" style="stroke:#000000;stroke-width:25.92"/>
	<line x1="6926.29" y1="332.65" x2="6926.78" y2="332.65" style="stroke:#000000;stroke-width:25.92"/>
	<line x1="6967.13" y1="332.16" x2="7013.16" y2="331.66" style="stroke:#000000;stroke-width:25.92"/>
	<line x1="7053.50" y1="331.41" x2="7059.44" y2="331.17" style="stroke:#000000;stroke-width:25.92"/>
	<line x1="7059.44" y1="331.17" x2="7099.54" y2="330.92" style="stroke:#000000;stroke-width:25.92"/>
	<line x1="7139.88" y1="330.67" x2="7185.91" y2="330.42" style="stroke:#000000;stroke-width:25.92"/>
	<line x1="7226.26" y1="330.18" x2="7272.29" y2="329.93" style="stroke:#000000;stroke-width:25.92"/>
	<line x1="7312.64" y1="329.68" x2="7325.26" y2="329.68" style="stroke:#000000;stroke-width:25.92"/>
	<path d="" stroke-linejoin="round" style="fill:none;stroke:#000000;stroke-width:25.92"/>
	<defs>
		<path id="path_OtvRxxbp" d="M941.49 2659.22 L941.49 2659.22 L1074.64 2607.25 L1207.55 2557.99 L1340.71 2512.45 L1473.62 2471.36 L1606.52 2435.72 L1739.68 2405.53 L1872.59 2381.02 L2005.49 2361.47 L2138.65 2345.38 L2271.55 2331.52 L2404.46 2318.40 L2537.62 2305.04 L2670.53 2290.68 L2803.68 2274.35 L2936.59 2256.28 L3069.49 2236.73 L3202.65 2215.94 L3335.56 2195.89 L3468.47 2178.07 L3601.62 2163.71 L3734.53 2152.82 L3867.43 2144.41 L4000.59 2137.48 L4133.50 2129.80 L4266.40 2119.41 L4399.56 2105.30 L4532.47 2086.49 L4665.62 2062.73 L4798.53 2036.00 L4931.44 2010.51 L5064.59 1990.70 L5197.50 1980.31 L5330.41 1980.31 L5463.56 1989.96 L5596.47 2007.29 L5729.38 2030.31 L5862.53 2057.53 L5995.44 2087.98 L6128.60 2120.15 L6261.50 2153.81 L6394.41 2188.71 L6527.56 2224.35 L6660.47 2260.98 L6793.38 2298.36 L6926.53 2336.23 L7059.44 2374.84 L7192.35 2414.19 L7325.51 2454.04 L7325.51 782.87 L7192.35 817.77 L7059.44 855.14 L6926.53 894.99 L6793.38 937.56 L6660.47 983.10 L6527.56 1031.36 L6394.41 1082.60 L6261.50 1137.05 L6128.60 1194.47 L5995.44 1254.86 L5862.53 1317.73 L5729.38 1382.08 L5596.47 1446.68 L5463.56 1508.81 L5330.41 1566.48 L5197.50 1616.72 L5064.59 1657.31 L4931.44 1688.50 L4798.53 1712.26 L4665.62 1732.06 L4532.47 1751.61 L4399.56 1771.91 L4266.40 1793.69 L4133.50 1816.71 L4000.59 1839.48 L3867.43 1861.51 L3734.53 1881.06 L3601.62 1897.15 L3468.47 1909.27 L3335.56 1918.43 L3202.65 1925.61 L3069.49 1933.04 L2936.59 1942.19 L2803.68 1953.83 L2670.53 1967.93 L2537.62 1984.52 L2404.46 2003.08 L2271.55 2022.63 L2138.65 2042.43 L2005.49 2060.75 L1872.59 2076.59 L1739.68 2088.72 L1606.52 2096.39 L1473.62 2099.36 L1340.71 2098.12 L1207.55 2093.42 L1074.64 2086.24 L941.49 2076.84 L941.49 2659.22 Z" stroke-linejoin="round"/>
	</defs>
	<defs>
		<clipPath id="clipPath_cKmwfPuL">
			<use xlink:href="#path_OtvRxxbp"/>
		</clipPath>
	</defs>
	<use xlink:href="#path_OtvRxxbp" style="stroke:none;fill:#3333FF;fill-opacity:0.25"/>
	<use xlink:href="#path_OtvRxxbp" style="fill:none;stroke:#0000FF;stroke-opacity:0.25;stroke-width:34.56" clip-path="url(#clipPath_cKmwfPuL)"/>
	<line x1="941.49" y1="2356.77" x2="1074.40" y2="2337.46" style="stroke:#000000;stroke-width:25.92"/>
	<line x1="1074.40" y1="2337.46" x2="1169.44" y2="2323.60" style="stroke:#000000;stroke-width:25.92"/>
	<line x1="1226.61" y1="2315.43" x2="1232.30" y2="2314.69" style="stroke:#000000;stroke-width:25.92"/>
	<line x1="1289.23" y1="2306.52" x2="1340.46" y2="2299.10" style="stroke:#000000;stroke-width:25.92"/>
	<line x1="1340.46" y1="2299.10" x2="1473.37" y2="2280.29" style="stroke:#000000;stroke-width:25.92"/>
	<line x1="1473.37" y1="2280.29" x2="1517.42" y2="2274.10" style="stroke:#000000;stroke-width:25.92"/>
	<line x1="1574.60" y1="2266.18" x2="1580.04" y2="2265.44" style="stroke:#000000;stroke-width:25.92"/>
	<line x1="1637.21" y1="2257.52" x2="1739.43" y2="2243.41" style="stroke:#000000;stroke-width:25.92"/>
	<line x1="1739.43" y1="2243.41" x2="1865.65" y2="2226.33" style="stroke:#000000;stroke-width:25.92"/>
	<line x1="1922.58" y1="2218.66" x2="1928.27" y2="2217.92" style="stroke:#000000;stroke-width:25.92"/>
	<line x1="1985.44" y1="2210.24" x2="2005.49" y2="2207.52" style="stroke:#000000;stroke-width:25.92"/>
	<line x1="2005.49" y1="2207.52" x2="2138.40" y2="2190.20" style="stroke:#000000;stroke-width:25.92"/>
	<line x1="2138.40" y1="2190.20" x2="2214.14" y2="2180.30" style="stroke:#000000;stroke-width:25.92"/>
	<line x1="2271.31" y1="2173.12" x2="2271.55" y2="2173.12" style="stroke:#000000;stroke-width:25.92"/>
	<line x1="2271.55" y1="2173.12" x2="2277.00" y2="2172.38" style="stroke:#000000;stroke-width:25.92"/>
	<line x1="2334.17" y1="2165.20" x2="2404.46" y2="2156.53" style="stroke:#000000;stroke-width:25.92"/>
	<line x1="2404.46" y1="2156.53" x2="2537.37" y2="2140.45" style="stroke:#000000;stroke-width:25.92"/>
	<line x1="2537.37" y1="2140.45" x2="2562.86" y2="2137.48" style="stroke:#000000;stroke-width:25.92"/>
	<line x1="2620.28" y1="2130.79" x2="2625.97" y2="2130.05" style="stroke:#000000;stroke-width:25.92"/>
	<line x1="2683.15" y1="2123.37" x2="2803.43" y2="2109.51" style="stroke:#000000;stroke-width:25.92"/>
	<line x1="2803.43" y1="2109.51" x2="2911.84" y2="2097.63" style="stroke:#000000;stroke-width:25.92"/>
	<line x1="2969.26" y1="2091.44" x2="2974.95" y2="2090.70" style="stroke:#000000;stroke-width:25.92"/>
	<line x1="3032.37" y1="2084.51" x2="3069.49" y2="2080.55" style="stroke:#000000;stroke-width:25.92"/>
	<line x1="3069.49" y1="2080.55" x2="3202.40" y2="2066.94" style="stroke:#000000;stroke-width:25.92"/>
	<line x1="3202.40" y1="2066.94" x2="3261.31" y2="2061.00" style="stroke:#000000;stroke-width:25.92"/>
	<line x1="3318.73" y1="2055.30" x2="3324.42" y2="2054.56" style="stroke:#000000;stroke-width:25.92"/>
	<line x1="3381.84" y1="2048.87" x2="3468.47" y2="2040.45" style="stroke:#000000;stroke-width:25.92"/>
	<line x1="3468.47" y1="2040.45" x2="3601.37" y2="2027.09" style="stroke:#000000;stroke-width:25.92"/>
	<line x1="3601.37" y1="2027.09" x2="3611.27" y2="2026.10" style="stroke:#000000;stroke-width:25.92"/>
	<line x1="3668.45" y1="2020.16" x2="3674.39" y2="2019.66" style="stroke:#000000;stroke-width:25.92"/>
	<line x1="3731.56" y1="2013.72" x2="3734.53" y2="2013.23" style="stroke:#000000;stroke-width:25.92"/>
	<line x1="3734.53" y1="2013.23" x2="3867.43" y2="1999.12" style="stroke:#000000;stroke-width:25.92"/>
	<line x1="3867.43" y1="1999.12" x2="3960.49" y2="1988.48" style="stroke:#000000;stroke-width:25.92"/>
	<line x1="4017.91" y1="1982.04" x2="4023.61" y2="1981.30" style="stroke:#000000;stroke-width:25.92"/>
	<line x1="4080.78" y1="1974.37" x2="4133.50" y2="1968.18" style="stroke:#000000;stroke-width:25.92"/>
	<line x1="4133.50" y1="1968.18" x2="4266.40" y2="1951.10" style="stroke:#000000;stroke-width:25.92"/>
	<line x1="4266.40" y1="1951.10" x2="4309.47" y2="1945.16" style="stroke:#000000;stroke-width:25.92"/>
	<line x1="4366.64" y1="1937.24" x2="4372.09" y2="1936.50" style="stroke:#000000;stroke-width:25.92"/>
	<line x1="4429.26" y1="1928.33" x2="4532.47" y2="1912.74" style="stroke:#000000;stroke-width:25.92"/>
	<line x1="4532.47" y1="1912.74" x2="4656.96" y2="1892.69" style="stroke:#000000;stroke-width:25.92"/>
	<line x1="4713.64" y1="1882.79" x2="4719.33" y2="1881.80" style="stroke:#000000;stroke-width:25.92"/>
	<line x1="4776.01" y1="1872.15" x2="4798.28" y2="1868.19" style="stroke:#000000;stroke-width:25.92"/>
	<line x1="4798.28" y1="1868.19" x2="4931.44" y2="1843.19" style="stroke:#000000;stroke-width:25.92"/>
	<line x1="4931.44" y1="1843.19" x2="5002.47" y2="1829.33" style="stroke:#000000;stroke-width:25.92"/>
	<line x1="5058.90" y1="1818.19" x2="5064.35" y2="1817.20" style="stroke:#000000;stroke-width:25.92"/>
	<line x1="5064.35" y1="1817.20" x2="5064.59" y2="1817.20" style="stroke:#000000;stroke-width:25.92"/>
	<line x1="5121.02" y1="1805.82" x2="5197.50" y2="1790.22" style="stroke:#000000;stroke-width:25.92"/>
	<line x1="5197.50" y1="1790.22" x2="5330.41" y2="1762.26" style="stroke:#000000;stroke-width:25.92"/>
	<line x1="5330.41" y1="1762.26" x2="5346.49" y2="1758.79" style="stroke:#000000;stroke-width:25.92"/>
	<line x1="5402.93" y1="1746.91" x2="5408.62" y2="1745.67" style="stroke:#000000;stroke-width:25.92"/>
	<line x1="5465.05" y1="1733.79" x2="5596.47" y2="1705.33" style="stroke:#000000;stroke-width:25.92"/>
	<line x1="5596.47" y1="1705.33" x2="5690.27" y2="1684.79" style="stroke:#000000;stroke-width:25.92"/>
	<line x1="5746.45" y1="1672.66" x2="5752.15" y2="1671.42" style="stroke:#000000;stroke-width:25.92"/>
	<line x1="5808.58" y1="1659.29" x2="5862.28" y2="1647.91" style="stroke:#000000;stroke-width:25.92"/>
	<line x1="5862.28" y1="1647.91" x2="5995.44" y2="1619.44" style="stroke:#000000;stroke-width:25.92"/>
	<line x1="5995.44" y1="1619.44" x2="6033.80" y2="1611.28" style="stroke:#000000;stroke-width:25.92"/>
	<line x1="6090.23" y1="1599.64" x2="6095.93" y2="1598.40" style="stroke:#000000;stroke-width:25.92"/>
	<line x1="6152.35" y1="1586.52" x2="6261.26" y2="1564.00" style="stroke:#000000;stroke-width:25.92"/>
	<line x1="6261.26" y1="1564.00" x2="6378.07" y2="1540.24" style="stroke:#000000;stroke-width:25.92"/>
	<line x1="6434.51" y1="1529.10" x2="6439.95" y2="1527.87" style="stroke:#000000;stroke-width:25.92"/>
	<line x1="6496.63" y1="1516.48" x2="6527.32" y2="1510.54" style="stroke:#000000;stroke-width:25.92"/>
	<line x1="6527.32" y1="1510.54" x2="6660.23" y2="1484.55" style="stroke:#000000;stroke-width:25.92"/>
	<line x1="6660.23" y1="1484.55" x2="6722.84" y2="1472.67" style="stroke:#000000;stroke-width:25.92"/>
	<line x1="6779.27" y1="1461.78" x2="6784.97" y2="1460.54" style="stroke:#000000;stroke-width:25.92"/>
	<line x1="6841.64" y1="1450.15" x2="6926.29" y2="1434.06" style="stroke:#000000;stroke-width:25.92"/>
	<line x1="6926.29" y1="1434.06" x2="7059.44" y2="1409.56" style="stroke:#000000;stroke-width:25.92"/>
	<line x1="7059.44" y1="1409.56" x2="7068.10" y2="1408.07" style="stroke:#000000;stroke-width:25.92"/>
	<line x1="7124.78" y1="1397.68" x2="7130.48" y2="1396.69" style="stroke:#000000;stroke-width:25.92"/>
	<line x1="7187.15" y1="1386.29" x2="7192.35" y2="1385.30" style="stroke:#000000;stroke-width:25.92"/>
	<line x1="7192.35" y1="1385.30" x2="7325.26" y2="1361.54" style="stroke:#000000;stroke-width:25.92"/>
	<path d="" stroke-linejoin="round" style="fill:none;stroke:#000000;stroke-width:25.92"/>
	<line x1="814.77" y1="4978.37" x2="814.77" y2="201.72" style="stroke:#000000;stroke-width:11.52"/>
	<line x1="814.77" y1="4851.65" x2="734.83" y2="4851.65" style="stroke:#000000;stroke-width:11.52"/>
	<text x="694.98" y="4921.70" style="font-family:'Helvetica';font-size:199.98px;fill:#000000" text-anchor="end">0</text>
	<line x1="814.77" y1="3947.01" x2="734.83" y2="3947.01" style="stroke:#000000;stroke-width:11.52"/>
	<text x="694.98" y="4017.06" style="font-family:'Helvetica';font-size:199.98px;fill:#000000" text-anchor="end">.2</text>
	<line x1="814.77" y1="3042.37" x2="734.83" y2="3042.37" style="stroke:#000000;stroke-width:11.52"/>
	<text x="694.98" y="3112.42" style="font-family:'Helvetica';font-size:199.98px;fill:#000000" text-anchor="end">.4</text>
	<line x1="814.77" y1="2137.72" x2="734.83" y2="2137.72" style="stroke:#000000;stroke-width:11.52"/>
	<text x="694.98" y="2207.78" style="font-family:'Helvetica';font-size:199.98px;fill:#000000" text-anchor="end">.6</text>
	<line x1="814.77" y1="1233.08" x2="734.83" y2="1233.08" style="stroke:#000000;stroke-width:11.52"/>
	<text x="694.98" y="1303.14" style="font-family:'Helvetica';font-size:199.98px;fill:#000000" text-anchor="end">.8</text>
	<line x1="814.77" y1="328.44" x2="734.83" y2="328.44" style="stroke:#000000;stroke-width:11.52"/>
	<text x="694.98" y="398.50" style="font-family:'Helvetica';font-size:199.98px;fill:#000000" text-anchor="end">1</text>
	<text x="381.42" y="2589.92" style="font-family:'Helvetica';font-size:199.98px;fill:#000000" transform="rotate(-90 381.42,2589.92)" text-anchor="middle">5-year survival proportion</text>
	<line x1="814.77" y1="4978.37" x2="7718.04" y2="4978.37" style="stroke:#000000;stroke-width:11.52"/>
	<line x1="941.49" y1="4978.37" x2="941.49" y2="5058.32" style="stroke:#000000;stroke-width:11.52"/>
	<text x="941.49" y="5238.28" style="font-family:'Helvetica';font-size:199.98px;fill:#000000" text-anchor="middle">1975</text>
	<line x1="2271.55" y1="4978.37" x2="2271.55" y2="5058.32" style="stroke:#000000;stroke-width:11.52"/>
	<text x="2271.55" y="5238.28" style="font-family:'Helvetica';font-size:199.98px;fill:#000000" text-anchor="middle">1980</text>
	<line x1="3601.62" y1="4978.37" x2="3601.62" y2="5058.32" style="stroke:#000000;stroke-width:11.52"/>
	<text x="3601.62" y="5238.28" style="font-family:'Helvetica';font-size:199.98px;fill:#000000" text-anchor="middle">1985</text>
	<line x1="4931.44" y1="4978.37" x2="4931.44" y2="5058.32" style="stroke:#000000;stroke-width:11.52"/>
	<text x="4931.44" y="5238.28" style="font-family:'Helvetica';font-size:199.98px;fill:#000000" text-anchor="middle">1990</text>
	<line x1="6261.50" y1="4978.37" x2="6261.50" y2="5058.32" style="stroke:#000000;stroke-width:11.52"/>
	<text x="6261.50" y="5238.28" style="font-family:'Helvetica';font-size:199.98px;fill:#000000" text-anchor="middle">1995</text>
	<line x1="7591.32" y1="4978.37" x2="7591.32" y2="5058.32" style="stroke:#000000;stroke-width:11.52"/>
	<text x="7591.32" y="5238.28" style="font-family:'Helvetica';font-size:199.98px;fill:#000000" text-anchor="middle">2000</text>
	<text x="4266.40" y="5458.31" style="font-family:'Helvetica';font-size:199.98px;fill:#000000" text-anchor="middle">Year of diagnosis</text>
	<rect x="2561.87" y="4256.39" width="3409.31" height="652.93" style="fill:#FFFFFF"/>
	<rect x="2567.63" y="4262.15" width="3397.79" height="641.41" style="fill:none;stroke:#000000;stroke-width:11.52"/>
	<rect x="2648.25" y="4343.02" width="748.69" height="199.99" style="fill:#FF3333;fill-opacity:0.25"/>
	<rect x="2656.89" y="4351.66" width="731.41" height="182.71" style="fill:none;stroke:#FF0000;stroke-opacity:0.25;stroke-width:17.28"/>
	<line x1="4479.50" y1="4443.01" x2="4525.54" y2="4443.01" style="stroke:#000000;stroke-width:25.92"/>
	<line x1="4565.88" y1="4443.01" x2="4611.91" y2="4443.01" style="stroke:#000000;stroke-width:25.92"/>
	<line x1="4652.26" y1="4443.01" x2="4698.29" y2="4443.01" style="stroke:#000000;stroke-width:25.92"/>
	<line x1="4738.64" y1="4443.01" x2="4784.67" y2="4443.01" style="stroke:#000000;stroke-width:25.92"/>
	<line x1="4825.01" y1="4443.01" x2="4871.05" y2="4443.01" style="stroke:#000000;stroke-width:25.92"/>
	<line x1="4911.39" y1="4443.01" x2="4957.67" y2="4443.01" style="stroke:#000000;stroke-width:25.92"/>
	<line x1="4997.77" y1="4443.01" x2="5044.05" y2="4443.01" style="stroke:#000000;stroke-width:25.92"/>
	<line x1="5084.39" y1="4443.01" x2="5130.43" y2="4443.01" style="stroke:#000000;stroke-width:25.92"/>
	<line x1="5170.77" y1="4443.01" x2="5216.81" y2="4443.01" style="stroke:#000000;stroke-width:25.92"/>
	<rect x="2648.25" y="4622.95" width="748.69" height="199.99" style="fill:#3333FF;fill-opacity:0.25"/>
	<rect x="2656.89" y="4631.59" width="731.41" height="182.71" style="fill:none;stroke:#0000FF;stroke-opacity:0.25;stroke-width:17.28"/>
	<line x1="4479.50" y1="4722.94" x2="4709.93" y2="4722.94" style="stroke:#000000;stroke-width:25.92"/>
	<line x1="4767.59" y1="4722.94" x2="4773.28" y2="4722.94" style="stroke:#000000;stroke-width:25.92"/>
	<line x1="4830.95" y1="4722.94" x2="5061.38" y2="4722.94" style="stroke:#000000;stroke-width:25.92"/>
	<line x1="5119.04" y1="4722.94" x2="5124.73" y2="4722.94" style="stroke:#000000;stroke-width:25.92"/>
	<line x1="5182.40" y1="4722.94" x2="5228.19" y2="4722.94" style="stroke:#000000;stroke-width:25.92"/>
	<text x="3516.97" y="4513.07" style="font-family:'Helvetica';font-size:199.98px;fill:#000000">95% CI</text>
	<text x="5348.23" y="4513.07" style="font-family:'Helvetica';font-size:199.98px;fill:#000000">18-44</text>
	<text x="3516.97" y="4793.00" style="font-family:'Helvetica';font-size:199.98px;fill:#000000">95% CI</text>
	<text x="5348.23" y="4793.00" style="font-family:'Helvetica';font-size:199.98px;fill:#000000">65-74</text>
</svg>
