<?xml version="1.0" encoding="UTF-8" standalone="no"?>
<!-- This is a Stata 15.1 generated SVG file (http://www.stata.com) -->

<svg version="1.1" width="11.00in" height="8.00in" viewBox="0 0 7920 5760" xmlns="http://www.w3.org/2000/svg" xmlns:xlink="http://www.w3.org/1999/xlink">
	<desc>Stata Graph - sexdiff2</desc>
	<rect x="0" y="0" width="7920" height="5760" style="fill:#F0F0F0;stroke:none"/>
	<rect x="0.00" y="0.00" width="7919.75" height="5760.00" style="fill:#F0F0F0"/>
	<rect x="5.76" y="5.76" width="7908.23" height="5748.48" style="fill:none;stroke:#F0F0F0;stroke-width:11.52"/>
	<rect x="781.61" y="201.72" width="6936.43" height="4776.65" style="fill:#FFFFFF"/>
	<rect x="787.36" y="207.48" width="6924.92" height="4765.13" style="fill:none;stroke:#FFFFFF;stroke-width:11.52"/>
	<line x1="781.61" y1="4851.65" x2="7718.04" y2="4851.65" style="stroke:#E8E8E8;stroke-width:17.28"/>
	<line x1="781.61" y1="3720.78" x2="7718.04" y2="3720.78" style="stroke:#E8E8E8;stroke-width:17.28"/>
	<line x1="781.61" y1="2589.92" x2="7718.04" y2="2589.92" style="stroke:#E8E8E8;stroke-width:17.28"/>
	<line x1="781.61" y1="1459.06" x2="7718.04" y2="1459.06" style="stroke:#E8E8E8;stroke-width:17.28"/>
	<line x1="781.61" y1="328.44" x2="7718.04" y2="328.44" style="stroke:#E8E8E8;stroke-width:17.28"/>
	<line x1="908.08" y1="328.44" x2="974.90" y2="381.90" stroke-linecap="round" style="stroke:#FF0000;stroke-width:25.92"/>
	<line x1="974.90" y1="381.90" x2="1041.73" y2="439.57" stroke-linecap="round" style="stroke:#FF0000;stroke-width:25.92"/>
	<line x1="1041.73" y1="439.57" x2="1108.55" y2="501.20" stroke-linecap="round" style="stroke:#FF0000;stroke-width:25.92"/>
	<line x1="1108.55" y1="501.20" x2="1175.38" y2="565.80" stroke-linecap="round" style="stroke:#FF0000;stroke-width:25.92"/>
	<line x1="1175.38" y1="565.80" x2="1242.20" y2="633.12" stroke-linecap="round" style="stroke:#FF0000;stroke-width:25.92"/>
	<line x1="1242.20" y1="633.12" x2="1309.03" y2="702.18" stroke-linecap="round" style="stroke:#FF0000;stroke-width:25.92"/>
	<line x1="1309.03" y1="702.18" x2="1375.85" y2="772.72" stroke-linecap="round" style="stroke:#FF0000;stroke-width:25.92"/>
	<line x1="1375.85" y1="772.72" x2="1442.92" y2="844.74" stroke-linecap="round" style="stroke:#FF0000;stroke-width:25.92"/>
	<line x1="1442.92" y1="844.74" x2="1509.75" y2="917.51" stroke-linecap="round" style="stroke:#FF0000;stroke-width:25.92"/>
	<line x1="1509.75" y1="917.51" x2="1576.58" y2="990.77" stroke-linecap="round" style="stroke:#FF0000;stroke-width:25.92"/>
	<line x1="1576.58" y1="990.77" x2="1643.40" y2="1064.04" stroke-linecap="round" style="stroke:#FF0000;stroke-width:25.92"/>
	<line x1="1643.40" y1="1064.04" x2="1710.22" y2="1137.05" stroke-linecap="round" style="stroke:#FF0000;stroke-width:25.92"/>
	<line x1="1710.22" y1="1137.05" x2="1777.05" y2="1209.32" stroke-linecap="round" style="stroke:#FF0000;stroke-width:25.92"/>
	<line x1="1777.05" y1="1209.32" x2="1843.88" y2="1280.61" stroke-linecap="round" style="stroke:#FF0000;stroke-width:25.92"/>
	<line x1="1843.88" y1="1280.61" x2="1910.70" y2="1350.90" stroke-linecap="round" style="stroke:#FF0000;stroke-width:25.92"/>
	<line x1="1910.70" y1="1350.90" x2="1977.53" y2="1419.95" stroke-linecap="round" style="stroke:#FF0000;stroke-width:25.92"/>
	<line x1="1977.53" y1="1419.95" x2="2044.35" y2="1487.52" stroke-linecap="round" style="stroke:#FF0000;stroke-width:25.92"/>
	<line x1="2044.35" y1="1487.52" x2="2111.18" y2="1553.61" stroke-linecap="round" style="stroke:#FF0000;stroke-width:25.92"/>
	<line x1="2111.18" y1="1553.61" x2="2178.00" y2="1618.21" stroke-linecap="round" style="stroke:#FF0000;stroke-width:25.92"/>
	<line x1="2178.00" y1="1618.21" x2="2244.82" y2="1680.83" stroke-linecap="round" style="stroke:#FF0000;stroke-width:25.92"/>
	<line x1="2244.82" y1="1680.83" x2="2311.65" y2="1741.46" stroke-linecap="round" style="stroke:#FF0000;stroke-width:25.92"/>
	<line x1="2311.65" y1="1741.46" x2="2378.47" y2="1800.37" stroke-linecap="round" style="stroke:#FF0000;stroke-width:25.92"/>
	<line x1="2378.47" y1="1800.37" x2="2445.30" y2="1857.05" stroke-linecap="round" style="stroke:#FF0000;stroke-width:25.92"/>
	<line x1="2445.30" y1="1857.05" x2="2512.13" y2="1911.75" stroke-linecap="round" style="stroke:#FF0000;stroke-width:25.92"/>
	<line x1="2512.13" y1="1911.75" x2="2578.95" y2="1964.47" stroke-linecap="round" style="stroke:#FF0000;stroke-width:25.92"/>
	<line x1="2578.95" y1="1964.47" x2="2645.78" y2="2015.21" stroke-linecap="round" style="stroke:#FF0000;stroke-width:25.92"/>
	<line x1="2645.78" y1="2015.21" x2="2712.60" y2="2063.97" stroke-linecap="round" style="stroke:#FF0000;stroke-width:25.92"/>
	<line x1="2712.60" y1="2063.97" x2="2779.43" y2="2110.99" stroke-linecap="round" style="stroke:#FF0000;stroke-width:25.92"/>
	<line x1="2779.43" y1="2110.99" x2="2846.25" y2="2156.04" stroke-linecap="round" style="stroke:#FF0000;stroke-width:25.92"/>
	<line x1="2846.25" y1="2156.04" x2="2913.07" y2="2199.35" stroke-linecap="round" style="stroke:#FF0000;stroke-width:25.92"/>
	<line x1="2913.07" y1="2199.35" x2="2979.90" y2="2241.18" stroke-linecap="round" style="stroke:#FF0000;stroke-width:25.92"/>
	<line x1="2979.90" y1="2241.18" x2="3046.72" y2="2281.53" stroke-linecap="round" style="stroke:#FF0000;stroke-width:25.92"/>
	<line x1="3046.72" y1="2281.53" x2="3113.55" y2="2320.39" stroke-linecap="round" style="stroke:#FF0000;stroke-width:25.92"/>
	<line x1="3113.55" y1="2320.39" x2="3180.38" y2="2357.76" stroke-linecap="round" style="stroke:#FF0000;stroke-width:25.92"/>
	<line x1="3180.38" y1="2357.76" x2="3247.20" y2="2393.89" stroke-linecap="round" style="stroke:#FF0000;stroke-width:25.92"/>
	<line x1="3247.20" y1="2393.89" x2="3314.03" y2="2428.79" stroke-linecap="round" style="stroke:#FF0000;stroke-width:25.92"/>
	<line x1="3314.03" y1="2428.79" x2="3380.85" y2="2462.21" stroke-linecap="round" style="stroke:#FF0000;stroke-width:25.92"/>
	<line x1="3380.85" y1="2462.21" x2="3447.68" y2="2494.88" stroke-linecap="round" style="stroke:#FF0000;stroke-width:25.92"/>
	<line x1="3447.68" y1="2494.88" x2="3514.50" y2="2526.06" stroke-linecap="round" style="stroke:#FF0000;stroke-width:25.92"/>
	<line x1="3514.50" y1="2526.06" x2="3581.32" y2="2556.51" stroke-linecap="round" style="stroke:#FF0000;stroke-width:25.92"/>
	<line x1="3581.32" y1="2556.51" x2="3648.15" y2="2585.71" stroke-linecap="round" style="stroke:#FF0000;stroke-width:25.92"/>
	<line x1="3648.15" y1="2585.71" x2="3714.97" y2="2614.18" stroke-linecap="round" style="stroke:#FF0000;stroke-width:25.92"/>
	<line x1="3714.97" y1="2614.18" x2="3781.80" y2="2641.65" stroke-linecap="round" style="stroke:#FF0000;stroke-width:25.92"/>
	<line x1="3781.80" y1="2641.65" x2="3848.63" y2="2668.13" stroke-linecap="round" style="stroke:#FF0000;stroke-width:25.92"/>
	<line x1="3848.63" y1="2668.13" x2="3915.70" y2="2693.87" stroke-linecap="round" style="stroke:#FF0000;stroke-width:25.92"/>
	<line x1="3915.70" y1="2693.87" x2="3982.52" y2="2718.62" stroke-linecap="round" style="stroke:#FF0000;stroke-width:25.92"/>
	<line x1="3982.52" y1="2718.62" x2="4049.35" y2="2742.63" stroke-linecap="round" style="stroke:#FF0000;stroke-width:25.92"/>
	<line x1="4049.35" y1="2742.63" x2="4116.17" y2="2766.15" stroke-linecap="round" style="stroke:#FF0000;stroke-width:25.92"/>
	<line x1="4116.17" y1="2766.15" x2="4183.00" y2="2788.92" stroke-linecap="round" style="stroke:#FF0000;stroke-width:25.92"/>
	<line x1="4183.00" y1="2788.92" x2="4249.82" y2="2810.95" stroke-linecap="round" style="stroke:#FF0000;stroke-width:25.92"/>
	<line x1="4249.82" y1="2810.95" x2="4316.65" y2="2832.48" stroke-linecap="round" style="stroke:#FF0000;stroke-width:25.92"/>
	<line x1="4316.65" y1="2832.48" x2="4383.47" y2="2853.27" stroke-linecap="round" style="stroke:#FF0000;stroke-width:25.92"/>
	<line x1="4383.47" y1="2853.27" x2="4450.30" y2="2873.56" stroke-linecap="round" style="stroke:#FF0000;stroke-width:25.92"/>
	<line x1="4450.30" y1="2873.56" x2="4517.12" y2="2893.61" stroke-linecap="round" style="stroke:#FF0000;stroke-width:25.92"/>
	<line x1="4517.12" y1="2893.61" x2="4583.95" y2="2912.92" stroke-linecap="round" style="stroke:#FF0000;stroke-width:25.92"/>
	<line x1="4583.95" y1="2912.92" x2="4650.77" y2="2931.73" stroke-linecap="round" style="stroke:#FF0000;stroke-width:25.92"/>
	<line x1="4650.77" y1="2931.73" x2="4717.60" y2="2950.04" stroke-linecap="round" style="stroke:#FF0000;stroke-width:25.92"/>
	<line x1="4717.60" y1="2950.04" x2="4784.42" y2="2968.11" stroke-linecap="round" style="stroke:#FF0000;stroke-width:25.92"/>
	<line x1="4784.42" y1="2968.11" x2="4851.25" y2="2985.69" stroke-linecap="round" style="stroke:#FF0000;stroke-width:25.92"/>
	<line x1="4851.25" y1="2985.69" x2="4918.07" y2="3002.76" stroke-linecap="round" style="stroke:#FF0000;stroke-width:25.92"/>
	<line x1="4918.07" y1="3002.76" x2="4984.90" y2="3019.59" stroke-linecap="round" style="stroke:#FF0000;stroke-width:25.92"/>
	<line x1="4984.90" y1="3019.59" x2="5051.72" y2="3035.93" stroke-linecap="round" style="stroke:#FF0000;stroke-width:25.92"/>
	<line x1="5051.72" y1="3035.93" x2="5118.55" y2="3052.02" stroke-linecap="round" style="stroke:#FF0000;stroke-width:25.92"/>
	<line x1="5118.55" y1="3052.02" x2="5185.37" y2="3067.86" stroke-linecap="round" style="stroke:#FF0000;stroke-width:25.92"/>
	<line x1="5185.37" y1="3067.86" x2="5252.20" y2="3083.20" stroke-linecap="round" style="stroke:#FF0000;stroke-width:25.92"/>
	<line x1="5252.20" y1="3083.20" x2="5319.02" y2="3098.55" stroke-linecap="round" style="stroke:#FF0000;stroke-width:25.92"/>
	<line x1="5319.02" y1="3098.55" x2="5385.85" y2="3113.40" stroke-linecap="round" style="stroke:#FF0000;stroke-width:25.92"/>
	<line x1="5385.85" y1="3113.40" x2="5452.67" y2="3128.00" stroke-linecap="round" style="stroke:#FF0000;stroke-width:25.92"/>
	<line x1="5452.67" y1="3128.00" x2="5519.50" y2="3142.36" stroke-linecap="round" style="stroke:#FF0000;stroke-width:25.92"/>
	<line x1="5519.50" y1="3142.36" x2="5586.32" y2="3156.47" stroke-linecap="round" style="stroke:#FF0000;stroke-width:25.92"/>
	<line x1="5586.32" y1="3156.47" x2="5653.15" y2="3170.33" stroke-linecap="round" style="stroke:#FF0000;stroke-width:25.92"/>
	<line x1="5653.15" y1="3170.33" x2="5719.97" y2="3183.94" stroke-linecap="round" style="stroke:#FF0000;stroke-width:25.92"/>
	<line x1="5719.97" y1="3183.94" x2="5786.80" y2="3197.30" stroke-linecap="round" style="stroke:#FF0000;stroke-width:25.92"/>
	<line x1="5786.80" y1="3197.30" x2="5853.62" y2="3210.67" stroke-linecap="round" style="stroke:#FF0000;stroke-width:25.92"/>
	<line x1="5853.62" y1="3210.67" x2="5920.45" y2="3223.54" stroke-linecap="round" style="stroke:#FF0000;stroke-width:25.92"/>
	<line x1="5920.45" y1="3223.54" x2="5987.27" y2="3236.41" stroke-linecap="round" style="stroke:#FF0000;stroke-width:25.92"/>
	<line x1="5987.27" y1="3236.41" x2="6054.10" y2="3249.03" stroke-linecap="round" style="stroke:#FF0000;stroke-width:25.92"/>
	<line x1="6054.10" y1="3249.03" x2="6120.92" y2="3261.66" stroke-linecap="round" style="stroke:#FF0000;stroke-width:25.92"/>
	<line x1="6120.92" y1="3261.66" x2="6187.75" y2="3273.78" stroke-linecap="round" style="stroke:#FF0000;stroke-width:25.92"/>
	<line x1="6187.75" y1="3273.78" x2="6254.57" y2="3285.91" stroke-linecap="round" style="stroke:#FF0000;stroke-width:25.92"/>
	<line x1="6254.57" y1="3285.91" x2="6321.40" y2="3298.04" stroke-linecap="round" style="stroke:#FF0000;stroke-width:25.92"/>
	<line x1="6321.40" y1="3298.04" x2="6388.47" y2="3309.92" stroke-linecap="round" style="stroke:#FF0000;stroke-width:25.92"/>
	<line x1="6388.47" y1="3309.92" x2="6455.30" y2="3321.55" stroke-linecap="round" style="stroke:#FF0000;stroke-width:25.92"/>
	<line x1="6455.30" y1="3321.55" x2="6522.12" y2="3333.19" stroke-linecap="round" style="stroke:#FF0000;stroke-width:25.92"/>
	<line x1="6522.12" y1="3333.19" x2="6588.94" y2="3344.57" stroke-linecap="round" style="stroke:#FF0000;stroke-width:25.92"/>
	<line x1="6588.94" y1="3344.57" x2="6655.77" y2="3355.71" stroke-linecap="round" style="stroke:#FF0000;stroke-width:25.92"/>
	<line x1="6655.77" y1="3355.71" x2="6722.60" y2="3367.10" stroke-linecap="round" style="stroke:#FF0000;stroke-width:25.92"/>
	<line x1="6722.60" y1="3367.10" x2="6789.42" y2="3377.99" stroke-linecap="round" style="stroke:#FF0000;stroke-width:25.92"/>
	<line x1="6789.42" y1="3377.99" x2="6856.24" y2="3389.12" stroke-linecap="round" style="stroke:#FF0000;stroke-width:25.92"/>
	<line x1="6856.24" y1="3389.12" x2="6923.07" y2="3399.77" stroke-linecap="round" style="stroke:#FF0000;stroke-width:25.92"/>
	<line x1="6923.07" y1="3399.77" x2="6989.90" y2="3410.66" stroke-linecap="round" style="stroke:#FF0000;stroke-width:25.92"/>
	<line x1="6989.90" y1="3410.66" x2="7056.72" y2="3421.30" stroke-linecap="round" style="stroke:#FF0000;stroke-width:25.92"/>
	<line x1="7056.72" y1="3421.30" x2="7123.55" y2="3431.69" stroke-linecap="round" style="stroke:#FF0000;stroke-width:25.92"/>
	<line x1="7123.55" y1="3431.69" x2="7190.37" y2="3442.09" stroke-linecap="round" style="stroke:#FF0000;stroke-width:25.92"/>
	<line x1="7190.37" y1="3442.09" x2="7257.19" y2="3452.49" stroke-linecap="round" style="stroke:#FF0000;stroke-width:25.92"/>
	<line x1="7257.19" y1="3452.49" x2="7324.02" y2="3462.88" stroke-linecap="round" style="stroke:#FF0000;stroke-width:25.92"/>
	<line x1="7324.02" y1="3462.88" x2="7390.85" y2="3473.03" stroke-linecap="round" style="stroke:#FF0000;stroke-width:25.92"/>
	<line x1="7390.85" y1="3473.03" x2="7457.67" y2="3483.18" stroke-linecap="round" style="stroke:#FF0000;stroke-width:25.92"/>
	<line x1="7457.67" y1="3483.18" x2="7524.49" y2="3493.08" stroke-linecap="round" style="stroke:#FF0000;stroke-width:25.92"/>
	<line x1="7524.49" y1="3493.08" x2="7591.32" y2="3503.22" stroke-linecap="round" style="stroke:#FF0000;stroke-width:25.92"/>
	<line x1="908.08" y1="328.44" x2="974.90" y2="375.72" stroke-linecap="round" style="stroke:#0000FF;stroke-width:25.92"/>
	<line x1="974.90" y1="375.72" x2="1041.73" y2="440.56" stroke-linecap="round" style="stroke:#0000FF;stroke-width:25.92"/>
	<line x1="1041.73" y1="440.56" x2="1108.55" y2="515.06" stroke-linecap="round" style="stroke:#0000FF;stroke-width:25.92"/>
	<line x1="1108.55" y1="515.06" x2="1175.38" y2="596.49" stroke-linecap="round" style="stroke:#0000FF;stroke-width:25.92"/>
	<line x1="1175.38" y1="596.49" x2="1242.20" y2="683.12" stroke-linecap="round" style="stroke:#0000FF;stroke-width:25.92"/>
	<line x1="1242.20" y1="683.12" x2="1309.03" y2="773.46" stroke-linecap="round" style="stroke:#0000FF;stroke-width:25.92"/>
	<line x1="1309.03" y1="773.46" x2="1375.85" y2="867.02" stroke-linecap="round" style="stroke:#0000FF;stroke-width:25.92"/>
	<line x1="1375.85" y1="867.02" x2="1442.92" y2="962.81" stroke-linecap="round" style="stroke:#0000FF;stroke-width:25.92"/>
	<line x1="1442.92" y1="962.81" x2="1509.75" y2="1060.32" stroke-linecap="round" style="stroke:#0000FF;stroke-width:25.92"/>
	<line x1="1509.75" y1="1060.32" x2="1576.58" y2="1159.08" stroke-linecap="round" style="stroke:#0000FF;stroke-width:25.92"/>
	<line x1="1576.58" y1="1159.08" x2="1643.40" y2="1258.08" stroke-linecap="round" style="stroke:#0000FF;stroke-width:25.92"/>
	<line x1="1643.40" y1="1258.08" x2="1710.22" y2="1356.84" stroke-linecap="round" style="stroke:#0000FF;stroke-width:25.92"/>
	<line x1="1710.22" y1="1356.84" x2="1777.05" y2="1454.85" stroke-linecap="round" style="stroke:#0000FF;stroke-width:25.92"/>
	<line x1="1777.05" y1="1454.85" x2="1843.88" y2="1551.63" stroke-linecap="round" style="stroke:#0000FF;stroke-width:25.92"/>
	<line x1="1843.88" y1="1551.63" x2="1910.70" y2="1647.16" stroke-linecap="round" style="stroke:#0000FF;stroke-width:25.92"/>
	<line x1="1910.70" y1="1647.16" x2="1977.53" y2="1740.72" stroke-linecap="round" style="stroke:#0000FF;stroke-width:25.92"/>
	<line x1="1977.53" y1="1740.72" x2="2044.35" y2="1832.55" stroke-linecap="round" style="stroke:#0000FF;stroke-width:25.92"/>
	<line x1="2044.35" y1="1832.55" x2="2111.18" y2="1922.15" stroke-linecap="round" style="stroke:#0000FF;stroke-width:25.92"/>
	<line x1="2111.18" y1="1922.15" x2="2178.00" y2="2009.52" stroke-linecap="round" style="stroke:#0000FF;stroke-width:25.92"/>
	<line x1="2178.00" y1="2009.52" x2="2244.82" y2="2094.16" stroke-linecap="round" style="stroke:#0000FF;stroke-width:25.92"/>
	<line x1="2244.82" y1="2094.16" x2="2311.65" y2="2175.84" stroke-linecap="round" style="stroke:#0000FF;stroke-width:25.92"/>
	<line x1="2311.65" y1="2175.84" x2="2378.47" y2="2255.04" stroke-linecap="round" style="stroke:#0000FF;stroke-width:25.92"/>
	<line x1="2378.47" y1="2255.04" x2="2445.30" y2="2331.03" stroke-linecap="round" style="stroke:#0000FF;stroke-width:25.92"/>
	<line x1="2445.30" y1="2331.03" x2="2512.13" y2="2404.29" stroke-linecap="round" style="stroke:#0000FF;stroke-width:25.92"/>
	<line x1="2512.13" y1="2404.29" x2="2578.95" y2="2474.33" stroke-linecap="round" style="stroke:#0000FF;stroke-width:25.92"/>
	<line x1="2578.95" y1="2474.33" x2="2645.78" y2="2541.66" stroke-linecap="round" style="stroke:#0000FF;stroke-width:25.92"/>
	<line x1="2645.78" y1="2541.66" x2="2712.60" y2="2606.01" stroke-linecap="round" style="stroke:#0000FF;stroke-width:25.92"/>
	<line x1="2712.60" y1="2606.01" x2="2779.43" y2="2667.64" stroke-linecap="round" style="stroke:#0000FF;stroke-width:25.92"/>
	<line x1="2779.43" y1="2667.64" x2="2846.25" y2="2726.79" stroke-linecap="round" style="stroke:#0000FF;stroke-width:25.92"/>
	<line x1="2846.25" y1="2726.79" x2="2913.07" y2="2783.47" stroke-linecap="round" style="stroke:#0000FF;stroke-width:25.92"/>
	<line x1="2913.07" y1="2783.47" x2="2979.90" y2="2837.68" stroke-linecap="round" style="stroke:#0000FF;stroke-width:25.92"/>
	<line x1="2979.90" y1="2837.68" x2="3046.72" y2="2889.90" stroke-linecap="round" style="stroke:#0000FF;stroke-width:25.92"/>
	<line x1="3046.72" y1="2889.90" x2="3113.55" y2="2939.90" stroke-linecap="round" style="stroke:#0000FF;stroke-width:25.92"/>
	<line x1="3113.55" y1="2939.90" x2="3180.38" y2="2987.67" stroke-linecap="round" style="stroke:#0000FF;stroke-width:25.92"/>
	<line x1="3180.38" y1="2987.67" x2="3247.20" y2="3033.70" stroke-linecap="round" style="stroke:#0000FF;stroke-width:25.92"/>
	<line x1="3247.20" y1="3033.70" x2="3314.03" y2="3078.01" stroke-linecap="round" style="stroke:#0000FF;stroke-width:25.92"/>
	<line x1="3314.03" y1="3078.01" x2="3380.85" y2="3120.33" stroke-linecap="round" style="stroke:#0000FF;stroke-width:25.92"/>
	<line x1="3380.85" y1="3120.33" x2="3447.68" y2="3161.17" stroke-linecap="round" style="stroke:#0000FF;stroke-width:25.92"/>
	<line x1="3447.68" y1="3161.17" x2="3514.50" y2="3200.28" stroke-linecap="round" style="stroke:#0000FF;stroke-width:25.92"/>
	<line x1="3514.50" y1="3200.28" x2="3581.32" y2="3237.90" stroke-linecap="round" style="stroke:#0000FF;stroke-width:25.92"/>
	<line x1="3581.32" y1="3237.90" x2="3648.15" y2="3274.28" stroke-linecap="round" style="stroke:#0000FF;stroke-width:25.92"/>
	<line x1="3648.15" y1="3274.28" x2="3714.97" y2="3308.93" stroke-linecap="round" style="stroke:#0000FF;stroke-width:25.92"/>
	<line x1="3714.97" y1="3308.93" x2="3781.80" y2="3342.59" stroke-linecap="round" style="stroke:#0000FF;stroke-width:25.92"/>
	<line x1="3781.80" y1="3342.59" x2="3848.63" y2="3374.77" stroke-linecap="round" style="stroke:#0000FF;stroke-width:25.92"/>
	<line x1="3848.63" y1="3374.77" x2="3915.70" y2="3405.95" stroke-linecap="round" style="stroke:#0000FF;stroke-width:25.92"/>
	<line x1="3915.70" y1="3405.95" x2="3982.52" y2="3435.65" stroke-linecap="round" style="stroke:#0000FF;stroke-width:25.92"/>
	<line x1="3982.52" y1="3435.65" x2="4049.35" y2="3464.61" stroke-linecap="round" style="stroke:#0000FF;stroke-width:25.92"/>
	<line x1="4049.35" y1="3464.61" x2="4116.17" y2="3492.58" stroke-linecap="round" style="stroke:#0000FF;stroke-width:25.92"/>
	<line x1="4116.17" y1="3492.58" x2="4183.00" y2="3519.31" stroke-linecap="round" style="stroke:#0000FF;stroke-width:25.92"/>
	<line x1="4183.00" y1="3519.31" x2="4249.82" y2="3545.55" stroke-linecap="round" style="stroke:#0000FF;stroke-width:25.92"/>
	<line x1="4249.82" y1="3545.55" x2="4316.65" y2="3570.55" stroke-linecap="round" style="stroke:#0000FF;stroke-width:25.92"/>
	<line x1="4316.65" y1="3570.55" x2="4383.47" y2="3595.05" stroke-linecap="round" style="stroke:#0000FF;stroke-width:25.92"/>
	<line x1="4383.47" y1="3595.05" x2="4450.30" y2="3618.56" stroke-linecap="round" style="stroke:#0000FF;stroke-width:25.92"/>
	<line x1="4450.30" y1="3618.56" x2="4517.12" y2="3641.33" stroke-linecap="round" style="stroke:#0000FF;stroke-width:25.92"/>
	<line x1="4517.12" y1="3641.33" x2="4583.95" y2="3663.61" stroke-linecap="round" style="stroke:#0000FF;stroke-width:25.92"/>
	<line x1="4583.95" y1="3663.61" x2="4650.77" y2="3685.14" stroke-linecap="round" style="stroke:#0000FF;stroke-width:25.92"/>
	<line x1="4650.77" y1="3685.14" x2="4717.60" y2="3706.18" stroke-linecap="round" style="stroke:#0000FF;stroke-width:25.92"/>
	<line x1="4717.60" y1="3706.18" x2="4784.42" y2="3726.48" stroke-linecap="round" style="stroke:#0000FF;stroke-width:25.92"/>
	<line x1="4784.42" y1="3726.48" x2="4851.25" y2="3746.28" stroke-linecap="round" style="stroke:#0000FF;stroke-width:25.92"/>
	<line x1="4851.25" y1="3746.28" x2="4918.07" y2="3765.58" stroke-linecap="round" style="stroke:#0000FF;stroke-width:25.92"/>
	<line x1="4918.07" y1="3765.58" x2="4984.90" y2="3784.39" stroke-linecap="round" style="stroke:#0000FF;stroke-width:25.92"/>
	<line x1="4984.90" y1="3784.39" x2="5051.72" y2="3802.71" stroke-linecap="round" style="stroke:#0000FF;stroke-width:25.92"/>
	<line x1="5051.72" y1="3802.71" x2="5118.55" y2="3820.53" stroke-linecap="round" style="stroke:#0000FF;stroke-width:25.92"/>
	<line x1="5118.55" y1="3820.53" x2="5185.37" y2="3837.85" stroke-linecap="round" style="stroke:#0000FF;stroke-width:25.92"/>
	<line x1="5185.37" y1="3837.85" x2="5252.20" y2="3854.93" stroke-linecap="round" style="stroke:#0000FF;stroke-width:25.92"/>
	<line x1="5252.20" y1="3854.93" x2="5319.02" y2="3871.52" stroke-linecap="round" style="stroke:#0000FF;stroke-width:25.92"/>
	<line x1="5319.02" y1="3871.52" x2="5385.85" y2="3887.85" stroke-linecap="round" style="stroke:#0000FF;stroke-width:25.92"/>
	<line x1="5385.85" y1="3887.85" x2="5452.67" y2="3903.69" stroke-linecap="round" style="stroke:#0000FF;stroke-width:25.92"/>
	<line x1="5452.67" y1="3903.69" x2="5519.50" y2="3919.28" stroke-linecap="round" style="stroke:#0000FF;stroke-width:25.92"/>
	<line x1="5519.50" y1="3919.28" x2="5586.32" y2="3934.38" stroke-linecap="round" style="stroke:#0000FF;stroke-width:25.92"/>
	<line x1="5586.32" y1="3934.38" x2="5653.15" y2="3949.48" stroke-linecap="round" style="stroke:#0000FF;stroke-width:25.92"/>
	<line x1="5653.15" y1="3949.48" x2="5719.97" y2="3964.08" stroke-linecap="round" style="stroke:#0000FF;stroke-width:25.92"/>
	<line x1="5719.97" y1="3964.08" x2="5786.80" y2="3978.44" stroke-linecap="round" style="stroke:#0000FF;stroke-width:25.92"/>
	<line x1="5786.80" y1="3978.44" x2="5853.62" y2="3992.55" stroke-linecap="round" style="stroke:#0000FF;stroke-width:25.92"/>
	<line x1="5853.62" y1="3992.55" x2="5920.45" y2="4006.41" stroke-linecap="round" style="stroke:#0000FF;stroke-width:25.92"/>
	<line x1="5920.45" y1="4006.41" x2="5987.27" y2="4019.77" stroke-linecap="round" style="stroke:#0000FF;stroke-width:25.92"/>
	<line x1="5987.27" y1="4019.77" x2="6054.10" y2="4033.14" stroke-linecap="round" style="stroke:#0000FF;stroke-width:25.92"/>
	<line x1="6054.10" y1="4033.14" x2="6120.92" y2="4046.26" stroke-linecap="round" style="stroke:#0000FF;stroke-width:25.92"/>
	<line x1="6120.92" y1="4046.26" x2="6187.75" y2="4059.37" stroke-linecap="round" style="stroke:#0000FF;stroke-width:25.92"/>
	<line x1="6187.75" y1="4059.37" x2="6254.57" y2="4072.00" stroke-linecap="round" style="stroke:#0000FF;stroke-width:25.92"/>
	<line x1="6254.57" y1="4072.00" x2="6321.40" y2="4084.62" stroke-linecap="round" style="stroke:#0000FF;stroke-width:25.92"/>
	<line x1="6321.40" y1="4084.62" x2="6388.47" y2="4097.00" stroke-linecap="round" style="stroke:#0000FF;stroke-width:25.92"/>
	<line x1="6388.47" y1="4097.00" x2="6455.30" y2="4109.12" stroke-linecap="round" style="stroke:#0000FF;stroke-width:25.92"/>
	<line x1="6455.30" y1="4109.12" x2="6522.12" y2="4121.00" stroke-linecap="round" style="stroke:#0000FF;stroke-width:25.92"/>
	<line x1="6522.12" y1="4121.00" x2="6588.94" y2="4132.88" stroke-linecap="round" style="stroke:#0000FF;stroke-width:25.92"/>
	<line x1="6588.94" y1="4132.88" x2="6655.77" y2="4144.52" stroke-linecap="round" style="stroke:#0000FF;stroke-width:25.92"/>
	<line x1="6655.77" y1="4144.52" x2="6722.60" y2="4156.15" stroke-linecap="round" style="stroke:#0000FF;stroke-width:25.92"/>
	<line x1="6722.60" y1="4156.15" x2="6789.42" y2="4167.54" stroke-linecap="round" style="stroke:#0000FF;stroke-width:25.92"/>
	<line x1="6789.42" y1="4167.54" x2="6856.24" y2="4178.67" stroke-linecap="round" style="stroke:#0000FF;stroke-width:25.92"/>
	<line x1="6856.24" y1="4178.67" x2="6923.07" y2="4189.81" stroke-linecap="round" style="stroke:#0000FF;stroke-width:25.92"/>
	<line x1="6923.07" y1="4189.81" x2="6989.90" y2="4200.95" stroke-linecap="round" style="stroke:#0000FF;stroke-width:25.92"/>
	<line x1="6989.90" y1="4200.95" x2="7056.72" y2="4211.84" stroke-linecap="round" style="stroke:#0000FF;stroke-width:25.92"/>
	<line x1="7056.72" y1="4211.84" x2="7123.55" y2="4222.48" stroke-linecap="round" style="stroke:#0000FF;stroke-width:25.92"/>
	<line x1="7123.55" y1="4222.48" x2="7190.37" y2="4233.12" stroke-linecap="round" style="stroke:#0000FF;stroke-width:25.92"/>
	<line x1="7190.37" y1="4233.12" x2="7257.19" y2="4243.77" stroke-linecap="round" style="stroke:#0000FF;stroke-width:25.92"/>
	<line x1="7257.19" y1="4243.77" x2="7324.02" y2="4254.16" stroke-linecap="round" style="stroke:#0000FF;stroke-width:25.92"/>
	<line x1="7324.02" y1="4254.16" x2="7390.85" y2="4264.56" stroke-linecap="round" style="stroke:#0000FF;stroke-width:25.92"/>
	<line x1="7390.85" y1="4264.56" x2="7457.67" y2="4274.71" stroke-linecap="round" style="stroke:#0000FF;stroke-width:25.92"/>
	<line x1="7457.67" y1="4274.71" x2="7524.49" y2="4284.85" stroke-linecap="round" style="stroke:#0000FF;stroke-width:25.92"/>
	<line x1="7524.49" y1="4284.85" x2="7591.32" y2="4295.00" stroke-linecap="round" style="stroke:#0000FF;stroke-width:25.92"/>
	<line x1="781.61" y1="4978.37" x2="781.61" y2="201.72" style="stroke:#000000;stroke-width:11.52"/>
	<line x1="781.61" y1="4851.65" x2="701.66" y2="4851.65" style="stroke:#000000;stroke-width:11.52"/>
	<text x="601.45" y="4851.65" style="font-family:'Helvetica';font-size:199.98px;fill:#000000" transform="rotate(-90 601.45,4851.65)" text-anchor="middle">.6</text>
	<line x1="781.61" y1="3720.78" x2="701.66" y2="3720.78" style="stroke:#000000;stroke-width:11.52"/>
	<text x="601.45" y="3720.78" style="font-family:'Helvetica';font-size:199.98px;fill:#000000" transform="rotate(-90 601.45,3720.78)" text-anchor="middle">.7</text>
	<line x1="781.61" y1="2589.92" x2="701.66" y2="2589.92" style="stroke:#000000;stroke-width:11.52"/>
	<text x="601.45" y="2589.92" style="font-family:'Helvetica';font-size:199.98px;fill:#000000" transform="rotate(-90 601.45,2589.92)" text-anchor="middle">.8</text>
	<line x1="781.61" y1="1459.06" x2="701.66" y2="1459.06" style="stroke:#000000;stroke-width:11.52"/>
	<text x="601.45" y="1459.06" style="font-family:'Helvetica';font-size:199.98px;fill:#000000" transform="rotate(-90 601.45,1459.06)" text-anchor="middle">.9</text>
	<line x1="781.61" y1="328.44" x2="701.66" y2="328.44" style="stroke:#000000;stroke-width:11.52"/>
	<text x="601.45" y="328.44" style="font-family:'Helvetica';font-size:199.98px;fill:#000000" transform="rotate(-90 601.45,328.44)" text-anchor="middle">1</text>
	<text x="381.42" y="2589.92" style="font-family:'Helvetica';font-size:199.98px;fill:#000000" transform="rotate(-90 381.42,2589.92)" text-anchor="middle">Cause-specific survival</text>
	<line x1="781.61" y1="4978.37" x2="7718.04" y2="4978.37" style="stroke:#000000;stroke-width:11.52"/>
	<line x1="908.33" y1="4978.37" x2="908.33" y2="5058.32" style="stroke:#000000;stroke-width:11.52"/>
	<text x="908.33" y="5238.28" style="font-family:'Helvetica';font-size:199.98px;fill:#000000" text-anchor="middle">0</text>
	<line x1="2244.82" y1="4978.37" x2="2244.82" y2="5058.32" style="stroke:#000000;stroke-width:11.52"/>
	<text x="2244.82" y="5238.28" style="font-family:'Helvetica';font-size:199.98px;fill:#000000" text-anchor="middle">2</text>
	<line x1="3581.57" y1="4978.37" x2="3581.57" y2="5058.32" style="stroke:#000000;stroke-width:11.52"/>
	<text x="3581.57" y="5238.28" style="font-family:'Helvetica';font-size:199.98px;fill:#000000" text-anchor="middle">4</text>
	<line x1="4918.07" y1="4978.37" x2="4918.07" y2="5058.32" style="stroke:#000000;stroke-width:11.52"/>
	<text x="4918.07" y="5238.28" style="font-family:'Helvetica';font-size:199.98px;fill:#000000" text-anchor="middle">6</text>
	<line x1="6254.82" y1="4978.37" x2="6254.82" y2="5058.32" style="stroke:#000000;stroke-width:11.52"/>
	<text x="6254.82" y="5238.28" style="font-family:'Helvetica';font-size:199.98px;fill:#000000" text-anchor="middle">8</text>
	<line x1="7591.32" y1="4978.37" x2="7591.32" y2="5058.32" style="stroke:#000000;stroke-width:11.52"/>
	<text x="7591.32" y="5238.28" style="font-family:'Helvetica';font-size:199.98px;fill:#000000" text-anchor="middle">10</text>
	<text x="4249.82" y="5458.31" style="font-family:'Helvetica';font-size:199.98px;fill:#000000" text-anchor="middle">Years since diagnosis</text>
	<rect x="850.66" y="4256.39" width="2733.14" height="652.93" style="fill:#FFFFFF"/>
	<rect x="856.42" y="4262.15" width="2721.62" height="641.41" style="fill:none;stroke:#000000;stroke-width:11.52"/>
	<line x1="937.03" y1="4443.01" x2="1685.97" y2="4443.01" style="stroke:#FF0000;stroke-width:25.92"/>
	<line x1="937.03" y1="4722.94" x2="1685.97" y2="4722.94" style="stroke:#0000FF;stroke-width:25.92"/>
	<text x="1805.76" y="4513.07" style="font-family:'Helvetica';font-size:199.98px;fill:#000000">Female (marginal)</text>
	<text x="1805.76" y="4793.00" style="font-family:'Helvetica';font-size:199.98px;fill:#000000">Male (marginal)</text>
</svg>
