<?xml version="1.0" encoding="UTF-8" standalone="no"?>
<!-- This is a Stata 15.1 generated SVG file (http://www.stata.com) -->

<svg version="1.1" width="11.00in" height="8.00in" viewBox="0 0 7920 5760" xmlns="http://www.w3.org/2000/svg" xmlns:xlink="http://www.w3.org/1999/xlink">
	<desc>Stata Graph - sexdiff4a</desc>
	<rect x="0" y="0" width="7920" height="5760" style="fill:#EAF2F3;stroke:none"/>
	<rect x="0.00" y="0.00" width="7919.75" height="5760.00" style="fill:#EAF2F3"/>
	<rect x="5.76" y="5.76" width="7908.23" height="5748.48" style="fill:none;stroke:#EAF2F3;stroke-width:11.52"/>
	<rect x="1048.16" y="201.72" width="6669.88" height="4776.65" style="fill:#FFFFFF"/>
	<rect x="1053.92" y="207.48" width="6658.36" height="4765.13" style="fill:none;stroke:#FFFFFF;stroke-width:11.52"/>
	<line x1="1048.16" y1="4715.76" x2="7718.04" y2="4715.76" style="stroke:#EAF2F3;stroke-width:17.28"/>
	<line x1="1048.16" y1="3838.35" x2="7718.04" y2="3838.35" style="stroke:#EAF2F3;stroke-width:17.28"/>
	<line x1="1048.16" y1="2960.69" x2="7718.04" y2="2960.69" style="stroke:#EAF2F3;stroke-width:17.28"/>
	<line x1="1048.16" y1="2083.27" x2="7718.04" y2="2083.27" style="stroke:#EAF2F3;stroke-width:17.28"/>
	<line x1="1048.16" y1="1205.86" x2="7718.04" y2="1205.86" style="stroke:#EAF2F3;stroke-width:17.28"/>
	<line x1="1048.16" y1="328.44" x2="7718.04" y2="328.44" style="stroke:#EAF2F3;stroke-width:17.28"/>
	<defs>
		<path id="path_qkjFznKc" d="M1174.88 4715.76 L1174.88 4715.76 L1238.98 4828.13 L1303.34 4851.65 L1367.44 4841.00 L1431.54 4809.82 L1495.64 4764.77 L1559.99 4710.32 L1624.10 4648.94 L1752.30 4513.55 L1816.65 4441.77 L1880.75 4368.26 L2008.96 4220.01 L2073.31 4146.00 L2137.41 4072.49 L2201.51 3999.97 L2265.86 3928.69 L2329.97 3858.89 L2522.52 3661.88 L2586.62 3601.24 L2650.72 3543.07 L2714.83 3487.63 L2843.28 3384.67 L2971.49 3292.10 L3035.84 3249.53 L3099.94 3208.94 L3164.04 3170.82 L3228.14 3134.69 L3292.49 3100.78 L3677.36 2935.19 L3741.46 2913.41 L3869.91 2873.81 L3934.01 2855.99 L4062.47 2824.06 L4126.57 2809.71 L4190.67 2796.59 L4254.77 2784.21 L4319.12 2772.83 L4383.23 2762.43 L4447.33 2752.78 L4511.43 2744.12 L4639.88 2728.77 L4703.98 2722.09 L4832.44 2710.70 L5024.74 2697.83 L5089.10 2694.62 L5153.20 2691.89 L5217.30 2689.67 L5281.40 2687.69 L5345.75 2686.20 L5538.06 2684.22 L5602.41 2684.22 L5666.51 2684.47 L5859.07 2686.94 L5923.17 2688.43 L5987.27 2690.16 L6051.38 2691.89 L6243.93 2698.82 L6308.03 2701.55 L6372.38 2704.52 L6436.48 2707.49 L6693.14 2721.35 L6757.24 2725.06 L6885.70 2733.23 L6949.80 2737.19 L7078.01 2745.85 L7206.46 2754.76 L7334.66 2764.17 L7463.11 2773.82 L7463.11 554.66 L7334.66 568.53 L7206.46 582.63 L7078.01 596.74 L6949.80 611.34 L6885.70 618.52 L6757.24 633.37 L6693.14 640.80 L6436.48 671.98 L6372.38 679.90 L6308.03 688.07 L6243.93 696.24 L6051.38 721.98 L5987.27 730.89 L5923.17 740.05 L5859.07 749.21 L5666.51 778.41 L5602.41 788.56 L5538.06 799.20 L5345.75 832.37 L5281.40 844.25 L5217.30 856.38 L5153.20 869.00 L5089.10 882.12 L5024.74 895.73 L4832.44 939.54 L4703.98 971.72 L4639.88 989.04 L4511.43 1025.92 L4447.33 1045.47 L4383.23 1066.26 L4319.12 1087.80 L4254.77 1110.57 L4190.67 1134.58 L4126.57 1159.57 L4062.47 1186.06 L3934.01 1243.48 L3869.91 1274.66 L3741.46 1342.23 L3677.36 1378.62 L3292.49 1644.94 L3228.14 1698.40 L3164.04 1754.83 L3099.94 1814.23 L3035.84 1877.10 L2971.49 1943.43 L2843.28 2086.99 L2714.83 2246.88 L2650.72 2332.76 L2586.62 2422.85 L2522.52 2516.91 L2329.97 2820.85 L2265.86 2928.51 L2201.51 3039.15 L2137.41 3152.01 L2073.31 3266.61 L2008.96 3382.69 L1880.75 3617.08 L1816.65 3733.90 L1752.30 3849.24 L1624.10 4072.00 L1559.99 4178.43 L1495.64 4280.40 L1431.54 4377.67 L1367.44 4469.74 L1303.34 4556.12 L1238.98 4637.06 L1174.88 4715.76 L1174.88 4715.76 Z" stroke-linecap="round"/>
	</defs>
	<defs>
		<clipPath id="clipPath_BRkeLQnT">
			<use xlink:href="#path_qkjFznKc"/>
		</clipPath>
	</defs>
	<use xlink:href="#path_qkjFznKc" style="stroke:none;fill:#FF3333;fill-opacity:0.25"/>
	<use xlink:href="#path_qkjFznKc" style="fill:none;stroke:#FF0000;stroke-opacity:0.25;stroke-width:34.56" clip-path="url(#clipPath_BRkeLQnT)"/>
	<line x1="1174.88" y1="4715.76" x2="1238.98" y2="4732.60" stroke-linecap="round" style="stroke:#FF0000;stroke-width:17.28"/>
	<line x1="1238.98" y1="4732.60" x2="1303.09" y2="4704.13" stroke-linecap="round" style="stroke:#FF0000;stroke-width:17.28"/>
	<line x1="1303.09" y1="4704.13" x2="1367.19" y2="4655.37" stroke-linecap="round" style="stroke:#FF0000;stroke-width:17.28"/>
	<line x1="1367.19" y1="4655.37" x2="1431.54" y2="4593.74" stroke-linecap="round" style="stroke:#FF0000;stroke-width:17.28"/>
	<line x1="1431.54" y1="4593.74" x2="1495.64" y2="4522.71" stroke-linecap="round" style="stroke:#FF0000;stroke-width:17.28"/>
	<line x1="1495.64" y1="4522.71" x2="1559.74" y2="4444.50" stroke-linecap="round" style="stroke:#FF0000;stroke-width:17.28"/>
	<line x1="1559.74" y1="4444.50" x2="1623.85" y2="4360.59" stroke-linecap="round" style="stroke:#FF0000;stroke-width:17.28"/>
	<line x1="1623.85" y1="4360.59" x2="1752.30" y2="4181.40" stroke-linecap="round" style="stroke:#FF0000;stroke-width:17.28"/>
	<line x1="1752.30" y1="4181.40" x2="1816.40" y2="4087.84" stroke-linecap="round" style="stroke:#FF0000;stroke-width:17.28"/>
	<line x1="1816.40" y1="4087.84" x2="1880.51" y2="3992.79" stroke-linecap="round" style="stroke:#FF0000;stroke-width:17.28"/>
	<line x1="1880.51" y1="3992.79" x2="2008.96" y2="3801.47" stroke-linecap="round" style="stroke:#FF0000;stroke-width:17.28"/>
	<line x1="2008.96" y1="3801.47" x2="2073.06" y2="3706.43" stroke-linecap="round" style="stroke:#FF0000;stroke-width:17.28"/>
	<line x1="2073.06" y1="3706.43" x2="2137.41" y2="3612.38" stroke-linecap="round" style="stroke:#FF0000;stroke-width:17.28"/>
	<line x1="2137.41" y1="3612.38" x2="2201.51" y2="3519.56" stroke-linecap="round" style="stroke:#FF0000;stroke-width:17.28"/>
	<line x1="2201.51" y1="3519.56" x2="2265.61" y2="3428.72" stroke-linecap="round" style="stroke:#FF0000;stroke-width:17.28"/>
	<line x1="2265.61" y1="3428.72" x2="2329.72" y2="3339.87" stroke-linecap="round" style="stroke:#FF0000;stroke-width:17.28"/>
	<line x1="2329.72" y1="3339.87" x2="2522.27" y2="3089.39" stroke-linecap="round" style="stroke:#FF0000;stroke-width:17.28"/>
	<line x1="2522.27" y1="3089.39" x2="2586.38" y2="3012.17" stroke-linecap="round" style="stroke:#FF0000;stroke-width:17.28"/>
	<line x1="2586.38" y1="3012.17" x2="2650.72" y2="2938.16" stroke-linecap="round" style="stroke:#FF0000;stroke-width:17.28"/>
	<line x1="2650.72" y1="2938.16" x2="2714.83" y2="2867.38" stroke-linecap="round" style="stroke:#FF0000;stroke-width:17.28"/>
	<line x1="2714.83" y1="2867.38" x2="2843.03" y2="2735.95" stroke-linecap="round" style="stroke:#FF0000;stroke-width:17.28"/>
	<line x1="2843.03" y1="2735.95" x2="2971.49" y2="2617.89" stroke-linecap="round" style="stroke:#FF0000;stroke-width:17.28"/>
	<line x1="2971.49" y1="2617.89" x2="3035.59" y2="2563.44" stroke-linecap="round" style="stroke:#FF0000;stroke-width:17.28"/>
	<line x1="3035.59" y1="2563.44" x2="3099.69" y2="2511.71" stroke-linecap="round" style="stroke:#FF0000;stroke-width:17.28"/>
	<line x1="3099.69" y1="2511.71" x2="3164.04" y2="2462.95" stroke-linecap="round" style="stroke:#FF0000;stroke-width:17.28"/>
	<line x1="3164.04" y1="2462.95" x2="3228.14" y2="2416.67" stroke-linecap="round" style="stroke:#FF0000;stroke-width:17.28"/>
	<line x1="3228.14" y1="2416.67" x2="3292.24" y2="2373.10" stroke-linecap="round" style="stroke:#FF0000;stroke-width:17.28"/>
	<line x1="3292.24" y1="2373.10" x2="3677.36" y2="2157.03" stroke-linecap="round" style="stroke:#FF0000;stroke-width:17.28"/>
	<line x1="3677.36" y1="2157.03" x2="3741.46" y2="2127.82" stroke-linecap="round" style="stroke:#FF0000;stroke-width:17.28"/>
	<line x1="3741.46" y1="2127.82" x2="3869.66" y2="2074.36" stroke-linecap="round" style="stroke:#FF0000;stroke-width:17.28"/>
	<line x1="3869.66" y1="2074.36" x2="3934.01" y2="2049.86" stroke-linecap="round" style="stroke:#FF0000;stroke-width:17.28"/>
	<line x1="3934.01" y1="2049.86" x2="4062.22" y2="2005.31" stroke-linecap="round" style="stroke:#FF0000;stroke-width:17.28"/>
	<line x1="4062.22" y1="2005.31" x2="4126.32" y2="1984.76" stroke-linecap="round" style="stroke:#FF0000;stroke-width:17.28"/>
	<line x1="4126.32" y1="1984.76" x2="4190.67" y2="1965.71" stroke-linecap="round" style="stroke:#FF0000;stroke-width:17.28"/>
	<line x1="4190.67" y1="1965.71" x2="4254.77" y2="1947.64" stroke-linecap="round" style="stroke:#FF0000;stroke-width:17.28"/>
	<line x1="4254.77" y1="1947.64" x2="4318.88" y2="1930.56" stroke-linecap="round" style="stroke:#FF0000;stroke-width:17.28"/>
	<line x1="4318.88" y1="1930.56" x2="4382.98" y2="1914.47" stroke-linecap="round" style="stroke:#FF0000;stroke-width:17.28"/>
	<line x1="4382.98" y1="1914.47" x2="4447.33" y2="1899.37" stroke-linecap="round" style="stroke:#FF0000;stroke-width:17.28"/>
	<line x1="4447.33" y1="1899.37" x2="4511.43" y2="1885.02" stroke-linecap="round" style="stroke:#FF0000;stroke-width:17.28"/>
	<line x1="4511.43" y1="1885.02" x2="4639.64" y2="1859.03" stroke-linecap="round" style="stroke:#FF0000;stroke-width:17.28"/>
	<line x1="4639.64" y1="1859.03" x2="4703.98" y2="1847.15" stroke-linecap="round" style="stroke:#FF0000;stroke-width:17.28"/>
	<line x1="4703.98" y1="1847.15" x2="4832.19" y2="1825.12" stroke-linecap="round" style="stroke:#FF0000;stroke-width:17.28"/>
	<line x1="4832.19" y1="1825.12" x2="5024.74" y2="1796.91" stroke-linecap="round" style="stroke:#FF0000;stroke-width:17.28"/>
	<line x1="5024.74" y1="1796.91" x2="5088.85" y2="1788.49" stroke-linecap="round" style="stroke:#FF0000;stroke-width:17.28"/>
	<line x1="5088.85" y1="1788.49" x2="5152.95" y2="1780.57" stroke-linecap="round" style="stroke:#FF0000;stroke-width:17.28"/>
	<line x1="5152.95" y1="1780.57" x2="5217.30" y2="1773.15" stroke-linecap="round" style="stroke:#FF0000;stroke-width:17.28"/>
	<line x1="5217.30" y1="1773.15" x2="5281.40" y2="1766.22" stroke-linecap="round" style="stroke:#FF0000;stroke-width:17.28"/>
	<line x1="5281.40" y1="1766.22" x2="5345.51" y2="1759.53" stroke-linecap="round" style="stroke:#FF0000;stroke-width:17.28"/>
	<line x1="5345.51" y1="1759.53" x2="5538.06" y2="1741.71" stroke-linecap="round" style="stroke:#FF0000;stroke-width:17.28"/>
	<line x1="5538.06" y1="1741.71" x2="5602.16" y2="1736.51" stroke-linecap="round" style="stroke:#FF0000;stroke-width:17.28"/>
	<line x1="5602.16" y1="1736.51" x2="5666.27" y2="1731.56" stroke-linecap="round" style="stroke:#FF0000;stroke-width:17.28"/>
	<line x1="5666.27" y1="1731.56" x2="5858.82" y2="1718.20" stroke-linecap="round" style="stroke:#FF0000;stroke-width:17.28"/>
	<line x1="5858.82" y1="1718.20" x2="5922.92" y2="1714.24" stroke-linecap="round" style="stroke:#FF0000;stroke-width:17.28"/>
	<line x1="5922.92" y1="1714.24" x2="5987.27" y2="1710.53" stroke-linecap="round" style="stroke:#FF0000;stroke-width:17.28"/>
	<line x1="5987.27" y1="1710.53" x2="6051.38" y2="1707.06" stroke-linecap="round" style="stroke:#FF0000;stroke-width:17.28"/>
	<line x1="6051.38" y1="1707.06" x2="6243.93" y2="1697.66" stroke-linecap="round" style="stroke:#FF0000;stroke-width:17.28"/>
	<line x1="6243.93" y1="1697.66" x2="6308.03" y2="1694.93" stroke-linecap="round" style="stroke:#FF0000;stroke-width:17.28"/>
	<line x1="6308.03" y1="1694.93" x2="6372.14" y2="1692.46" stroke-linecap="round" style="stroke:#FF0000;stroke-width:17.28"/>
	<line x1="6372.14" y1="1692.46" x2="6436.24" y2="1689.98" stroke-linecap="round" style="stroke:#FF0000;stroke-width:17.28"/>
	<line x1="6436.24" y1="1689.98" x2="6692.90" y2="1681.32" stroke-linecap="round" style="stroke:#FF0000;stroke-width:17.28"/>
	<line x1="6692.90" y1="1681.32" x2="6757.24" y2="1679.34" stroke-linecap="round" style="stroke:#FF0000;stroke-width:17.28"/>
	<line x1="6757.24" y1="1679.34" x2="6885.45" y2="1675.87" stroke-linecap="round" style="stroke:#FF0000;stroke-width:17.28"/>
	<line x1="6885.45" y1="1675.87" x2="6949.55" y2="1674.39" stroke-linecap="round" style="stroke:#FF0000;stroke-width:17.28"/>
	<line x1="6949.55" y1="1674.39" x2="7078.01" y2="1671.42" stroke-linecap="round" style="stroke:#FF0000;stroke-width:17.28"/>
	<line x1="7078.01" y1="1671.42" x2="7206.21" y2="1668.94" stroke-linecap="round" style="stroke:#FF0000;stroke-width:17.28"/>
	<line x1="7206.21" y1="1668.94" x2="7334.66" y2="1666.47" stroke-linecap="round" style="stroke:#FF0000;stroke-width:17.28"/>
	<line x1="7334.66" y1="1666.47" x2="7462.87" y2="1664.49" stroke-linecap="round" style="stroke:#FF0000;stroke-width:17.28"/>
	<line x1="1048.16" y1="4978.37" x2="1048.16" y2="201.72" style="stroke:#000000;stroke-width:11.52"/>
	<line x1="1048.16" y1="4715.76" x2="968.22" y2="4715.76" style="stroke:#000000;stroke-width:11.52"/>
	<text x="928.13" y="4785.82" style="font-family:'Helvetica';font-size:199.98px;fill:#000000" text-anchor="end">0.00</text>
	<line x1="1048.16" y1="3838.35" x2="968.22" y2="3838.35" style="stroke:#000000;stroke-width:11.52"/>
	<text x="928.13" y="3908.41" style="font-family:'Helvetica';font-size:199.98px;fill:#000000" text-anchor="end">0.02</text>
	<line x1="1048.16" y1="2960.69" x2="968.22" y2="2960.69" style="stroke:#000000;stroke-width:11.52"/>
	<text x="928.13" y="3030.74" style="font-family:'Helvetica';font-size:199.98px;fill:#000000" text-anchor="end">0.04</text>
	<line x1="1048.16" y1="2083.27" x2="968.22" y2="2083.27" style="stroke:#000000;stroke-width:11.52"/>
	<text x="928.13" y="2153.33" style="font-family:'Helvetica';font-size:199.98px;fill:#000000" text-anchor="end">0.06</text>
	<line x1="1048.16" y1="1205.86" x2="968.22" y2="1205.86" style="stroke:#000000;stroke-width:11.52"/>
	<text x="928.13" y="1275.91" style="font-family:'Helvetica';font-size:199.98px;fill:#000000" text-anchor="end">0.08</text>
	<line x1="1048.16" y1="328.44" x2="968.22" y2="328.44" style="stroke:#000000;stroke-width:11.52"/>
	<text x="928.13" y="398.50" style="font-family:'Helvetica';font-size:199.98px;fill:#000000" text-anchor="end">0.10</text>
	<text x="381.42" y="2589.92" style="font-family:'Helvetica';font-size:199.98px;fill:#000000" transform="rotate(-90 381.42,2589.92)" text-anchor="middle">Difference in S(t)</text>
	<line x1="1048.16" y1="4978.37" x2="7718.04" y2="4978.37" style="stroke:#000000;stroke-width:11.52"/>
	<line x1="1174.88" y1="4978.37" x2="1174.88" y2="5058.32" style="stroke:#000000;stroke-width:11.52"/>
	<text x="1174.88" y="5238.28" style="font-family:'Helvetica';font-size:199.98px;fill:#000000" text-anchor="middle">0</text>
	<line x1="2458.17" y1="4978.37" x2="2458.17" y2="5058.32" style="stroke:#000000;stroke-width:11.52"/>
	<text x="2458.17" y="5238.28" style="font-family:'Helvetica';font-size:199.98px;fill:#000000" text-anchor="middle">2</text>
	<line x1="3741.46" y1="4978.37" x2="3741.46" y2="5058.32" style="stroke:#000000;stroke-width:11.52"/>
	<text x="3741.46" y="5238.28" style="font-family:'Helvetica';font-size:199.98px;fill:#000000" text-anchor="middle">4</text>
	<line x1="5024.74" y1="4978.37" x2="5024.74" y2="5058.32" style="stroke:#000000;stroke-width:11.52"/>
	<text x="5024.74" y="5238.28" style="font-family:'Helvetica';font-size:199.98px;fill:#000000" text-anchor="middle">6</text>
	<line x1="6308.03" y1="4978.37" x2="6308.03" y2="5058.32" style="stroke:#000000;stroke-width:11.52"/>
	<text x="6308.03" y="5238.28" style="font-family:'Helvetica';font-size:199.98px;fill:#000000" text-anchor="middle">8</text>
	<line x1="7591.32" y1="4978.37" x2="7591.32" y2="5058.32" style="stroke:#000000;stroke-width:11.52"/>
	<text x="7591.32" y="5238.28" style="font-family:'Helvetica';font-size:199.98px;fill:#000000" text-anchor="middle">10</text>
	<text x="4383.23" y="5458.31" style="font-family:'Helvetica';font-size:199.98px;fill:#000000" text-anchor="middle">Years since diagnosis</text>
</svg>
