<?xml version="1.0" encoding="UTF-8" standalone="no"?>
<!-- This is a Stata 15.1 generated SVG file (http://www.stata.com) -->

<svg version="1.1" width="5.50in" height="4.00in" viewBox="0 0 3960 2880" xmlns="http://www.w3.org/2000/svg" xmlns:xlink="http://www.w3.org/1999/xlink">
	<desc>Stata Graph - h</desc>
	<rect x="0" y="0" width="3960" height="2880" style="fill:#EAF2F3;stroke:none"/>
	<rect x="0.00" y="0.00" width="3959.88" height="2880.00" style="fill:#EAF2F3"/>
	<rect x="2.88" y="2.88" width="3954.12" height="2874.24" style="fill:none;stroke:#EAF2F3;stroke-width:5.76"/>
	<rect x="290.81" y="275.35" width="3568.21" height="1958.28" style="fill:#FFFFFF"/>
	<rect x="293.69" y="278.23" width="3562.45" height="1952.52" style="fill:none;stroke:#FFFFFF;stroke-width:5.76"/>
	<line x1="290.81" y1="2033.77" x2="3859.02" y2="2033.77" style="stroke:#EAF2F3;stroke-width:8.64"/>
	<line x1="290.81" y1="1610.04" x2="3859.02" y2="1610.04" style="stroke:#EAF2F3;stroke-width:8.64"/>
	<line x1="290.81" y1="1186.30" x2="3859.02" y2="1186.30" style="stroke:#EAF2F3;stroke-width:8.64"/>
	<line x1="290.81" y1="762.45" x2="3859.02" y2="762.45" style="stroke:#EAF2F3;stroke-width:8.64"/>
	<line x1="290.81" y1="338.71" x2="3859.02" y2="338.71" style="stroke:#EAF2F3;stroke-width:8.64"/>
	<line x1="368.40" y1="1315.13" x2="402.56" y2="1161.55" stroke-linecap="round" style="stroke:#1A476F;stroke-width:8.64"/>
	<line x1="402.56" y1="1161.55" x2="436.71" y2="1057.72" stroke-linecap="round" style="stroke:#1A476F;stroke-width:8.64"/>
	<line x1="436.71" y1="1057.72" x2="470.87" y2="970.35" stroke-linecap="round" style="stroke:#1A476F;stroke-width:8.64"/>
	<line x1="470.87" y1="970.35" x2="504.90" y2="883.97" stroke-linecap="round" style="stroke:#1A476F;stroke-width:8.64"/>
	<line x1="504.90" y1="883.97" x2="539.05" y2="800.07" stroke-linecap="round" style="stroke:#1A476F;stroke-width:8.64"/>
	<line x1="539.05" y1="800.07" x2="573.21" y2="713.81" stroke-linecap="round" style="stroke:#1A476F;stroke-width:8.64"/>
	<line x1="573.21" y1="713.81" x2="607.37" y2="637.21" stroke-linecap="round" style="stroke:#1A476F;stroke-width:8.64"/>
	<line x1="607.37" y1="637.21" x2="641.40" y2="573.10" stroke-linecap="round" style="stroke:#1A476F;stroke-width:8.64"/>
	<line x1="641.40" y1="573.10" x2="675.55" y2="522.37" stroke-linecap="round" style="stroke:#1A476F;stroke-width:8.64"/>
	<line x1="675.55" y1="522.37" x2="709.71" y2="476.58" stroke-linecap="round" style="stroke:#1A476F;stroke-width:8.64"/>
	<line x1="709.71" y1="476.58" x2="743.86" y2="447.12" stroke-linecap="round" style="stroke:#1A476F;stroke-width:8.64"/>
	<line x1="743.86" y1="447.12" x2="778.02" y2="422.00" stroke-linecap="round" style="stroke:#1A476F;stroke-width:8.64"/>
	<line x1="778.02" y1="422.00" x2="812.05" y2="404.68" stroke-linecap="round" style="stroke:#1A476F;stroke-width:8.64"/>
	<line x1="812.05" y1="404.68" x2="846.20" y2="392.92" stroke-linecap="round" style="stroke:#1A476F;stroke-width:8.64"/>
	<line x1="846.20" y1="392.92" x2="880.36" y2="381.41" stroke-linecap="round" style="stroke:#1A476F;stroke-width:8.64"/>
	<line x1="880.36" y1="381.41" x2="914.51" y2="384.63" stroke-linecap="round" style="stroke:#1A476F;stroke-width:8.64"/>
	<line x1="914.51" y1="384.63" x2="948.67" y2="400.72" stroke-linecap="round" style="stroke:#1A476F;stroke-width:8.64"/>
	<line x1="948.67" y1="400.72" x2="982.70" y2="419.40" stroke-linecap="round" style="stroke:#1A476F;stroke-width:8.64"/>
	<line x1="982.70" y1="419.40" x2="1016.85" y2="451.45" stroke-linecap="round" style="stroke:#1A476F;stroke-width:8.64"/>
	<line x1="1016.85" y1="451.45" x2="1051.01" y2="497.24" stroke-linecap="round" style="stroke:#1A476F;stroke-width:8.64"/>
	<line x1="1051.01" y1="497.24" x2="1085.16" y2="558.62" stroke-linecap="round" style="stroke:#1A476F;stroke-width:8.64"/>
	<line x1="1085.16" y1="558.62" x2="1119.32" y2="625.45" stroke-linecap="round" style="stroke:#1A476F;stroke-width:8.64"/>
	<line x1="1119.32" y1="625.45" x2="1153.35" y2="691.41" stroke-linecap="round" style="stroke:#1A476F;stroke-width:8.64"/>
	<line x1="1153.35" y1="691.41" x2="1187.51" y2="756.51" stroke-linecap="round" style="stroke:#1A476F;stroke-width:8.64"/>
	<line x1="1187.51" y1="756.51" x2="1221.66" y2="807.74" stroke-linecap="round" style="stroke:#1A476F;stroke-width:8.64"/>
	<line x1="1221.66" y1="807.74" x2="1255.82" y2="844.25" stroke-linecap="round" style="stroke:#1A476F;stroke-width:8.64"/>
	<line x1="1255.82" y1="844.25" x2="1289.85" y2="888.43" stroke-linecap="round" style="stroke:#1A476F;stroke-width:8.64"/>
	<line x1="1289.85" y1="888.43" x2="1324.00" y2="942.01" stroke-linecap="round" style="stroke:#1A476F;stroke-width:8.64"/>
	<line x1="1324.00" y1="942.01" x2="1358.16" y2="995.35" stroke-linecap="round" style="stroke:#1A476F;stroke-width:8.64"/>
	<line x1="1358.16" y1="995.35" x2="1392.31" y2="1050.18" stroke-linecap="round" style="stroke:#1A476F;stroke-width:8.64"/>
	<line x1="1392.31" y1="1050.18" x2="1426.47" y2="1102.89" stroke-linecap="round" style="stroke:#1A476F;stroke-width:8.64"/>
	<line x1="1426.47" y1="1102.89" x2="1460.50" y2="1150.42" stroke-linecap="round" style="stroke:#1A476F;stroke-width:8.64"/>
	<line x1="1460.50" y1="1150.42" x2="1494.65" y2="1181.11" stroke-linecap="round" style="stroke:#1A476F;stroke-width:8.64"/>
	<line x1="1494.65" y1="1181.11" x2="1528.81" y2="1200.41" stroke-linecap="round" style="stroke:#1A476F;stroke-width:8.64"/>
	<line x1="1528.81" y1="1200.41" x2="1562.96" y2="1217.00" stroke-linecap="round" style="stroke:#1A476F;stroke-width:8.64"/>
	<line x1="1562.96" y1="1217.00" x2="1597.12" y2="1241.13" stroke-linecap="round" style="stroke:#1A476F;stroke-width:8.64"/>
	<line x1="1597.12" y1="1241.13" x2="1631.15" y2="1269.22" stroke-linecap="round" style="stroke:#1A476F;stroke-width:8.64"/>
	<line x1="1631.15" y1="1269.22" x2="1665.30" y2="1300.90" stroke-linecap="round" style="stroke:#1A476F;stroke-width:8.64"/>
	<line x1="1665.30" y1="1300.90" x2="1699.46" y2="1328.75" stroke-linecap="round" style="stroke:#1A476F;stroke-width:8.64"/>
	<line x1="1699.46" y1="1328.75" x2="1733.61" y2="1357.70" stroke-linecap="round" style="stroke:#1A476F;stroke-width:8.64"/>
	<line x1="1733.61" y1="1357.70" x2="1767.77" y2="1391.12" stroke-linecap="round" style="stroke:#1A476F;stroke-width:8.64"/>
	<line x1="1767.77" y1="1391.12" x2="1801.80" y2="1425.40" stroke-linecap="round" style="stroke:#1A476F;stroke-width:8.64"/>
	<line x1="1801.80" y1="1425.40" x2="1835.95" y2="1465.74" stroke-linecap="round" style="stroke:#1A476F;stroke-width:8.64"/>
	<line x1="1835.95" y1="1465.74" x2="1870.11" y2="1491.48" stroke-linecap="round" style="stroke:#1A476F;stroke-width:8.64"/>
	<line x1="1870.11" y1="1491.48" x2="1904.27" y2="1502.50" stroke-linecap="round" style="stroke:#1A476F;stroke-width:8.64"/>
	<line x1="1904.27" y1="1502.50" x2="1938.30" y2="1511.16" stroke-linecap="round" style="stroke:#1A476F;stroke-width:8.64"/>
	<line x1="1938.30" y1="1511.16" x2="1972.45" y2="1517.72" stroke-linecap="round" style="stroke:#1A476F;stroke-width:8.64"/>
	<line x1="1972.45" y1="1517.72" x2="2006.61" y2="1531.83" stroke-linecap="round" style="stroke:#1A476F;stroke-width:8.64"/>
	<line x1="2006.61" y1="1531.83" x2="2040.76" y2="1553.48" stroke-linecap="round" style="stroke:#1A476F;stroke-width:8.64"/>
	<line x1="2040.76" y1="1553.48" x2="2074.92" y2="1584.42" stroke-linecap="round" style="stroke:#1A476F;stroke-width:8.64"/>
	<line x1="2074.92" y1="1584.42" x2="2108.95" y2="1624.89" stroke-linecap="round" style="stroke:#1A476F;stroke-width:8.64"/>
	<line x1="2108.95" y1="1624.89" x2="2143.10" y2="1662.76" stroke-linecap="round" style="stroke:#1A476F;stroke-width:8.64"/>
	<line x1="2143.10" y1="1662.76" x2="2177.26" y2="1689.36" stroke-linecap="round" style="stroke:#1A476F;stroke-width:8.64"/>
	<line x1="2177.26" y1="1689.36" x2="2211.41" y2="1707.43" stroke-linecap="round" style="stroke:#1A476F;stroke-width:8.64"/>
	<line x1="2211.41" y1="1707.43" x2="2245.57" y2="1722.53" stroke-linecap="round" style="stroke:#1A476F;stroke-width:8.64"/>
	<line x1="2245.57" y1="1722.53" x2="2279.60" y2="1740.72" stroke-linecap="round" style="stroke:#1A476F;stroke-width:8.64"/>
	<line x1="2279.60" y1="1740.72" x2="2313.75" y2="1764.98" stroke-linecap="round" style="stroke:#1A476F;stroke-width:8.64"/>
	<line x1="2313.75" y1="1764.98" x2="2347.91" y2="1794.43" stroke-linecap="round" style="stroke:#1A476F;stroke-width:8.64"/>
	<line x1="2347.91" y1="1794.43" x2="2382.06" y2="1818.32" stroke-linecap="round" style="stroke:#1A476F;stroke-width:8.64"/>
	<line x1="2382.06" y1="1818.32" x2="2416.22" y2="1841.71" stroke-linecap="round" style="stroke:#1A476F;stroke-width:8.64"/>
	<line x1="2416.22" y1="1841.71" x2="2450.25" y2="1858.41" stroke-linecap="round" style="stroke:#1A476F;stroke-width:8.64"/>
	<line x1="2450.25" y1="1858.41" x2="2484.41" y2="1870.66" stroke-linecap="round" style="stroke:#1A476F;stroke-width:8.64"/>
	<line x1="2484.41" y1="1870.66" x2="2518.56" y2="1885.14" stroke-linecap="round" style="stroke:#1A476F;stroke-width:8.64"/>
	<line x1="2518.56" y1="1885.14" x2="2552.72" y2="1893.81" stroke-linecap="round" style="stroke:#1A476F;stroke-width:8.64"/>
	<line x1="2552.72" y1="1893.81" x2="2586.75" y2="1896.78" stroke-linecap="round" style="stroke:#1A476F;stroke-width:8.64"/>
	<line x1="2586.75" y1="1896.78" x2="2620.90" y2="1901.73" stroke-linecap="round" style="stroke:#1A476F;stroke-width:8.64"/>
	<line x1="2620.90" y1="1901.73" x2="2655.06" y2="1910.76" stroke-linecap="round" style="stroke:#1A476F;stroke-width:8.64"/>
	<line x1="2655.06" y1="1910.76" x2="2689.21" y2="1920.66" stroke-linecap="round" style="stroke:#1A476F;stroke-width:8.64"/>
	<line x1="2689.21" y1="1920.66" x2="2723.37" y2="1932.05" stroke-linecap="round" style="stroke:#1A476F;stroke-width:8.64"/>
	<line x1="2723.37" y1="1932.05" x2="2757.40" y2="1950.48" stroke-linecap="round" style="stroke:#1A476F;stroke-width:8.64"/>
	<line x1="2757.40" y1="1950.48" x2="2791.55" y2="1972.14" stroke-linecap="round" style="stroke:#1A476F;stroke-width:8.64"/>
	<line x1="2791.55" y1="1972.14" x2="2825.71" y2="1997.63" stroke-linecap="round" style="stroke:#1A476F;stroke-width:8.64"/>
	<line x1="2825.71" y1="1997.63" x2="2859.86" y2="2020.65" stroke-linecap="round" style="stroke:#1A476F;stroke-width:8.64"/>
	<line x1="2859.86" y1="2020.65" x2="2894.02" y2="2034.88" stroke-linecap="round" style="stroke:#1A476F;stroke-width:8.64"/>
	<line x1="2894.02" y1="2034.88" x2="2928.05" y2="2043.80" stroke-linecap="round" style="stroke:#1A476F;stroke-width:8.64"/>
	<line x1="2928.05" y1="2043.80" x2="2962.20" y2="2052.33" stroke-linecap="round" style="stroke:#1A476F;stroke-width:8.64"/>
	<line x1="2962.20" y1="2052.33" x2="2996.36" y2="2066.81" stroke-linecap="round" style="stroke:#1A476F;stroke-width:8.64"/>
	<line x1="2996.36" y1="2066.81" x2="3030.51" y2="2077.21" stroke-linecap="round" style="stroke:#1A476F;stroke-width:8.64"/>
	<line x1="3030.51" y1="2077.21" x2="3064.67" y2="2087.11" stroke-linecap="round" style="stroke:#1A476F;stroke-width:8.64"/>
	<line x1="3064.67" y1="2087.11" x2="3098.70" y2="2093.67" stroke-linecap="round" style="stroke:#1A476F;stroke-width:8.64"/>
	<line x1="3098.70" y1="2093.67" x2="3132.86" y2="2085.62" stroke-linecap="round" style="stroke:#1A476F;stroke-width:8.64"/>
	<line x1="3132.86" y1="2085.62" x2="3167.01" y2="2067.43" stroke-linecap="round" style="stroke:#1A476F;stroke-width:8.64"/>
	<line x1="3167.01" y1="2067.43" x2="3201.16" y2="2052.33" stroke-linecap="round" style="stroke:#1A476F;stroke-width:8.64"/>
	<line x1="3201.16" y1="2052.33" x2="3235.20" y2="2041.32" stroke-linecap="round" style="stroke:#1A476F;stroke-width:8.64"/>
	<line x1="3235.20" y1="2041.32" x2="3269.35" y2="2034.64" stroke-linecap="round" style="stroke:#1A476F;stroke-width:8.64"/>
	<line x1="3269.35" y1="2034.64" x2="3303.51" y2="2039.59" stroke-linecap="round" style="stroke:#1A476F;stroke-width:8.64"/>
	<line x1="3303.51" y1="2039.59" x2="3337.66" y2="2054.93" stroke-linecap="round" style="stroke:#1A476F;stroke-width:8.64"/>
	<line x1="3337.66" y1="2054.93" x2="3371.82" y2="2067.18" stroke-linecap="round" style="stroke:#1A476F;stroke-width:8.64"/>
	<line x1="3371.82" y1="2067.18" x2="3405.85" y2="2081.54" stroke-linecap="round" style="stroke:#1A476F;stroke-width:8.64"/>
	<line x1="3405.85" y1="2081.54" x2="3440.00" y2="2090.33" stroke-linecap="round" style="stroke:#1A476F;stroke-width:8.64"/>
	<line x1="3440.00" y1="2090.33" x2="3474.16" y2="2092.31" stroke-linecap="round" style="stroke:#1A476F;stroke-width:8.64"/>
	<line x1="3474.16" y1="2092.31" x2="3508.31" y2="2091.56" stroke-linecap="round" style="stroke:#1A476F;stroke-width:8.64"/>
	<line x1="3508.31" y1="2091.56" x2="3542.47" y2="2088.59" stroke-linecap="round" style="stroke:#1A476F;stroke-width:8.64"/>
	<line x1="3542.47" y1="2088.59" x2="3576.50" y2="2079.68" stroke-linecap="round" style="stroke:#1A476F;stroke-width:8.64"/>
	<line x1="3576.50" y1="2079.68" x2="3610.65" y2="2063.97" stroke-linecap="round" style="stroke:#1A476F;stroke-width:8.64"/>
	<line x1="3610.65" y1="2063.97" x2="3644.81" y2="2043.80" stroke-linecap="round" style="stroke:#1A476F;stroke-width:8.64"/>
	<line x1="3644.81" y1="2043.80" x2="3678.96" y2="2012.73" stroke-linecap="round" style="stroke:#1A476F;stroke-width:8.64"/>
	<line x1="3678.96" y1="2012.73" x2="3713.12" y2="1963.97" stroke-linecap="round" style="stroke:#1A476F;stroke-width:8.64"/>
	<line x1="3713.12" y1="1963.97" x2="3747.15" y2="1875.24" stroke-linecap="round" style="stroke:#1A476F;stroke-width:8.64"/>
	<line x1="3747.15" y1="1875.24" x2="3781.30" y2="1729.96" stroke-linecap="round" style="stroke:#1A476F;stroke-width:8.64"/>
	<line x1="368.40" y1="1591.72" x2="402.56" y2="1564.00" stroke-linecap="round" style="stroke:#90353B;stroke-width:8.64"/>
	<line x1="402.56" y1="1564.00" x2="436.71" y2="1555.83" stroke-linecap="round" style="stroke:#90353B;stroke-width:8.64"/>
	<line x1="436.71" y1="1555.83" x2="470.87" y2="1544.94" stroke-linecap="round" style="stroke:#90353B;stroke-width:8.64"/>
	<line x1="470.87" y1="1544.94" x2="504.90" y2="1520.94" stroke-linecap="round" style="stroke:#90353B;stroke-width:8.64"/>
	<line x1="504.90" y1="1520.94" x2="539.05" y2="1490.12" stroke-linecap="round" style="stroke:#90353B;stroke-width:8.64"/>
	<line x1="539.05" y1="1490.12" x2="573.21" y2="1458.32" stroke-linecap="round" style="stroke:#90353B;stroke-width:8.64"/>
	<line x1="573.21" y1="1458.32" x2="607.37" y2="1428.99" stroke-linecap="round" style="stroke:#90353B;stroke-width:8.64"/>
	<line x1="607.37" y1="1428.99" x2="641.40" y2="1398.79" stroke-linecap="round" style="stroke:#90353B;stroke-width:8.64"/>
	<line x1="641.40" y1="1398.79" x2="675.55" y2="1372.06" stroke-linecap="round" style="stroke:#90353B;stroke-width:8.64"/>
	<line x1="675.55" y1="1372.06" x2="709.71" y2="1350.03" stroke-linecap="round" style="stroke:#90353B;stroke-width:8.64"/>
	<line x1="709.71" y1="1350.03" x2="743.86" y2="1339.02" stroke-linecap="round" style="stroke:#90353B;stroke-width:8.64"/>
	<line x1="743.86" y1="1339.02" x2="778.02" y2="1330.48" stroke-linecap="round" style="stroke:#90353B;stroke-width:8.64"/>
	<line x1="778.02" y1="1330.48" x2="812.05" y2="1322.56" stroke-linecap="round" style="stroke:#90353B;stroke-width:8.64"/>
	<line x1="812.05" y1="1322.56" x2="846.20" y2="1316.12" stroke-linecap="round" style="stroke:#90353B;stroke-width:8.64"/>
	<line x1="846.20" y1="1316.12" x2="880.36" y2="1306.96" stroke-linecap="round" style="stroke:#90353B;stroke-width:8.64"/>
	<line x1="880.36" y1="1306.96" x2="914.51" y2="1300.90" stroke-linecap="round" style="stroke:#90353B;stroke-width:8.64"/>
	<line x1="914.51" y1="1300.90" x2="948.67" y2="1303.38" stroke-linecap="round" style="stroke:#90353B;stroke-width:8.64"/>
	<line x1="948.67" y1="1303.38" x2="982.70" y2="1318.84" stroke-linecap="round" style="stroke:#90353B;stroke-width:8.64"/>
	<line x1="982.70" y1="1318.84" x2="1016.85" y2="1346.32" stroke-linecap="round" style="stroke:#90353B;stroke-width:8.64"/>
	<line x1="1016.85" y1="1346.32" x2="1051.01" y2="1379.36" stroke-linecap="round" style="stroke:#90353B;stroke-width:8.64"/>
	<line x1="1051.01" y1="1379.36" x2="1085.16" y2="1416.73" stroke-linecap="round" style="stroke:#90353B;stroke-width:8.64"/>
	<line x1="1085.16" y1="1416.73" x2="1119.32" y2="1458.44" stroke-linecap="round" style="stroke:#90353B;stroke-width:8.64"/>
	<line x1="1119.32" y1="1458.44" x2="1153.35" y2="1486.16" stroke-linecap="round" style="stroke:#90353B;stroke-width:8.64"/>
	<line x1="1153.35" y1="1486.16" x2="1187.51" y2="1509.92" stroke-linecap="round" style="stroke:#90353B;stroke-width:8.64"/>
	<line x1="1187.51" y1="1509.92" x2="1221.66" y2="1536.40" stroke-linecap="round" style="stroke:#90353B;stroke-width:8.64"/>
	<line x1="1221.66" y1="1536.40" x2="1255.82" y2="1562.15" stroke-linecap="round" style="stroke:#90353B;stroke-width:8.64"/>
	<line x1="1255.82" y1="1562.15" x2="1289.85" y2="1586.40" stroke-linecap="round" style="stroke:#90353B;stroke-width:8.64"/>
	<line x1="1289.85" y1="1586.40" x2="1324.00" y2="1606.94" stroke-linecap="round" style="stroke:#90353B;stroke-width:8.64"/>
	<line x1="1324.00" y1="1606.94" x2="1358.16" y2="1624.64" stroke-linecap="round" style="stroke:#90353B;stroke-width:8.64"/>
	<line x1="1358.16" y1="1624.64" x2="1392.31" y2="1645.43" stroke-linecap="round" style="stroke:#90353B;stroke-width:8.64"/>
	<line x1="1392.31" y1="1645.43" x2="1426.47" y2="1668.08" stroke-linecap="round" style="stroke:#90353B;stroke-width:8.64"/>
	<line x1="1426.47" y1="1668.08" x2="1460.50" y2="1690.73" stroke-linecap="round" style="stroke:#90353B;stroke-width:8.64"/>
	<line x1="1460.50" y1="1690.73" x2="1494.65" y2="1712.38" stroke-linecap="round" style="stroke:#90353B;stroke-width:8.64"/>
	<line x1="1494.65" y1="1712.38" x2="1528.81" y2="1727.11" stroke-linecap="round" style="stroke:#90353B;stroke-width:8.64"/>
	<line x1="1528.81" y1="1727.11" x2="1562.96" y2="1736.27" stroke-linecap="round" style="stroke:#90353B;stroke-width:8.64"/>
	<line x1="1562.96" y1="1736.27" x2="1597.12" y2="1746.41" stroke-linecap="round" style="stroke:#90353B;stroke-width:8.64"/>
	<line x1="1597.12" y1="1746.41" x2="1631.15" y2="1752.97" stroke-linecap="round" style="stroke:#90353B;stroke-width:8.64"/>
	<line x1="1631.15" y1="1752.97" x2="1665.30" y2="1767.45" stroke-linecap="round" style="stroke:#90353B;stroke-width:8.64"/>
	<line x1="1665.30" y1="1767.45" x2="1699.46" y2="1784.16" stroke-linecap="round" style="stroke:#90353B;stroke-width:8.64"/>
	<line x1="1699.46" y1="1784.16" x2="1733.61" y2="1803.09" stroke-linecap="round" style="stroke:#90353B;stroke-width:8.64"/>
	<line x1="1733.61" y1="1803.09" x2="1767.77" y2="1819.43" stroke-linecap="round" style="stroke:#90353B;stroke-width:8.64"/>
	<line x1="1767.77" y1="1819.43" x2="1801.80" y2="1835.89" stroke-linecap="round" style="stroke:#90353B;stroke-width:8.64"/>
	<line x1="1801.80" y1="1835.89" x2="1835.95" y2="1841.09" stroke-linecap="round" style="stroke:#90353B;stroke-width:8.64"/>
	<line x1="1835.95" y1="1841.09" x2="1870.11" y2="1844.80" stroke-linecap="round" style="stroke:#90353B;stroke-width:8.64"/>
	<line x1="1870.11" y1="1844.80" x2="1904.27" y2="1852.35" stroke-linecap="round" style="stroke:#90353B;stroke-width:8.64"/>
	<line x1="1904.27" y1="1852.35" x2="1938.30" y2="1862.99" stroke-linecap="round" style="stroke:#90353B;stroke-width:8.64"/>
	<line x1="1938.30" y1="1862.99" x2="1972.45" y2="1868.68" stroke-linecap="round" style="stroke:#90353B;stroke-width:8.64"/>
	<line x1="1972.45" y1="1868.68" x2="2006.61" y2="1874.62" stroke-linecap="round" style="stroke:#90353B;stroke-width:8.64"/>
	<line x1="2006.61" y1="1874.62" x2="2040.76" y2="1880.69" stroke-linecap="round" style="stroke:#90353B;stroke-width:8.64"/>
	<line x1="2040.76" y1="1880.69" x2="2074.92" y2="1895.66" stroke-linecap="round" style="stroke:#90353B;stroke-width:8.64"/>
	<line x1="2074.92" y1="1895.66" x2="2108.95" y2="1912.49" stroke-linecap="round" style="stroke:#90353B;stroke-width:8.64"/>
	<line x1="2108.95" y1="1912.49" x2="2143.10" y2="1924.00" stroke-linecap="round" style="stroke:#90353B;stroke-width:8.64"/>
	<line x1="2143.10" y1="1924.00" x2="2177.26" y2="1929.94" stroke-linecap="round" style="stroke:#90353B;stroke-width:8.64"/>
	<line x1="2177.26" y1="1929.94" x2="2211.41" y2="1933.90" stroke-linecap="round" style="stroke:#90353B;stroke-width:8.64"/>
	<line x1="2211.41" y1="1933.90" x2="2245.57" y2="1940.83" stroke-linecap="round" style="stroke:#90353B;stroke-width:8.64"/>
	<line x1="2245.57" y1="1940.83" x2="2279.60" y2="1951.60" stroke-linecap="round" style="stroke:#90353B;stroke-width:8.64"/>
	<line x1="2279.60" y1="1951.60" x2="2313.75" y2="1960.88" stroke-linecap="round" style="stroke:#90353B;stroke-width:8.64"/>
	<line x1="2313.75" y1="1960.88" x2="2347.91" y2="1973.13" stroke-linecap="round" style="stroke:#90353B;stroke-width:8.64"/>
	<line x1="2347.91" y1="1973.13" x2="2382.06" y2="1988.97" stroke-linecap="round" style="stroke:#90353B;stroke-width:8.64"/>
	<line x1="2382.06" y1="1988.97" x2="2416.22" y2="2009.52" stroke-linecap="round" style="stroke:#90353B;stroke-width:8.64"/>
	<line x1="2416.22" y1="2009.52" x2="2450.25" y2="2029.44" stroke-linecap="round" style="stroke:#90353B;stroke-width:8.64"/>
	<line x1="2450.25" y1="2029.44" x2="2484.41" y2="2047.14" stroke-linecap="round" style="stroke:#90353B;stroke-width:8.64"/>
	<line x1="2484.41" y1="2047.14" x2="2518.56" y2="2056.67" stroke-linecap="round" style="stroke:#90353B;stroke-width:8.64"/>
	<line x1="2518.56" y1="2056.67" x2="2552.72" y2="2067.06" stroke-linecap="round" style="stroke:#90353B;stroke-width:8.64"/>
	<line x1="2552.72" y1="2067.06" x2="2586.75" y2="2078.45" stroke-linecap="round" style="stroke:#90353B;stroke-width:8.64"/>
	<line x1="2586.75" y1="2078.45" x2="2620.90" y2="2089.09" stroke-linecap="round" style="stroke:#90353B;stroke-width:8.64"/>
	<line x1="2620.90" y1="2089.09" x2="2655.06" y2="2097.26" stroke-linecap="round" style="stroke:#90353B;stroke-width:8.64"/>
	<line x1="2655.06" y1="2097.26" x2="2689.21" y2="2104.56" stroke-linecap="round" style="stroke:#90353B;stroke-width:8.64"/>
	<line x1="2689.21" y1="2104.56" x2="2723.37" y2="2112.48" stroke-linecap="round" style="stroke:#90353B;stroke-width:8.64"/>
	<line x1="2723.37" y1="2112.48" x2="2757.40" y2="2124.61" stroke-linecap="round" style="stroke:#90353B;stroke-width:8.64"/>
	<line x1="2757.40" y1="2124.61" x2="2791.55" y2="2136.98" stroke-linecap="round" style="stroke:#90353B;stroke-width:8.64"/>
	<line x1="2791.55" y1="2136.98" x2="2825.71" y2="2144.41" stroke-linecap="round" style="stroke:#90353B;stroke-width:8.64"/>
	<line x1="2825.71" y1="2144.41" x2="2859.86" y2="2146.88" stroke-linecap="round" style="stroke:#90353B;stroke-width:8.64"/>
	<line x1="2859.86" y1="2146.88" x2="2894.02" y2="2143.66" stroke-linecap="round" style="stroke:#90353B;stroke-width:8.64"/>
	<line x1="2894.02" y1="2143.66" x2="2928.05" y2="2143.42" stroke-linecap="round" style="stroke:#90353B;stroke-width:8.64"/>
	<line x1="2928.05" y1="2143.42" x2="2962.20" y2="2144.04" stroke-linecap="round" style="stroke:#90353B;stroke-width:8.64"/>
	<line x1="2962.20" y1="2144.04" x2="2996.36" y2="2142.43" stroke-linecap="round" style="stroke:#90353B;stroke-width:8.64"/>
	<line x1="2996.36" y1="2142.43" x2="3030.51" y2="2141.31" stroke-linecap="round" style="stroke:#90353B;stroke-width:8.64"/>
	<line x1="3030.51" y1="2141.31" x2="3064.67" y2="2139.09" stroke-linecap="round" style="stroke:#90353B;stroke-width:8.64"/>
	<line x1="3064.67" y1="2139.09" x2="3098.70" y2="2132.40" stroke-linecap="round" style="stroke:#90353B;stroke-width:8.64"/>
	<line x1="3098.70" y1="2132.40" x2="3132.86" y2="2124.11" stroke-linecap="round" style="stroke:#90353B;stroke-width:8.64"/>
	<line x1="3132.86" y1="2124.11" x2="3167.01" y2="2117.80" stroke-linecap="round" style="stroke:#90353B;stroke-width:8.64"/>
	<line x1="3167.01" y1="2117.80" x2="3201.16" y2="2114.58" stroke-linecap="round" style="stroke:#90353B;stroke-width:8.64"/>
	<line x1="3201.16" y1="2114.58" x2="3235.20" y2="2115.82" stroke-linecap="round" style="stroke:#90353B;stroke-width:8.64"/>
	<line x1="3235.20" y1="2115.82" x2="3269.35" y2="2117.92" stroke-linecap="round" style="stroke:#90353B;stroke-width:8.64"/>
	<line x1="3269.35" y1="2117.92" x2="3303.51" y2="2123.62" stroke-linecap="round" style="stroke:#90353B;stroke-width:8.64"/>
	<line x1="3303.51" y1="2123.62" x2="3337.66" y2="2132.77" stroke-linecap="round" style="stroke:#90353B;stroke-width:8.64"/>
	<line x1="3337.66" y1="2132.77" x2="3371.82" y2="2144.04" stroke-linecap="round" style="stroke:#90353B;stroke-width:8.64"/>
	<line x1="3371.82" y1="2144.04" x2="3405.85" y2="2152.57" stroke-linecap="round" style="stroke:#90353B;stroke-width:8.64"/>
	<line x1="3405.85" y1="2152.57" x2="3440.00" y2="2155.79" stroke-linecap="round" style="stroke:#90353B;stroke-width:8.64"/>
	<line x1="3440.00" y1="2155.79" x2="3474.16" y2="2158.51" stroke-linecap="round" style="stroke:#90353B;stroke-width:8.64"/>
	<line x1="3474.16" y1="2158.51" x2="3508.31" y2="2163.09" stroke-linecap="round" style="stroke:#90353B;stroke-width:8.64"/>
	<line x1="3508.31" y1="2163.09" x2="3542.47" y2="2169.53" stroke-linecap="round" style="stroke:#90353B;stroke-width:8.64"/>
	<line x1="3542.47" y1="2169.53" x2="3576.50" y2="2170.40" stroke-linecap="round" style="stroke:#90353B;stroke-width:8.64"/>
	<line x1="3576.50" y1="2170.40" x2="3610.65" y2="2169.65" stroke-linecap="round" style="stroke:#90353B;stroke-width:8.64"/>
	<line x1="3610.65" y1="2169.65" x2="3644.81" y2="2161.49" stroke-linecap="round" style="stroke:#90353B;stroke-width:8.64"/>
	<line x1="3644.81" y1="2161.49" x2="3678.96" y2="2141.19" stroke-linecap="round" style="stroke:#90353B;stroke-width:8.64"/>
	<line x1="3678.96" y1="2141.19" x2="3713.12" y2="2093.92" stroke-linecap="round" style="stroke:#90353B;stroke-width:8.64"/>
	<line x1="3713.12" y1="2093.92" x2="3747.15" y2="1997.63" stroke-linecap="round" style="stroke:#90353B;stroke-width:8.64"/>
	<line x1="290.81" y1="2233.63" x2="290.81" y2="275.35" style="stroke:#000000;stroke-width:5.76"/>
	<line x1="290.81" y1="2033.77" x2="250.84" y2="2033.77" style="stroke:#000000;stroke-width:5.76"/>
	<text x="200.73" y="2033.77" style="font-family:'Helvetica';font-size:99.99px;fill:#000000" transform="rotate(-90 200.73,2033.77)" text-anchor="middle">.02</text>
	<line x1="290.81" y1="1610.04" x2="250.84" y2="1610.04" style="stroke:#000000;stroke-width:5.76"/>
	<text x="200.73" y="1610.04" style="font-family:'Helvetica';font-size:99.99px;fill:#000000" transform="rotate(-90 200.73,1610.04)" text-anchor="middle">.04</text>
	<line x1="290.81" y1="1186.30" x2="250.84" y2="1186.30" style="stroke:#000000;stroke-width:5.76"/>
	<text x="200.73" y="1186.30" style="font-family:'Helvetica';font-size:99.99px;fill:#000000" transform="rotate(-90 200.73,1186.30)" text-anchor="middle">.06</text>
	<line x1="290.81" y1="762.45" x2="250.84" y2="762.45" style="stroke:#000000;stroke-width:5.76"/>
	<text x="200.73" y="762.45" style="font-family:'Helvetica';font-size:99.99px;fill:#000000" transform="rotate(-90 200.73,762.45)" text-anchor="middle">.08</text>
	<line x1="290.81" y1="338.71" x2="250.84" y2="338.71" style="stroke:#000000;stroke-width:5.76"/>
	<text x="200.73" y="338.71" style="font-family:'Helvetica';font-size:99.99px;fill:#000000" transform="rotate(-90 200.73,338.71)" text-anchor="middle">.1</text>
	<line x1="290.81" y1="2233.63" x2="3859.02" y2="2233.63" style="stroke:#000000;stroke-width:5.76"/>
	<line x1="354.17" y1="2233.63" x2="354.17" y2="2273.73" style="stroke:#000000;stroke-width:5.76"/>
	<text x="354.17" y="2363.59" style="font-family:'Helvetica';font-size:99.99px;fill:#000000" text-anchor="middle">0</text>
	<line x1="1042.47" y1="2233.63" x2="1042.47" y2="2273.73" style="stroke:#000000;stroke-width:5.76"/>
	<text x="1042.47" y="2363.59" style="font-family:'Helvetica';font-size:99.99px;fill:#000000" text-anchor="middle">2</text>
	<line x1="1730.77" y1="2233.63" x2="1730.77" y2="2273.73" style="stroke:#000000;stroke-width:5.76"/>
	<text x="1730.77" y="2363.59" style="font-family:'Helvetica';font-size:99.99px;fill:#000000" text-anchor="middle">4</text>
	<line x1="2419.07" y1="2233.63" x2="2419.07" y2="2273.73" style="stroke:#000000;stroke-width:5.76"/>
	<text x="2419.07" y="2363.59" style="font-family:'Helvetica';font-size:99.99px;fill:#000000" text-anchor="middle">6</text>
	<line x1="3107.36" y1="2233.63" x2="3107.36" y2="2273.73" style="stroke:#000000;stroke-width:5.76"/>
	<text x="3107.36" y="2363.59" style="font-family:'Helvetica';font-size:99.99px;fill:#000000" text-anchor="middle">8</text>
	<line x1="3795.66" y1="2233.63" x2="3795.66" y2="2273.73" style="stroke:#000000;stroke-width:5.76"/>
	<text x="3795.66" y="2363.59" style="font-family:'Helvetica';font-size:99.99px;fill:#000000" text-anchor="middle">10</text>
	<text x="2074.92" y="2473.60" style="font-family:'Helvetica';font-size:99.99px;fill:#000000" text-anchor="middle">analysis time</text>
	<rect x="964.51" y="2558.24" width="2220.94" height="186.37" style="fill:#FFFFFF"/>
	<rect x="967.39" y="2561.12" width="2215.18" height="180.61" style="fill:none;stroke:#000000;stroke-width:5.76"/>
	<line x1="1007.70" y1="2651.43" x2="1382.04" y2="2651.43" style="stroke:#1A476F;stroke-width:8.64"/>
	<line x1="2080.73" y1="2651.43" x2="2455.20" y2="2651.43" style="stroke:#90353B;stroke-width:8.64"/>
	<text x="1442.06" y="2686.46" style="font-family:'Helvetica';font-size:99.99px;fill:#000000">sex = Male</text>
	<text x="2515.09" y="2686.46" style="font-family:'Helvetica';font-size:99.99px;fill:#000000">sex = Female</text>
	<text x="2074.92" y="215.98" style="font-family:'Helvetica';font-size:139.96px;fill:#1E2D53" text-anchor="middle">Smoothed hazard estimates</text>
</svg>
